<?xml version="1.0" standalone="no"?>
 <!DOCTYPE svg PUBLIC "-//W3C//DTD SVG 1.1//EN" 
 "http://www.w3.org/Graphics/SVG/1.1/DTD/svg11.dtd"> 
<svg
  xmlns:svg="http://www.w3.org/2000/svg"
  xmlns="http://www.w3.org/2000/svg"
  xmlns:xlink="http://www.w3.org/1999/xlink"
  version="1.1"
  width="41.998900cm" height="29.700220cm" viewBox="0 0 165350 116930">
<title>SVG Picture created as ki75rt_PlateSwitch-Edge_Cuts.svg date 2020/07/06 08:42:20 </title>
  <desc>Picture generated by PCBNEW </desc>
<g style="fill:#000000; fill-opacity:1;stroke:#000000; stroke-opacity:1;
stroke-linecap:round; stroke-linejoin:round;"
 transform="translate(0 0) scale(1 1)">
</g>
<g style="fill:#000000; fill-opacity:0.0; 
stroke:#000000; stroke-width:-0.000393701; stroke-opacity:1; 
stroke-linecap:round; stroke-linejoin:round;">
</g>
<g style="fill:#000000; fill-opacity:0.0; 
stroke:#000000; stroke-width:59.0551; stroke-opacity:1; 
stroke-linecap:round; stroke-linejoin:round;">
<path d="M123437 10937
L11562 10937
" />
<path d="M124375 48125
L124375 11875
" />
<path d="M11562 49062
L123437 49062
" />
<path d="M10625 11875
L10625 48125
" />
<path d="M10625 48125 A937.5 937.5 0.0 0 0 11562.5 49062.5" />
<path d="M123438 49062.5 A937.5 937.5 0.0 0 0 124375 48125" />
<path d="M124375 11875 A937.5 937.5 0.0 0 0 123438 10937.5" />
<path d="M11562.5 10937.5 A937.5 937.5 0.0 0 0 10625 11875" />
</g>
<g style="fill:#000000; fill-opacity:0.0; 
stroke:#000000; stroke-width:39.3701; stroke-opacity:1; 
stroke-linecap:round; stroke-linejoin:round;">
<path d="M25344 42244
L24104 42244
" />
<path d="M24104 42244
L24104 41850
" />
<path d="M24104 41850
L22765 41850
" />
<path d="M22765 41850
L22765 42244
" />
<path d="M22765 42244
L14734 42244
" />
<path d="M14734 42244
L14734 41850
" />
<path d="M14734 41850
L13395 41850
" />
<path d="M13395 41850
L13395 42244
" />
<path d="M13395 42244
L12155 42244
" />
<path d="M12155 42244
L12155 42480
" />
<path d="M12155 42480
L11840 42480
" />
<path d="M11840 42480
L11840 47519
" />
<path d="M11840 47519
L12155 47519
" />
<path d="M12155 47519
L12155 47755
" />
<path d="M12155 47755
L25344 47755
" />
<path d="M25344 47755
L25344 47519
" />
<path d="M25344 47519
L25659 47519
" />
<path d="M25659 47519
L25659 42480
" />
<path d="M25659 42480
L25344 42480
" />
<path d="M25344 42480
L25344 42244
" />
<path d="M62844 42244
L61604 42244
" />
<path d="M61604 42244
L61604 41850
" />
<path d="M61604 41850
L60265 41850
" />
<path d="M60265 41850
L60265 42244
" />
<path d="M60265 42244
L52234 42244
" />
<path d="M52234 42244
L52234 41850
" />
<path d="M52234 41850
L50895 41850
" />
<path d="M50895 41850
L50895 42244
" />
<path d="M50895 42244
L49655 42244
" />
<path d="M49655 42244
L49655 42480
" />
<path d="M49655 42480
L49340 42480
" />
<path d="M49340 42480
L49340 47519
" />
<path d="M49340 47519
L49655 47519
" />
<path d="M49655 47519
L49655 47755
" />
<path d="M49655 47755
L62844 47755
" />
<path d="M62844 47755
L62844 47519
" />
<path d="M62844 47519
L63159 47519
" />
<path d="M63159 47519
L63159 42480
" />
<path d="M63159 42480
L62844 42480
" />
<path d="M62844 42480
L62844 42244
" />
<path d="M40344 42244
L39104 42244
" />
<path d="M39104 42244
L39104 41850
" />
<path d="M39104 41850
L37765 41850
" />
<path d="M37765 41850
L37765 42244
" />
<path d="M37765 42244
L29734 42244
" />
<path d="M29734 42244
L29734 41850
" />
<path d="M29734 41850
L28395 41850
" />
<path d="M28395 41850
L28395 42244
" />
<path d="M28395 42244
L27155 42244
" />
<path d="M27155 42244
L27155 42480
" />
<path d="M27155 42480
L26840 42480
" />
<path d="M26840 42480
L26840 47519
" />
<path d="M26840 47519
L27155 47519
" />
<path d="M27155 47519
L27155 47755
" />
<path d="M27155 47755
L40344 47755
" />
<path d="M40344 47755
L40344 47519
" />
<path d="M40344 47519
L40659 47519
" />
<path d="M40659 47519
L40659 42480
" />
<path d="M40659 42480
L40344 42480
" />
<path d="M40344 42480
L40344 42244
" />
<path d="M115344 42244
L114104 42244
" />
<path d="M114104 42244
L114104 41850
" />
<path d="M114104 41850
L112765 41850
" />
<path d="M112765 41850
L112765 42244
" />
<path d="M112765 42244
L104734 42244
" />
<path d="M104734 42244
L104734 41850
" />
<path d="M104734 41850
L103395 41850
" />
<path d="M103395 41850
L103395 42244
" />
<path d="M103395 42244
L102155 42244
" />
<path d="M102155 42244
L102155 42480
" />
<path d="M102155 42480
L101840 42480
" />
<path d="M101840 42480
L101840 47519
" />
<path d="M101840 47519
L102155 47519
" />
<path d="M102155 47519
L102155 47755
" />
<path d="M102155 47755
L115344 47755
" />
<path d="M115344 47755
L115344 47519
" />
<path d="M115344 47519
L115659 47519
" />
<path d="M115659 47519
L115659 42480
" />
<path d="M115659 42480
L115344 42480
" />
<path d="M115344 42480
L115344 42244
" />
<path d="M85344 42244
L84104 42244
" />
<path d="M84104 42244
L84104 41850
" />
<path d="M84104 41850
L82765 41850
" />
<path d="M82765 41850
L82765 42244
" />
<path d="M82765 42244
L74734 42244
" />
<path d="M74734 42244
L74734 41850
" />
<path d="M74734 41850
L73395 41850
" />
<path d="M73395 41850
L73395 42244
" />
<path d="M73395 42244
L72155 42244
" />
<path d="M72155 42244
L72155 42480
" />
<path d="M72155 42480
L71840 42480
" />
<path d="M71840 42480
L71840 47519
" />
<path d="M71840 47519
L72155 47519
" />
<path d="M72155 47519
L72155 47755
" />
<path d="M72155 47755
L85344 47755
" />
<path d="M85344 47755
L85344 47519
" />
<path d="M85344 47519
L85659 47519
" />
<path d="M85659 47519
L85659 42480
" />
<path d="M85659 42480
L85344 42480
" />
<path d="M85344 42480
L85344 42244
" />
<path d="M62755 17755
L62755 17519
" />
<path d="M62755 17519
L63070 17519
" />
<path d="M63070 17519
L63070 12480
" />
<path d="M63070 12480
L62755 12480
" />
<path d="M62755 12480
L62755 12244
" />
<path d="M62755 12244
L57244 12244
" />
<path d="M57244 12244
L57244 12480
" />
<path d="M57244 12480
L56929 12480
" />
<path d="M56929 12480
L56929 17519
" />
<path d="M56929 17519
L57244 17519
" />
<path d="M57244 17519
L57244 17755
" />
<path d="M57244 17755
L62755 17755
" />
<path d="M32755 17755
L32755 17519
" />
<path d="M32755 17519
L33070 17519
" />
<path d="M33070 17519
L33070 12480
" />
<path d="M33070 12480
L32755 12480
" />
<path d="M32755 12480
L32755 12244
" />
<path d="M32755 12244
L27244 12244
" />
<path d="M27244 12244
L27244 12480
" />
<path d="M27244 12480
L26929 12480
" />
<path d="M26929 12480
L26929 17519
" />
<path d="M26929 17519
L27244 17519
" />
<path d="M27244 17519
L27244 17755
" />
<path d="M27244 17755
L32755 17755
" />
<path d="M17755 17755
L17755 17519
" />
<path d="M17755 17519
L18070 17519
" />
<path d="M18070 17519
L18070 12480
" />
<path d="M18070 12480
L17755 12480
" />
<path d="M17755 12480
L17755 12244
" />
<path d="M17755 12244
L12244 12244
" />
<path d="M12244 12244
L12244 12480
" />
<path d="M12244 12480
L11929 12480
" />
<path d="M11929 12480
L11929 17519
" />
<path d="M11929 17519
L12244 17519
" />
<path d="M12244 17519
L12244 17755
" />
<path d="M12244 17755
L17755 17755
" />
<path d="M47755 17755
L47755 17519
" />
<path d="M47755 17519
L48070 17519
" />
<path d="M48070 17519
L48070 12480
" />
<path d="M48070 12480
L47755 12480
" />
<path d="M47755 12480
L47755 12244
" />
<path d="M47755 12244
L42244 12244
" />
<path d="M42244 12244
L42244 12480
" />
<path d="M42244 12480
L41929 12480
" />
<path d="M41929 12480
L41929 17519
" />
<path d="M41929 17519
L42244 17519
" />
<path d="M42244 17519
L42244 17755
" />
<path d="M42244 17755
L47755 17755
" />
<path d="M70255 17755
L70255 17519
" />
<path d="M70255 17519
L70570 17519
" />
<path d="M70570 17519
L70570 12480
" />
<path d="M70570 12480
L70255 12480
" />
<path d="M70255 12480
L70255 12244
" />
<path d="M70255 12244
L64744 12244
" />
<path d="M64744 12244
L64744 12480
" />
<path d="M64744 12480
L64429 12480
" />
<path d="M64429 12480
L64429 17519
" />
<path d="M64429 17519
L64744 17519
" />
<path d="M64744 17519
L64744 17755
" />
<path d="M64744 17755
L70255 17755
" />
<path d="M77755 17755
L77755 17519
" />
<path d="M77755 17519
L78070 17519
" />
<path d="M78070 17519
L78070 12480
" />
<path d="M78070 12480
L77755 12480
" />
<path d="M77755 12480
L77755 12244
" />
<path d="M77755 12244
L72244 12244
" />
<path d="M72244 12244
L72244 12480
" />
<path d="M72244 12480
L71929 12480
" />
<path d="M71929 12480
L71929 17519
" />
<path d="M71929 17519
L72244 17519
" />
<path d="M72244 17519
L72244 17755
" />
<path d="M72244 17755
L77755 17755
" />
<path d="M85255 17755
L85255 17519
" />
<path d="M85255 17519
L85570 17519
" />
<path d="M85570 17519
L85570 12480
" />
<path d="M85570 12480
L85255 12480
" />
<path d="M85255 12480
L85255 12244
" />
<path d="M85255 12244
L79744 12244
" />
<path d="M79744 12244
L79744 12480
" />
<path d="M79744 12480
L79429 12480
" />
<path d="M79429 12480
L79429 17519
" />
<path d="M79429 17519
L79744 17519
" />
<path d="M79744 17519
L79744 17755
" />
<path d="M79744 17755
L85255 17755
" />
<path d="M92755 17755
L92755 17519
" />
<path d="M92755 17519
L93070 17519
" />
<path d="M93070 17519
L93070 12480
" />
<path d="M93070 12480
L92755 12480
" />
<path d="M92755 12480
L92755 12244
" />
<path d="M92755 12244
L87244 12244
" />
<path d="M87244 12244
L87244 12480
" />
<path d="M87244 12480
L86929 12480
" />
<path d="M86929 12480
L86929 17519
" />
<path d="M86929 17519
L87244 17519
" />
<path d="M87244 17519
L87244 17755
" />
<path d="M87244 17755
L92755 17755
" />
<path d="M122755 17755
L122755 17519
" />
<path d="M122755 17519
L123070 17519
" />
<path d="M123070 17519
L123070 12480
" />
<path d="M123070 12480
L122755 12480
" />
<path d="M122755 12480
L122755 12244
" />
<path d="M122755 12244
L117244 12244
" />
<path d="M117244 12244
L117244 12480
" />
<path d="M117244 12480
L116929 12480
" />
<path d="M116929 12480
L116929 17519
" />
<path d="M116929 17519
L117244 17519
" />
<path d="M117244 17519
L117244 17755
" />
<path d="M117244 17755
L122755 17755
" />
<path d="M115255 17755
L115255 17519
" />
<path d="M115255 17519
L115570 17519
" />
<path d="M115570 17519
L115570 12480
" />
<path d="M115570 12480
L115255 12480
" />
<path d="M115255 12480
L115255 12244
" />
<path d="M115255 12244
L109744 12244
" />
<path d="M109744 12244
L109744 12480
" />
<path d="M109744 12480
L109429 12480
" />
<path d="M109429 12480
L109429 17519
" />
<path d="M109429 17519
L109744 17519
" />
<path d="M109744 17519
L109744 17755
" />
<path d="M109744 17755
L115255 17755
" />
<path d="M107755 17755
L107755 17519
" />
<path d="M107755 17519
L108070 17519
" />
<path d="M108070 17519
L108070 12480
" />
<path d="M108070 12480
L107755 12480
" />
<path d="M107755 12480
L107755 12244
" />
<path d="M107755 12244
L102244 12244
" />
<path d="M102244 12244
L102244 12480
" />
<path d="M102244 12480
L101929 12480
" />
<path d="M101929 12480
L101929 17519
" />
<path d="M101929 17519
L102244 17519
" />
<path d="M102244 17519
L102244 17755
" />
<path d="M102244 17755
L107755 17755
" />
<path d="M100255 17755
L100255 17519
" />
<path d="M100255 17519
L100570 17519
" />
<path d="M100570 17519
L100570 12480
" />
<path d="M100570 12480
L100255 12480
" />
<path d="M100255 12480
L100255 12244
" />
<path d="M100255 12244
L94744 12244
" />
<path d="M94744 12244
L94744 12480
" />
<path d="M94744 12480
L94429 12480
" />
<path d="M94429 12480
L94429 17519
" />
<path d="M94429 17519
L94744 17519
" />
<path d="M94744 17519
L94744 17755
" />
<path d="M94744 17755
L100255 17755
" />
<path d="M55255 17755
L55255 17519
" />
<path d="M55255 17519
L55570 17519
" />
<path d="M55570 17519
L55570 12480
" />
<path d="M55570 12480
L55255 12480
" />
<path d="M55255 12480
L55255 12244
" />
<path d="M55255 12244
L49744 12244
" />
<path d="M49744 12244
L49744 12480
" />
<path d="M49744 12480
L49429 12480
" />
<path d="M49429 12480
L49429 17519
" />
<path d="M49429 17519
L49744 17519
" />
<path d="M49744 17519
L49744 17755
" />
<path d="M49744 17755
L55255 17755
" />
<path d="M40255 17755
L40255 17519
" />
<path d="M40255 17519
L40570 17519
" />
<path d="M40570 17519
L40570 12480
" />
<path d="M40570 12480
L40255 12480
" />
<path d="M40255 12480
L40255 12244
" />
<path d="M40255 12244
L34744 12244
" />
<path d="M34744 12244
L34744 12480
" />
<path d="M34744 12480
L34429 12480
" />
<path d="M34429 12480
L34429 17519
" />
<path d="M34429 17519
L34744 17519
" />
<path d="M34744 17519
L34744 17755
" />
<path d="M34744 17755
L40255 17755
" />
<path d="M25255 17755
L25255 17519
" />
<path d="M25255 17519
L25570 17519
" />
<path d="M25570 17519
L25570 12480
" />
<path d="M25570 12480
L25255 12480
" />
<path d="M25255 12480
L25255 12244
" />
<path d="M25255 12244
L19744 12244
" />
<path d="M19744 12244
L19744 12480
" />
<path d="M19744 12480
L19429 12480
" />
<path d="M19429 12480
L19429 17519
" />
<path d="M19429 17519
L19744 17519
" />
<path d="M19744 17519
L19744 17755
" />
<path d="M19744 17755
L25255 17755
" />
<path d="M77755 25255
L77755 25019
" />
<path d="M77755 25019
L78070 25019
" />
<path d="M78070 25019
L78070 19980
" />
<path d="M78070 19980
L77755 19980
" />
<path d="M77755 19980
L77755 19744
" />
<path d="M77755 19744
L72244 19744
" />
<path d="M72244 19744
L72244 19980
" />
<path d="M72244 19980
L71929 19980
" />
<path d="M71929 19980
L71929 25019
" />
<path d="M71929 25019
L72244 25019
" />
<path d="M72244 25019
L72244 25255
" />
<path d="M72244 25255
L77755 25255
" />
<path d="M55255 25255
L55255 25019
" />
<path d="M55255 25019
L55570 25019
" />
<path d="M55570 25019
L55570 19980
" />
<path d="M55570 19980
L55255 19980
" />
<path d="M55255 19980
L55255 19744
" />
<path d="M55255 19744
L49744 19744
" />
<path d="M49744 19744
L49744 19980
" />
<path d="M49744 19980
L49429 19980
" />
<path d="M49429 19980
L49429 25019
" />
<path d="M49429 25019
L49744 25019
" />
<path d="M49744 25019
L49744 25255
" />
<path d="M49744 25255
L55255 25255
" />
<path d="M62755 25255
L62755 25019
" />
<path d="M62755 25019
L63070 25019
" />
<path d="M63070 25019
L63070 19980
" />
<path d="M63070 19980
L62755 19980
" />
<path d="M62755 19980
L62755 19744
" />
<path d="M62755 19744
L57244 19744
" />
<path d="M57244 19744
L57244 19980
" />
<path d="M57244 19980
L56929 19980
" />
<path d="M56929 19980
L56929 25019
" />
<path d="M56929 25019
L57244 25019
" />
<path d="M57244 25019
L57244 25255
" />
<path d="M57244 25255
L62755 25255
" />
<path d="M70255 25255
L70255 25019
" />
<path d="M70255 25019
L70570 25019
" />
<path d="M70570 25019
L70570 19980
" />
<path d="M70570 19980
L70255 19980
" />
<path d="M70255 19980
L70255 19744
" />
<path d="M70255 19744
L64744 19744
" />
<path d="M64744 19744
L64744 19980
" />
<path d="M64744 19980
L64429 19980
" />
<path d="M64429 19980
L64429 25019
" />
<path d="M64429 25019
L64744 25019
" />
<path d="M64744 25019
L64744 25255
" />
<path d="M64744 25255
L70255 25255
" />
<path d="M85255 25255
L85255 25019
" />
<path d="M85255 25019
L85570 25019
" />
<path d="M85570 25019
L85570 19980
" />
<path d="M85570 19980
L85255 19980
" />
<path d="M85255 19980
L85255 19744
" />
<path d="M85255 19744
L79744 19744
" />
<path d="M79744 19744
L79744 19980
" />
<path d="M79744 19980
L79429 19980
" />
<path d="M79429 19980
L79429 25019
" />
<path d="M79429 25019
L79744 25019
" />
<path d="M79744 25019
L79744 25255
" />
<path d="M79744 25255
L85255 25255
" />
<path d="M25255 25255
L25255 25019
" />
<path d="M25255 25019
L25570 25019
" />
<path d="M25570 25019
L25570 19980
" />
<path d="M25570 19980
L25255 19980
" />
<path d="M25255 19980
L25255 19744
" />
<path d="M25255 19744
L19744 19744
" />
<path d="M19744 19744
L19744 19980
" />
<path d="M19744 19980
L19429 19980
" />
<path d="M19429 19980
L19429 25019
" />
<path d="M19429 25019
L19744 25019
" />
<path d="M19744 25019
L19744 25255
" />
<path d="M19744 25255
L25255 25255
" />
<path d="M47755 25255
L47755 25019
" />
<path d="M47755 25019
L48070 25019
" />
<path d="M48070 25019
L48070 19980
" />
<path d="M48070 19980
L47755 19980
" />
<path d="M47755 19980
L47755 19744
" />
<path d="M47755 19744
L42244 19744
" />
<path d="M42244 19744
L42244 19980
" />
<path d="M42244 19980
L41929 19980
" />
<path d="M41929 19980
L41929 25019
" />
<path d="M41929 25019
L42244 25019
" />
<path d="M42244 25019
L42244 25255
" />
<path d="M42244 25255
L47755 25255
" />
<path d="M40255 25255
L40255 25019
" />
<path d="M40255 25019
L40570 25019
" />
<path d="M40570 25019
L40570 19980
" />
<path d="M40570 19980
L40255 19980
" />
<path d="M40255 19980
L40255 19744
" />
<path d="M40255 19744
L34744 19744
" />
<path d="M34744 19744
L34744 19980
" />
<path d="M34744 19980
L34429 19980
" />
<path d="M34429 19980
L34429 25019
" />
<path d="M34429 25019
L34744 25019
" />
<path d="M34744 25019
L34744 25255
" />
<path d="M34744 25255
L40255 25255
" />
<path d="M100255 25255
L100255 25019
" />
<path d="M100255 25019
L100570 25019
" />
<path d="M100570 25019
L100570 19980
" />
<path d="M100570 19980
L100255 19980
" />
<path d="M100255 19980
L100255 19744
" />
<path d="M100255 19744
L94744 19744
" />
<path d="M94744 19744
L94744 19980
" />
<path d="M94744 19980
L94429 19980
" />
<path d="M94429 19980
L94429 25019
" />
<path d="M94429 25019
L94744 25019
" />
<path d="M94744 25019
L94744 25255
" />
<path d="M94744 25255
L100255 25255
" />
<path d="M122755 25255
L122755 25019
" />
<path d="M122755 25019
L123070 25019
" />
<path d="M123070 25019
L123070 19980
" />
<path d="M123070 19980
L122755 19980
" />
<path d="M122755 19980
L122755 19744
" />
<path d="M122755 19744
L117244 19744
" />
<path d="M117244 19744
L117244 19980
" />
<path d="M117244 19980
L116929 19980
" />
<path d="M116929 19980
L116929 25019
" />
<path d="M116929 25019
L117244 25019
" />
<path d="M117244 25019
L117244 25255
" />
<path d="M117244 25255
L122755 25255
" />
<path d="M107755 25255
L107755 25019
" />
<path d="M107755 25019
L108070 25019
" />
<path d="M108070 25019
L108070 19980
" />
<path d="M108070 19980
L107755 19980
" />
<path d="M107755 19980
L107755 19744
" />
<path d="M107755 19744
L102244 19744
" />
<path d="M102244 19744
L102244 19980
" />
<path d="M102244 19980
L101929 19980
" />
<path d="M101929 19980
L101929 25019
" />
<path d="M101929 25019
L102244 25019
" />
<path d="M102244 25019
L102244 25255
" />
<path d="M102244 25255
L107755 25255
" />
<path d="M32755 25255
L32755 25019
" />
<path d="M32755 25019
L33070 25019
" />
<path d="M33070 25019
L33070 19980
" />
<path d="M33070 19980
L32755 19980
" />
<path d="M32755 19980
L32755 19744
" />
<path d="M32755 19744
L27244 19744
" />
<path d="M27244 19744
L27244 19980
" />
<path d="M27244 19980
L26929 19980
" />
<path d="M26929 19980
L26929 25019
" />
<path d="M26929 25019
L27244 25019
" />
<path d="M27244 25019
L27244 25255
" />
<path d="M27244 25255
L32755 25255
" />
<path d="M17755 25255
L17755 25019
" />
<path d="M17755 25019
L18070 25019
" />
<path d="M18070 25019
L18070 19980
" />
<path d="M18070 19980
L17755 19980
" />
<path d="M17755 19980
L17755 19744
" />
<path d="M17755 19744
L12244 19744
" />
<path d="M12244 19744
L12244 19980
" />
<path d="M12244 19980
L11929 19980
" />
<path d="M11929 19980
L11929 25019
" />
<path d="M11929 25019
L12244 25019
" />
<path d="M12244 25019
L12244 25255
" />
<path d="M12244 25255
L17755 25255
" />
<path d="M92755 25255
L92755 25019
" />
<path d="M92755 25019
L93070 25019
" />
<path d="M93070 25019
L93070 19980
" />
<path d="M93070 19980
L92755 19980
" />
<path d="M92755 19980
L92755 19744
" />
<path d="M92755 19744
L87244 19744
" />
<path d="M87244 19744
L87244 19980
" />
<path d="M87244 19980
L86929 19980
" />
<path d="M86929 19980
L86929 25019
" />
<path d="M86929 25019
L87244 25019
" />
<path d="M87244 25019
L87244 25255
" />
<path d="M87244 25255
L92755 25255
" />
<path d="M115255 25255
L115255 25019
" />
<path d="M115255 25019
L115570 25019
" />
<path d="M115570 25019
L115570 19980
" />
<path d="M115570 19980
L115255 19980
" />
<path d="M115255 19980
L115255 19744
" />
<path d="M115255 19744
L109744 19744
" />
<path d="M109744 19744
L109744 19980
" />
<path d="M109744 19980
L109429 19980
" />
<path d="M109429 19980
L109429 25019
" />
<path d="M109429 25019
L109744 25019
" />
<path d="M109744 25019
L109744 25255
" />
<path d="M109744 25255
L115255 25255
" />
<path d="M32755 32755
L32755 32519
" />
<path d="M32755 32519
L33070 32519
" />
<path d="M33070 32519
L33070 27480
" />
<path d="M33070 27480
L32755 27480
" />
<path d="M32755 27480
L32755 27244
" />
<path d="M32755 27244
L27244 27244
" />
<path d="M27244 27244
L27244 27480
" />
<path d="M27244 27480
L26929 27480
" />
<path d="M26929 27480
L26929 32519
" />
<path d="M26929 32519
L27244 32519
" />
<path d="M27244 32519
L27244 32755
" />
<path d="M27244 32755
L32755 32755
" />
<path d="M47755 32755
L47755 32519
" />
<path d="M47755 32519
L48070 32519
" />
<path d="M48070 32519
L48070 27480
" />
<path d="M48070 27480
L47755 27480
" />
<path d="M47755 27480
L47755 27244
" />
<path d="M47755 27244
L42244 27244
" />
<path d="M42244 27244
L42244 27480
" />
<path d="M42244 27480
L41929 27480
" />
<path d="M41929 27480
L41929 32519
" />
<path d="M41929 32519
L42244 32519
" />
<path d="M42244 32519
L42244 32755
" />
<path d="M42244 32755
L47755 32755
" />
<path d="M17755 32755
L17755 32519
" />
<path d="M17755 32519
L18070 32519
" />
<path d="M18070 32519
L18070 27480
" />
<path d="M18070 27480
L17755 27480
" />
<path d="M17755 27480
L17755 27244
" />
<path d="M17755 27244
L12244 27244
" />
<path d="M12244 27244
L12244 27480
" />
<path d="M12244 27480
L11929 27480
" />
<path d="M11929 27480
L11929 32519
" />
<path d="M11929 32519
L12244 32519
" />
<path d="M12244 32519
L12244 32755
" />
<path d="M12244 32755
L17755 32755
" />
<path d="M25255 32755
L25255 32519
" />
<path d="M25255 32519
L25570 32519
" />
<path d="M25570 32519
L25570 27480
" />
<path d="M25570 27480
L25255 27480
" />
<path d="M25255 27480
L25255 27244
" />
<path d="M25255 27244
L19744 27244
" />
<path d="M19744 27244
L19744 27480
" />
<path d="M19744 27480
L19429 27480
" />
<path d="M19429 27480
L19429 32519
" />
<path d="M19429 32519
L19744 32519
" />
<path d="M19744 32519
L19744 32755
" />
<path d="M19744 32755
L25255 32755
" />
<path d="M62755 32755
L62755 32519
" />
<path d="M62755 32519
L63070 32519
" />
<path d="M63070 32519
L63070 27480
" />
<path d="M63070 27480
L62755 27480
" />
<path d="M62755 27480
L62755 27244
" />
<path d="M62755 27244
L57244 27244
" />
<path d="M57244 27244
L57244 27480
" />
<path d="M57244 27480
L56929 27480
" />
<path d="M56929 27480
L56929 32519
" />
<path d="M56929 32519
L57244 32519
" />
<path d="M57244 32519
L57244 32755
" />
<path d="M57244 32755
L62755 32755
" />
<path d="M77755 32755
L77755 32519
" />
<path d="M77755 32519
L78070 32519
" />
<path d="M78070 32519
L78070 27480
" />
<path d="M78070 27480
L77755 27480
" />
<path d="M77755 27480
L77755 27244
" />
<path d="M77755 27244
L72244 27244
" />
<path d="M72244 27244
L72244 27480
" />
<path d="M72244 27480
L71929 27480
" />
<path d="M71929 27480
L71929 32519
" />
<path d="M71929 32519
L72244 32519
" />
<path d="M72244 32519
L72244 32755
" />
<path d="M72244 32755
L77755 32755
" />
<path d="M55255 32755
L55255 32519
" />
<path d="M55255 32519
L55570 32519
" />
<path d="M55570 32519
L55570 27480
" />
<path d="M55570 27480
L55255 27480
" />
<path d="M55255 27480
L55255 27244
" />
<path d="M55255 27244
L49744 27244
" />
<path d="M49744 27244
L49744 27480
" />
<path d="M49744 27480
L49429 27480
" />
<path d="M49429 27480
L49429 32519
" />
<path d="M49429 32519
L49744 32519
" />
<path d="M49744 32519
L49744 32755
" />
<path d="M49744 32755
L55255 32755
" />
<path d="M70255 32755
L70255 32519
" />
<path d="M70255 32519
L70570 32519
" />
<path d="M70570 32519
L70570 27480
" />
<path d="M70570 27480
L70255 27480
" />
<path d="M70255 27480
L70255 27244
" />
<path d="M70255 27244
L64744 27244
" />
<path d="M64744 27244
L64744 27480
" />
<path d="M64744 27480
L64429 27480
" />
<path d="M64429 27480
L64429 32519
" />
<path d="M64429 32519
L64744 32519
" />
<path d="M64744 32519
L64744 32755
" />
<path d="M64744 32755
L70255 32755
" />
<path d="M85255 32755
L85255 32519
" />
<path d="M85255 32519
L85570 32519
" />
<path d="M85570 32519
L85570 27480
" />
<path d="M85570 27480
L85255 27480
" />
<path d="M85255 27480
L85255 27244
" />
<path d="M85255 27244
L79744 27244
" />
<path d="M79744 27244
L79744 27480
" />
<path d="M79744 27480
L79429 27480
" />
<path d="M79429 27480
L79429 32519
" />
<path d="M79429 32519
L79744 32519
" />
<path d="M79744 32519
L79744 32755
" />
<path d="M79744 32755
L85255 32755
" />
<path d="M115255 32755
L115255 32519
" />
<path d="M115255 32519
L115570 32519
" />
<path d="M115570 32519
L115570 27480
" />
<path d="M115570 27480
L115255 27480
" />
<path d="M115255 27480
L115255 27244
" />
<path d="M115255 27244
L109744 27244
" />
<path d="M109744 27244
L109744 27480
" />
<path d="M109744 27480
L109429 27480
" />
<path d="M109429 27480
L109429 32519
" />
<path d="M109429 32519
L109744 32519
" />
<path d="M109744 32519
L109744 32755
" />
<path d="M109744 32755
L115255 32755
" />
<path d="M107755 32755
L107755 32519
" />
<path d="M107755 32519
L108070 32519
" />
<path d="M108070 32519
L108070 27480
" />
<path d="M108070 27480
L107755 27480
" />
<path d="M107755 27480
L107755 27244
" />
<path d="M107755 27244
L102244 27244
" />
<path d="M102244 27244
L102244 27480
" />
<path d="M102244 27480
L101929 27480
" />
<path d="M101929 27480
L101929 32519
" />
<path d="M101929 32519
L102244 32519
" />
<path d="M102244 32519
L102244 32755
" />
<path d="M102244 32755
L107755 32755
" />
<path d="M92755 32755
L92755 32519
" />
<path d="M92755 32519
L93070 32519
" />
<path d="M93070 32519
L93070 27480
" />
<path d="M93070 27480
L92755 27480
" />
<path d="M92755 27480
L92755 27244
" />
<path d="M92755 27244
L87244 27244
" />
<path d="M87244 27244
L87244 27480
" />
<path d="M87244 27480
L86929 27480
" />
<path d="M86929 27480
L86929 32519
" />
<path d="M86929 32519
L87244 32519
" />
<path d="M87244 32519
L87244 32755
" />
<path d="M87244 32755
L92755 32755
" />
<path d="M122755 32755
L122755 32519
" />
<path d="M122755 32519
L123070 32519
" />
<path d="M123070 32519
L123070 27480
" />
<path d="M123070 27480
L122755 27480
" />
<path d="M122755 27480
L122755 27244
" />
<path d="M122755 27244
L117244 27244
" />
<path d="M117244 27244
L117244 27480
" />
<path d="M117244 27480
L116929 27480
" />
<path d="M116929 27480
L116929 32519
" />
<path d="M116929 32519
L117244 32519
" />
<path d="M117244 32519
L117244 32755
" />
<path d="M117244 32755
L122755 32755
" />
<path d="M100255 32755
L100255 32519
" />
<path d="M100255 32519
L100570 32519
" />
<path d="M100570 32519
L100570 27480
" />
<path d="M100570 27480
L100255 27480
" />
<path d="M100255 27480
L100255 27244
" />
<path d="M100255 27244
L94744 27244
" />
<path d="M94744 27244
L94744 27480
" />
<path d="M94744 27480
L94429 27480
" />
<path d="M94429 27480
L94429 32519
" />
<path d="M94429 32519
L94744 32519
" />
<path d="M94744 32519
L94744 32755
" />
<path d="M94744 32755
L100255 32755
" />
<path d="M40255 32755
L40255 32519
" />
<path d="M40255 32519
L40570 32519
" />
<path d="M40570 32519
L40570 27480
" />
<path d="M40570 27480
L40255 27480
" />
<path d="M40255 27480
L40255 27244
" />
<path d="M40255 27244
L34744 27244
" />
<path d="M34744 27244
L34744 27480
" />
<path d="M34744 27480
L34429 27480
" />
<path d="M34429 27480
L34429 32519
" />
<path d="M34429 32519
L34744 32519
" />
<path d="M34744 32519
L34744 32755
" />
<path d="M34744 32755
L40255 32755
" />
<path d="M40255 40255
L40255 40019
" />
<path d="M40255 40019
L40570 40019
" />
<path d="M40570 40019
L40570 34980
" />
<path d="M40570 34980
L40255 34980
" />
<path d="M40255 34980
L40255 34744
" />
<path d="M40255 34744
L34744 34744
" />
<path d="M34744 34744
L34744 34980
" />
<path d="M34744 34980
L34429 34980
" />
<path d="M34429 34980
L34429 40019
" />
<path d="M34429 40019
L34744 40019
" />
<path d="M34744 40019
L34744 40255
" />
<path d="M34744 40255
L40255 40255
" />
<path d="M17755 40255
L17755 40019
" />
<path d="M17755 40019
L18070 40019
" />
<path d="M18070 40019
L18070 34980
" />
<path d="M18070 34980
L17755 34980
" />
<path d="M17755 34980
L17755 34744
" />
<path d="M17755 34744
L12244 34744
" />
<path d="M12244 34744
L12244 34980
" />
<path d="M12244 34980
L11929 34980
" />
<path d="M11929 34980
L11929 40019
" />
<path d="M11929 40019
L12244 40019
" />
<path d="M12244 40019
L12244 40255
" />
<path d="M12244 40255
L17755 40255
" />
<path d="M25255 40255
L25255 40019
" />
<path d="M25255 40019
L25570 40019
" />
<path d="M25570 40019
L25570 34980
" />
<path d="M25570 34980
L25255 34980
" />
<path d="M25255 34980
L25255 34744
" />
<path d="M25255 34744
L19744 34744
" />
<path d="M19744 34744
L19744 34980
" />
<path d="M19744 34980
L19429 34980
" />
<path d="M19429 34980
L19429 40019
" />
<path d="M19429 40019
L19744 40019
" />
<path d="M19744 40019
L19744 40255
" />
<path d="M19744 40255
L25255 40255
" />
<path d="M32755 40255
L32755 40019
" />
<path d="M32755 40019
L33070 40019
" />
<path d="M33070 40019
L33070 34980
" />
<path d="M33070 34980
L32755 34980
" />
<path d="M32755 34980
L32755 34744
" />
<path d="M32755 34744
L27244 34744
" />
<path d="M27244 34744
L27244 34980
" />
<path d="M27244 34980
L26929 34980
" />
<path d="M26929 34980
L26929 40019
" />
<path d="M26929 40019
L27244 40019
" />
<path d="M27244 40019
L27244 40255
" />
<path d="M27244 40255
L32755 40255
" />
<path d="M77755 40255
L77755 40019
" />
<path d="M77755 40019
L78070 40019
" />
<path d="M78070 40019
L78070 34980
" />
<path d="M78070 34980
L77755 34980
" />
<path d="M77755 34980
L77755 34744
" />
<path d="M77755 34744
L72244 34744
" />
<path d="M72244 34744
L72244 34980
" />
<path d="M72244 34980
L71929 34980
" />
<path d="M71929 34980
L71929 40019
" />
<path d="M71929 40019
L72244 40019
" />
<path d="M72244 40019
L72244 40255
" />
<path d="M72244 40255
L77755 40255
" />
<path d="M85255 40255
L85255 40019
" />
<path d="M85255 40019
L85570 40019
" />
<path d="M85570 40019
L85570 34980
" />
<path d="M85570 34980
L85255 34980
" />
<path d="M85255 34980
L85255 34744
" />
<path d="M85255 34744
L79744 34744
" />
<path d="M79744 34744
L79744 34980
" />
<path d="M79744 34980
L79429 34980
" />
<path d="M79429 34980
L79429 40019
" />
<path d="M79429 40019
L79744 40019
" />
<path d="M79744 40019
L79744 40255
" />
<path d="M79744 40255
L85255 40255
" />
<path d="M62755 40255
L62755 40019
" />
<path d="M62755 40019
L63070 40019
" />
<path d="M63070 40019
L63070 34980
" />
<path d="M63070 34980
L62755 34980
" />
<path d="M62755 34980
L62755 34744
" />
<path d="M62755 34744
L57244 34744
" />
<path d="M57244 34744
L57244 34980
" />
<path d="M57244 34980
L56929 34980
" />
<path d="M56929 34980
L56929 40019
" />
<path d="M56929 40019
L57244 40019
" />
<path d="M57244 40019
L57244 40255
" />
<path d="M57244 40255
L62755 40255
" />
<path d="M70255 40255
L70255 40019
" />
<path d="M70255 40019
L70570 40019
" />
<path d="M70570 40019
L70570 34980
" />
<path d="M70570 34980
L70255 34980
" />
<path d="M70255 34980
L70255 34744
" />
<path d="M70255 34744
L64744 34744
" />
<path d="M64744 34744
L64744 34980
" />
<path d="M64744 34980
L64429 34980
" />
<path d="M64429 34980
L64429 40019
" />
<path d="M64429 40019
L64744 40019
" />
<path d="M64744 40019
L64744 40255
" />
<path d="M64744 40255
L70255 40255
" />
<path d="M47755 40255
L47755 40019
" />
<path d="M47755 40019
L48070 40019
" />
<path d="M48070 40019
L48070 34980
" />
<path d="M48070 34980
L47755 34980
" />
<path d="M47755 34980
L47755 34744
" />
<path d="M47755 34744
L42244 34744
" />
<path d="M42244 34744
L42244 34980
" />
<path d="M42244 34980
L41929 34980
" />
<path d="M41929 34980
L41929 40019
" />
<path d="M41929 40019
L42244 40019
" />
<path d="M42244 40019
L42244 40255
" />
<path d="M42244 40255
L47755 40255
" />
<path d="M55255 40255
L55255 40019
" />
<path d="M55255 40019
L55570 40019
" />
<path d="M55570 40019
L55570 34980
" />
<path d="M55570 34980
L55255 34980
" />
<path d="M55255 34980
L55255 34744
" />
<path d="M55255 34744
L49744 34744
" />
<path d="M49744 34744
L49744 34980
" />
<path d="M49744 34980
L49429 34980
" />
<path d="M49429 34980
L49429 40019
" />
<path d="M49429 40019
L49744 40019
" />
<path d="M49744 40019
L49744 40255
" />
<path d="M49744 40255
L55255 40255
" />
<path d="M122755 40255
L122755 40019
" />
<path d="M122755 40019
L123070 40019
" />
<path d="M123070 40019
L123070 34980
" />
<path d="M123070 34980
L122755 34980
" />
<path d="M122755 34980
L122755 34744
" />
<path d="M122755 34744
L117244 34744
" />
<path d="M117244 34744
L117244 34980
" />
<path d="M117244 34980
L116929 34980
" />
<path d="M116929 34980
L116929 40019
" />
<path d="M116929 40019
L117244 40019
" />
<path d="M117244 40019
L117244 40255
" />
<path d="M117244 40255
L122755 40255
" />
<path d="M115255 40255
L115255 40019
" />
<path d="M115255 40019
L115570 40019
" />
<path d="M115570 40019
L115570 34980
" />
<path d="M115570 34980
L115255 34980
" />
<path d="M115255 34980
L115255 34744
" />
<path d="M115255 34744
L109744 34744
" />
<path d="M109744 34744
L109744 34980
" />
<path d="M109744 34980
L109429 34980
" />
<path d="M109429 34980
L109429 40019
" />
<path d="M109429 40019
L109744 40019
" />
<path d="M109744 40019
L109744 40255
" />
<path d="M109744 40255
L115255 40255
" />
<path d="M107755 40255
L107755 40019
" />
<path d="M107755 40019
L108070 40019
" />
<path d="M108070 40019
L108070 34980
" />
<path d="M108070 34980
L107755 34980
" />
<path d="M107755 34980
L107755 34744
" />
<path d="M107755 34744
L102244 34744
" />
<path d="M102244 34744
L102244 34980
" />
<path d="M102244 34980
L101929 34980
" />
<path d="M101929 34980
L101929 40019
" />
<path d="M101929 40019
L102244 40019
" />
<path d="M102244 40019
L102244 40255
" />
<path d="M102244 40255
L107755 40255
" />
<path d="M100255 40255
L100255 40019
" />
<path d="M100255 40019
L100570 40019
" />
<path d="M100570 40019
L100570 34980
" />
<path d="M100570 34980
L100255 34980
" />
<path d="M100255 34980
L100255 34744
" />
<path d="M100255 34744
L94744 34744
" />
<path d="M94744 34744
L94744 34980
" />
<path d="M94744 34980
L94429 34980
" />
<path d="M94429 34980
L94429 40019
" />
<path d="M94429 40019
L94744 40019
" />
<path d="M94744 40019
L94744 40255
" />
<path d="M94744 40255
L100255 40255
" />
<path d="M92755 40255
L92755 40019
" />
<path d="M92755 40019
L93070 40019
" />
<path d="M93070 40019
L93070 34980
" />
<path d="M93070 34980
L92755 34980
" />
<path d="M92755 34980
L92755 34744
" />
<path d="M92755 34744
L87244 34744
" />
<path d="M87244 34744
L87244 34980
" />
<path d="M87244 34980
L86929 34980
" />
<path d="M86929 34980
L86929 40019
" />
<path d="M86929 40019
L87244 40019
" />
<path d="M87244 40019
L87244 40255
" />
<path d="M87244 40255
L92755 40255
" />
<path d="M47755 47755
L47755 47519
" />
<path d="M47755 47519
L48070 47519
" />
<path d="M48070 47519
L48070 42480
" />
<path d="M48070 42480
L47755 42480
" />
<path d="M47755 42480
L47755 42244
" />
<path d="M47755 42244
L42244 42244
" />
<path d="M42244 42244
L42244 42480
" />
<path d="M42244 42480
L41929 42480
" />
<path d="M41929 42480
L41929 47519
" />
<path d="M41929 47519
L42244 47519
" />
<path d="M42244 47519
L42244 47755
" />
<path d="M42244 47755
L47755 47755
" />
<path d="M100255 47755
L100255 47519
" />
<path d="M100255 47519
L100570 47519
" />
<path d="M100570 47519
L100570 42480
" />
<path d="M100570 42480
L100255 42480
" />
<path d="M100255 42480
L100255 42244
" />
<path d="M100255 42244
L94744 42244
" />
<path d="M94744 42244
L94744 42480
" />
<path d="M94744 42480
L94429 42480
" />
<path d="M94429 42480
L94429 47519
" />
<path d="M94429 47519
L94744 47519
" />
<path d="M94744 47519
L94744 47755
" />
<path d="M94744 47755
L100255 47755
" />
<path d="M122755 47755
L122755 47519
" />
<path d="M122755 47519
L123070 47519
" />
<path d="M123070 47519
L123070 42480
" />
<path d="M123070 42480
L122755 42480
" />
<path d="M122755 42480
L122755 42244
" />
<path d="M122755 42244
L117244 42244
" />
<path d="M117244 42244
L117244 42480
" />
<path d="M117244 42480
L116929 42480
" />
<path d="M116929 42480
L116929 47519
" />
<path d="M116929 47519
L117244 47519
" />
<path d="M117244 47519
L117244 47755
" />
<path d="M117244 47755
L122755 47755
" />
<path d="M70255 47755
L70255 47519
" />
<path d="M70255 47519
L70570 47519
" />
<path d="M70570 47519
L70570 42480
" />
<path d="M70570 42480
L70255 42480
" />
<path d="M70255 42480
L70255 42244
" />
<path d="M70255 42244
L64744 42244
" />
<path d="M64744 42244
L64744 42480
" />
<path d="M64744 42480
L64429 42480
" />
<path d="M64429 42480
L64429 47519
" />
<path d="M64429 47519
L64744 47519
" />
<path d="M64744 47519
L64744 47755
" />
<path d="M64744 47755
L70255 47755
" />
<path d="M92755 47755
L92755 47519
" />
<path d="M92755 47519
L93070 47519
" />
<path d="M93070 47519
L93070 42480
" />
<path d="M93070 42480
L92755 42480
" />
<path d="M92755 42480
L92755 42244
" />
<path d="M92755 42244
L87244 42244
" />
<path d="M87244 42244
L87244 42480
" />
<path d="M87244 42480
L86929 42480
" />
<path d="M86929 42480
L86929 47519
" />
<path d="M86929 47519
L87244 47519
" />
<path d="M87244 47519
L87244 47755
" />
<path d="M87244 47755
L92755 47755
" />
<g >
</g>
<g >
</g>
<g >
</g>
<g >
</g>
<g >
</g>
<g >
</g>
<g >
</g>
<g >
</g>
<g >
</g>
<g >
</g>
<g >
</g>
<g >
</g>
<g >
</g>
<g >
</g>
<g >
</g>
<g >
</g>
<g >
</g>
<g >
</g>
<g >
</g>
<g >
</g>
<g >
</g>
<g >
</g>
<g >
</g>
<g >
</g>
<g >
</g>
<g >
</g>
<g >
</g>
<g >
</g>
<g >
</g>
<g >
</g>
<g >
</g>
<g >
</g>
<g >
</g>
<g >
</g>
<g >
</g>
<g >
</g>
<g >
</g>
<g >
</g>
<g >
</g>
<g >
</g>
<g >
</g>
<g >
</g>
<g >
</g>
<g >
</g>
<g >
</g>
<g >
</g>
<g >
</g>
<g >
</g>
<g >
</g>
<g >
</g>
<g >
</g>
<g >
</g>
<g >
</g>
<g >
</g>
<g >
</g>
<g >
</g>
<g >
</g>
<g >
</g>
<g >
</g>
<g >
</g>
<g >
</g>
<g >
</g>
<g >
</g>
<g >
</g>
<g >
</g>
<g >
</g>
<g >
</g>
<g >
</g>
<g >
</g>
<g >
</g>
<g >
</g>
<g >
</g>
<g >
</g>
<g >
</g>
<g >
</g>
<g >
</g>
<g >
</g>
<g >
</g>
<g >
</g>
<g >
</g>
<g >
</g>
<g >
</g>
<g >
</g>
</g> 
</svg>
