  0
SECTION
  2
HEADER
  9
$ACADVER
  1
AC1009
  9
$DWGCODEPAGE
  3
ansi_1252
  9
$INSBASE
 10
0.0
 20
0.0
 30
0.0
  9
$EXTMIN
 10
1.000000000000000E+20
 20
1.000000000000000E+20
 30
1.000000000000000E+20
  9
$EXTMAX
 10
-1.000000000000000E+20
 20
-1.000000000000000E+20
 30
-1.000000000000000E+20
  9
$LIMMIN
 10
0.0
 20
0.0
  9
$LIMMAX
 10
12.0
 20
9.0
  9
$ORTHOMODE
 70
     0
  9
$REGENMODE
 70
     1
  9
$FILLMODE
 70
     1
  9
$QTEXTMODE
 70
     0
  9
$MIRRTEXT
 70
     1
  9
$DRAGMODE
 70
     2
  9
$LTSCALE
 40
1.0
  9
$OSMODE
 70
    37
  9
$ATTMODE
 70
     1
  9
$TEXTSIZE
 40
0.2
  9
$TRACEWID
 40
0.05
  9
$TEXTSTYLE
  7
STANDARD
  9
$CLAYER
  8
0
  9
$CELTYPE
  6
BYLAYER
  9
$CECOLOR
 62
   256
  9
$DIMSCALE
 40
1.0
  9
$DIMASZ
 40
0.18
  9
$DIMEXO
 40
0.0625
  9
$DIMDLI
 40
0.38
  9
$DIMRND
 40
0.0
  9
$DIMDLE
 40
0.0
  9
$DIMEXE
 40
0.18
  9
$DIMTP
 40
0.0
  9
$DIMTM
 40
0.0
  9
$DIMTXT
 40
0.18
  9
$DIMCEN
 40
0.09
  9
$DIMTSZ
 40
0.0
  9
$DIMTOL
 70
     0
  9
$DIMLIM
 70
     0
  9
$DIMTIH
 70
     1
  9
$DIMTOH
 70
     1
  9
$DIMSE1
 70
     0
  9
$DIMSE2
 70
     0
  9
$DIMTAD
 70
     0
  9
$DIMZIN
 70
     0
  9
$DIMBLK
  1

  9
$DIMASO
 70
     1
  9
$DIMSHO
 70
     1
  9
$DIMPOST
  1

  9
$DIMAPOST
  1

  9
$DIMALT
 70
     0
  9
$DIMALTD
 70
     2
  9
$DIMALTF
 40
25.4
  9
$DIMLFAC
 40
1.0
  9
$DIMTOFL
 70
     0
  9
$DIMTVP
 40
0.0
  9
$DIMTIX
 70
     0
  9
$DIMSOXD
 70
     0
  9
$DIMSAH
 70
     0
  9
$DIMBLK1
  1

  9
$DIMBLK2
  1

  9
$DIMSTYLE
  2
STANDARD_ACAD
  9
$DIMCLRD
 70
     0
  9
$DIMCLRE
 70
     0
  9
$DIMCLRT
 70
     0
  9
$DIMTFAC
 40
1.0
  9
$DIMGAP
 40
0.09
  9
$LUNITS
 70
     2
  9
$LUPREC
 70
     3
  9
$SKETCHINC
 40
0.1
  9
$FILLETRAD
 40
0.5
  9
$AUNITS
 70
     0
  9
$AUPREC
 70
     0
  9
$MENU
  1
.
  9
$ELEVATION
 40
0.0
  9
$PELEVATION
 40
0.0
  9
$THICKNESS
 40
0.0
  9
$LIMCHECK
 70
     0
  9
$CHAMFERA
 40
0.0
  9
$CHAMFERB
 40
0.0
  9
$SKPOLY
 70
     0
  9
$TDCREATE
 40
2459456.693909086
  9
$TDUPDATE
 40
2459456.693922107
  9
$TDINDWG
 40
0.0000000116
  9
$TDUSRTIMER
 40
0.0000000116
  9
$USRTIMER
 70
     1
  9
$ANGBASE
 50
0.0
  9
$ANGDIR
 70
     0
  9
$PDMODE
 70
     0
  9
$PDSIZE
 40
0.0
  9
$PLINEWID
 40
0.0
  9
$COORDS
 70
     1
  9
$SPLFRAME
 70
     0
  9
$SPLINETYPE
 70
     6
  9
$SPLINESEGS
 70
     8
  9
$ATTDIA
 70
     0
  9
$ATTREQ
 70
     1
  9
$HANDLING
 70
     1
  9
$HANDSEED
  5
D3
  9
$SURFTAB1
 70
     6
  9
$SURFTAB2
 70
     6
  9
$SURFTYPE
 70
     6
  9
$SURFU
 70
     6
  9
$SURFV
 70
     6
  9
$UCSNAME
  2

  9
$UCSORG
 10
0.0
 20
0.0
 30
0.0
  9
$UCSXDIR
 10
1.0
 20
0.0
 30
0.0
  9
$UCSYDIR
 10
0.0
 20
1.0
 30
0.0
  9
$PUCSNAME
  2

  9
$PUCSORG
 10
0.0
 20
0.0
 30
0.0
  9
$PUCSXDIR
 10
1.0
 20
0.0
 30
0.0
  9
$PUCSYDIR
 10
0.0
 20
1.0
 30
0.0
  9
$USERI1
 70
     0
  9
$USERI2
 70
     0
  9
$USERI3
 70
     0
  9
$USERI4
 70
     0
  9
$USERI5
 70
     0
  9
$USERR1
 40
0.0
  9
$USERR2
 40
0.0
  9
$USERR3
 40
0.0
  9
$USERR4
 40
0.0
  9
$USERR5
 40
0.0
  9
$WORLDVIEW
 70
     1
  9
$SHADEDGE
 70
     3
  9
$SHADEDIF
 70
    70
  9
$TILEMODE
 70
     1
  9
$MAXACTVP
 70
    64
  9
$PLIMCHECK
 70
     0
  9
$PEXTMIN
 10
1.000000000000000E+20
 20
1.000000000000000E+20
 30
1.000000000000000E+20
  9
$PEXTMAX
 10
-1.000000000000000E+20
 20
-1.000000000000000E+20
 30
-1.000000000000000E+20
  9
$PLIMMIN
 10
0.0
 20
0.0
  9
$PLIMMAX
 10
12.0
 20
9.0
  9
$UNITMODE
 70
     0
  9
$VISRETAIN
 70
     1
  9
$PLINEGEN
 70
     0
  9
$PSLTSCALE
 70
     1
  0
ENDSEC
  0
SECTION
  2
TABLES
  0
TABLE
  2
VPORT
 70
     1
  0
VPORT
  2
*ACTIVE
 70
     0
 10
0.0
 20
0.0
 11
1.0
 21
1.0
 12
10.42990654205607
 22
4.5
 13
0.0
 23
0.0
 14
0.5
 24
0.5
 15
0.5
 25
0.5
 16
0.0
 26
0.0
 36
1.0
 17
0.0
 27
0.0
 37
0.0
 40
9.0
 41
1.972972972850329
 42
50.0
 43
0.0
 44
0.0
 50
0.0
 51
0.0
 71
     0
 72
   100
 73
     1
 74
     3
 75
     0
 76
     0
 77
     0
 78
     0
  0
ENDTAB
  0
TABLE
  2
LTYPE
 70
     1
  0
LTYPE
  2
CONTINUOUS
 70
     0
  3
Solid line
 72
    65
 73
     0
 40
0.0
  0
ENDTAB
  0
TABLE
  2
LAYER
 70
     4
  0
LAYER
  2
0
 70
     0
 62
     7
  6
CONTINUOUS
  0
LAYER
  2
PLATE$OUTLINE
 70
     0
 62
     3
  6
CONTINUOUS
  0
LAYER
  2
PLATE$SCREWHOLES
 70
     0
 62
   254
  6
CONTINUOUS
  0
LAYER
  2
PLATE$SWITCHHOLES
 70
     0
 62
    81
  6
CONTINUOUS
  0
ENDTAB
  0
TABLE
  2
STYLE
 70
     1
  0
STYLE
  2
STANDARD
 70
     0
 40
0.0
 41
1.0
 50
0.0
 71
     0
 42
0.2
  3
txt
  4

  0
ENDTAB
  0
TABLE
  2
VIEW
 70
     0
  0
ENDTAB
  0
TABLE
  2
UCS
 70
     0
  0
ENDTAB
  0
TABLE
  2
APPID
 70
     1
  0
APPID
  2
ACAD
 70
     0
  0
ENDTAB
  0
TABLE
  2
DIMSTYLE
 70
     1
  0
DIMSTYLE
  2
STANDARD_ACAD
 70
     0
  3

  4

  5

  6

  7

 40
1.0
 41
0.18
 42
0.0625
 43
0.38
 44
0.18
 45
0.0
 46
0.0
 47
0.0
 48
0.0
140
0.18
141
0.09
142
0.0
143
25.4
144
1.0
145
0.0
146
1.0
147
0.09
 71
     0
 72
     0
 73
     1
 74
     1
 75
     0
 76
     0
 77
     0
 78
     0
170
     0
171
     2
172
     0
173
     0
174
     0
175
     0
176
     0
177
     0
178
     0
  0
ENDTAB
  0
ENDSEC
  0
SECTION
  2
BLOCKS
  0
BLOCK
  8
0
  2
$MODEL_SPACE
 70
     0
 10
0.0
 20
0.0
 30
0.0
  3
$MODEL_SPACE
  1

  0
ENDBLK
  5
21
  8
0
  0
BLOCK
 67
     1
  8
0
  2
$PAPER_SPACE
 70
     0
 10
0.0
 20
0.0
 30
0.0
  3
$PAPER_SPACE
  1

  0
ENDBLK
  5
1D
 67
     1
  8
0
  0
BLOCK
  8
0
  2
SSPLATE_VANANASPLIT_REV1_2
 70
     0
 10
0.0
 20
0.0
 30
0.0
  3
SSPLATE_VANANASPLIT_REV1_2
  1

  0
ARC
  5
70
  8
PLATE$OUTLINE
 10
-5.862498606966765
 20
-54.68125016069047
 30
0.0
 40
1.500000000000173
 50
359.9999959143317
 51
90.00000048120961
  0
LINE
  5
71
  8
PLATE$OUTLINE
 10
-5.862498619564803
 20
-53.1812501606903
 30
0.0
 11
-23.10624021376827
 21
-53.18125027363271
 31
0.0
  0
ARC
  5
72
  8
PLATE$OUTLINE
 10
23.10624022636482
 20
-51.68125027363267
 30
0.0
 40
1.500000000000043
 50
269.9999995188474
 51
359.9999879694797
210
0.0
220
0.0
230
-1.0
  0
LINE
  5
73
  8
PLATE$OUTLINE
 10
-24.60624022636483
 20
-51.68125058859096
 30
0.0
 11
-24.60625073458482
 21
-1.099999656517184
 31
0.0
  0
ARC
  5
74
  8
PLATE$OUTLINE
 10
-26.10625073458499
 20
-1.099999971475399
 30
0.0
 40
1.5000000000002
 50
0.0000120305176138
 51
89.99999999999145
  0
LINE
  5
75
  8
PLATE$OUTLINE
 10
-26.10625073458476
 20
0.4000000285248007
 30
0.0
 11
-41.75625149999959
 21
0.4000000000000909
 31
0.0
  0
ARC
  5
76
  8
PLATE$OUTLINE
 10
41.75625149999978
 20
1.900000000000326
 30
0.0
 40
1.500000000000235
 50
269.9999999999927
 51
0.0000000000002714
210
0.0
220
0.0
230
-1.0
  0
LINE
  5
77
  8
PLATE$OUTLINE
 10
-43.25625150000002
 20
1.900000000000318
 30
0.0
 11
-43.25625150000013
 21
6.837492999999768
 31
0.0
  0
ARC
  5
78
  8
PLATE$OUTLINE
 10
-44.75625150000012
 20
6.837493000000016
 30
0.0
 40
1.499999999999986
 50
0.0000000000095332
 51
90.00000000000054
  0
LINE
  5
79
  8
PLATE$OUTLINE
 10
-44.75625150000013
 20
8.337492999999995
 30
0.0
 11
-99.70625186141663
 21
8.337492999999768
 31
0.0
  0
ARC
  5
7A
  8
PLATE$OUTLINE
 10
-99.70625186141628
 20
6.837492999999739
 30
0.0
 40
1.500000000000028
 50
90.00000000001357
 51
180.0000072183657
  0
LINE
  5
7B
  8
PLATE$OUTLINE
 10
-101.2062518614163
 20
6.837492811023367
 30
0.0
 11
-101.2062507393707
 21
-2.068749811023736
 31
0.0
  0
ARC
  5
7C
  8
PLATE$OUTLINE
 10
102.7062507393706
 20
-2.068749999999973
 30
0.0
 40
1.49999999999994
 50
179.9999927816395
 51
270.0000000000032
210
0.0
220
0.0
230
-1.0
  0
LINE
  5
7D
  8
PLATE$OUTLINE
 10
-102.7062507393707
 20
-3.568749999999909
 30
0.0
 11
-137.8062514999995
 21
-3.568749999999909
 31
0.0
  0
ARC
  5
7E
  8
PLATE$OUTLINE
 10
-137.8062514999994
 20
-5.068749999999999
 30
0.0
 40
1.50000000000009
 50
90.00000000000436
 51
179.9999999999792
  0
LINE
  5
7F
  8
PLATE$OUTLINE
 10
-139.3062514999995
 20
-5.068749999999454
 30
0.0
 11
-139.3062514999994
 21
-83.03750000001332
 31
0.0
  0
ARC
  5
80
  8
PLATE$OUTLINE
 10
-137.8062514999994
 20
-83.03750000000673
 30
0.0
 40
1.5
 50
179.9999999997503
 51
270.0000000000173
  0
LINE
  5
81
  8
PLATE$OUTLINE
 10
-137.806251499999
 20
-84.53750000000673
 30
0.0
 11
-133.6105995392547
 21
-84.53750000000173
 31
0.0
  0
ARC
  5
82
  8
PLATE$OUTLINE
 10
133.6105995392532
 20
-86.03750000000173
 30
0.0
 40
1.5
 50
89.99999999994138
 51
170.0000000000394
210
0.0
220
0.0
230
-1.0
  0
LINE
  5
83
  8
PLATE$OUTLINE
 10
-132.1333879097347
 20
-85.77702773350234
 30
0.0
 11
-128.8280310241707
 21
-104.5226381459411
 31
0.0
  0
ARC
  5
84
  8
PLATE$OUTLINE
 10
-127.3508193946524
 20
-104.2621658794401
 30
0.0
 40
1.5
 50
190.0000000000221
 51
280.0000031523979
  0
LINE
  5
85
  8
PLATE$OUTLINE
 10
-127.0903470468763
 20
-105.7393774946274
 30
0.0
 11
-59.69257468963096
 21
-93.85532796494635
 31
0.0
  0
ARC
  5
86
  8
PLATE$OUTLINE
 10
59.43210234185682
 20
-95.33253958013393
 30
0.0
 40
1.5
 50
79.99999684768053
 51
169.9999959713722
210
0.0
220
0.0
230
-1.0
  0
LINE
  5
87
  8
PLATE$OUTLINE
 10
-57.95489073065306
 20
-95.0720672097666
 30
0.0
 11
-57.34950304066481
 21
-98.50538999817604
 31
0.0
  0
ARC
  5
88
  8
PLATE$OUTLINE
 10
-55.87229142946092
 20
-98.2449176278094
 30
0.0
 40
1.5
 50
190.0000040286025
 51
274.5505752385683
  0
LINE
  5
89
  8
PLATE$OUTLINE
 10
-55.75328285686538
 20
-99.74018916156137
 30
0.0
 11
-5.743492857136459
 21
-95.75991294461164
 31
0.0
  0
ARC
  5
8A
  8
PLATE$OUTLINE
 10
-5.862501429732276
 20
-94.26464141085421
 30
0.0
 40
1.5
 50
274.5505752385633
 51
359.9999959141341
  0
LINE
  5
8B
  8
PLATE$OUTLINE
 10
-4.362501429732276
 20
-94.26464151782193
 30
0.0
 11
-4.362498606966597
 21
-54.68125026765301
 31
0.0
  0
INSERT
  5
92
  8
0
  2
2D_M2_SCREWHOLE_2_2MM
 10
-43.63770081445693
 20
-18.97074751362152
 30
0.0
 41
0.9999999999999999
  0
INSERT
  5
93
  8
0
  2
2D_M2_SCREWHOLE_2_2MM
 10
-8.71270081445698
 20
-80.08949751362161
 30
0.0
 41
0.9999999999999999
  0
INSERT
  5
94
  8
0
  2
2D_M2_SCREWHOLE_2_2MM
 10
-30.14395081445696
 20
-85.64574751362147
 30
0.0
 41
0.9999999999999999
  0
INSERT
  5
95
  8
0
  2
2D_M2_SCREWHOLE_2_2MM
 10
-81.73770081445696
 20
-34.0519975136217
 30
0.0
 41
0.9999999999999999
  0
INSERT
  5
96
  8
0
  2
2D_M2_SCREWHOLE_2_2MM
 10
-81.73770081445696
 20
-49.13324751362165
 30
0.0
 41
0.9999999999999999
  0
INSERT
  5
97
  8
0
  2
2D_M2_SCREWHOLE_2_2MM
 10
-58.97501681445695
 20
-86.7986915136214
 30
0.0
 41
0.9999999999999999
  0
INSERT
  5
98
  8
0
  2
2D_M2_SCREWHOLE_2_2MM
 10
-78.56270081445695
 20
-72.94574751362165
 30
0.0
 41
0.9999999999999999
  0
INSERT
  5
99
  8
0
  2
2D_M2_SCREWHOLE_2_2MM
 10
-106.4278168144569
 20
-91.94192251362165
 30
0.0
 41
0.9999999999999999
  0
INSERT
  5
9A
  8
0
  2
2D_M2_SCREWHOLE_2_2MM
 10
-117.837450814457
 20
-82.21674751362161
 30
0.0
 41
0.9999999999999999
  0
INSERT
  5
9B
  8
0
  2
2D_M2_SCREWHOLE_2_2MM
 10
-119.837700814457
 20
-22.93949751362152
 30
0.0
 41
0.9999999999999999
  0
INSERT
  5
9C
  8
0
  2
2D_M2_SCREWHOLE_2_2MM
 10
-129.362700814457
 20
-26.90824751362152
 30
0.0
 41
0.9999999999999999
  0
INSERT
  5
AA
  8
PLATE$SWITCHHOLES
  2
SWITCHHOLE_14MM
 10
-14.28750050356427
 20
-62.70625100000098
 30
0.0
 41
0.9999999999999999
  0
INSERT
  5
AB
  8
PLATE$SWITCHHOLES
  2
SWITCHHOLE_14MM
 10
-19.05000150000001
 20
-85.72499999999991
 30
0.0
 41
0.9999999999999999
  0
INSERT
  5
AC
  8
PLATE$SWITCHHOLES
  2
SWITCHHOLE_14MM
 10
-46.71686449999999
 20
-87.93721000000005
 30
0.0
 41
0.9999999999999997
 42
0.9999999999999999
 50
10.0
  0
INSERT
  5
AD
  8
PLATE$SWITCHHOLES
  2
SWITCHHOLE_14MM
 10
-71.2702655
 20
-85.81867800000009
 30
0.0
 41
0.9999999999999997
 42
0.9999999999999999
 50
10.0
  0
INSERT
  5
AE
  8
PLATE$SWITCHHOLES
  2
SWITCHHOLE_14MM
 10
-94.72099749999998
 20
-89.95367499999998
 30
0.0
 41
0.9999999999999997
 42
0.9999999999999999
 50
10.0
  0
INSERT
  5
AF
  8
PLATE$SWITCHHOLES
  2
SWITCHHOLE_14MM
 10
-118.1717265
 20
-94.08867499999997
 30
0.0
 41
0.9999999999999997
 42
0.9999999999999999
 50
10.0
  0
INSERT
  5
B0
  8
PLATE$SWITCHHOLES
  2
SWITCHHOLE_14MM
 10
-34.13125149999999
 20
-66.67499999999995
 30
0.0
 41
0.9999999999999999
  0
INSERT
  5
B1
  8
PLATE$SWITCHHOLES
  2
SWITCHHOLE_14MM
 10
-53.18125149999997
 20
-62.70624999999995
 30
0.0
 41
0.9999999999999999
  0
INSERT
  5
B2
  8
PLATE$SWITCHHOLES
  2
SWITCHHOLE_14MM
 10
-72.23125549999997
 20
-58.73750700000005
 30
0.0
 41
0.9999999999999999
  0
INSERT
  5
B3
  8
PLATE$SWITCHHOLES
  2
SWITCHHOLE_14MM
 10
-91.2812515
 20
-62.70624999999995
 30
0.0
 41
0.9999999999999999
  0
INSERT
  5
B4
  8
PLATE$SWITCHHOLES
  2
SWITCHHOLE_14MM
 10
-110.3312505
 20
-70.64374999999995
 30
0.0
 41
0.9999999999999999
  0
INSERT
  5
B5
  8
PLATE$SWITCHHOLES
  2
SWITCHHOLE_14MM
 10
-129.3812515
 20
-74.61249999999995
 30
0.0
 41
0.9999999999999999
  0
INSERT
  5
B6
  8
PLATE$SWITCHHOLES
  2
SWITCHHOLE_14MM
 10
-34.13125149999999
 20
-47.625
 30
0.0
 41
0.9999999999999999
  0
INSERT
  5
B7
  8
PLATE$SWITCHHOLES
  2
SWITCHHOLE_14MM
 10
-53.18125149999997
 20
-43.65625
 30
0.0
 41
0.9999999999999999
  0
INSERT
  5
B8
  8
PLATE$SWITCHHOLES
  2
SWITCHHOLE_14MM
 10
-72.23125549999997
 20
-39.6875070000001
 30
0.0
 41
0.9999999999999999
  0
INSERT
  5
B9
  8
PLATE$SWITCHHOLES
  2
SWITCHHOLE_14MM
 10
-91.2812515
 20
-43.65625
 30
0.0
 41
0.9999999999999999
  0
INSERT
  5
BA
  8
PLATE$SWITCHHOLES
  2
SWITCHHOLE_14MM
 10
-110.3312505
 20
-51.59375
 30
0.0
 41
0.9999999999999999
  0
INSERT
  5
BB
  8
PLATE$SWITCHHOLES
  2
SWITCHHOLE_14MM
 10
-129.3812515
 20
-55.5625
 30
0.0
 41
0.9999999999999999
  0
INSERT
  5
BC
  8
PLATE$SWITCHHOLES
  2
SWITCHHOLE_14MM
 10
-34.13125149999999
 20
-28.57500000000005
 30
0.0
 41
0.9999999999999999
  0
INSERT
  5
BD
  8
PLATE$SWITCHHOLES
  2
SWITCHHOLE_14MM
 10
-53.18125149999997
 20
-24.60625000000005
 30
0.0
 41
0.9999999999999999
  0
INSERT
  5
BE
  8
PLATE$SWITCHHOLES
  2
SWITCHHOLE_14MM
 10
-72.23125549999997
 20
-20.63750699999991
 30
0.0
 41
0.9999999999999999
  0
INSERT
  5
BF
  8
PLATE$SWITCHHOLES
  2
SWITCHHOLE_14MM
 10
-91.2812515
 20
-24.60625000000005
 30
0.0
 41
0.9999999999999999
  0
INSERT
  5
C0
  8
PLATE$SWITCHHOLES
  2
SWITCHHOLE_14MM
 10
-110.3312505
 20
-32.54375000000005
 30
0.0
 41
0.9999999999999999
  0
INSERT
  5
C1
  8
PLATE$SWITCHHOLES
  2
SWITCHHOLE_14MM
 10
-129.3812515
 20
-36.51250000000005
 30
0.0
 41
0.9999999999999999
  0
INSERT
  5
C2
  8
PLATE$SWITCHHOLES
  2
SWITCHHOLE_14MM
 10
-34.13125149999999
 20
-9.525000000000091
 30
0.0
 41
0.9999999999999999
  0
INSERT
  5
C3
  8
PLATE$SWITCHHOLES
  2
SWITCHHOLE_14MM
 10
-53.18125149999997
 20
-5.556250000000091
 30
0.0
 41
0.9999999999999999
  0
INSERT
  5
C4
  8
PLATE$SWITCHHOLES
  2
SWITCHHOLE_14MM
 10
-72.23125549999997
 20
-1.58750699999996
 30
0.0
 41
0.9999999999999999
  0
INSERT
  5
C5
  8
PLATE$SWITCHHOLES
  2
SWITCHHOLE_14MM
 10
-91.2812515
 20
-5.556250000000091
 30
0.0
 41
0.9999999999999999
  0
INSERT
  5
C6
  8
PLATE$SWITCHHOLES
  2
SWITCHHOLE_14MM
 10
-110.3312505
 20
-13.49375000000009
 30
0.0
 41
0.9999999999999999
  0
INSERT
  5
C7
  8
PLATE$SWITCHHOLES
  2
SWITCHHOLE_14MM
 10
-129.3812515
 20
-17.46250000000009
 30
0.0
 41
0.9999999999999999
  0
ENDBLK
  5
C9
  8
0
  0
BLOCK
  8
0
  2
2D_M2_SCREWHOLE_2_2MM
 70
     0
 10
0.0
 20
0.0
 30
0.0
  3
2D_M2_SCREWHOLE_2_2MM
  1

  0
CIRCLE
  5
8E
  8
PLATE$SCREWHOLES
 10
-0.0185476855430409
 20
-0.0792524863784365
 30
0.0
 40
1.05
  0
POINT
  5
8F
  8
PLATE$SCREWHOLES
 10
-0.0185476855430409
 20
-0.0792524863784365
 30
0.0
  0
ENDBLK
  5
91
  8
0
  0
BLOCK
  8
0
  2
SWITCHHOLE_14MM
 70
     0
 10
0.0
 20
0.0
 30
0.0
  3
SWITCHHOLE_14MM
  1

  0
LINE
  5
9F
  8
PLATE$SWITCHHOLES
 10
-6.499999999999972
 20
-7.0
 30
0.0
 11
6.499999999999972
 21
-7.0
 31
0.0
  0
ARC
  5
A0
  8
PLATE$SWITCHHOLES
 10
6.5
 20
-6.5
 30
0.0
 40
0.5
 50
270.0000000000001
 51
0.0
  0
LINE
  5
A1
  8
PLATE$SWITCHHOLES
 10
7.0
 20
-6.5
 30
0.0
 11
6.999999999999972
 21
6.5
 31
0.0
  0
ARC
  5
A2
  8
PLATE$SWITCHHOLES
 10
6.499999999999984
 20
6.500000000000012
 30
0.0
 40
0.4999999999999876
 50
0.0000000000014249
 51
90.00000000000142
  0
LINE
  5
A3
  8
PLATE$SWITCHHOLES
 10
6.499999999999972
 20
7.0
 30
0.0
 11
-6.5
 21
7.0
 31
0.0
  0
ARC
  5
A4
  8
PLATE$SWITCHHOLES
 10
-6.5
 20
6.5
 30
0.0
 40
0.5
 50
89.9999999999998
 51
180.0
  0
LINE
  5
A5
  8
PLATE$SWITCHHOLES
 10
-7.0
 20
6.5
 30
0.0
 11
-6.999999999999972
 21
-6.5
 31
0.0
  0
ARC
  5
A6
  8
PLATE$SWITCHHOLES
 10
-6.499999999999972
 20
-6.5
 30
0.0
 40
0.5
 50
179.9999999999993
 51
270.0
  0
POINT
  5
A7
  8
PLATE$SWITCHHOLES
 10
0.0
 20
0.0
 30
0.0
  0
ENDBLK
  5
A9
  8
0
  0
ENDSEC
  0
SECTION
  2
ENTITIES
  0
INSERT
  5
CA
  8
0
  2
SSPLATE_VANANASPLIT_REV1_2
 10
2.514798474202507
 20
33.43349092729977
 30
0.0
 41
-1.0
  0
INSERT
  5
CB
  8
0
  2
SSPLATE_VANANASPLIT_REV1_2
 10
0.51780744694247
 20
33.43349092729977
 30
0.0
  0
ENDSEC
  0
EOF
