  0
SECTION
  2
HEADER
  9
$ACADVER
  1
AC1009
  9
$DWGCODEPAGE
  3
ansi_1252
  9
$INSBASE
 10
0.0
 20
0.0
 30
0.0
  9
$EXTMIN
 10
1.000000000000000E+20
 20
1.000000000000000E+20
 30
1.000000000000000E+20
  9
$EXTMAX
 10
-1.000000000000000E+20
 20
-1.000000000000000E+20
 30
-1.000000000000000E+20
  9
$LIMMIN
 10
0.0
 20
0.0
  9
$LIMMAX
 10
12.0
 20
9.0
  9
$ORTHOMODE
 70
     0
  9
$REGENMODE
 70
     1
  9
$FILLMODE
 70
     1
  9
$QTEXTMODE
 70
     0
  9
$MIRRTEXT
 70
     1
  9
$DRAGMODE
 70
     2
  9
$LTSCALE
 40
1.0
  9
$OSMODE
 70
    37
  9
$ATTMODE
 70
     1
  9
$TEXTSIZE
 40
0.2
  9
$TRACEWID
 40
0.05
  9
$TEXTSTYLE
  7
STANDARD
  9
$CLAYER
  8
0
  9
$CELTYPE
  6
BYLAYER
  9
$CECOLOR
 62
   256
  9
$DIMSCALE
 40
1.0
  9
$DIMASZ
 40
0.18
  9
$DIMEXO
 40
0.0625
  9
$DIMDLI
 40
0.38
  9
$DIMRND
 40
0.0
  9
$DIMDLE
 40
0.0
  9
$DIMEXE
 40
0.18
  9
$DIMTP
 40
0.0
  9
$DIMTM
 40
0.0
  9
$DIMTXT
 40
0.18
  9
$DIMCEN
 40
0.09
  9
$DIMTSZ
 40
0.0
  9
$DIMTOL
 70
     0
  9
$DIMLIM
 70
     0
  9
$DIMTIH
 70
     1
  9
$DIMTOH
 70
     1
  9
$DIMSE1
 70
     0
  9
$DIMSE2
 70
     0
  9
$DIMTAD
 70
     0
  9
$DIMZIN
 70
     0
  9
$DIMBLK
  1

  9
$DIMASO
 70
     1
  9
$DIMSHO
 70
     1
  9
$DIMPOST
  1

  9
$DIMAPOST
  1

  9
$DIMALT
 70
     0
  9
$DIMALTD
 70
     2
  9
$DIMALTF
 40
25.4
  9
$DIMLFAC
 40
1.0
  9
$DIMTOFL
 70
     0
  9
$DIMTVP
 40
0.0
  9
$DIMTIX
 70
     0
  9
$DIMSOXD
 70
     0
  9
$DIMSAH
 70
     0
  9
$DIMBLK1
  1

  9
$DIMBLK2
  1

  9
$DIMSTYLE
  2
STANDARD_ACAD
  9
$DIMCLRD
 70
     0
  9
$DIMCLRE
 70
     0
  9
$DIMCLRT
 70
     0
  9
$DIMTFAC
 40
1.0
  9
$DIMGAP
 40
0.09
  9
$LUNITS
 70
     2
  9
$LUPREC
 70
     3
  9
$SKETCHINC
 40
0.1
  9
$FILLETRAD
 40
0.5
  9
$AUNITS
 70
     0
  9
$AUPREC
 70
     0
  9
$MENU
  1
.
  9
$ELEVATION
 40
0.0
  9
$PELEVATION
 40
0.0
  9
$THICKNESS
 40
0.0
  9
$LIMCHECK
 70
     0
  9
$CHAMFERA
 40
0.0
  9
$CHAMFERB
 40
0.0
  9
$SKPOLY
 70
     0
  9
$TDCREATE
 40
2459456.759253484
  9
$TDUPDATE
 40
2459456.759266574
  9
$TDINDWG
 40
0.0000000116
  9
$TDUSRTIMER
 40
0.0000000116
  9
$USRTIMER
 70
     1
  9
$ANGBASE
 50
0.0
  9
$ANGDIR
 70
     0
  9
$PDMODE
 70
     0
  9
$PDSIZE
 40
0.0
  9
$PLINEWID
 40
0.0
  9
$COORDS
 70
     1
  9
$SPLFRAME
 70
     0
  9
$SPLINETYPE
 70
     6
  9
$SPLINESEGS
 70
     8
  9
$ATTDIA
 70
     0
  9
$ATTREQ
 70
     1
  9
$HANDLING
 70
     1
  9
$HANDSEED
  5
C8
  9
$SURFTAB1
 70
     6
  9
$SURFTAB2
 70
     6
  9
$SURFTYPE
 70
     6
  9
$SURFU
 70
     6
  9
$SURFV
 70
     6
  9
$UCSNAME
  2

  9
$UCSORG
 10
0.0
 20
0.0
 30
0.0
  9
$UCSXDIR
 10
1.0
 20
0.0
 30
0.0
  9
$UCSYDIR
 10
0.0
 20
1.0
 30
0.0
  9
$PUCSNAME
  2

  9
$PUCSORG
 10
0.0
 20
0.0
 30
0.0
  9
$PUCSXDIR
 10
1.0
 20
0.0
 30
0.0
  9
$PUCSYDIR
 10
0.0
 20
1.0
 30
0.0
  9
$USERI1
 70
     0
  9
$USERI2
 70
     0
  9
$USERI3
 70
     0
  9
$USERI4
 70
     0
  9
$USERI5
 70
     0
  9
$USERR1
 40
0.0
  9
$USERR2
 40
0.0
  9
$USERR3
 40
0.0
  9
$USERR4
 40
0.0
  9
$USERR5
 40
0.0
  9
$WORLDVIEW
 70
     1
  9
$SHADEDGE
 70
     3
  9
$SHADEDIF
 70
    70
  9
$TILEMODE
 70
     1
  9
$MAXACTVP
 70
    64
  9
$PLIMCHECK
 70
     0
  9
$PEXTMIN
 10
1.000000000000000E+20
 20
1.000000000000000E+20
 30
1.000000000000000E+20
  9
$PEXTMAX
 10
-1.000000000000000E+20
 20
-1.000000000000000E+20
 30
-1.000000000000000E+20
  9
$PLIMMIN
 10
0.0
 20
0.0
  9
$PLIMMAX
 10
12.0
 20
9.0
  9
$UNITMODE
 70
     0
  9
$VISRETAIN
 70
     1
  9
$PLINEGEN
 70
     0
  9
$PSLTSCALE
 70
     1
  0
ENDSEC
  0
SECTION
  2
TABLES
  0
TABLE
  2
VPORT
 70
     1
  0
VPORT
  2
*ACTIVE
 70
     0
 10
0.0
 20
0.0
 11
1.0
 21
1.0
 12
10.42990654205607
 22
4.5
 13
0.0
 23
0.0
 14
0.5
 24
0.5
 15
0.5
 25
0.5
 16
0.0
 26
0.0
 36
1.0
 17
0.0
 27
0.0
 37
0.0
 40
9.0
 41
1.972972972850329
 42
50.0
 43
0.0
 44
0.0
 50
0.0
 51
0.0
 71
     0
 72
   100
 73
     1
 74
     3
 75
     0
 76
     0
 77
     0
 78
     0
  0
ENDTAB
  0
TABLE
  2
LTYPE
 70
     1
  0
LTYPE
  2
CONTINUOUS
 70
     0
  3
Solid line
 72
    65
 73
     0
 40
0.0
  0
ENDTAB
  0
TABLE
  2
LAYER
 70
     3
  0
LAYER
  2
0
 70
     0
 62
     7
  6
CONTINUOUS
  0
LAYER
  2
PLATE$SCREWHOLES
 70
     0
 62
   254
  6
CONTINUOUS
  0
LAYER
  2
PLATE$OUTLINE
 70
     0
 62
     3
  6
CONTINUOUS
  0
ENDTAB
  0
TABLE
  2
STYLE
 70
     1
  0
STYLE
  2
STANDARD
 70
     0
 40
0.0
 41
1.0
 50
0.0
 71
     0
 42
0.2
  3
txt
  4

  0
ENDTAB
  0
TABLE
  2
VIEW
 70
     0
  0
ENDTAB
  0
TABLE
  2
UCS
 70
     0
  0
ENDTAB
  0
TABLE
  2
APPID
 70
     1
  0
APPID
  2
ACAD
 70
     0
  0
ENDTAB
  0
TABLE
  2
DIMSTYLE
 70
     1
  0
DIMSTYLE
  2
STANDARD_ACAD
 70
     0
  3

  4

  5

  6

  7

 40
1.0
 41
0.18
 42
0.0625
 43
0.38
 44
0.18
 45
0.0
 46
0.0
 47
0.0
 48
0.0
140
0.18
141
0.09
142
0.0
143
25.4
144
1.0
145
0.0
146
1.0
147
0.09
 71
     0
 72
     0
 73
     1
 74
     1
 75
     0
 76
     0
 77
     0
 78
     0
170
     0
171
     2
172
     0
173
     0
174
     0
175
     0
176
     0
177
     0
178
     0
  0
ENDTAB
  0
ENDSEC
  0
SECTION
  2
BLOCKS
  0
BLOCK
  8
0
  2
$MODEL_SPACE
 70
     0
 10
0.0
 20
0.0
 30
0.0
  3
$MODEL_SPACE
  1

  0
ENDBLK
  5
21
  8
0
  0
BLOCK
 67
     1
  8
0
  2
$PAPER_SPACE
 70
     0
 10
0.0
 20
0.0
 30
0.0
  3
$PAPER_SPACE
  1

  0
ENDBLK
  5
1D
 67
     1
  8
0
  0
BLOCK
  8
0
  2
2D_M2_SCREWHOLE_2_2MM
 70
     0
 10
0.0
 20
0.0
 30
0.0
  3
2D_M2_SCREWHOLE_2_2MM
  1

  0
CIRCLE
  5
70
  8
PLATE$SCREWHOLES
 10
-0.0185476855430409
 20
-0.0792524863784365
 30
0.0
 40
1.05
  0
POINT
  5
71
  8
PLATE$SCREWHOLES
 10
-0.0185476855430409
 20
-0.0792524863784365
 30
0.0
  0
ENDBLK
  5
73
  8
0
  0
ENDSEC
  0
SECTION
  2
ENTITIES
  0
INSERT
  5
74
  8
0
  2
2D_M2_SCREWHOLE_2_2MM
 10
128.6349873160757
 20
19.85503416880768
 30
0.0
 41
-0.9999999999999999
  0
INSERT
  5
75
  8
0
  2
2D_M2_SCREWHOLE_2_2MM
 10
119.1099873160757
 20
23.82378416880768
 30
0.0
 41
-0.9999999999999999
  0
INSERT
  5
76
  8
0
  2
2D_M2_SCREWHOLE_2_2MM
 10
117.1097373160757
 20
-35.4534658311924
 30
0.0
 41
-0.9999999999999999
  0
INSERT
  5
77
  8
0
  2
2D_M2_SCREWHOLE_2_2MM
 10
77.83498731607564
 20
-26.18246583119245
 30
0.0
 41
-0.9999999999999999
  0
INSERT
  5
78
  8
0
  2
2D_M2_SCREWHOLE_2_2MM
 10
58.24730331607565
 20
-40.0354098311922
 30
0.0
 41
-0.9999999999999999
  0
INSERT
  5
79
  8
0
  2
2D_M2_SCREWHOLE_2_2MM
 10
81.00998731607565
 20
-2.369965831192442
 30
0.0
 41
-0.9999999999999999
  0
INSERT
  5
7A
  8
0
  2
2D_M2_SCREWHOLE_2_2MM
 10
81.00998731607565
 20
12.71128416880751
 30
0.0
 41
-0.9999999999999999
  0
INSERT
  5
7B
  8
0
  2
2D_M2_SCREWHOLE_2_2MM
 10
29.41623731607566
 20
-38.88246583119226
 30
0.0
 41
-0.9999999999999999
  0
INSERT
  5
7C
  8
0
  2
2D_M2_SCREWHOLE_2_2MM
 10
7.984987316075681
 20
-33.3262158311924
 30
0.0
 41
-0.9999999999999999
  0
INSERT
  5
7D
  8
0
  2
2D_M2_SCREWHOLE_2_2MM
 10
42.90998731607563
 20
27.79253416880768
 30
0.0
 41
-0.9999999999999999
  0
LINE
  5
7F
  8
PLATE$OUTLINE
 10
3.634787931350978
 20
-47.50135983539272
 30
0.0
 11
3.634785108585299
 21
-7.917968585223807
 31
0.0
  0
ARC
  5
80
  8
PLATE$OUTLINE
 10
-5.134787931350978
 20
-47.501359728425
 30
0.0
 40
1.5
 50
274.5505752385632
 51
359.9999959141341
210
0.0
220
0.0
230
-1.0
  0
LINE
  5
81
  8
PLATE$OUTLINE
 10
55.02556935848408
 20
-52.97690747913217
 30
0.0
 11
5.015779358755161
 21
-48.99663126218243
 31
0.0
  0
ARC
  5
82
  8
PLATE$OUTLINE
 10
-55.14457793107962
 20
-51.48163594538019
 30
0.0
 40
1.5
 50
190.0000040286025
 51
274.5505752385683
210
0.0
220
0.0
230
-1.0
  0
LINE
  5
83
  8
PLATE$OUTLINE
 10
57.22717723227176
 20
-48.30878552733739
 30
0.0
 11
56.62178954228351
 21
-51.74210831574683
 31
0.0
  0
ARC
  5
84
  8
PLATE$OUTLINE
 10
58.70438884347552
 20
-48.56925789770472
 30
0.0
 40
1.5
 50
79.99999684768053
 51
169.9999959713722
  0
LINE
  5
85
  8
PLATE$OUTLINE
 10
126.362633548495
 20
-58.9760958121982
 30
0.0
 11
58.96486119124966
 21
-47.09204628251715
 31
0.0
  0
ARC
  5
86
  8
PLATE$OUTLINE
 10
-126.6231058962711
 20
-57.4988841970109
 30
0.0
 40
1.5
 50
190.0000000000223
 51
280.0000031523979
210
0.0
220
0.0
230
-1.0
  0
LINE
  5
87
  8
PLATE$OUTLINE
 10
131.4056744113534
 20
-39.01374605107313
 30
0.0
 11
128.1003175257894
 21
-57.75935646351189
 31
0.0
  0
ARC
  5
88
  8
PLATE$OUTLINE
 10
132.8828860408719
 20
-39.27421831757252
 30
0.0
 40
1.5
 50
89.99999999994138
 51
170.0000000000394
  0
LINE
  5
89
  8
PLATE$OUTLINE
 10
137.0785380016177
 20
-37.77421831757752
 30
0.0
 11
132.8828860408734
 21
-37.77421831757252
 31
0.0
  0
ARC
  5
8A
  8
PLATE$OUTLINE
 10
-137.0785380016181
 20
-36.27421831757752
 30
0.0
 40
1.5
 50
179.9999999997503
 51
270.0000000000173
210
0.0
220
0.0
230
-1.0
  0
LINE
  5
8B
  8
PLATE$OUTLINE
 10
138.5785380016182
 20
41.69453168242975
 30
0.0
 11
138.5785380016181
 21
-36.27421831758411
 31
0.0
  0
ARC
  5
8C
  8
PLATE$OUTLINE
 10
-137.0785380016181
 20
41.69453168242921
 30
0.0
 40
1.50000000000009
 50
90.00000000000436
 51
179.9999999999791
210
0.0
220
0.0
230
-1.0
  0
LINE
  5
8D
  8
PLATE$OUTLINE
 10
101.9785372409894
 20
43.1945316824293
 30
0.0
 11
137.0785380016182
 21
43.1945316824293
 31
0.0
  0
ARC
  5
8E
  8
PLATE$OUTLINE
 10
101.9785372409893
 20
44.69453168242923
 30
0.0
 40
1.49999999999994
 50
179.9999927816392
 51
270.0000000000032
  0
LINE
  5
8F
  8
PLATE$OUTLINE
 10
100.478538363035
 20
53.60077449345258
 30
0.0
 11
100.4785372409894
 21
44.69453187140547
 31
0.0
  0
ARC
  5
90
  8
PLATE$OUTLINE
 10
-98.97853836303499
 20
53.60077468242895
 30
0.0
 40
1.500000000000028
 50
90.00000000001357
 51
180.0000072183657
210
0.0
220
0.0
230
-1.0
  0
LINE
  5
91
  8
PLATE$OUTLINE
 10
44.02853800161883
 20
55.1007746824292
 30
0.0
 11
98.97853836303533
 21
55.10077468242898
 31
0.0
  0
ARC
  5
92
  8
PLATE$OUTLINE
 10
-44.02853800161882
 20
53.60077468242922
 30
0.0
 40
1.499999999999986
 50
0.0000000000097707
 51
90.00000000000054
210
0.0
220
0.0
230
-1.0
  0
LINE
  5
93
  8
PLATE$OUTLINE
 10
42.52853800161872
 20
48.66328168242953
 30
0.0
 11
42.52853800161883
 21
53.60077468242898
 31
0.0
  0
ARC
  5
94
  8
PLATE$OUTLINE
 10
41.02853800161848
 20
48.66328168242953
 30
0.0
 40
1.500000000000235
 50
269.9999999999927
 51
0.0000000000005428
  0
LINE
  5
95
  8
PLATE$OUTLINE
 10
25.37853723620346
 20
47.16328171095401
 30
0.0
 11
41.02853800161829
 21
47.1632816824293
 31
0.0
  0
ARC
  5
96
  8
PLATE$OUTLINE
 10
-25.37853723620369
 20
45.66328171095381
 30
0.0
 40
1.5000000000002
 50
0.0000120305175968
 51
89.99999999999145
210
0.0
220
0.0
230
-1.0
  0
LINE
  5
97
  8
PLATE$OUTLINE
 10
23.87852672798353
 20
-4.917968906161757
 30
0.0
 11
23.87853723620352
 21
45.66328202591203
 31
0.0
  0
ARC
  5
98
  8
PLATE$OUTLINE
 10
22.37852672798352
 20
-4.917968591203465
 30
0.0
 40
1.500000000000043
 50
269.9999995188474
 51
359.9999879694798
  0
LINE
  5
99
  8
PLATE$OUTLINE
 10
5.134785121183504
 20
-6.417968478261091
 30
0.0
 11
22.37852671538697
 21
-6.417968591203508
 31
0.0
  0
ARC
  5
9A
  8
PLATE$OUTLINE
 10
-5.134785108585467
 20
-7.917968478261262
 30
0.0
 40
1.500000000000173
 50
359.9999959143317
 51
90.00000048120961
210
0.0
220
0.0
230
-1.0
  0
INSERT
  5
9B
  8
0
  2
2D_M2_SCREWHOLE_2_2MM
 10
-129.5943934042336
 20
19.85503416880768
 30
0.0
 41
0.9999999999999999
  0
INSERT
  5
9C
  8
0
  2
2D_M2_SCREWHOLE_2_2MM
 10
-120.0693934042336
 20
23.82378416880768
 30
0.0
 41
0.9999999999999999
  0
INSERT
  5
9D
  8
0
  2
2D_M2_SCREWHOLE_2_2MM
 10
-118.0691434042336
 20
-35.4534658311924
 30
0.0
 41
0.9999999999999999
  0
INSERT
  5
9E
  8
0
  2
2D_M2_SCREWHOLE_2_2MM
 10
-78.7943934042335
 20
-26.18246583119245
 30
0.0
 41
0.9999999999999999
  0
INSERT
  5
9F
  8
0
  2
2D_M2_SCREWHOLE_2_2MM
 10
-59.20670940423351
 20
-40.0354098311922
 30
0.0
 41
0.9999999999999999
  0
INSERT
  5
A0
  8
0
  2
2D_M2_SCREWHOLE_2_2MM
 10
-81.96939340423351
 20
-2.369965831192442
 30
0.0
 41
0.9999999999999999
  0
INSERT
  5
A1
  8
0
  2
2D_M2_SCREWHOLE_2_2MM
 10
-81.96939340423351
 20
12.71128416880751
 30
0.0
 41
0.9999999999999999
  0
INSERT
  5
A2
  8
0
  2
2D_M2_SCREWHOLE_2_2MM
 10
-30.37564340423352
 20
-38.88246583119226
 30
0.0
 41
0.9999999999999999
  0
INSERT
  5
A3
  8
0
  2
2D_M2_SCREWHOLE_2_2MM
 10
-8.944393404233537
 20
-33.3262158311924
 30
0.0
 41
0.9999999999999999
  0
INSERT
  5
A4
  8
0
  2
2D_M2_SCREWHOLE_2_2MM
 10
-43.86939340423348
 20
27.79253416880768
 30
0.0
 41
0.9999999999999999
  0
LINE
  5
A5
  8
PLATE$OUTLINE
 10
-4.594194019508834
 20
-47.50135983539272
 30
0.0
 11
-4.594191196743155
 21
-7.917968585223807
 31
0.0
  0
ARC
  5
A6
  8
PLATE$OUTLINE
 10
-6.094194019508834
 20
-47.501359728425
 30
0.0
 40
1.5
 50
274.5505752385632
 51
359.9999959141341
  0
LINE
  5
A7
  8
PLATE$OUTLINE
 10
-55.98497544664194
 20
-52.97690747913217
 30
0.0
 11
-5.975185446913017
 21
-48.99663126218243
 31
0.0
  0
ARC
  5
A8
  8
PLATE$OUTLINE
 10
-56.10398401923748
 20
-51.48163594538019
 30
0.0
 40
1.5
 50
190.0000040286025
 51
274.5505752385683
  0
LINE
  5
A9
  8
PLATE$OUTLINE
 10
-58.18658332042962
 20
-48.30878552733739
 30
0.0
 11
-57.58119563044136
 21
-51.74210831574683
 31
0.0
  0
ARC
  5
AA
  8
PLATE$OUTLINE
 10
59.66379493163338
 20
-48.56925789770472
 30
0.0
 40
1.5
 50
79.99999684768053
 51
169.9999959713722
210
0.0
220
0.0
230
-1.0
  0
LINE
  5
AB
  8
PLATE$OUTLINE
 10
-127.3220396366529
 20
-58.9760958121982
 30
0.0
 11
-59.92426727940752
 21
-47.09204628251715
 31
0.0
  0
ARC
  5
AC
  8
PLATE$OUTLINE
 10
-127.582511984429
 20
-57.4988841970109
 30
0.0
 40
1.5
 50
190.0000000000221
 51
280.0000031523979
  0
LINE
  5
AD
  8
PLATE$OUTLINE
 10
-132.3650804995112
 20
-39.01374605107313
 30
0.0
 11
-129.0597236139473
 21
-57.75935646351189
 31
0.0
  0
ARC
  5
AE
  8
PLATE$OUTLINE
 10
133.8422921290298
 20
-39.27421831757252
 30
0.0
 40
1.5
 50
89.99999999994138
 51
170.0000000000394
210
0.0
220
0.0
230
-1.0
  0
LINE
  5
AF
  8
PLATE$OUTLINE
 10
-138.0379440897756
 20
-37.77421831757752
 30
0.0
 11
-133.8422921290313
 21
-37.77421831757252
 31
0.0
  0
ARC
  5
B0
  8
PLATE$OUTLINE
 10
-138.037944089776
 20
-36.27421831757752
 30
0.0
 40
1.5
 50
179.9999999997503
 51
270.0000000000173
  0
LINE
  5
B1
  8
PLATE$OUTLINE
 10
-139.537944089776
 20
41.69453168242975
 30
0.0
 11
-139.537944089776
 21
-36.27421831758411
 31
0.0
  0
ARC
  5
B2
  8
PLATE$OUTLINE
 10
-138.037944089776
 20
41.69453168242921
 30
0.0
 40
1.50000000000009
 50
90.00000000000436
 51
179.9999999999791
  0
LINE
  5
B3
  8
PLATE$OUTLINE
 10
-102.9379433291473
 20
43.1945316824293
 30
0.0
 11
-138.037944089776
 21
43.1945316824293
 31
0.0
  0
ARC
  5
B4
  8
PLATE$OUTLINE
 10
102.9379433291472
 20
44.69453168242923
 30
0.0
 40
1.49999999999994
 50
179.9999927816392
 51
270.0000000000032
210
0.0
220
0.0
230
-1.0
  0
LINE
  5
B5
  8
PLATE$OUTLINE
 10
-101.4379444511929
 20
53.60077449345258
 30
0.0
 11
-101.4379433291473
 21
44.69453187140547
 31
0.0
  0
ARC
  5
B6
  8
PLATE$OUTLINE
 10
-99.93794445119283
 20
53.60077468242895
 30
0.0
 40
1.500000000000028
 50
90.00000000001357
 51
180.0000072183657
  0
LINE
  5
B7
  8
PLATE$OUTLINE
 10
-44.98794408977669
 20
55.1007746824292
 30
0.0
 11
-99.93794445119319
 21
55.10077468242898
 31
0.0
  0
ARC
  5
B8
  8
PLATE$OUTLINE
 10
-44.98794408977668
 20
53.60077468242922
 30
0.0
 40
1.499999999999986
 50
0.0000000000097707
 51
90.00000000000054
  0
LINE
  5
B9
  8
PLATE$OUTLINE
 10
-43.48794408977658
 20
48.66328168242953
 30
0.0
 11
-43.48794408977669
 21
53.60077468242898
 31
0.0
  0
ARC
  5
BA
  8
PLATE$OUTLINE
 10
41.98794408977633
 20
48.66328168242953
 30
0.0
 40
1.500000000000235
 50
269.9999999999927
 51
0.0000000000005428
210
0.0
220
0.0
230
-1.0
  0
LINE
  5
BB
  8
PLATE$OUTLINE
 10
-26.33794332436132
 20
47.16328171095401
 30
0.0
 11
-41.98794408977615
 21
47.1632816824293
 31
0.0
  0
ARC
  5
BC
  8
PLATE$OUTLINE
 10
-26.33794332436155
 20
45.66328171095381
 30
0.0
 40
1.5000000000002
 50
0.0000120305175968
 51
89.99999999999145
  0
LINE
  5
BD
  8
PLATE$OUTLINE
 10
-24.83793281614139
 20
-4.917968906161757
 30
0.0
 11
-24.83794332436138
 21
45.66328202591203
 31
0.0
  0
ARC
  5
BE
  8
PLATE$OUTLINE
 10
23.33793281614138
 20
-4.917968591203465
 30
0.0
 40
1.500000000000043
 50
269.9999995188474
 51
359.9999879694798
210
0.0
220
0.0
230
-1.0
  0
LINE
  5
BF
  8
PLATE$OUTLINE
 10
-6.09419120934136
 20
-6.417968478261091
 30
0.0
 11
-23.33793280354483
 21
-6.417968591203508
 31
0.0
  0
ARC
  5
C0
  8
PLATE$OUTLINE
 10
-6.094191196743322
 20
-7.917968478261262
 30
0.0
 40
1.500000000000173
 50
359.9999959143317
 51
90.00000048120961
  0
ENDSEC
  0
EOF
