G04 #@! TF.GenerationSoftware,KiCad,Pcbnew,(5.1.6)-1*
G04 #@! TF.CreationDate,2020-07-06T00:16:10-04:00*
G04 #@! TF.ProjectId,ki75rt_PlateBottom,6b693735-7274-45f5-906c-617465426f74,rev?*
G04 #@! TF.SameCoordinates,Original*
G04 #@! TF.FileFunction,Copper,L2,Bot*
G04 #@! TF.FilePolarity,Positive*
%FSLAX46Y46*%
G04 Gerber Fmt 4.6, Leading zero omitted, Abs format (unit mm)*
G04 Created by KiCad (PCBNEW (5.1.6)-1) date 2020-07-06 00:16:10*
%MOMM*%
%LPD*%
G01*
G04 APERTURE LIST*
G04 #@! TA.AperFunction,Conductor*
%ADD10C,2.000000*%
G04 #@! TD*
G04 #@! TA.AperFunction,Conductor*
%ADD11C,0.254000*%
G04 #@! TD*
G04 APERTURE END LIST*
D10*
X46482000Y-85598000D03*
D11*
G36*
X313879993Y-28401241D02*
G01*
X314215444Y-28502520D01*
X314524841Y-28667029D01*
X314796387Y-28888498D01*
X315019750Y-29158497D01*
X315186414Y-29466735D01*
X315290033Y-29801474D01*
X315329501Y-30176988D01*
X315329500Y-122208982D01*
X315292509Y-122586243D01*
X315191231Y-122921693D01*
X315026722Y-123231089D01*
X314805251Y-123502639D01*
X314535253Y-123726000D01*
X314227015Y-123892664D01*
X313892276Y-123996283D01*
X313516771Y-124035750D01*
X29397268Y-124035750D01*
X29020007Y-123998759D01*
X28684557Y-123897481D01*
X28375161Y-123732972D01*
X28103611Y-123511501D01*
X27880250Y-123241503D01*
X27713586Y-122933265D01*
X27609967Y-122598526D01*
X27570500Y-122223021D01*
X27570500Y-104616626D01*
X46017000Y-104616626D01*
X46017000Y-104933374D01*
X46078795Y-105244036D01*
X46200009Y-105536673D01*
X46375985Y-105800040D01*
X46599960Y-106024015D01*
X46863327Y-106199991D01*
X47155964Y-106321205D01*
X47466626Y-106383000D01*
X47783374Y-106383000D01*
X48094036Y-106321205D01*
X48386673Y-106199991D01*
X48650040Y-106024015D01*
X48874015Y-105800040D01*
X49049991Y-105536673D01*
X49171205Y-105244036D01*
X49233000Y-104933374D01*
X49233000Y-104616626D01*
X122217000Y-104616626D01*
X122217000Y-104933374D01*
X122278795Y-105244036D01*
X122400009Y-105536673D01*
X122575985Y-105800040D01*
X122799960Y-106024015D01*
X123063327Y-106199991D01*
X123355964Y-106321205D01*
X123666626Y-106383000D01*
X123983374Y-106383000D01*
X124294036Y-106321205D01*
X124586673Y-106199991D01*
X124850040Y-106024015D01*
X125074015Y-105800040D01*
X125249991Y-105536673D01*
X125371205Y-105244036D01*
X125433000Y-104933374D01*
X125433000Y-104616626D01*
X217467000Y-104616626D01*
X217467000Y-104933374D01*
X217528795Y-105244036D01*
X217650009Y-105536673D01*
X217825985Y-105800040D01*
X218049960Y-106024015D01*
X218313327Y-106199991D01*
X218605964Y-106321205D01*
X218916626Y-106383000D01*
X219233374Y-106383000D01*
X219544036Y-106321205D01*
X219836673Y-106199991D01*
X220100040Y-106024015D01*
X220324015Y-105800040D01*
X220499991Y-105536673D01*
X220621205Y-105244036D01*
X220683000Y-104933374D01*
X220683000Y-104616626D01*
X293667000Y-104616626D01*
X293667000Y-104933374D01*
X293728795Y-105244036D01*
X293850009Y-105536673D01*
X294025985Y-105800040D01*
X294249960Y-106024015D01*
X294513327Y-106199991D01*
X294805964Y-106321205D01*
X295116626Y-106383000D01*
X295433374Y-106383000D01*
X295744036Y-106321205D01*
X296036673Y-106199991D01*
X296300040Y-106024015D01*
X296524015Y-105800040D01*
X296699991Y-105536673D01*
X296821205Y-105244036D01*
X296883000Y-104933374D01*
X296883000Y-104616626D01*
X296821205Y-104305964D01*
X296699991Y-104013327D01*
X296524015Y-103749960D01*
X296300040Y-103525985D01*
X296036673Y-103350009D01*
X295744036Y-103228795D01*
X295433374Y-103167000D01*
X295116626Y-103167000D01*
X294805964Y-103228795D01*
X294513327Y-103350009D01*
X294249960Y-103525985D01*
X294025985Y-103749960D01*
X293850009Y-104013327D01*
X293728795Y-104305964D01*
X293667000Y-104616626D01*
X220683000Y-104616626D01*
X220621205Y-104305964D01*
X220499991Y-104013327D01*
X220324015Y-103749960D01*
X220100040Y-103525985D01*
X219836673Y-103350009D01*
X219544036Y-103228795D01*
X219233374Y-103167000D01*
X218916626Y-103167000D01*
X218605964Y-103228795D01*
X218313327Y-103350009D01*
X218049960Y-103525985D01*
X217825985Y-103749960D01*
X217650009Y-104013327D01*
X217528795Y-104305964D01*
X217467000Y-104616626D01*
X125433000Y-104616626D01*
X125371205Y-104305964D01*
X125249991Y-104013327D01*
X125074015Y-103749960D01*
X124850040Y-103525985D01*
X124586673Y-103350009D01*
X124294036Y-103228795D01*
X123983374Y-103167000D01*
X123666626Y-103167000D01*
X123355964Y-103228795D01*
X123063327Y-103350009D01*
X122799960Y-103525985D01*
X122575985Y-103749960D01*
X122400009Y-104013327D01*
X122278795Y-104305964D01*
X122217000Y-104616626D01*
X49233000Y-104616626D01*
X49171205Y-104305964D01*
X49049991Y-104013327D01*
X48874015Y-103749960D01*
X48650040Y-103525985D01*
X48386673Y-103350009D01*
X48094036Y-103228795D01*
X47783374Y-103167000D01*
X47466626Y-103167000D01*
X47155964Y-103228795D01*
X46863327Y-103350009D01*
X46599960Y-103525985D01*
X46375985Y-103749960D01*
X46200009Y-104013327D01*
X46078795Y-104305964D01*
X46017000Y-104616626D01*
X27570500Y-104616626D01*
X27570500Y-86733413D01*
X45526192Y-86733413D01*
X45621956Y-86997814D01*
X45911571Y-87138704D01*
X46223108Y-87220384D01*
X46544595Y-87239718D01*
X46863675Y-87195961D01*
X47168088Y-87090795D01*
X47342044Y-86997814D01*
X47437808Y-86733413D01*
X46482000Y-85777605D01*
X45526192Y-86733413D01*
X27570500Y-86733413D01*
X27570500Y-85660595D01*
X44840282Y-85660595D01*
X44884039Y-85979675D01*
X44989205Y-86284088D01*
X45082186Y-86458044D01*
X45346587Y-86553808D01*
X46302395Y-85598000D01*
X46661605Y-85598000D01*
X47617413Y-86553808D01*
X47881814Y-86458044D01*
X48022704Y-86168429D01*
X48104384Y-85856892D01*
X48121840Y-85566626D01*
X84117000Y-85566626D01*
X84117000Y-85883374D01*
X84178795Y-86194036D01*
X84300009Y-86486673D01*
X84475985Y-86750040D01*
X84699960Y-86974015D01*
X84963327Y-87149991D01*
X85255964Y-87271205D01*
X85566626Y-87333000D01*
X85883374Y-87333000D01*
X86194036Y-87271205D01*
X86486673Y-87149991D01*
X86750040Y-86974015D01*
X86974015Y-86750040D01*
X87149991Y-86486673D01*
X87271205Y-86194036D01*
X87333000Y-85883374D01*
X87333000Y-85566626D01*
X255567000Y-85566626D01*
X255567000Y-85883374D01*
X255628795Y-86194036D01*
X255750009Y-86486673D01*
X255925985Y-86750040D01*
X256149960Y-86974015D01*
X256413327Y-87149991D01*
X256705964Y-87271205D01*
X257016626Y-87333000D01*
X257333374Y-87333000D01*
X257644036Y-87271205D01*
X257936673Y-87149991D01*
X258200040Y-86974015D01*
X258424015Y-86750040D01*
X258599991Y-86486673D01*
X258721205Y-86194036D01*
X258783000Y-85883374D01*
X258783000Y-85566626D01*
X258721205Y-85255964D01*
X258599991Y-84963327D01*
X258424015Y-84699960D01*
X258200040Y-84475985D01*
X257936673Y-84300009D01*
X257644036Y-84178795D01*
X257333374Y-84117000D01*
X257016626Y-84117000D01*
X256705964Y-84178795D01*
X256413327Y-84300009D01*
X256149960Y-84475985D01*
X255925985Y-84699960D01*
X255750009Y-84963327D01*
X255628795Y-85255964D01*
X255567000Y-85566626D01*
X87333000Y-85566626D01*
X87271205Y-85255964D01*
X87149991Y-84963327D01*
X86974015Y-84699960D01*
X86750040Y-84475985D01*
X86486673Y-84300009D01*
X86194036Y-84178795D01*
X85883374Y-84117000D01*
X85566626Y-84117000D01*
X85255964Y-84178795D01*
X84963327Y-84300009D01*
X84699960Y-84475985D01*
X84475985Y-84699960D01*
X84300009Y-84963327D01*
X84178795Y-85255964D01*
X84117000Y-85566626D01*
X48121840Y-85566626D01*
X48123718Y-85535405D01*
X48079961Y-85216325D01*
X47974795Y-84911912D01*
X47881814Y-84737956D01*
X47617413Y-84642192D01*
X46661605Y-85598000D01*
X46302395Y-85598000D01*
X45346587Y-84642192D01*
X45082186Y-84737956D01*
X44941296Y-85027571D01*
X44859616Y-85339108D01*
X44840282Y-85660595D01*
X27570500Y-85660595D01*
X27570500Y-84462587D01*
X45526192Y-84462587D01*
X46482000Y-85418395D01*
X47437808Y-84462587D01*
X47342044Y-84198186D01*
X47052429Y-84057296D01*
X46740892Y-83975616D01*
X46419405Y-83956282D01*
X46100325Y-84000039D01*
X45795912Y-84105205D01*
X45621956Y-84198186D01*
X45526192Y-84462587D01*
X27570500Y-84462587D01*
X27570500Y-66516626D01*
X179367000Y-66516626D01*
X179367000Y-66833374D01*
X179428795Y-67144036D01*
X179550009Y-67436673D01*
X179725985Y-67700040D01*
X179949960Y-67924015D01*
X180213327Y-68099991D01*
X180505964Y-68221205D01*
X180816626Y-68283000D01*
X181133374Y-68283000D01*
X181444036Y-68221205D01*
X181736673Y-68099991D01*
X182000040Y-67924015D01*
X182224015Y-67700040D01*
X182399991Y-67436673D01*
X182521205Y-67144036D01*
X182583000Y-66833374D01*
X182583000Y-66516626D01*
X182521205Y-66205964D01*
X182399991Y-65913327D01*
X182224015Y-65649960D01*
X182000040Y-65425985D01*
X181736673Y-65250009D01*
X181444036Y-65128795D01*
X181133374Y-65067000D01*
X180816626Y-65067000D01*
X180505964Y-65128795D01*
X180213327Y-65250009D01*
X179949960Y-65425985D01*
X179725985Y-65649960D01*
X179550009Y-65913327D01*
X179428795Y-66205964D01*
X179367000Y-66516626D01*
X27570500Y-66516626D01*
X27570500Y-47466626D01*
X46017000Y-47466626D01*
X46017000Y-47783374D01*
X46078795Y-48094036D01*
X46200009Y-48386673D01*
X46375985Y-48650040D01*
X46599960Y-48874015D01*
X46863327Y-49049991D01*
X47155964Y-49171205D01*
X47466626Y-49233000D01*
X47783374Y-49233000D01*
X48094036Y-49171205D01*
X48386673Y-49049991D01*
X48650040Y-48874015D01*
X48874015Y-48650040D01*
X49049991Y-48386673D01*
X49171205Y-48094036D01*
X49233000Y-47783374D01*
X49233000Y-47466626D01*
X122217000Y-47466626D01*
X122217000Y-47783374D01*
X122278795Y-48094036D01*
X122400009Y-48386673D01*
X122575985Y-48650040D01*
X122799960Y-48874015D01*
X123063327Y-49049991D01*
X123355964Y-49171205D01*
X123666626Y-49233000D01*
X123983374Y-49233000D01*
X124294036Y-49171205D01*
X124586673Y-49049991D01*
X124850040Y-48874015D01*
X125074015Y-48650040D01*
X125249991Y-48386673D01*
X125371205Y-48094036D01*
X125433000Y-47783374D01*
X125433000Y-47466626D01*
X217467000Y-47466626D01*
X217467000Y-47783374D01*
X217528795Y-48094036D01*
X217650009Y-48386673D01*
X217825985Y-48650040D01*
X218049960Y-48874015D01*
X218313327Y-49049991D01*
X218605964Y-49171205D01*
X218916626Y-49233000D01*
X219233374Y-49233000D01*
X219544036Y-49171205D01*
X219836673Y-49049991D01*
X220100040Y-48874015D01*
X220324015Y-48650040D01*
X220499991Y-48386673D01*
X220621205Y-48094036D01*
X220683000Y-47783374D01*
X220683000Y-47466626D01*
X293667000Y-47466626D01*
X293667000Y-47783374D01*
X293728795Y-48094036D01*
X293850009Y-48386673D01*
X294025985Y-48650040D01*
X294249960Y-48874015D01*
X294513327Y-49049991D01*
X294805964Y-49171205D01*
X295116626Y-49233000D01*
X295433374Y-49233000D01*
X295744036Y-49171205D01*
X296036673Y-49049991D01*
X296300040Y-48874015D01*
X296524015Y-48650040D01*
X296699991Y-48386673D01*
X296821205Y-48094036D01*
X296883000Y-47783374D01*
X296883000Y-47466626D01*
X296821205Y-47155964D01*
X296699991Y-46863327D01*
X296524015Y-46599960D01*
X296300040Y-46375985D01*
X296036673Y-46200009D01*
X295744036Y-46078795D01*
X295433374Y-46017000D01*
X295116626Y-46017000D01*
X294805964Y-46078795D01*
X294513327Y-46200009D01*
X294249960Y-46375985D01*
X294025985Y-46599960D01*
X293850009Y-46863327D01*
X293728795Y-47155964D01*
X293667000Y-47466626D01*
X220683000Y-47466626D01*
X220621205Y-47155964D01*
X220499991Y-46863327D01*
X220324015Y-46599960D01*
X220100040Y-46375985D01*
X219836673Y-46200009D01*
X219544036Y-46078795D01*
X219233374Y-46017000D01*
X218916626Y-46017000D01*
X218605964Y-46078795D01*
X218313327Y-46200009D01*
X218049960Y-46375985D01*
X217825985Y-46599960D01*
X217650009Y-46863327D01*
X217528795Y-47155964D01*
X217467000Y-47466626D01*
X125433000Y-47466626D01*
X125371205Y-47155964D01*
X125249991Y-46863327D01*
X125074015Y-46599960D01*
X124850040Y-46375985D01*
X124586673Y-46200009D01*
X124294036Y-46078795D01*
X123983374Y-46017000D01*
X123666626Y-46017000D01*
X123355964Y-46078795D01*
X123063327Y-46200009D01*
X122799960Y-46375985D01*
X122575985Y-46599960D01*
X122400009Y-46863327D01*
X122278795Y-47155964D01*
X122217000Y-47466626D01*
X49233000Y-47466626D01*
X49171205Y-47155964D01*
X49049991Y-46863327D01*
X48874015Y-46599960D01*
X48650040Y-46375985D01*
X48386673Y-46200009D01*
X48094036Y-46078795D01*
X47783374Y-46017000D01*
X47466626Y-46017000D01*
X47155964Y-46078795D01*
X46863327Y-46200009D01*
X46599960Y-46375985D01*
X46375985Y-46599960D01*
X46200009Y-46863327D01*
X46078795Y-47155964D01*
X46017000Y-47466626D01*
X27570500Y-47466626D01*
X27570500Y-30191018D01*
X27607491Y-29813757D01*
X27708770Y-29478306D01*
X27873279Y-29168909D01*
X28094748Y-28897363D01*
X28364747Y-28674000D01*
X28672985Y-28507336D01*
X29007724Y-28403717D01*
X29383229Y-28364250D01*
X313502732Y-28364250D01*
X313879993Y-28401241D01*
G37*
X313879993Y-28401241D02*
X314215444Y-28502520D01*
X314524841Y-28667029D01*
X314796387Y-28888498D01*
X315019750Y-29158497D01*
X315186414Y-29466735D01*
X315290033Y-29801474D01*
X315329501Y-30176988D01*
X315329500Y-122208982D01*
X315292509Y-122586243D01*
X315191231Y-122921693D01*
X315026722Y-123231089D01*
X314805251Y-123502639D01*
X314535253Y-123726000D01*
X314227015Y-123892664D01*
X313892276Y-123996283D01*
X313516771Y-124035750D01*
X29397268Y-124035750D01*
X29020007Y-123998759D01*
X28684557Y-123897481D01*
X28375161Y-123732972D01*
X28103611Y-123511501D01*
X27880250Y-123241503D01*
X27713586Y-122933265D01*
X27609967Y-122598526D01*
X27570500Y-122223021D01*
X27570500Y-104616626D01*
X46017000Y-104616626D01*
X46017000Y-104933374D01*
X46078795Y-105244036D01*
X46200009Y-105536673D01*
X46375985Y-105800040D01*
X46599960Y-106024015D01*
X46863327Y-106199991D01*
X47155964Y-106321205D01*
X47466626Y-106383000D01*
X47783374Y-106383000D01*
X48094036Y-106321205D01*
X48386673Y-106199991D01*
X48650040Y-106024015D01*
X48874015Y-105800040D01*
X49049991Y-105536673D01*
X49171205Y-105244036D01*
X49233000Y-104933374D01*
X49233000Y-104616626D01*
X122217000Y-104616626D01*
X122217000Y-104933374D01*
X122278795Y-105244036D01*
X122400009Y-105536673D01*
X122575985Y-105800040D01*
X122799960Y-106024015D01*
X123063327Y-106199991D01*
X123355964Y-106321205D01*
X123666626Y-106383000D01*
X123983374Y-106383000D01*
X124294036Y-106321205D01*
X124586673Y-106199991D01*
X124850040Y-106024015D01*
X125074015Y-105800040D01*
X125249991Y-105536673D01*
X125371205Y-105244036D01*
X125433000Y-104933374D01*
X125433000Y-104616626D01*
X217467000Y-104616626D01*
X217467000Y-104933374D01*
X217528795Y-105244036D01*
X217650009Y-105536673D01*
X217825985Y-105800040D01*
X218049960Y-106024015D01*
X218313327Y-106199991D01*
X218605964Y-106321205D01*
X218916626Y-106383000D01*
X219233374Y-106383000D01*
X219544036Y-106321205D01*
X219836673Y-106199991D01*
X220100040Y-106024015D01*
X220324015Y-105800040D01*
X220499991Y-105536673D01*
X220621205Y-105244036D01*
X220683000Y-104933374D01*
X220683000Y-104616626D01*
X293667000Y-104616626D01*
X293667000Y-104933374D01*
X293728795Y-105244036D01*
X293850009Y-105536673D01*
X294025985Y-105800040D01*
X294249960Y-106024015D01*
X294513327Y-106199991D01*
X294805964Y-106321205D01*
X295116626Y-106383000D01*
X295433374Y-106383000D01*
X295744036Y-106321205D01*
X296036673Y-106199991D01*
X296300040Y-106024015D01*
X296524015Y-105800040D01*
X296699991Y-105536673D01*
X296821205Y-105244036D01*
X296883000Y-104933374D01*
X296883000Y-104616626D01*
X296821205Y-104305964D01*
X296699991Y-104013327D01*
X296524015Y-103749960D01*
X296300040Y-103525985D01*
X296036673Y-103350009D01*
X295744036Y-103228795D01*
X295433374Y-103167000D01*
X295116626Y-103167000D01*
X294805964Y-103228795D01*
X294513327Y-103350009D01*
X294249960Y-103525985D01*
X294025985Y-103749960D01*
X293850009Y-104013327D01*
X293728795Y-104305964D01*
X293667000Y-104616626D01*
X220683000Y-104616626D01*
X220621205Y-104305964D01*
X220499991Y-104013327D01*
X220324015Y-103749960D01*
X220100040Y-103525985D01*
X219836673Y-103350009D01*
X219544036Y-103228795D01*
X219233374Y-103167000D01*
X218916626Y-103167000D01*
X218605964Y-103228795D01*
X218313327Y-103350009D01*
X218049960Y-103525985D01*
X217825985Y-103749960D01*
X217650009Y-104013327D01*
X217528795Y-104305964D01*
X217467000Y-104616626D01*
X125433000Y-104616626D01*
X125371205Y-104305964D01*
X125249991Y-104013327D01*
X125074015Y-103749960D01*
X124850040Y-103525985D01*
X124586673Y-103350009D01*
X124294036Y-103228795D01*
X123983374Y-103167000D01*
X123666626Y-103167000D01*
X123355964Y-103228795D01*
X123063327Y-103350009D01*
X122799960Y-103525985D01*
X122575985Y-103749960D01*
X122400009Y-104013327D01*
X122278795Y-104305964D01*
X122217000Y-104616626D01*
X49233000Y-104616626D01*
X49171205Y-104305964D01*
X49049991Y-104013327D01*
X48874015Y-103749960D01*
X48650040Y-103525985D01*
X48386673Y-103350009D01*
X48094036Y-103228795D01*
X47783374Y-103167000D01*
X47466626Y-103167000D01*
X47155964Y-103228795D01*
X46863327Y-103350009D01*
X46599960Y-103525985D01*
X46375985Y-103749960D01*
X46200009Y-104013327D01*
X46078795Y-104305964D01*
X46017000Y-104616626D01*
X27570500Y-104616626D01*
X27570500Y-86733413D01*
X45526192Y-86733413D01*
X45621956Y-86997814D01*
X45911571Y-87138704D01*
X46223108Y-87220384D01*
X46544595Y-87239718D01*
X46863675Y-87195961D01*
X47168088Y-87090795D01*
X47342044Y-86997814D01*
X47437808Y-86733413D01*
X46482000Y-85777605D01*
X45526192Y-86733413D01*
X27570500Y-86733413D01*
X27570500Y-85660595D01*
X44840282Y-85660595D01*
X44884039Y-85979675D01*
X44989205Y-86284088D01*
X45082186Y-86458044D01*
X45346587Y-86553808D01*
X46302395Y-85598000D01*
X46661605Y-85598000D01*
X47617413Y-86553808D01*
X47881814Y-86458044D01*
X48022704Y-86168429D01*
X48104384Y-85856892D01*
X48121840Y-85566626D01*
X84117000Y-85566626D01*
X84117000Y-85883374D01*
X84178795Y-86194036D01*
X84300009Y-86486673D01*
X84475985Y-86750040D01*
X84699960Y-86974015D01*
X84963327Y-87149991D01*
X85255964Y-87271205D01*
X85566626Y-87333000D01*
X85883374Y-87333000D01*
X86194036Y-87271205D01*
X86486673Y-87149991D01*
X86750040Y-86974015D01*
X86974015Y-86750040D01*
X87149991Y-86486673D01*
X87271205Y-86194036D01*
X87333000Y-85883374D01*
X87333000Y-85566626D01*
X255567000Y-85566626D01*
X255567000Y-85883374D01*
X255628795Y-86194036D01*
X255750009Y-86486673D01*
X255925985Y-86750040D01*
X256149960Y-86974015D01*
X256413327Y-87149991D01*
X256705964Y-87271205D01*
X257016626Y-87333000D01*
X257333374Y-87333000D01*
X257644036Y-87271205D01*
X257936673Y-87149991D01*
X258200040Y-86974015D01*
X258424015Y-86750040D01*
X258599991Y-86486673D01*
X258721205Y-86194036D01*
X258783000Y-85883374D01*
X258783000Y-85566626D01*
X258721205Y-85255964D01*
X258599991Y-84963327D01*
X258424015Y-84699960D01*
X258200040Y-84475985D01*
X257936673Y-84300009D01*
X257644036Y-84178795D01*
X257333374Y-84117000D01*
X257016626Y-84117000D01*
X256705964Y-84178795D01*
X256413327Y-84300009D01*
X256149960Y-84475985D01*
X255925985Y-84699960D01*
X255750009Y-84963327D01*
X255628795Y-85255964D01*
X255567000Y-85566626D01*
X87333000Y-85566626D01*
X87271205Y-85255964D01*
X87149991Y-84963327D01*
X86974015Y-84699960D01*
X86750040Y-84475985D01*
X86486673Y-84300009D01*
X86194036Y-84178795D01*
X85883374Y-84117000D01*
X85566626Y-84117000D01*
X85255964Y-84178795D01*
X84963327Y-84300009D01*
X84699960Y-84475985D01*
X84475985Y-84699960D01*
X84300009Y-84963327D01*
X84178795Y-85255964D01*
X84117000Y-85566626D01*
X48121840Y-85566626D01*
X48123718Y-85535405D01*
X48079961Y-85216325D01*
X47974795Y-84911912D01*
X47881814Y-84737956D01*
X47617413Y-84642192D01*
X46661605Y-85598000D01*
X46302395Y-85598000D01*
X45346587Y-84642192D01*
X45082186Y-84737956D01*
X44941296Y-85027571D01*
X44859616Y-85339108D01*
X44840282Y-85660595D01*
X27570500Y-85660595D01*
X27570500Y-84462587D01*
X45526192Y-84462587D01*
X46482000Y-85418395D01*
X47437808Y-84462587D01*
X47342044Y-84198186D01*
X47052429Y-84057296D01*
X46740892Y-83975616D01*
X46419405Y-83956282D01*
X46100325Y-84000039D01*
X45795912Y-84105205D01*
X45621956Y-84198186D01*
X45526192Y-84462587D01*
X27570500Y-84462587D01*
X27570500Y-66516626D01*
X179367000Y-66516626D01*
X179367000Y-66833374D01*
X179428795Y-67144036D01*
X179550009Y-67436673D01*
X179725985Y-67700040D01*
X179949960Y-67924015D01*
X180213327Y-68099991D01*
X180505964Y-68221205D01*
X180816626Y-68283000D01*
X181133374Y-68283000D01*
X181444036Y-68221205D01*
X181736673Y-68099991D01*
X182000040Y-67924015D01*
X182224015Y-67700040D01*
X182399991Y-67436673D01*
X182521205Y-67144036D01*
X182583000Y-66833374D01*
X182583000Y-66516626D01*
X182521205Y-66205964D01*
X182399991Y-65913327D01*
X182224015Y-65649960D01*
X182000040Y-65425985D01*
X181736673Y-65250009D01*
X181444036Y-65128795D01*
X181133374Y-65067000D01*
X180816626Y-65067000D01*
X180505964Y-65128795D01*
X180213327Y-65250009D01*
X179949960Y-65425985D01*
X179725985Y-65649960D01*
X179550009Y-65913327D01*
X179428795Y-66205964D01*
X179367000Y-66516626D01*
X27570500Y-66516626D01*
X27570500Y-47466626D01*
X46017000Y-47466626D01*
X46017000Y-47783374D01*
X46078795Y-48094036D01*
X46200009Y-48386673D01*
X46375985Y-48650040D01*
X46599960Y-48874015D01*
X46863327Y-49049991D01*
X47155964Y-49171205D01*
X47466626Y-49233000D01*
X47783374Y-49233000D01*
X48094036Y-49171205D01*
X48386673Y-49049991D01*
X48650040Y-48874015D01*
X48874015Y-48650040D01*
X49049991Y-48386673D01*
X49171205Y-48094036D01*
X49233000Y-47783374D01*
X49233000Y-47466626D01*
X122217000Y-47466626D01*
X122217000Y-47783374D01*
X122278795Y-48094036D01*
X122400009Y-48386673D01*
X122575985Y-48650040D01*
X122799960Y-48874015D01*
X123063327Y-49049991D01*
X123355964Y-49171205D01*
X123666626Y-49233000D01*
X123983374Y-49233000D01*
X124294036Y-49171205D01*
X124586673Y-49049991D01*
X124850040Y-48874015D01*
X125074015Y-48650040D01*
X125249991Y-48386673D01*
X125371205Y-48094036D01*
X125433000Y-47783374D01*
X125433000Y-47466626D01*
X217467000Y-47466626D01*
X217467000Y-47783374D01*
X217528795Y-48094036D01*
X217650009Y-48386673D01*
X217825985Y-48650040D01*
X218049960Y-48874015D01*
X218313327Y-49049991D01*
X218605964Y-49171205D01*
X218916626Y-49233000D01*
X219233374Y-49233000D01*
X219544036Y-49171205D01*
X219836673Y-49049991D01*
X220100040Y-48874015D01*
X220324015Y-48650040D01*
X220499991Y-48386673D01*
X220621205Y-48094036D01*
X220683000Y-47783374D01*
X220683000Y-47466626D01*
X293667000Y-47466626D01*
X293667000Y-47783374D01*
X293728795Y-48094036D01*
X293850009Y-48386673D01*
X294025985Y-48650040D01*
X294249960Y-48874015D01*
X294513327Y-49049991D01*
X294805964Y-49171205D01*
X295116626Y-49233000D01*
X295433374Y-49233000D01*
X295744036Y-49171205D01*
X296036673Y-49049991D01*
X296300040Y-48874015D01*
X296524015Y-48650040D01*
X296699991Y-48386673D01*
X296821205Y-48094036D01*
X296883000Y-47783374D01*
X296883000Y-47466626D01*
X296821205Y-47155964D01*
X296699991Y-46863327D01*
X296524015Y-46599960D01*
X296300040Y-46375985D01*
X296036673Y-46200009D01*
X295744036Y-46078795D01*
X295433374Y-46017000D01*
X295116626Y-46017000D01*
X294805964Y-46078795D01*
X294513327Y-46200009D01*
X294249960Y-46375985D01*
X294025985Y-46599960D01*
X293850009Y-46863327D01*
X293728795Y-47155964D01*
X293667000Y-47466626D01*
X220683000Y-47466626D01*
X220621205Y-47155964D01*
X220499991Y-46863327D01*
X220324015Y-46599960D01*
X220100040Y-46375985D01*
X219836673Y-46200009D01*
X219544036Y-46078795D01*
X219233374Y-46017000D01*
X218916626Y-46017000D01*
X218605964Y-46078795D01*
X218313327Y-46200009D01*
X218049960Y-46375985D01*
X217825985Y-46599960D01*
X217650009Y-46863327D01*
X217528795Y-47155964D01*
X217467000Y-47466626D01*
X125433000Y-47466626D01*
X125371205Y-47155964D01*
X125249991Y-46863327D01*
X125074015Y-46599960D01*
X124850040Y-46375985D01*
X124586673Y-46200009D01*
X124294036Y-46078795D01*
X123983374Y-46017000D01*
X123666626Y-46017000D01*
X123355964Y-46078795D01*
X123063327Y-46200009D01*
X122799960Y-46375985D01*
X122575985Y-46599960D01*
X122400009Y-46863327D01*
X122278795Y-47155964D01*
X122217000Y-47466626D01*
X49233000Y-47466626D01*
X49171205Y-47155964D01*
X49049991Y-46863327D01*
X48874015Y-46599960D01*
X48650040Y-46375985D01*
X48386673Y-46200009D01*
X48094036Y-46078795D01*
X47783374Y-46017000D01*
X47466626Y-46017000D01*
X47155964Y-46078795D01*
X46863327Y-46200009D01*
X46599960Y-46375985D01*
X46375985Y-46599960D01*
X46200009Y-46863327D01*
X46078795Y-47155964D01*
X46017000Y-47466626D01*
X27570500Y-47466626D01*
X27570500Y-30191018D01*
X27607491Y-29813757D01*
X27708770Y-29478306D01*
X27873279Y-29168909D01*
X28094748Y-28897363D01*
X28364747Y-28674000D01*
X28672985Y-28507336D01*
X29007724Y-28403717D01*
X29383229Y-28364250D01*
X313502732Y-28364250D01*
X313879993Y-28401241D01*
M02*
