  0
SECTION
  2
HEADER
  9
$ACADVER
  1
AC1009
  9
$DWGCODEPAGE
  3
ansi_1252
  9
$INSBASE
 10
0.0
 20
0.0
 30
0.0
  9
$EXTMIN
 10
1.000000000000000E+20
 20
1.000000000000000E+20
 30
1.000000000000000E+20
  9
$EXTMAX
 10
-1.000000000000000E+20
 20
-1.000000000000000E+20
 30
-1.000000000000000E+20
  9
$LIMMIN
 10
0.0
 20
0.0
  9
$LIMMAX
 10
12.0
 20
9.0
  9
$ORTHOMODE
 70
     0
  9
$REGENMODE
 70
     1
  9
$FILLMODE
 70
     1
  9
$QTEXTMODE
 70
     0
  9
$MIRRTEXT
 70
     1
  9
$DRAGMODE
 70
     2
  9
$LTSCALE
 40
1.0
  9
$OSMODE
 70
    37
  9
$ATTMODE
 70
     1
  9
$TEXTSIZE
 40
0.2
  9
$TRACEWID
 40
0.05
  9
$TEXTSTYLE
  7
STANDARD
  9
$CLAYER
  8
2D
  9
$CELTYPE
  6
BYLAYER
  9
$CECOLOR
 62
   256
  9
$DIMSCALE
 40
1.0
  9
$DIMASZ
 40
0.18
  9
$DIMEXO
 40
0.0625
  9
$DIMDLI
 40
0.38
  9
$DIMRND
 40
0.0
  9
$DIMDLE
 40
0.0
  9
$DIMEXE
 40
0.18
  9
$DIMTP
 40
0.0
  9
$DIMTM
 40
0.0
  9
$DIMTXT
 40
0.18
  9
$DIMCEN
 40
0.09
  9
$DIMTSZ
 40
0.0
  9
$DIMTOL
 70
     0
  9
$DIMLIM
 70
     0
  9
$DIMTIH
 70
     1
  9
$DIMTOH
 70
     1
  9
$DIMSE1
 70
     0
  9
$DIMSE2
 70
     0
  9
$DIMTAD
 70
     0
  9
$DIMZIN
 70
     0
  9
$DIMBLK
  1

  9
$DIMASO
 70
     1
  9
$DIMSHO
 70
     1
  9
$DIMPOST
  1

  9
$DIMAPOST
  1

  9
$DIMALT
 70
     0
  9
$DIMALTD
 70
     2
  9
$DIMALTF
 40
25.4
  9
$DIMLFAC
 40
1.0
  9
$DIMTOFL
 70
     0
  9
$DIMTVP
 40
0.0
  9
$DIMTIX
 70
     0
  9
$DIMSOXD
 70
     0
  9
$DIMSAH
 70
     0
  9
$DIMBLK1
  1

  9
$DIMBLK2
  1

  9
$DIMSTYLE
  2
STANDARD_ACAD
  9
$DIMCLRD
 70
     0
  9
$DIMCLRE
 70
     0
  9
$DIMCLRT
 70
     0
  9
$DIMTFAC
 40
1.0
  9
$DIMGAP
 40
0.09
  9
$LUNITS
 70
     2
  9
$LUPREC
 70
     3
  9
$SKETCHINC
 40
0.1
  9
$FILLETRAD
 40
0.5
  9
$AUNITS
 70
     0
  9
$AUPREC
 70
     0
  9
$MENU
  1
.
  9
$ELEVATION
 40
0.0
  9
$PELEVATION
 40
0.0
  9
$THICKNESS
 40
0.0
  9
$LIMCHECK
 70
     0
  9
$CHAMFERA
 40
0.0
  9
$CHAMFERB
 40
0.0
  9
$SKPOLY
 70
     0
  9
$TDCREATE
 40
2459456.689133252
  9
$TDUPDATE
 40
2459456.68915221
  9
$TDINDWG
 40
0.0000000116
  9
$TDUSRTIMER
 40
0.0000000116
  9
$USRTIMER
 70
     1
  9
$ANGBASE
 50
0.0
  9
$ANGDIR
 70
     0
  9
$PDMODE
 70
     0
  9
$PDSIZE
 40
0.0
  9
$PLINEWID
 40
0.0
  9
$COORDS
 70
     1
  9
$SPLFRAME
 70
     0
  9
$SPLINETYPE
 70
     6
  9
$SPLINESEGS
 70
     8
  9
$ATTDIA
 70
     0
  9
$ATTREQ
 70
     1
  9
$HANDLING
 70
     1
  9
$HANDSEED
  5
29D
  9
$SURFTAB1
 70
     6
  9
$SURFTAB2
 70
     6
  9
$SURFTYPE
 70
     6
  9
$SURFU
 70
     6
  9
$SURFV
 70
     6
  9
$UCSNAME
  2

  9
$UCSORG
 10
0.0
 20
0.0
 30
0.0
  9
$UCSXDIR
 10
1.0
 20
0.0
 30
0.0
  9
$UCSYDIR
 10
0.0
 20
1.0
 30
0.0
  9
$PUCSNAME
  2

  9
$PUCSORG
 10
0.0
 20
0.0
 30
0.0
  9
$PUCSXDIR
 10
1.0
 20
0.0
 30
0.0
  9
$PUCSYDIR
 10
0.0
 20
1.0
 30
0.0
  9
$USERI1
 70
     0
  9
$USERI2
 70
     0
  9
$USERI3
 70
     0
  9
$USERI4
 70
     0
  9
$USERI5
 70
     0
  9
$USERR1
 40
0.0
  9
$USERR2
 40
0.0
  9
$USERR3
 40
0.0
  9
$USERR4
 40
0.0
  9
$USERR5
 40
0.0
  9
$WORLDVIEW
 70
     1
  9
$SHADEDGE
 70
     3
  9
$SHADEDIF
 70
    70
  9
$TILEMODE
 70
     1
  9
$MAXACTVP
 70
    64
  9
$PLIMCHECK
 70
     0
  9
$PEXTMIN
 10
1.000000000000000E+20
 20
1.000000000000000E+20
 30
1.000000000000000E+20
  9
$PEXTMAX
 10
-1.000000000000000E+20
 20
-1.000000000000000E+20
 30
-1.000000000000000E+20
  9
$PLIMMIN
 10
0.0
 20
0.0
  9
$PLIMMAX
 10
12.0
 20
9.0
  9
$UNITMODE
 70
     0
  9
$VISRETAIN
 70
     1
  9
$PLINEGEN
 70
     0
  9
$PSLTSCALE
 70
     1
  0
ENDSEC
  0
SECTION
  2
TABLES
  0
TABLE
  2
VPORT
 70
     1
  0
VPORT
  2
*ACTIVE
 70
     0
 10
0.0
 20
0.0
 11
1.0
 21
1.0
 12
10.42990654205607
 22
4.5
 13
0.0
 23
0.0
 14
0.5
 24
0.5
 15
0.5
 25
0.5
 16
0.0
 26
0.0
 36
1.0
 17
0.0
 27
0.0
 37
0.0
 40
9.0
 41
1.972972972850329
 42
50.0
 43
0.0
 44
0.0
 50
0.0
 51
0.0
 71
     0
 72
   100
 73
     1
 74
     3
 75
     0
 76
     0
 77
     0
 78
     0
  0
ENDTAB
  0
TABLE
  2
LTYPE
 70
     1
  0
LTYPE
  2
CONTINUOUS
 70
     0
  3
Solid line
 72
    65
 73
     0
 40
0.0
  0
ENDTAB
  0
TABLE
  2
LAYER
 70
     5
  0
LAYER
  2
0
 70
     0
 62
     7
  6
CONTINUOUS
  0
LAYER
  2
2D
 70
     0
 62
     7
  6
CONTINUOUS
  0
LAYER
  2
2D$HOLES
 70
     0
 62
     4
  6
CONTINUOUS
  0
LAYER
  2
2D$_HOLECP
 70
     0
 62
   181
  6
CONTINUOUS
  0
LAYER
  2
2D$_PLATE
 70
     0
 62
   111
  6
CONTINUOUS
  0
ENDTAB
  0
TABLE
  2
STYLE
 70
     1
  0
STYLE
  2
STANDARD
 70
     0
 40
0.0
 41
1.0
 50
0.0
 71
     0
 42
0.2
  3
txt
  4

  0
ENDTAB
  0
TABLE
  2
VIEW
 70
     0
  0
ENDTAB
  0
TABLE
  2
UCS
 70
     0
  0
ENDTAB
  0
TABLE
  2
APPID
 70
     1
  0
APPID
  2
ACAD
 70
     0
  0
ENDTAB
  0
TABLE
  2
DIMSTYLE
 70
     1
  0
DIMSTYLE
  2
STANDARD_ACAD
 70
     0
  3

  4

  5

  6

  7

 40
1.0
 41
0.18
 42
0.0625
 43
0.38
 44
0.18
 45
0.0
 46
0.0
 47
0.0
 48
0.0
140
0.18
141
0.09
142
0.0
143
25.4
144
1.0
145
0.0
146
1.0
147
0.09
 71
     0
 72
     0
 73
     1
 74
     1
 75
     0
 76
     0
 77
     0
 78
     0
170
     0
171
     2
172
     0
173
     0
174
     0
175
     0
176
     0
177
     0
178
     0
  0
ENDTAB
  0
ENDSEC
  0
SECTION
  2
BLOCKS
  0
BLOCK
  8
0
  2
$MODEL_SPACE
 70
     0
 10
0.0
 20
0.0
 30
0.0
  3
$MODEL_SPACE
  1

  0
ENDBLK
  5
21
  8
0
  0
BLOCK
 67
     1
  8
0
  2
$PAPER_SPACE
 70
     0
 10
0.0
 20
0.0
 30
0.0
  3
$PAPER_SPACE
  1

  0
ENDBLK
  5
1D
 67
     1
  8
0
  0
BLOCK
  8
0
  2
SSPLATE_V3_2_3MM
 70
     0
 10
0.0
 20
0.0
 30
0.0
  3
SSPLATE_V3_2_3MM
  1

  0
INSERT
  5
77
  8
2D$HOLES
  2
M2_HOLE_SSPLATECUT
 10
123.8250000000016
 20
48.09999999999889
 30
0.0
  0
ARC
  5
79
  8
2D$_PLATE
 10
141.3499990000003
 20
94.1999997499986
 30
0.0
 40
2.0
 50
0.0000000000504818
 51
90.0
  0
LINE
  5
7A
  8
2D$_PLATE
 10
141.3499990000003
 20
96.1999997499986
 30
0.0
 11
-141.3499989999941
 21
96.19999974999882
 31
0.0
  0
ARC
  5
7B
  8
2D$_PLATE
 10
-141.3499989999941
 20
94.19999974999882
 30
0.0
 40
2.0
 50
89.99999999999837
 51
179.9999999999707
  0
LINE
  5
7C
  8
2D$_PLATE
 10
-143.3499989999941
 20
94.19999974999791
 30
0.0
 11
-143.3499989999984
 21
1.999999999999773
 31
0.0
  0
ARC
  5
7D
  8
2D$_PLATE
 10
-141.3499989999984
 20
1.999999999999773
 30
0.0
 40
2.0
 50
180.0
 51
269.9999999999202
  0
LINE
  5
7E
  8
2D$_PLATE
 10
-141.3499990000011
 20
-0.0000000000002274
 30
0.0
 11
141.3499990000012
 21
0.0000000000002274
 31
0.0
  0
ARC
  5
7F
  8
2D$_PLATE
 10
141.3499990000014
 20
2.000000000000227
 30
0.0
 40
2.0
 50
269.9999999999935
 51
0.0
  0
LINE
  5
80
  8
2D$_PLATE
 10
143.3499990000014
 20
2.000000000000227
 30
0.0
 11
143.3499990000003
 21
94.199999749997
 31
0.0
  0
INSERT
  5
81
  8
2D$HOLES
  2
M2_HOLE_SSPLATECUT
 10
28.57500000000169
 20
86.19999999999891
 30
0.0
  0
INSERT
  5
82
  8
2D$HOLES
  2
M2_HOLE_SSPLATECUT
 10
42.8625000000016
 20
48.09999999999877
 30
0.0
  0
INSERT
  5
83
  8
2D$HOLES
  2
M2_HOLE_SSPLATECUT
 10
101.6000000000018
 20
71.91249999999877
 30
0.0
  0
INSERT
  5
84
  8
2D$HOLES
  2
M2_HOLE_SSPLATECUT
 10
126.7460000000017
 20
76.67499999999882
 30
0.0
  0
INSERT
  5
85
  8
2D$HOLES
  2
M2_HOLE_SSPLATECUT
 10
123.8250000000016
 20
57.62499999999886
 30
0.0
  0
INSERT
  5
86
  8
2D$HOLES
  2
M2_HOLE_SSPLATECUT
 10
123.8250000000016
 20
9.999999999998863
 30
0.0
  0
INSERT
  5
87
  8
2D$HOLES
  2
M2_HOLE_SSPLATECUT
 10
85.72500000000178
 20
9.999999999998863
 30
0.0
  0
INSERT
  5
88
  8
2D$HOLES
  2
M2_HOLE_SSPLATECUT
 10
26.19375000000178
 20
9.999999999998863
 30
0.0
  0
INSERT
  5
89
  8
2D$HOLES
  2
M2_HOLE_SSPLATECUT
 10
-54.76874999999831
 20
9.999999999998863
 30
0.0
  0
INSERT
  5
8A
  8
2D$HOLES
  2
M2_HOLE_SSPLATECUT
 10
-33.33749999999822
 20
48.09999999999877
 30
0.0
  0
INSERT
  5
8B
  8
2D$HOLES
  2
M2_HOLE_SSPLATECUT
 10
-123.8249999999984
 20
86.19999999999891
 30
0.0
  0
INSERT
  5
8C
  8
2D$HOLES
  2
M2_HOLE_SSPLATECUT
 10
-47.62499999999812
 20
86.19999999999891
 30
0.0
  0
INSERT
  5
8D
  8
2D$HOLES
  2
M2_HOLE_SSPLATECUT
 10
-119.0624999999984
 20
9.999999999998863
 30
0.0
  0
INSERT
  5
8E
  8
2D$HOLES
  2
M2_HOLE_SSPLATECUT
 10
-112.7124999999982
 20
48.09999999999877
 30
0.0
  0
INSERT
  5
8F
  8
2D$HOLES
  2
M2_HOLE_SSPLATECUT
 10
-116.6812499999982
 20
74.29374999999891
 30
0.0
  0
LINE
  5
90
  8
2D$_PLATE
 10
73.96350100000183
 20
22.54999999999905
 30
0.0
 11
73.9635010000016
 21
35.54999999999882
 31
0.0
  0
ARC
  5
91
  8
2D$_PLATE
 10
-74.4635010000016
 20
35.54999999999905
 30
0.0
 40
0.4999999999998863
 50
0.0000000000130276
 51
90.00000000001303
210
0.0
220
0.0
230
-1.0
  0
LINE
  5
92
  8
2D$_PLATE
 10
74.4635010000016
 20
36.04999999999882
 30
0.0
 11
87.46349900000183
 21
36.04999949999888
 31
0.0
  0
ARC
  5
93
  8
2D$_PLATE
 10
-87.46349839555575
 20
35.54999889555279
 30
0.0
 40
0.5000006044465083
 50
90.00006926431608
 51
179.9998732357249
210
0.0
220
0.0
230
-1.0
  0
LINE
  5
94
  8
2D$_PLATE
 10
87.96349900000115
 20
35.5500000017812
 30
0.0
 11
87.9634990000016
 21
22.54999999999905
 31
0.0
  0
ARC
  5
95
  8
2D$_PLATE
 10
-87.4634990000016
 20
22.54999999999905
 30
0.0
 40
0.5000000000001137
 50
179.9999999999935
 51
269.999999999987
210
0.0
220
0.0
230
-1.0
  0
LINE
  5
96
  8
2D$_PLATE
 10
87.4634990000016
 20
22.04999999999882
 30
0.0
 11
74.4635010000016
 21
22.04999999999905
 31
0.0
  0
ARC
  5
97
  8
2D$_PLATE
 10
-74.46350100000183
 20
22.54999999999905
 30
0.0
 40
0.5
 50
270.0000000000065
 51
0.0
210
0.0
220
0.0
230
-1.0
  0
LINE
  5
98
  8
2D$_PLATE
 10
16.81200100000166
 20
22.54999999999882
 30
0.0
 11
16.81200100000166
 21
35.54999999999905
 31
0.0
  0
ARC
  5
99
  8
2D$_PLATE
 10
-17.31200100000166
 20
35.54999999999905
 30
0.0
 40
0.4999999999999716
 50
0.0000000000032569
 51
90.00000000000651
210
0.0
220
0.0
230
-1.0
  0
LINE
  5
9A
  8
2D$_PLATE
 10
17.31200100000166
 20
36.04999999999905
 30
0.0
 11
30.31199900000189
 21
36.04999949999888
 31
0.0
  0
ARC
  5
9B
  8
2D$_PLATE
 10
-30.3119983955558
 20
35.54999889555256
 30
0.0
 40
0.5000006044466788
 50
90.00006926431934
 51
179.9998732357086
210
0.0
220
0.0
230
-1.0
  0
LINE
  5
9C
  8
2D$_PLATE
 10
30.81199900000121
 20
35.55000000178097
 30
0.0
 11
30.81199900000166
 21
22.54999999999905
 31
0.0
  0
ARC
  5
9D
  8
2D$_PLATE
 10
-30.31199900000166
 20
22.54999999999905
 30
0.0
 40
0.5000000000000568
 50
179.999999999987
 51
269.9999999999935
210
0.0
220
0.0
230
-1.0
  0
LINE
  5
9E
  8
2D$_PLATE
 10
30.31199900000166
 20
22.04999999999905
 30
0.0
 11
17.31200100000166
 21
22.04999999999905
 31
0.0
  0
ARC
  5
9F
  8
2D$_PLATE
 10
-17.31200100000166
 20
22.54999999999905
 30
0.0
 40
0.5000000000000568
 50
270.0
 51
0.0000000000065138
210
0.0
220
0.0
230
-1.0
  0
LINE
  5
A0
  8
2D$_PLATE
 10
26.33750100000162
 20
41.59999999999877
 30
0.0
 11
26.33750100000162
 21
54.59999999999877
 31
0.0
  0
ARC
  5
A1
  8
2D$_PLATE
 10
-26.83750100000162
 20
54.59999999999877
 30
0.0
 40
0.5
 50
0.0
 51
90.0
210
0.0
220
0.0
230
-1.0
  0
LINE
  5
A2
  8
2D$_PLATE
 10
26.83750100000162
 20
55.09999999999877
 30
0.0
 11
39.83749900000163
 21
55.09999949999883
 31
0.0
  0
ARC
  5
A3
  8
2D$_PLATE
 10
-39.83749839555577
 20
54.59999889555252
 30
0.0
 40
0.5000006044467072
 50
90.0000692643226
 51
179.9998732357053
210
0.0
220
0.0
230
-1.0
  0
LINE
  5
A4
  8
2D$_PLATE
 10
40.33749900000117
 20
54.60000000178093
 30
0.0
 11
40.33749900000163
 21
41.59999999999877
 31
0.0
  0
ARC
  5
A5
  8
2D$_PLATE
 10
-39.83749900000163
 20
41.59999999999877
 30
0.0
 40
0.5
 50
179.9999999999967
 51
270.0
210
0.0
220
0.0
230
-1.0
  0
LINE
  5
A6
  8
2D$_PLATE
 10
39.83749900000163
 20
41.09999999999877
 30
0.0
 11
26.83750100000162
 21
41.09999999999877
 31
0.0
  0
ARC
  5
A7
  8
2D$_PLATE
 10
-26.83750100000162
 20
41.59999999999877
 30
0.0
 40
0.5000000000000284
 50
270.0
 51
0.0000000000032569
210
0.0
220
0.0
230
-1.0
  0
LINE
  5
A8
  8
2D$_PLATE
 10
2.524501000001749
 20
60.64999999999895
 30
0.0
 11
2.524501000001749
 21
73.64999999999895
 31
0.0
  0
ARC
  5
A9
  8
2D$_PLATE
 10
-3.024501000001749
 20
73.64999999999895
 30
0.0
 40
0.4999999999999716
 50
0.0
 51
90.00000000000325
210
0.0
220
0.0
230
-1.0
  0
LINE
  5
AA
  8
2D$_PLATE
 10
3.024501000001749
 20
74.14999999999895
 30
0.0
 11
16.02449900000175
 21
74.14999949999878
 31
0.0
  0
ARC
  5
AB
  8
2D$_PLATE
 10
-16.02449839555567
 20
73.64999889555247
 30
0.0
 40
0.5000006044467215
 50
90.00006926432911
 51
179.9998732357037
210
0.0
220
0.0
230
-1.0
  0
LINE
  5
AC
  8
2D$_PLATE
 10
16.52449900000107
 20
73.65000000178111
 30
0.0
 11
16.52449900000153
 21
60.64999999999895
 31
0.0
  0
ARC
  5
AD
  8
2D$_PLATE
 10
-16.02449900000153
 20
60.64999999999895
 30
0.0
 40
0.5
 50
180.0
 51
270.0
210
0.0
220
0.0
230
-1.0
  0
LINE
  5
AE
  8
2D$_PLATE
 10
16.02449900000153
 20
60.14999999999895
 30
0.0
 11
3.024501000001749
 21
60.14999999999895
 31
0.0
  0
ARC
  5
AF
  8
2D$_PLATE
 10
-3.024501000001749
 20
60.64999999999895
 30
0.0
 40
0.5
 50
270.0
 51
0.0
210
0.0
220
0.0
230
-1.0
  0
LINE
  5
B0
  8
2D$_PLATE
 10
-73.67449899999832
 20
60.64999999999895
 30
0.0
 11
-73.67449899999832
 21
73.64999999999895
 31
0.0
  0
ARC
  5
B1
  8
2D$_PLATE
 10
73.17449899999832
 20
73.64999999999895
 30
0.0
 40
0.5
 50
0.0
 51
90.0
210
0.0
220
0.0
230
-1.0
  0
LINE
  5
B2
  8
2D$_PLATE
 10
-73.17449899999832
 20
74.14999999999895
 30
0.0
 11
-60.17450099999832
 21
74.14999949999878
 31
0.0
  0
ARC
  5
B3
  8
2D$_PLATE
 10
60.17450160444417
 20
73.6499988955527
 30
0.0
 40
0.5000006044466362
 50
90.0000692643226
 51
179.9998732357135
210
0.0
220
0.0
230
-1.0
  0
LINE
  5
B4
  8
2D$_PLATE
 10
-59.67450099999877
 20
73.65000000178111
 30
0.0
 11
-59.67450099999832
 21
60.64999999999895
 31
0.0
  0
ARC
  5
B5
  8
2D$_PLATE
 10
60.17450099999832
 20
60.64999999999895
 30
0.0
 40
0.5
 50
180.0
 51
270.0
210
0.0
220
0.0
230
-1.0
  0
LINE
  5
B6
  8
2D$_PLATE
 10
-60.17450099999832
 20
60.14999999999895
 30
0.0
 11
-73.17449899999832
 21
60.14999999999895
 31
0.0
  0
ARC
  5
B7
  8
2D$_PLATE
 10
73.17449899999832
 20
60.64999999999895
 30
0.0
 40
0.5
 50
270.0
 51
0.0
210
0.0
220
0.0
230
-1.0
  0
LINE
  5
B8
  8
2D$_PLATE
 10
12.05005100000159
 20
79.69999999999891
 30
0.0
 11
12.05005100000159
 21
92.69999999999891
 31
0.0
  0
ARC
  5
B9
  8
2D$_PLATE
 10
-12.55005100000159
 20
92.69999999999891
 30
0.0
 40
0.4999999999999716
 50
0.0000000000016284
 51
90.00000000000325
210
0.0
220
0.0
230
-1.0
  0
LINE
  5
BA
  8
2D$_PLATE
 10
12.55005100000159
 20
93.19999999999891
 30
0.0
 11
25.55004900000182
 21
93.19999949999897
 31
0.0
  0
ARC
  5
BB
  8
2D$_PLATE
 10
-25.55004839555573
 20
92.69999889555265
 30
0.0
 40
0.500000604446622
 50
90.00006926431608
 51
179.9998732357151
210
0.0
220
0.0
230
-1.0
  0
LINE
  5
BC
  8
2D$_PLATE
 10
26.05004900000114
 20
92.70000000178106
 30
0.0
 11
26.05004900000182
 21
79.69999999999891
 31
0.0
  0
ARC
  5
BD
  8
2D$_PLATE
 10
-25.55004900000182
 20
79.69999999999891
 30
0.0
 40
0.4999999999999716
 50
179.9999999999984
 51
270.0000000000065
210
0.0
220
0.0
230
-1.0
  0
LINE
  5
BE
  8
2D$_PLATE
 10
25.55004900000159
 20
79.19999999999891
 30
0.0
 11
12.55005100000159
 21
79.19999999999891
 31
0.0
  0
ARC
  5
BF
  8
2D$_PLATE
 10
-12.55005100000159
 20
79.69999999999891
 30
0.0
 40
0.5
 50
270.0000000000032
 51
0.0
210
0.0
220
0.0
230
-1.0
  0
LINE
  5
C0
  8
2D$_PLATE
 10
126.3500010000016
 20
60.64999999999895
 30
0.0
 11
126.3500010000016
 21
73.64999999999895
 31
0.0
  0
ARC
  5
C1
  8
2D$_PLATE
 10
-126.8500010000016
 20
73.64999999999895
 30
0.0
 40
0.4999999999998863
 50
0.0000000000097707
 51
90.00000000001303
210
0.0
220
0.0
230
-1.0
  0
LINE
  5
C2
  8
2D$_PLATE
 10
126.8500010000016
 20
74.14999999999895
 30
0.0
 11
139.8499990000018
 21
74.14999949999878
 31
0.0
  0
ARC
  5
C3
  8
2D$_PLATE
 10
-139.8499983955558
 20
73.64999889555247
 30
0.0
 40
0.5000006044467215
 50
90.00006926434865
 51
179.9998732357037
210
0.0
220
0.0
230
-1.0
  0
LINE
  5
C4
  8
2D$_PLATE
 10
140.3499990000012
 20
73.65000000178111
 30
0.0
 11
140.3499990000016
 21
60.64999999999895
 31
0.0
  0
ARC
  5
C5
  8
2D$_PLATE
 10
-139.8499990000016
 20
60.64999999999895
 30
0.0
 40
0.5
 50
180.0
 51
270.0
210
0.0
220
0.0
230
-1.0
  0
LINE
  5
C6
  8
2D$_PLATE
 10
139.8499990000016
 20
60.14999999999895
 30
0.0
 11
126.8500010000016
 21
60.14999999999895
 31
0.0
  0
ARC
  5
C7
  8
2D$_PLATE
 10
-126.8500010000016
 20
60.64999999999895
 30
0.0
 40
0.5000000000000853
 50
270.0000000000065
 51
0.0000000000097707
210
0.0
220
0.0
230
-1.0
  0
LINE
  5
C8
  8
2D$_PLATE
 10
50.15000100000185
 20
3.499999999998863
 30
0.0
 11
50.15000100000185
 21
16.49999999999886
 31
0.0
  0
ARC
  5
C9
  8
2D$_PLATE
 10
-50.65000100000162
 20
16.49999999999886
 30
0.0
 40
0.4999999999998863
 50
0.0000000000097707
 51
90.00000000001303
210
0.0
220
0.0
230
-1.0
  0
LINE
  5
CA
  8
2D$_PLATE
 10
50.65000100000185
 20
16.99999999999886
 30
0.0
 11
63.64999900000186
 21
16.99999949999869
 31
0.0
  0
ARC
  5
CB
  8
2D$_PLATE
 10
-63.64999839555577
 20
16.49999889555261
 30
0.0
 40
0.5000006044467072
 50
90.00006926432911
 51
179.9998732357053
210
0.0
220
0.0
230
-1.0
  0
LINE
  5
CC
  8
2D$_PLATE
 10
64.14999900000117
 20
16.50000000178102
 30
0.0
 11
64.14999900000163
 21
3.499999999998863
 31
0.0
  0
ARC
  5
CD
  8
2D$_PLATE
 10
-63.64999900000163
 20
3.499999999998863
 30
0.0
 40
0.4999999999999432
 50
180.0
 51
270.0000000000065
210
0.0
220
0.0
230
-1.0
  0
LINE
  5
CE
  8
2D$_PLATE
 10
63.64999900000163
 20
2.999999999998863
 30
0.0
 11
50.65000100000185
 21
2.999999999998863
 31
0.0
  0
ARC
  5
CF
  8
2D$_PLATE
 10
-50.65000100000185
 20
3.499999999998863
 30
0.0
 40
0.4999999999999716
 50
270.0
 51
0.0000000000032569
210
0.0
220
0.0
230
-1.0
  0
LINE
  5
D0
  8
2D$_PLATE
 10
107.3000010000017
 20
79.69999999999891
 30
0.0
 11
107.3000010000017
 21
92.69999999999891
 31
0.0
  0
ARC
  5
D1
  8
2D$_PLATE
 10
-107.8000010000015
 20
92.69999999999914
 30
0.0
 40
0.4999999999998295
 50
0.000000000014656
 51
90.00000000001954
210
0.0
220
0.0
230
-1.0
  0
LINE
  5
D2
  8
2D$_PLATE
 10
107.8000010000017
 20
93.19999999999891
 30
0.0
 11
120.7999990000017
 21
93.19999949999897
 31
0.0
  0
ARC
  5
D3
  8
2D$_PLATE
 10
-120.7999983955556
 20
92.69999889555243
 30
0.0
 40
0.5000006044466788
 50
90.00006926431608
 51
179.9998732357086
210
0.0
220
0.0
230
-1.0
  0
LINE
  5
D4
  8
2D$_PLATE
 10
121.2999990000012
 20
92.70000000178106
 30
0.0
 11
121.2999990000017
 21
79.69999999999891
 31
0.0
  0
ARC
  5
D5
  8
2D$_PLATE
 10
-120.7999990000017
 20
79.69999999999891
 30
0.0
 40
0.5
 50
179.9999999999984
 51
270.0
210
0.0
220
0.0
230
-1.0
  0
LINE
  5
D6
  8
2D$_PLATE
 10
120.7999990000017
 20
79.19999999999891
 30
0.0
 11
107.8000010000017
 21
79.19999999999891
 31
0.0
  0
ARC
  5
D7
  8
2D$_PLATE
 10
-107.8000010000015
 20
79.69999999999868
 30
0.0
 40
0.4999999999998863
 50
269.999999999987
 51
0.0000000000130276
210
0.0
220
0.0
230
-1.0
  0
LINE
  5
D8
  8
2D$_PLATE
 10
107.3000010000017
 20
3.499999999998863
 30
0.0
 11
107.3000010000017
 21
16.49999999999886
 31
0.0
  0
ARC
  5
D9
  8
2D$_PLATE
 10
-107.8000010000015
 20
16.49999999999909
 30
0.0
 40
0.4999999999997726
 50
0.0000000000227982
 51
90.00000000002606
210
0.0
220
0.0
230
-1.0
  0
LINE
  5
DA
  8
2D$_PLATE
 10
107.8000010000017
 20
16.99999999999886
 30
0.0
 11
120.7999990000017
 21
16.99999949999892
 31
0.0
  0
ARC
  5
DB
  8
2D$_PLATE
 10
-120.7999983955556
 20
16.49999889555261
 30
0.0
 40
0.5000006044466788
 50
90.00006926431608
 51
179.9998732357086
210
0.0
220
0.0
230
-1.0
  0
LINE
  5
DC
  8
2D$_PLATE
 10
121.2999990000012
 20
16.50000000178102
 30
0.0
 11
121.2999990000017
 21
3.499999999998863
 31
0.0
  0
ARC
  5
DD
  8
2D$_PLATE
 10
-120.7999990000017
 20
3.499999999998863
 30
0.0
 40
0.5
 50
180.0
 51
270.0
210
0.0
220
0.0
230
-1.0
  0
LINE
  5
DE
  8
2D$_PLATE
 10
120.7999990000017
 20
2.999999999998863
 30
0.0
 11
107.8000010000017
 21
2.999999999998863
 31
0.0
  0
ARC
  5
DF
  8
2D$_PLATE
 10
-107.8000010000015
 20
3.499999999998636
 30
0.0
 40
0.4999999999998295
 50
269.9999999999804
 51
0.0000000000195413
210
0.0
220
0.0
230
-1.0
  0
LINE
  5
E0
  8
2D$_PLATE
 10
-59.38799899999839
 20
22.54999999999905
 30
0.0
 11
-59.38799899999839
 21
35.54999999999905
 31
0.0
  0
ARC
  5
E1
  8
2D$_PLATE
 10
58.88799899999839
 20
35.54999999999905
 30
0.0
 40
0.5
 50
0.0
 51
90.0
210
0.0
220
0.0
230
-1.0
  0
LINE
  5
E2
  8
2D$_PLATE
 10
-58.88799899999839
 20
36.04999999999905
 30
0.0
 11
-45.88800099999838
 21
36.04999949999888
 31
0.0
  0
ARC
  5
E3
  8
2D$_PLATE
 10
45.88800160444424
 20
35.54999889555279
 30
0.0
 40
0.5000006044465651
 50
90.00006926431283
 51
179.9998732357216
210
0.0
220
0.0
230
-1.0
  0
LINE
  5
E4
  8
2D$_PLATE
 10
-45.38800099999884
 20
35.5500000017812
 30
0.0
 11
-45.38800099999838
 21
22.54999999999882
 31
0.0
  0
ARC
  5
E5
  8
2D$_PLATE
 10
45.88800099999838
 20
22.54999999999905
 30
0.0
 40
0.5000000000001137
 50
179.999999999987
 51
269.999999999987
210
0.0
220
0.0
230
-1.0
  0
LINE
  5
E6
  8
2D$_PLATE
 10
-45.88800099999838
 20
22.04999999999882
 30
0.0
 11
-58.88799899999839
 21
22.04999999999882
 31
0.0
  0
ARC
  5
E7
  8
2D$_PLATE
 10
58.88799899999816
 20
22.54999999999905
 30
0.0
 40
0.5000000000001137
 50
270.000000000013
 51
0.0
210
0.0
220
0.0
230
-1.0
  0
LINE
  5
E8
  8
2D$_PLATE
 10
35.86250100000149
 20
22.54999999999905
 30
0.0
 11
35.86250100000171
 21
35.54999999999905
 31
0.0
  0
ARC
  5
E9
  8
2D$_PLATE
 10
-36.36250100000171
 20
35.54999999999905
 30
0.0
 40
0.4999999999999716
 50
0.0
 51
90.00000000000325
210
0.0
220
0.0
230
-1.0
  0
LINE
  5
EA
  8
2D$_PLATE
 10
36.36250100000171
 20
36.04999999999905
 30
0.0
 11
49.36249900000172
 21
36.04999949999888
 31
0.0
  0
ARC
  5
EB
  8
2D$_PLATE
 10
-49.36249839555586
 20
35.54999889555279
 30
0.0
 40
0.5000006044465083
 50
90.00006926430305
 51
179.9998732357249
210
0.0
220
0.0
230
-1.0
  0
LINE
  5
EC
  8
2D$_PLATE
 10
49.86249900000126
 20
35.5500000017812
 30
0.0
 11
49.86249900000172
 21
22.54999999999905
 31
0.0
  0
ARC
  5
ED
  8
2D$_PLATE
 10
-49.36249900000172
 20
22.54999999999905
 30
0.0
 40
0.5000000000000568
 50
179.9999999999935
 51
269.9999999999935
210
0.0
220
0.0
230
-1.0
  0
LINE
  5
EE
  8
2D$_PLATE
 10
49.36249900000172
 20
22.04999999999905
 30
0.0
 11
36.36250100000171
 21
22.04999999999905
 31
0.0
  0
ARC
  5
EF
  8
2D$_PLATE
 10
-36.36250100000149
 20
22.54999999999882
 30
0.0
 40
0.4999999999999716
 50
269.9999999999935
 51
0.0000000000032569
210
0.0
220
0.0
230
-1.0
  0
LINE
  5
F0
  8
2D$_PLATE
 10
-68.9127489999982
 20
41.59999999999877
 30
0.0
 11
-68.9127489999982
 21
54.59999999999877
 31
0.0
  0
ARC
  5
F1
  8
2D$_PLATE
 10
68.4127489999982
 20
54.59999999999877
 30
0.0
 40
0.5
 50
0.0000000000032569
 51
90.0
210
0.0
220
0.0
230
-1.0
  0
LINE
  5
F2
  8
2D$_PLATE
 10
-68.4127489999982
 20
55.09999999999877
 30
0.0
 11
-55.41275099999842
 21
55.09999949999883
 31
0.0
  0
ARC
  5
F3
  8
2D$_PLATE
 10
55.41275160444428
 20
54.59999889555252
 30
0.0
 40
0.500000604446622
 50
90.00006926431934
 51
179.9998732357151
210
0.0
220
0.0
230
-1.0
  0
LINE
  5
F4
  8
2D$_PLATE
 10
-54.91275099999888
 20
54.60000000178093
 30
0.0
 11
-54.91275099999842
 21
41.59999999999877
 31
0.0
  0
ARC
  5
F5
  8
2D$_PLATE
 10
55.41275099999842
 20
41.59999999999877
 30
0.0
 40
0.5000000000000568
 50
179.9999999999935
 51
269.9999999999935
210
0.0
220
0.0
230
-1.0
  0
LINE
  5
F6
  8
2D$_PLATE
 10
-55.41275099999842
 20
41.09999999999877
 30
0.0
 11
-68.4127489999982
 21
41.09999999999877
 31
0.0
  0
ARC
  5
F7
  8
2D$_PLATE
 10
68.4127489999982
 20
41.59999999999877
 30
0.0
 40
0.5000000000000284
 50
270.0
 51
0.0000000000032569
210
0.0
220
0.0
230
-1.0
  0
LINE
  5
F8
  8
2D$_PLATE
 10
54.91300100000177
 20
22.54999999999905
 30
0.0
 11
54.91300100000177
 21
35.54999999999882
 31
0.0
  0
ARC
  5
F9
  8
2D$_PLATE
 10
-55.41300100000154
 20
35.54999999999905
 30
0.0
 40
0.4999999999998863
 50
0.0000000000130276
 51
90.00000000001303
210
0.0
220
0.0
230
-1.0
  0
LINE
  5
FA
  8
2D$_PLATE
 10
55.41300100000177
 20
36.04999999999882
 30
0.0
 11
68.41299900000178
 21
36.04999949999888
 31
0.0
  0
ARC
  5
FB
  8
2D$_PLATE
 10
-68.41299839555592
 20
35.54999889555279
 30
0.0
 40
0.5000006044465083
 50
90.00006926431608
 51
179.9998732357249
210
0.0
220
0.0
230
-1.0
  0
LINE
  5
FC
  8
2D$_PLATE
 10
68.9129990000011
 20
35.5500000017812
 30
0.0
 11
68.91299900000155
 21
22.54999999999905
 31
0.0
  0
ARC
  5
FD
  8
2D$_PLATE
 10
-68.41299900000155
 20
22.54999999999905
 30
0.0
 40
0.5000000000001137
 50
179.9999999999935
 51
269.999999999987
210
0.0
220
0.0
230
-1.0
  0
LINE
  5
FE
  8
2D$_PLATE
 10
68.41299900000155
 20
22.04999999999882
 30
0.0
 11
55.41300100000177
 21
22.04999999999905
 31
0.0
  0
ARC
  5
FF
  8
2D$_PLATE
 10
-55.41300100000177
 20
22.54999999999905
 30
0.0
 40
0.5
 50
270.0000000000065
 51
0.0
210
0.0
220
0.0
230
-1.0
  0
LINE
  5
100
  8
2D$_PLATE
 10
-140.3499989999984
 20
79.69999999999891
 30
0.0
 11
-140.3499989999984
 21
92.69999999999891
 31
0.0
  0
ARC
  5
101
  8
2D$_PLATE
 10
139.8499989999984
 20
92.69999999999891
 30
0.0
 40
0.4999999999999716
 50
0.0
 51
90.00000000000325
210
0.0
220
0.0
230
-1.0
  0
LINE
  5
102
  8
2D$_PLATE
 10
-139.8499989999984
 20
93.19999999999891
 30
0.0
 11
-126.8500009999984
 21
93.19999949999897
 31
0.0
  0
ARC
  5
103
  8
2D$_PLATE
 10
126.8500016044442
 20
92.69999889555243
 30
0.0
 40
0.5000006044466788
 50
90.00006926432424
 51
179.9998732357069
210
0.0
220
0.0
230
-1.0
  0
LINE
  5
104
  8
2D$_PLATE
 10
-126.3500009999988
 20
92.70000000178106
 30
0.0
 11
-126.3500009999984
 21
79.69999999999891
 31
0.0
  0
ARC
  5
105
  8
2D$_PLATE
 10
126.8500009999984
 20
79.69999999999891
 30
0.0
 40
0.5
 50
179.9999999999967
 51
270.0
210
0.0
220
0.0
230
-1.0
  0
LINE
  5
106
  8
2D$_PLATE
 10
-126.8500009999984
 20
79.19999999999891
 30
0.0
 11
-139.8499989999984
 21
79.19999999999891
 31
0.0
  0
ARC
  5
107
  8
2D$_PLATE
 10
139.8499989999984
 20
79.69999999999891
 30
0.0
 40
0.5
 50
269.9999999999935
 51
0.0000000000065138
210
0.0
220
0.0
230
-1.0
  0
LINE
  5
108
  8
2D$_PLATE
 10
45.38750100000158
 20
41.59999999999877
 30
0.0
 11
45.38750100000158
 21
54.59999999999877
 31
0.0
  0
ARC
  5
109
  8
2D$_PLATE
 10
-45.88750100000158
 20
54.59999999999877
 30
0.0
 40
0.5
 50
0.0
 51
90.0
210
0.0
220
0.0
230
-1.0
  0
LINE
  5
10A
  8
2D$_PLATE
 10
45.88750100000158
 20
55.09999999999877
 30
0.0
 11
58.88749900000181
 21
55.09999949999883
 31
0.0
  0
ARC
  5
10B
  8
2D$_PLATE
 10
-58.88749839555572
 20
54.59999889555252
 30
0.0
 40
0.500000604446622
 50
90.0000692643226
 51
179.9998732357151
210
0.0
220
0.0
230
-1.0
  0
LINE
  5
10C
  8
2D$_PLATE
 10
59.38749900000113
 20
54.60000000178093
 30
0.0
 11
59.38749900000181
 21
41.59999999999877
 31
0.0
  0
ARC
  5
10D
  8
2D$_PLATE
 10
-58.88749900000158
 20
41.59999999999877
 30
0.0
 40
0.5000000000001137
 50
179.9999999999935
 51
269.999999999987
210
0.0
220
0.0
230
-1.0
  0
LINE
  5
10E
  8
2D$_PLATE
 10
58.88749900000181
 20
41.09999999999877
 30
0.0
 11
45.88750100000158
 21
41.09999999999877
 31
0.0
  0
ARC
  5
10F
  8
2D$_PLATE
 10
-45.88750100000158
 20
41.59999999999877
 30
0.0
 40
0.4999999999999716
 50
270.0
 51
0.0000000000032569
210
0.0
220
0.0
230
-1.0
  0
LINE
  5
110
  8
2D$_PLATE
 10
7.287501000001669
 20
41.59999999999877
 30
0.0
 11
7.287501000001669
 21
54.59999999999877
 31
0.0
  0
ARC
  5
111
  8
2D$_PLATE
 10
-7.787501000001669
 20
54.599999999999
 30
0.0
 40
0.4999999999998863
 50
0.0000000000097707
 51
90.00000000001303
210
0.0
220
0.0
230
-1.0
  0
LINE
  5
112
  8
2D$_PLATE
 10
7.787501000001669
 20
55.09999999999877
 30
0.0
 11
20.7874990000019
 21
55.09999949999883
 31
0.0
  0
ARC
  5
113
  8
2D$_PLATE
 10
-20.78749839555582
 20
54.59999889555252
 30
0.0
 40
0.5000006044466788
 50
90.00006926433237
 51
179.9998732357086
210
0.0
220
0.0
230
-1.0
  0
LINE
  5
114
  8
2D$_PLATE
 10
21.28749900000122
 20
54.60000000178093
 30
0.0
 11
21.28749900000167
 21
41.59999999999877
 31
0.0
  0
ARC
  5
115
  8
2D$_PLATE
 10
-20.78749900000167
 20
41.59999999999877
 30
0.0
 40
0.5
 50
179.9999999999967
 51
270.0
210
0.0
220
0.0
230
-1.0
  0
LINE
  5
116
  8
2D$_PLATE
 10
20.78749900000167
 20
41.09999999999877
 30
0.0
 11
7.787501000001669
 21
41.09999999999877
 31
0.0
  0
ARC
  5
117
  8
2D$_PLATE
 10
-7.787501000001669
 20
41.59999999999877
 30
0.0
 40
0.4999999999999716
 50
270.0
 51
0.0000000000032569
210
0.0
220
0.0
230
-1.0
  0
LINE
  5
118
  8
2D$_PLATE
 10
-30.81249899999824
 20
41.59999999999877
 30
0.0
 11
-30.81249899999824
 21
54.59999999999877
 31
0.0
  0
ARC
  5
119
  8
2D$_PLATE
 10
30.31249899999824
 20
54.59999999999877
 30
0.0
 40
0.5
 50
0.0
 51
90.0
210
0.0
220
0.0
230
-1.0
  0
LINE
  5
11A
  8
2D$_PLATE
 10
-30.31249899999824
 20
55.09999999999877
 30
0.0
 11
-17.31250099999824
 21
55.09999949999883
 31
0.0
  0
ARC
  5
11B
  8
2D$_PLATE
 10
17.31250160444409
 20
54.59999889555252
 30
0.0
 40
0.5000006044465936
 50
90.00006926431608
 51
179.9998732357184
210
0.0
220
0.0
230
-1.0
  0
LINE
  5
11C
  8
2D$_PLATE
 10
-16.81250099999892
 20
54.60000000178093
 30
0.0
 11
-16.81250099999846
 21
41.59999999999877
 31
0.0
  0
ARC
  5
11D
  8
2D$_PLATE
 10
17.31250099999846
 20
41.59999999999877
 30
0.0
 40
0.5000000000000284
 50
179.9999999999935
 51
269.9999999999968
210
0.0
220
0.0
230
-1.0
  0
LINE
  5
11E
  8
2D$_PLATE
 10
-17.31250099999824
 20
41.09999999999877
 30
0.0
 11
-30.31249899999824
 21
41.09999999999877
 31
0.0
  0
ARC
  5
11F
  8
2D$_PLATE
 10
30.31249899999824
 20
41.59999999999877
 30
0.0
 40
0.5000000000000284
 50
270.0
 51
0.0000000000032569
210
0.0
220
0.0
230
-1.0
  0
LINE
  5
120
  8
2D$_PLATE
 10
-121.2999989999984
 20
79.69999999999891
 30
0.0
 11
-121.2999989999984
 21
92.69999999999891
 31
0.0
  0
ARC
  5
121
  8
2D$_PLATE
 10
120.7999989999984
 20
92.69999999999891
 30
0.0
 40
0.4999999999999574
 50
0.0000000000032569
 51
90.00000000000487
210
0.0
220
0.0
230
-1.0
  0
LINE
  5
122
  8
2D$_PLATE
 10
-120.7999989999984
 20
93.19999999999891
 30
0.0
 11
-107.8000009999982
 21
93.19999949999897
 31
0.0
  0
ARC
  5
123
  8
2D$_PLATE
 10
107.8000016044443
 20
92.69999889555243
 30
0.0
 40
0.5000006044466788
 50
90.00006926432424
 51
179.9998732357069
210
0.0
220
0.0
230
-1.0
  0
LINE
  5
124
  8
2D$_PLATE
 10
-107.3000009999989
 20
92.70000000178106
 30
0.0
 11
-107.3000009999982
 21
79.69999999999891
 31
0.0
  0
ARC
  5
125
  8
2D$_PLATE
 10
107.8000009999982
 20
79.69999999999891
 30
0.0
 40
0.4999999999999858
 50
179.9999999999967
 51
270.0000000000016
210
0.0
220
0.0
230
-1.0
  0
LINE
  5
126
  8
2D$_PLATE
 10
-107.8000009999982
 20
79.19999999999891
 30
0.0
 11
-120.7999989999984
 21
79.19999999999891
 31
0.0
  0
ARC
  5
127
  8
2D$_PLATE
 10
120.7999989999984
 20
79.69999999999891
 30
0.0
 40
0.4999999999999716
 50
269.9999999999951
 51
0.0000000000032569
210
0.0
220
0.0
230
-1.0
  0
LINE
  5
128
  8
2D$_PLATE
 10
-102.2499989999982
 20
79.69999999999891
 30
0.0
 11
-102.2499989999982
 21
92.69999999999891
 31
0.0
  0
ARC
  5
129
  8
2D$_PLATE
 10
101.7499989999982
 20
92.69999999999891
 30
0.0
 40
0.4999999999999574
 50
0.0000000000032569
 51
90.00000000000487
210
0.0
220
0.0
230
-1.0
  0
LINE
  5
12A
  8
2D$_PLATE
 10
-101.7499989999982
 20
93.19999999999891
 30
0.0
 11
-88.75000099999824
 21
93.19999949999897
 31
0.0
  0
ARC
  5
12B
  8
2D$_PLATE
 10
88.7500016044441
 20
92.69999889555265
 30
0.0
 40
0.5000006044466504
 50
90.00006926432098
 51
179.9998732357118
210
0.0
220
0.0
230
-1.0
  0
LINE
  5
12C
  8
2D$_PLATE
 10
-88.25000099999892
 20
92.70000000178106
 30
0.0
 11
-88.25000099999846
 21
79.69999999999891
 31
0.0
  0
ARC
  5
12D
  8
2D$_PLATE
 10
88.75000099999846
 20
79.69999999999891
 30
0.0
 40
0.5
 50
179.9999999999984
 51
270.0
210
0.0
220
0.0
230
-1.0
  0
LINE
  5
12E
  8
2D$_PLATE
 10
-88.75000099999846
 20
79.19999999999891
 30
0.0
 11
-101.7499989999982
 21
79.19999999999891
 31
0.0
  0
ARC
  5
12F
  8
2D$_PLATE
 10
101.7499989999982
 20
79.69999999999891
 30
0.0
 40
0.4999999999999574
 50
269.9999999999968
 51
0.0000000000048853
210
0.0
220
0.0
230
-1.0
  0
LINE
  5
130
  8
2D$_PLATE
 10
-83.19999899999829
 20
79.69999999999891
 30
0.0
 11
-83.19999899999829
 21
92.69999999999891
 31
0.0
  0
ARC
  5
131
  8
2D$_PLATE
 10
82.69999899999829
 20
92.69999999999891
 30
0.0
 40
0.5
 50
0.0
 51
90.0
210
0.0
220
0.0
230
-1.0
  0
LINE
  5
132
  8
2D$_PLATE
 10
-82.69999899999829
 20
93.19999999999891
 30
0.0
 11
-69.70000099999828
 21
93.19999949999897
 31
0.0
  0
ARC
  5
133
  8
2D$_PLATE
 10
69.70000160444437
 20
92.69999889555243
 30
0.0
 40
0.5000006044467641
 50
90.00006926433562
 51
179.9998732356988
210
0.0
220
0.0
230
-1.0
  0
LINE
  5
134
  8
2D$_PLATE
 10
-69.20000099999874
 20
92.70000000178106
 30
0.0
 11
-69.20000099999828
 21
79.69999999999891
 31
0.0
  0
ARC
  5
135
  8
2D$_PLATE
 10
69.70000099999828
 20
79.69999999999891
 30
0.0
 40
0.5
 50
179.9999999999967
 51
270.0
210
0.0
220
0.0
230
-1.0
  0
LINE
  5
136
  8
2D$_PLATE
 10
-69.70000099999828
 20
79.19999999999891
 30
0.0
 11
-82.69999899999829
 21
79.19999999999891
 31
0.0
  0
ARC
  5
137
  8
2D$_PLATE
 10
82.69999899999829
 20
79.69999999999891
 30
0.0
 40
0.5000000000000142
 50
270.0
 51
0.0000000000016284
210
0.0
220
0.0
230
-1.0
  0
LINE
  5
138
  8
2D$_PLATE
 10
-64.14999899999833
 20
79.69999999999891
 30
0.0
 11
-64.14999899999833
 21
92.69999999999891
 31
0.0
  0
ARC
  5
139
  8
2D$_PLATE
 10
63.64999899999833
 20
92.69999999999891
 30
0.0
 40
0.5
 50
0.0
 51
90.0
210
0.0
220
0.0
230
-1.0
  0
LINE
  5
13A
  8
2D$_PLATE
 10
-63.64999899999833
 20
93.19999999999891
 30
0.0
 11
-50.65000099999833
 21
93.19999949999897
 31
0.0
  0
ARC
  5
13B
  8
2D$_PLATE
 10
50.65000160444418
 20
92.69999889555265
 30
0.0
 40
0.5000006044466504
 50
90.00006926432586
 51
179.9998732357118
210
0.0
220
0.0
230
-1.0
  0
LINE
  5
13C
  8
2D$_PLATE
 10
-50.15000099999878
 20
92.70000000178106
 30
0.0
 11
-50.15000099999833
 21
79.69999999999891
 31
0.0
  0
ARC
  5
13D
  8
2D$_PLATE
 10
50.65000099999833
 20
79.69999999999891
 30
0.0
 40
0.5000000000000284
 50
179.9999999999967
 51
269.9999999999968
210
0.0
220
0.0
230
-1.0
  0
LINE
  5
13E
  8
2D$_PLATE
 10
-50.65000099999833
 20
79.19999999999891
 30
0.0
 11
-63.64999899999833
 21
79.19999999999891
 31
0.0
  0
ARC
  5
13F
  8
2D$_PLATE
 10
63.64999899999833
 20
79.69999999999891
 30
0.0
 40
0.5
 50
270.0000000000032
 51
0.0
210
0.0
220
0.0
230
-1.0
  0
LINE
  5
140
  8
2D$_PLATE
 10
-45.09999899999838
 20
79.69999999999891
 30
0.0
 11
-45.09999899999838
 21
92.69999999999891
 31
0.0
  0
ARC
  5
141
  8
2D$_PLATE
 10
44.59999899999838
 20
92.69999999999891
 30
0.0
 40
0.4999999999999716
 50
0.0
 51
90.00000000000325
210
0.0
220
0.0
230
-1.0
  0
LINE
  5
142
  8
2D$_PLATE
 10
-44.59999899999838
 20
93.19999999999891
 30
0.0
 11
-31.60000099999837
 21
93.19999949999897
 31
0.0
  0
ARC
  5
143
  8
2D$_PLATE
 10
31.60000160444446
 20
92.69999889555243
 30
0.0
 40
0.5000006044467072
 50
90.00006926433562
 51
179.9998732357053
210
0.0
220
0.0
230
-1.0
  0
LINE
  5
144
  8
2D$_PLATE
 10
-31.10000099999883
 20
92.70000000178106
 30
0.0
 11
-31.10000099999837
 21
79.69999999999891
 31
0.0
  0
ARC
  5
145
  8
2D$_PLATE
 10
31.60000099999837
 20
79.69999999999868
 30
0.0
 40
0.4999999999999147
 50
179.9999999999935
 51
270.0000000000098
210
0.0
220
0.0
230
-1.0
  0
LINE
  5
146
  8
2D$_PLATE
 10
-31.60000099999837
 20
79.19999999999891
 30
0.0
 11
-44.59999899999838
 21
79.19999999999891
 31
0.0
  0
ARC
  5
147
  8
2D$_PLATE
 10
44.59999899999838
 20
79.69999999999868
 30
0.0
 40
0.4999999999999147
 50
269.999999999987
 51
0.0000000000097707
210
0.0
220
0.0
230
-1.0
  0
LINE
  5
148
  8
2D$_PLATE
 10
-26.04999899999842
 20
79.69999999999891
 30
0.0
 11
-26.04999899999842
 21
92.69999999999891
 31
0.0
  0
ARC
  5
149
  8
2D$_PLATE
 10
25.54999899999842
 20
92.69999999999891
 30
0.0
 40
0.4999999999999147
 50
0.0000000000065138
 51
90.00000000000978
210
0.0
220
0.0
230
-1.0
  0
LINE
  5
14A
  8
2D$_PLATE
 10
-25.54999899999842
 20
93.19999999999891
 30
0.0
 11
-12.55000099999819
 21
93.19999949999897
 31
0.0
  0
ARC
  5
14B
  8
2D$_PLATE
 10
12.55000160444428
 20
92.69999889555265
 30
0.0
 40
0.5000006044465793
 50
90.0000692643226
 51
179.99987323572
210
0.0
220
0.0
230
-1.0
  0
LINE
  5
14C
  8
2D$_PLATE
 10
-12.05000099999887
 20
92.70000000178106
 30
0.0
 11
-12.05000099999819
 21
79.69999999999891
 31
0.0
  0
ARC
  5
14D
  8
2D$_PLATE
 10
12.55000099999819
 20
79.69999999999891
 30
0.0
 40
0.4999999999999716
 50
179.9999999999967
 51
270.0000000000032
210
0.0
220
0.0
230
-1.0
  0
LINE
  5
14E
  8
2D$_PLATE
 10
-12.55000099999819
 20
79.19999999999891
 30
0.0
 11
-25.54999899999842
 21
79.19999999999891
 31
0.0
  0
ARC
  5
14F
  8
2D$_PLATE
 10
25.54999899999842
 20
79.69999999999891
 30
0.0
 40
0.4999999999999574
 50
269.9999999999902
 51
0.0000000000048853
210
0.0
220
0.0
230
-1.0
  0
LINE
  5
150
  8
2D$_PLATE
 10
-6.99999899999824
 20
79.69999999999891
 30
0.0
 11
-6.99999899999824
 21
92.69999999999891
 31
0.0
  0
ARC
  5
151
  8
2D$_PLATE
 10
6.49999899999824
 20
92.69999999999891
 30
0.0
 40
0.4999999999999716
 50
0.0000000000032569
 51
90.00000000000651
210
0.0
220
0.0
230
-1.0
  0
LINE
  5
152
  8
2D$_PLATE
 10
-6.49999899999824
 20
93.19999999999891
 30
0.0
 11
6.499999000001765
 21
93.19999949999897
 31
0.0
  0
ARC
  5
153
  8
2D$_PLATE
 10
-6.499998395555906
 20
92.69999889555243
 30
0.0
 40
0.5000006044466788
 50
90.00006926431934
 51
179.9998732357086
210
0.0
220
0.0
230
-1.0
  0
LINE
  5
154
  8
2D$_PLATE
 10
6.99999900000131
 20
92.70000000178106
 30
0.0
 11
6.999999000001537
 21
79.69999999999891
 31
0.0
  0
ARC
  5
155
  8
2D$_PLATE
 10
-6.499999000001537
 20
79.69999999999891
 30
0.0
 40
0.5
 50
179.9999999999951
 51
270.0
210
0.0
220
0.0
230
-1.0
  0
LINE
  5
156
  8
2D$_PLATE
 10
6.499999000001537
 20
79.19999999999891
 30
0.0
 11
-6.49999899999824
 21
79.19999999999891
 31
0.0
  0
ARC
  5
157
  8
2D$_PLATE
 10
6.499998999998468
 20
79.69999999999891
 30
0.0
 40
0.4999999999999574
 50
269.999999999987
 51
0.0000000000048853
210
0.0
220
0.0
230
-1.0
  0
LINE
  5
158
  8
2D$_PLATE
 10
31.10000100000167
 20
79.69999999999891
 30
0.0
 11
31.10000100000167
 21
92.69999999999891
 31
0.0
  0
ARC
  5
159
  8
2D$_PLATE
 10
-31.60000100000167
 20
92.69999999999891
 30
0.0
 40
0.4999999999999147
 50
0.0000000000081422
 51
90.00000000000978
210
0.0
220
0.0
230
-1.0
  0
LINE
  5
15A
  8
2D$_PLATE
 10
31.60000100000167
 20
93.19999999999891
 30
0.0
 11
44.59999900000167
 21
93.19999949999897
 31
0.0
  0
ARC
  5
15B
  8
2D$_PLATE
 10
-44.59999839555582
 20
92.69999889555243
 30
0.0
 40
0.500000604446693
 50
90.00006926432911
 51
179.9998732357053
210
0.0
220
0.0
230
-1.0
  0
LINE
  5
15C
  8
2D$_PLATE
 10
45.09999900000122
 20
92.70000000178106
 30
0.0
 11
45.09999900000167
 21
79.69999999999891
 31
0.0
  0
ARC
  5
15D
  8
2D$_PLATE
 10
-44.59999900000167
 20
79.69999999999891
 30
0.0
 40
0.5000000000000568
 50
180.0
 51
269.9999999999935
210
0.0
220
0.0
230
-1.0
  0
LINE
  5
15E
  8
2D$_PLATE
 10
44.59999900000167
 20
79.19999999999891
 30
0.0
 11
31.60000100000167
 21
79.19999999999891
 31
0.0
  0
ARC
  5
15F
  8
2D$_PLATE
 10
-31.60000100000167
 20
79.69999999999891
 30
0.0
 40
0.4999999999999716
 50
270.0
 51
0.0000000000032569
210
0.0
220
0.0
230
-1.0
  0
LINE
  5
160
  8
2D$_PLATE
 10
-111.7744989999982
 20
60.64999999999895
 30
0.0
 11
-111.7744989999982
 21
73.64999999999895
 31
0.0
  0
ARC
  5
161
  8
2D$_PLATE
 10
111.2744989999982
 20
73.64999999999895
 30
0.0
 40
0.4999999999999858
 50
0.0
 51
90.00000000000162
210
0.0
220
0.0
230
-1.0
  0
LINE
  5
162
  8
2D$_PLATE
 10
-111.2744989999982
 20
74.14999999999895
 30
0.0
 11
-98.27450099999822
 21
74.14999949999878
 31
0.0
  0
ARC
  5
163
  8
2D$_PLATE
 10
98.27450160444431
 20
73.6499988955527
 30
0.0
 40
0.500000604446622
 50
90.0000692643226
 51
179.9998732357135
210
0.0
220
0.0
230
-1.0
  0
LINE
  5
164
  8
2D$_PLATE
 10
-97.7745009999989
 20
73.65000000178111
 30
0.0
 11
-97.77450099999845
 21
60.64999999999895
 31
0.0
  0
ARC
  5
165
  8
2D$_PLATE
 10
98.27450099999845
 20
60.64999999999895
 30
0.0
 40
0.5
 50
180.0
 51
270.0
210
0.0
220
0.0
230
-1.0
  0
LINE
  5
166
  8
2D$_PLATE
 10
-98.27450099999845
 20
60.14999999999895
 30
0.0
 11
-111.2744989999982
 21
60.14999999999895
 31
0.0
  0
ARC
  5
167
  8
2D$_PLATE
 10
111.2744989999982
 20
60.64999999999895
 30
0.0
 40
0.4999999999999716
 50
269.9999999999984
 51
0.0000000000032569
210
0.0
220
0.0
230
-1.0
  0
LINE
  5
168
  8
2D$_PLATE
 10
-16.52499899999833
 20
60.64999999999895
 30
0.0
 11
-16.52499899999833
 21
73.64999999999895
 31
0.0
  0
ARC
  5
169
  8
2D$_PLATE
 10
16.02499899999833
 20
73.64999999999895
 30
0.0
 40
0.5
 50
0.0000000000016284
 51
90.0
210
0.0
220
0.0
230
-1.0
  0
LINE
  5
16A
  8
2D$_PLATE
 10
-16.02499899999833
 20
74.14999999999895
 30
0.0
 11
-3.025000999998326
 21
74.14999949999878
 31
0.0
  0
ARC
  5
16B
  8
2D$_PLATE
 10
3.025001604444185
 20
73.6499988955527
 30
0.0
 40
0.500000604446622
 50
90.0000692643226
 51
179.9998732357151
210
0.0
220
0.0
230
-1.0
  0
LINE
  5
16C
  8
2D$_PLATE
 10
-2.525000999998781
 20
73.65000000178111
 30
0.0
 11
-2.525000999998326
 21
60.64999999999895
 31
0.0
  0
ARC
  5
16D
  8
2D$_PLATE
 10
3.025000999998326
 20
60.64999999999895
 30
0.0
 40
0.5000000000000284
 50
179.9999999999967
 51
269.9999999999968
210
0.0
220
0.0
230
-1.0
  0
LINE
  5
16E
  8
2D$_PLATE
 10
-3.025000999998326
 20
60.14999999999895
 30
0.0
 11
-16.02499899999833
 21
60.14999999999895
 31
0.0
  0
ARC
  5
16F
  8
2D$_PLATE
 10
16.02499899999833
 20
60.64999999999895
 30
0.0
 40
0.4999999999999716
 50
270.0
 51
0.0000000000032569
210
0.0
220
0.0
230
-1.0
  0
LINE
  5
170
  8
2D$_PLATE
 10
21.5745010000017
 20
60.64999999999895
 30
0.0
 11
21.5745010000017
 21
73.64999999999895
 31
0.0
  0
ARC
  5
171
  8
2D$_PLATE
 10
-22.0745010000017
 20
73.64999999999895
 30
0.0
 40
0.4999999999999716
 50
0.0000000000016284
 51
90.00000000000325
210
0.0
220
0.0
230
-1.0
  0
LINE
  5
172
  8
2D$_PLATE
 10
22.0745010000017
 20
74.14999999999895
 30
0.0
 11
35.07449900000171
 21
74.14999949999878
 31
0.0
  0
ARC
  5
173
  8
2D$_PLATE
 10
-35.07449839555562
 20
73.6499988955527
 30
0.0
 40
0.5000006044466362
 50
90.00006926431934
 51
179.9998732357135
210
0.0
220
0.0
230
-1.0
  0
LINE
  5
174
  8
2D$_PLATE
 10
35.57449900000125
 20
73.65000000178111
 30
0.0
 11
35.57449900000171
 21
60.64999999999895
 31
0.0
  0
ARC
  5
175
  8
2D$_PLATE
 10
-35.07449900000171
 20
60.64999999999895
 30
0.0
 40
0.4999999999999716
 50
180.0
 51
270.0000000000065
210
0.0
220
0.0
230
-1.0
  0
LINE
  5
176
  8
2D$_PLATE
 10
35.07449900000171
 20
60.14999999999895
 30
0.0
 11
22.0745010000017
 21
60.14999999999895
 31
0.0
  0
ARC
  5
177
  8
2D$_PLATE
 10
-22.0745010000017
 20
60.64999999999895
 30
0.0
 40
0.5000000000000284
 50
270.0000000000065
 51
0.0000000000032569
210
0.0
220
0.0
230
-1.0
  0
LINE
  5
178
  8
2D$_PLATE
 10
59.67450100000184
 20
60.64999999999895
 30
0.0
 11
59.67450100000184
 21
73.64999999999895
 31
0.0
  0
ARC
  5
179
  8
2D$_PLATE
 10
-60.17450100000161
 20
73.64999999999895
 30
0.0
 40
0.4999999999998863
 50
0.0000000000113991
 51
90.00000000001303
210
0.0
220
0.0
230
-1.0
  0
LINE
  5
17A
  8
2D$_PLATE
 10
60.17450100000184
 20
74.14999999999895
 30
0.0
 11
73.17449900000184
 21
74.14999949999878
 31
0.0
  0
ARC
  5
17B
  8
2D$_PLATE
 10
-73.17449839555553
 20
73.64999889555247
 30
0.0
 40
0.5000006044467499
 50
90.00006926434214
 51
179.9998732357004
210
0.0
220
0.0
230
-1.0
  0
LINE
  5
17C
  8
2D$_PLATE
 10
73.67449900000116
 20
73.65000000178111
 30
0.0
 11
73.67449900000162
 21
60.64999999999895
 31
0.0
  0
ARC
  5
17D
  8
2D$_PLATE
 10
-73.17449900000162
 20
60.64999999999895
 30
0.0
 40
0.5
 50
180.0
 51
270.0
210
0.0
220
0.0
230
-1.0
  0
LINE
  5
17E
  8
2D$_PLATE
 10
73.17449900000162
 20
60.14999999999895
 30
0.0
 11
60.17450100000161
 21
60.14999999999895
 31
0.0
  0
ARC
  5
17F
  8
2D$_PLATE
 10
-60.17450100000161
 20
60.64999999999873
 30
0.0
 40
0.4999999999998863
 50
269.9999999999935
 51
0.0000000000130276
210
0.0
220
0.0
230
-1.0
  0
LINE
  5
180
  8
2D$_PLATE
 10
-87.96249899999833
 20
41.59999999999877
 30
0.0
 11
-87.96249899999833
 21
54.59999999999877
 31
0.0
  0
ARC
  5
181
  8
2D$_PLATE
 10
87.46249899999833
 20
54.59999999999877
 30
0.0
 40
0.5
 50
0.0
 51
90.0
210
0.0
220
0.0
230
-1.0
  0
LINE
  5
182
  8
2D$_PLATE
 10
-87.46249899999833
 20
55.09999999999877
 30
0.0
 11
-74.4625009999981
 21
55.09999949999883
 31
0.0
  0
ARC
  5
183
  8
2D$_PLATE
 10
74.46250160444418
 20
54.59999889555274
 30
0.0
 40
0.5000006044465651
 50
90.00006926431934
 51
179.9998732357216
210
0.0
220
0.0
230
-1.0
  0
LINE
  5
184
  8
2D$_PLATE
 10
-73.96250099999878
 20
54.60000000178093
 30
0.0
 11
-73.96250099999833
 21
41.59999999999877
 31
0.0
  0
ARC
  5
185
  8
2D$_PLATE
 10
74.46250099999855
 20
41.599999999999
 30
0.0
 40
0.5000000000001137
 50
179.999999999987
 51
269.999999999987
210
0.0
220
0.0
230
-1.0
  0
LINE
  5
186
  8
2D$_PLATE
 10
-74.46250099999833
 20
41.09999999999877
 30
0.0
 11
-87.46249899999833
 21
41.09999999999877
 31
0.0
  0
ARC
  5
187
  8
2D$_PLATE
 10
87.46249899999833
 20
41.59999999999877
 30
0.0
 40
0.4999999999999716
 50
269.9999999999968
 51
0.0000000000032569
210
0.0
220
0.0
230
-1.0
  0
LINE
  5
188
  8
2D$_PLATE
 10
-49.86199899999832
 20
41.59999999999877
 30
0.0
 11
-49.86199899999832
 21
54.59999999999877
 31
0.0
  0
ARC
  5
189
  8
2D$_PLATE
 10
49.36199899999832
 20
54.599999999999
 30
0.0
 40
0.4999999999999147
 50
0.0000000000065138
 51
90.00000000000978
210
0.0
220
0.0
230
-1.0
  0
LINE
  5
18A
  8
2D$_PLATE
 10
-49.36199899999832
 20
55.09999999999877
 30
0.0
 11
-36.36200099999809
 21
55.09999949999883
 31
0.0
  0
ARC
  5
18B
  8
2D$_PLATE
 10
36.36200160444417
 20
54.59999889555252
 30
0.0
 40
0.500000604446622
 50
90.00006926431934
 51
179.9998732357151
210
0.0
220
0.0
230
-1.0
  0
LINE
  5
18C
  8
2D$_PLATE
 10
-35.86200099999877
 20
54.60000000178115
 30
0.0
 11
-35.86200099999832
 21
41.59999999999877
 31
0.0
  0
ARC
  5
18D
  8
2D$_PLATE
 10
36.36200099999832
 20
41.59999999999877
 30
0.0
 40
0.5000000000000284
 50
179.9999999999935
 51
269.9999999999968
210
0.0
220
0.0
230
-1.0
  0
LINE
  5
18E
  8
2D$_PLATE
 10
-36.36200099999832
 20
41.09999999999877
 30
0.0
 11
-49.36199899999832
 21
41.09999999999877
 31
0.0
  0
ARC
  5
18F
  8
2D$_PLATE
 10
49.36199899999832
 20
41.59999999999877
 30
0.0
 40
0.5
 50
270.0
 51
0.0
210
0.0
220
0.0
230
-1.0
  0
LINE
  5
190
  8
2D$_PLATE
 10
-11.76249899999829
 20
41.59999999999877
 30
0.0
 11
-11.76249899999829
 21
54.59999999999877
 31
0.0
  0
ARC
  5
191
  8
2D$_PLATE
 10
11.26249899999829
 20
54.59999999999877
 30
0.0
 40
0.5000000000000284
 50
0.0000000000032569
 51
89.99999999999349
210
0.0
220
0.0
230
-1.0
  0
LINE
  5
192
  8
2D$_PLATE
 10
-11.26249899999851
 20
55.09999999999877
 30
0.0
 11
1.737499000001719
 21
55.09999949999906
 31
0.0
  0
ARC
  5
193
  8
2D$_PLATE
 10
-1.73749839555586
 20
54.59999889555252
 30
0.0
 40
0.5000006044466504
 50
90.00006926431608
 51
179.9998732357118
210
0.0
220
0.0
230
-1.0
  0
LINE
  5
194
  8
2D$_PLATE
 10
2.237499000001264
 20
54.60000000178115
 30
0.0
 11
2.237499000001719
 21
41.59999999999877
 31
0.0
  0
ARC
  5
195
  8
2D$_PLATE
 10
-1.737499000001719
 20
41.599999999999
 30
0.0
 40
0.5000000000000568
 50
179.9999999999902
 51
269.9999999999935
210
0.0
220
0.0
230
-1.0
  0
LINE
  5
196
  8
2D$_PLATE
 10
1.737499000001719
 20
41.09999999999877
 30
0.0
 11
-11.26249899999829
 21
41.09999999999877
 31
0.0
  0
ARC
  5
197
  8
2D$_PLATE
 10
11.26249899999829
 20
41.59999999999877
 30
0.0
 40
0.5000000000000568
 50
270.0000000000098
 51
0.0000000000065138
210
0.0
220
0.0
230
-1.0
  0
LINE
  5
198
  8
2D$_PLATE
 10
-97.48749899999842
 20
22.54999999999905
 30
0.0
 11
-97.48749899999842
 21
35.54999999999882
 31
0.0
  0
ARC
  5
199
  8
2D$_PLATE
 10
96.98749899999842
 20
35.54999999999882
 30
0.0
 40
0.5000000000000426
 50
0.0000000000032569
 51
89.99999999999675
210
0.0
220
0.0
230
-1.0
  0
LINE
  5
19A
  8
2D$_PLATE
 10
-96.98749899999842
 20
36.04999999999882
 30
0.0
 11
-83.98750099999819
 21
36.04999949999888
 31
0.0
  0
ARC
  5
19B
  8
2D$_PLATE
 10
83.98750160444428
 20
35.54999889555279
 30
0.0
 40
0.500000604446622
 50
90.00006926431934
 51
179.9998732357151
210
0.0
220
0.0
230
-1.0
  0
LINE
  5
19C
  8
2D$_PLATE
 10
-83.48750099999864
 20
35.5500000017812
 30
0.0
 11
-83.48750099999819
 21
22.54999999999905
 31
0.0
  0
ARC
  5
19D
  8
2D$_PLATE
 10
83.98750099999842
 20
22.54999999999905
 30
0.0
 40
0.5000000000000568
 50
179.9999999999935
 51
269.9999999999935
210
0.0
220
0.0
230
-1.0
  0
LINE
  5
19E
  8
2D$_PLATE
 10
-83.98750099999819
 20
22.04999999999905
 30
0.0
 11
-96.98749899999842
 21
22.04999999999882
 31
0.0
  0
ARC
  5
19F
  8
2D$_PLATE
 10
96.9874989999982
 20
22.54999999999905
 30
0.0
 40
0.5000000000000853
 50
270.0000000000065
 51
0.0000000000097707
210
0.0
220
0.0
230
-1.0
  0
LINE
  5
1A0
  8
2D$_PLATE
 10
-21.28749899999838
 20
22.54999999999905
 30
0.0
 11
-21.28749899999838
 21
35.54999999999905
 31
0.0
  0
ARC
  5
1A1
  8
2D$_PLATE
 10
20.78749899999838
 20
35.54999999999905
 30
0.0
 40
0.4999999999999716
 50
0.0
 51
90.00000000000325
210
0.0
220
0.0
230
-1.0
  0
LINE
  5
1A2
  8
2D$_PLATE
 10
-20.78749899999838
 20
36.04999999999905
 30
0.0
 11
-7.787500999998372
 21
36.04999949999888
 31
0.0
  0
ARC
  5
1A3
  8
2D$_PLATE
 10
7.78750160444423
 20
35.54999889555279
 30
0.0
 40
0.5000006044465936
 50
90.0000692643226
 51
179.9998732357184
210
0.0
220
0.0
230
-1.0
  0
LINE
  5
1A4
  8
2D$_PLATE
 10
-7.287500999998827
 20
35.5500000017812
 30
0.0
 11
-7.287500999998372
 21
22.54999999999882
 31
0.0
  0
ARC
  5
1A5
  8
2D$_PLATE
 10
7.787500999998372
 20
22.54999999999905
 30
0.0
 40
0.5000000000001137
 50
179.999999999987
 51
269.999999999987
210
0.0
220
0.0
230
-1.0
  0
LINE
  5
1A6
  8
2D$_PLATE
 10
-7.787500999998372
 20
22.04999999999905
 30
0.0
 11
-20.78749899999838
 21
22.04999999999905
 31
0.0
  0
ARC
  5
1A7
  8
2D$_PLATE
 10
20.78749899999815
 20
22.54999999999905
 30
0.0
 40
0.5000000000000568
 50
270.0000000000065
 51
0.0000000000065138
210
0.0
220
0.0
230
-1.0
  0
LINE
  5
1A8
  8
2D$_PLATE
 10
64.43750100000176
 20
41.59999999999877
 30
0.0
 11
64.43750100000176
 21
54.59999999999877
 31
0.0
  0
ARC
  5
1A9
  8
2D$_PLATE
 10
-64.93750100000176
 20
54.59999999999877
 30
0.0
 40
0.5
 50
0.0
 51
90.0
210
0.0
220
0.0
230
-1.0
  0
LINE
  5
1AA
  8
2D$_PLATE
 10
64.93750100000176
 20
55.09999999999877
 30
0.0
 11
77.93749900000176
 21
55.09999949999883
 31
0.0
  0
ARC
  5
1AB
  8
2D$_PLATE
 10
-77.93749839555568
 20
54.59999889555252
 30
0.0
 40
0.5000006044468494
 50
90.00006926434214
 51
179.999873235689
210
0.0
220
0.0
230
-1.0
  0
LINE
  5
1AC
  8
2D$_PLATE
 10
78.43749900000108
 20
54.60000000178093
 30
0.0
 11
78.43749900000176
 21
41.59999999999877
 31
0.0
  0
ARC
  5
1AD
  8
2D$_PLATE
 10
-77.93749900000154
 20
41.599999999999
 30
0.0
 40
0.5000000000001137
 50
179.999999999987
 51
269.999999999987
210
0.0
220
0.0
230
-1.0
  0
LINE
  5
1AE
  8
2D$_PLATE
 10
77.93749900000176
 20
41.09999999999877
 30
0.0
 11
64.93750100000176
 21
41.09999999999877
 31
0.0
  0
ARC
  5
1AF
  8
2D$_PLATE
 10
-64.93750100000176
 20
41.59999999999877
 30
0.0
 40
0.5000000000000284
 50
270.0000000000065
 51
0.0000000000032569
210
0.0
220
0.0
230
-1.0
  0
LINE
  5
1B0
  8
2D$_PLATE
 10
126.3500010000016
 20
41.59999999999877
 30
0.0
 11
126.3500010000016
 21
54.59999999999877
 31
0.0
  0
ARC
  5
1B1
  8
2D$_PLATE
 10
-126.8500010000016
 20
54.599999999999
 30
0.0
 40
0.4999999999998863
 50
0.0000000000097707
 51
90.00000000001303
210
0.0
220
0.0
230
-1.0
  0
LINE
  5
1B2
  8
2D$_PLATE
 10
126.8500010000016
 20
55.09999999999877
 30
0.0
 11
139.8499990000018
 21
55.09999949999883
 31
0.0
  0
ARC
  5
1B3
  8
2D$_PLATE
 10
-139.8499983955558
 20
54.59999889555252
 30
0.0
 40
0.5000006044465936
 50
90.00006926433562
 51
179.9998732357184
210
0.0
220
0.0
230
-1.0
  0
LINE
  5
1B4
  8
2D$_PLATE
 10
140.3499990000009
 20
54.60000000178093
 30
0.0
 11
140.3499990000016
 21
41.59999999999877
 31
0.0
  0
ARC
  5
1B5
  8
2D$_PLATE
 10
-139.8499990000014
 20
41.59999999999877
 30
0.0
 40
0.5000000000001137
 50
179.9999999999935
 51
269.999999999987
210
0.0
220
0.0
230
-1.0
  0
LINE
  5
1B6
  8
2D$_PLATE
 10
139.8499990000016
 20
41.09999999999877
 30
0.0
 11
126.8500010000016
 21
41.09999999999877
 31
0.0
  0
ARC
  5
1B7
  8
2D$_PLATE
 10
-126.8500010000016
 20
41.59999999999877
 30
0.0
 40
0.4999999999999432
 50
269.9999999999935
 51
0.0000000000065138
210
0.0
220
0.0
230
-1.0
  0
LINE
  5
1B8
  8
2D$_PLATE
 10
40.62450100000166
 20
60.64999999999895
 30
0.0
 11
40.62450100000166
 21
73.64999999999895
 31
0.0
  0
ARC
  5
1B9
  8
2D$_PLATE
 10
-41.12450100000166
 20
73.64999999999895
 30
0.0
 40
0.4999999999998863
 50
0.0000000000097707
 51
90.00000000001303
210
0.0
220
0.0
230
-1.0
  0
LINE
  5
1BA
  8
2D$_PLATE
 10
41.12450100000166
 20
74.14999999999895
 30
0.0
 11
54.12449900000189
 21
74.14999949999878
 31
0.0
  0
ARC
  5
1BB
  8
2D$_PLATE
 10
-54.12449839555558
 20
73.64999889555247
 30
0.0
 40
0.5000006044467925
 50
90.00006926434865
 51
179.9998732356956
210
0.0
220
0.0
230
-1.0
  0
LINE
  5
1BC
  8
2D$_PLATE
 10
54.62449900000121
 20
73.65000000178111
 30
0.0
 11
54.62449900000166
 21
60.64999999999895
 31
0.0
  0
ARC
  5
1BD
  8
2D$_PLATE
 10
-54.12449900000166
 20
60.64999999999895
 30
0.0
 40
0.5
 50
180.0
 51
270.0
210
0.0
220
0.0
230
-1.0
  0
LINE
  5
1BE
  8
2D$_PLATE
 10
54.12449900000166
 20
60.14999999999895
 30
0.0
 11
41.12450100000166
 21
60.14999999999895
 31
0.0
  0
ARC
  5
1BF
  8
2D$_PLATE
 10
-41.12450100000166
 20
60.64999999999873
 30
0.0
 40
0.4999999999998863
 50
269.9999999999804
 51
0.0000000000130276
210
0.0
220
0.0
230
-1.0
  0
LINE
  5
1C0
  8
2D$_PLATE
 10
126.3500010000016
 20
79.69999999999891
 30
0.0
 11
126.3500010000016
 21
92.69999999999891
 31
0.0
  0
ARC
  5
1C1
  8
2D$_PLATE
 10
-126.8500010000016
 20
92.69999999999891
 30
0.0
 40
0.4999999999998863
 50
0.0000000000097707
 51
90.00000000001303
210
0.0
220
0.0
230
-1.0
  0
LINE
  5
1C2
  8
2D$_PLATE
 10
126.8500010000016
 20
93.19999999999891
 30
0.0
 11
139.8499990000018
 21
93.19999949999897
 31
0.0
  0
ARC
  5
1C3
  8
2D$_PLATE
 10
-139.8499983955558
 20
92.69999889555243
 30
0.0
 40
0.500000604446693
 50
90.00006926432911
 51
179.9998732357069
210
0.0
220
0.0
230
-1.0
  0
LINE
  5
1C4
  8
2D$_PLATE
 10
140.3499990000012
 20
92.70000000178106
 30
0.0
 11
140.3499990000016
 21
79.69999999999891
 31
0.0
  0
ARC
  5
1C5
  8
2D$_PLATE
 10
-139.8499990000014
 20
79.69999999999891
 30
0.0
 40
0.5000000000001137
 50
179.9999999999951
 51
269.999999999987
210
0.0
220
0.0
230
-1.0
  0
LINE
  5
1C6
  8
2D$_PLATE
 10
139.8499990000016
 20
79.19999999999891
 30
0.0
 11
126.8500010000016
 21
79.19999999999891
 31
0.0
  0
ARC
  5
1C7
  8
2D$_PLATE
 10
-126.8500010000016
 20
79.69999999999868
 30
0.0
 40
0.4999999999998863
 50
269.999999999987
 51
0.0000000000130276
210
0.0
220
0.0
230
-1.0
  0
LINE
  5
1C8
  8
2D$_PLATE
 10
107.3000010000017
 20
60.64999999999895
 30
0.0
 11
107.3000010000017
 21
73.64999999999895
 31
0.0
  0
ARC
  5
1C9
  8
2D$_PLATE
 10
-107.8000010000015
 20
73.64999999999895
 30
0.0
 40
0.4999999999998863
 50
0.0000000000113991
 51
90.00000000001303
210
0.0
220
0.0
230
-1.0
  0
LINE
  5
1CA
  8
2D$_PLATE
 10
107.8000010000017
 20
74.14999999999895
 30
0.0
 11
120.7999990000017
 21
74.14999949999878
 31
0.0
  0
ARC
  5
1CB
  8
2D$_PLATE
 10
-120.799998395556
 20
73.6499988955527
 30
0.0
 40
0.5000006044464799
 50
90.00006926430957
 51
179.9998732357314
210
0.0
220
0.0
230
-1.0
  0
LINE
  5
1CC
  8
2D$_PLATE
 10
121.2999990000012
 20
73.65000000178111
 30
0.0
 11
121.2999990000017
 21
60.64999999999895
 31
0.0
  0
ARC
  5
1CD
  8
2D$_PLATE
 10
-120.7999990000017
 20
60.64999999999895
 30
0.0
 40
0.5000000000000568
 50
180.0
 51
269.9999999999935
210
0.0
220
0.0
230
-1.0
  0
LINE
  5
1CE
  8
2D$_PLATE
 10
120.7999990000017
 20
60.14999999999873
 30
0.0
 11
107.8000010000017
 21
60.14999999999895
 31
0.0
  0
ARC
  5
1CF
  8
2D$_PLATE
 10
-107.8000010000015
 20
60.64999999999873
 30
0.0
 40
0.4999999999998863
 50
269.999999999987
 51
0.0000000000130276
210
0.0
220
0.0
230
-1.0
  0
LINE
  5
1D0
  8
2D$_PLATE
 10
-54.62504899999834
 20
60.64999999999895
 30
0.0
 11
-54.62504899999834
 21
73.64999999999895
 31
0.0
  0
ARC
  5
1D1
  8
2D$_PLATE
 10
54.12504899999834
 20
73.64999999999895
 30
0.0
 40
0.5
 50
0.0000000000016284
 51
90.0
210
0.0
220
0.0
230
-1.0
  0
LINE
  5
1D2
  8
2D$_PLATE
 10
-54.12504899999834
 20
74.14999999999895
 30
0.0
 11
-41.12505099999811
 21
74.14999949999878
 31
0.0
  0
ARC
  5
1D3
  8
2D$_PLATE
 10
41.1250516044442
 20
73.6499988955527
 30
0.0
 40
0.5000006044466504
 50
90.00006926431934
 51
179.9998732357118
210
0.0
220
0.0
230
-1.0
  0
LINE
  5
1D4
  8
2D$_PLATE
 10
-40.62505099999879
 20
73.65000000178111
 30
0.0
 11
-40.62505099999834
 21
60.64999999999895
 31
0.0
  0
ARC
  5
1D5
  8
2D$_PLATE
 10
41.12505099999834
 20
60.64999999999895
 30
0.0
 40
0.5
 50
179.9999999999935
 51
270.0
210
0.0
220
0.0
230
-1.0
  0
LINE
  5
1D6
  8
2D$_PLATE
 10
-41.12505099999834
 20
60.14999999999895
 30
0.0
 11
-54.12504899999834
 21
60.14999999999895
 31
0.0
  0
ARC
  5
1D7
  8
2D$_PLATE
 10
54.12504899999834
 20
60.64999999999895
 30
0.0
 40
0.5000000000000284
 50
270.0000000000032
 51
0.0000000000032569
210
0.0
220
0.0
230
-1.0
  0
LINE
  5
1D8
  8
2D$_PLATE
 10
-119.7062509999982
 20
41.09999999999877
 30
0.0
 11
-132.7062489999984
 21
41.09999999999877
 31
0.0
  0
ARC
  5
1D9
  8
2D$_PLATE
 10
132.7062489999984
 20
41.59999999999877
 30
0.0
 40
0.5
 50
270.0
 51
0.0
210
0.0
220
0.0
230
-1.0
  0
LINE
  5
1DA
  8
2D$_PLATE
 10
-133.2062489999984
 20
41.59999999999877
 30
0.0
 11
-133.2062489999984
 21
54.59999999999877
 31
0.0
  0
ARC
  5
1DB
  8
2D$_PLATE
 10
132.7062489999984
 20
54.59999999999877
 30
0.0
 40
0.4999999999999858
 50
0.0000000000032569
 51
90.0
210
0.0
220
0.0
230
-1.0
  0
LINE
  5
1DC
  8
2D$_PLATE
 10
-132.7062489999984
 20
55.09999999999877
 30
0.0
 11
-119.7062509999982
 21
55.09999949999906
 31
0.0
  0
ARC
  5
1DD
  8
2D$_PLATE
 10
119.7062516044443
 20
54.59999889555252
 30
0.0
 40
0.5000006044466504
 50
90.00006926431934
 51
179.9998732357118
210
0.0
220
0.0
230
-1.0
  0
LINE
  5
1DE
  8
2D$_PLATE
 10
-119.2062509999989
 20
54.60000000178093
 30
0.0
 11
-119.2062509999982
 21
41.59999999999877
 31
0.0
  0
ARC
  5
1DF
  8
2D$_PLATE
 10
119.7062509999984
 20
41.59999999999877
 30
0.0
 40
0.5000000000000284
 50
180.0
 51
269.9999999999968
210
0.0
220
0.0
230
-1.0
  0
LINE
  5
1E0
  8
2D$_PLATE
 10
-137.9687489999982
 20
3.499999999998863
 30
0.0
 11
-137.9687489999982
 21
16.49999999999886
 31
0.0
  0
ARC
  5
1E1
  8
2D$_PLATE
 10
137.4687489999985
 20
16.49999999999886
 30
0.0
 40
0.4999999999998721
 50
0.0000000000130276
 51
90.00000000001303
210
0.0
220
0.0
230
-1.0
  0
LINE
  5
1E2
  8
2D$_PLATE
 10
-137.4687489999982
 20
16.99999999999886
 30
0.0
 11
-124.4687509999985
 21
16.99999949999892
 31
0.0
  0
ARC
  5
1E3
  8
2D$_PLATE
 10
124.4687516044443
 20
16.49999889555261
 30
0.0
 40
0.5000006044466788
 50
90.00006926432586
 51
179.9998732357086
210
0.0
220
0.0
230
-1.0
  0
LINE
  5
1E4
  8
2D$_PLATE
 10
-123.9687509999989
 20
16.50000000178102
 30
0.0
 11
-123.9687509999985
 21
3.499999999998863
 31
0.0
  0
ARC
  5
1E5
  8
2D$_PLATE
 10
124.4687509999982
 20
3.499999999998863
 30
0.0
 40
0.4999999999999716
 50
179.9999999999967
 51
270.0000000000032
210
0.0
220
0.0
230
-1.0
  0
LINE
  5
1E6
  8
2D$_PLATE
 10
-124.4687509999985
 20
2.999999999998863
 30
0.0
 11
-137.4687489999982
 21
2.999999999998863
 31
0.0
  0
ARC
  5
1E7
  8
2D$_PLATE
 10
137.4687489999982
 20
3.499999999998863
 30
0.0
 40
0.4999999999999147
 50
269.9999999999935
 51
0.0000000000097707
210
0.0
220
0.0
230
-1.0
  0
LINE
  5
1E8
  8
2D$_PLATE
 10
-121.5869999999983
 20
60.64999999999895
 30
0.0
 11
-121.5869999999983
 21
73.64999999999895
 31
0.0
  0
ARC
  5
1E9
  8
2D$_PLATE
 10
-122.0869999999983
 20
73.64999999999895
 30
0.0
 40
0.5
 50
0.0000000000032569
 51
90.0
  0
LINE
  5
1EA
  8
2D$_PLATE
 10
-122.0869999999983
 20
74.14999999999895
 30
0.0
 11
-135.0869999999983
 21
74.14999999999895
 31
0.0
  0
ARC
  5
1EB
  8
2D$_PLATE
 10
-135.0869999999983
 20
73.64999999999895
 30
0.0
 40
0.5
 50
90.0
 51
180.0
  0
LINE
  5
1EC
  8
2D$_PLATE
 10
-135.5869999999983
 20
73.64999999999895
 30
0.0
 11
-135.5869999999983
 21
60.65907599999878
 31
0.0
  0
ARC
  5
1ED
  8
2D$_PLATE
 10
-135.0866506791955
 20
60.65942532080157
 30
0.0
 40
0.5003494427425569
 50
180.0400012623365
 51
269.9599987376635
  0
LINE
  5
1EE
  8
2D$_PLATE
 10
-135.0869999999983
 20
60.15907599999878
 30
0.0
 11
-122.0869999999983
 21
60.14999999999895
 31
0.0
  0
ARC
  5
1EF
  8
2D$_PLATE
 10
-122.0869999999983
 20
60.64999999999895
 30
0.0
 40
0.5
 50
269.9999999999968
 51
0.0
  0
LINE
  5
1F0
  8
2D$_PLATE
 10
97.48700000000173
 20
60.64999999999895
 30
0.0
 11
97.48700000000173
 21
73.64999999999895
 31
0.0
  0
ARC
  5
1F1
  8
2D$_PLATE
 10
96.98700000000173
 20
73.64999999999895
 30
0.0
 40
0.5
 50
0.0
 51
90.0
  0
LINE
  5
1F2
  8
2D$_PLATE
 10
96.98700000000173
 20
74.14999999999895
 30
0.0
 11
83.98700000000173
 21
74.14999999999895
 31
0.0
  0
ARC
  5
1F3
  8
2D$_PLATE
 10
83.9870000000015
 20
73.64999999999895
 30
0.0
 40
0.4999999999999147
 50
89.99999999998697
 51
179.9999999999902
  0
LINE
  5
1F4
  8
2D$_PLATE
 10
83.48700000000173
 20
73.64999999999895
 30
0.0
 11
83.48700000000173
 21
60.65907599999878
 31
0.0
  0
ARC
  5
1F5
  8
2D$_PLATE
 10
83.9873493208043
 20
60.65942532080157
 30
0.0
 40
0.5003494427425569
 50
180.0400012623365
 51
269.9599987376635
  0
LINE
  5
1F6
  8
2D$_PLATE
 10
83.98700000000173
 20
60.15907599999878
 30
0.0
 11
96.98700000000173
 21
60.14999999999895
 31
0.0
  0
ARC
  5
1F7
  8
2D$_PLATE
 10
96.98700000000196
 20
60.64999999999873
 30
0.0
 40
0.4999999999998863
 50
269.9999999999804
 51
0.0000000000130276
  0
LINE
  5
1F8
  8
2D$_PLATE
 10
88.25000100000176
 20
3.499999999998863
 30
0.0
 11
88.25000100000176
 21
16.49999999999886
 31
0.0
  0
ARC
  5
1F9
  8
2D$_PLATE
 10
-88.75000100000153
 20
16.49999999999909
 30
0.0
 40
0.4999999999998295
 50
0.0000000000195413
 51
90.00000000001954
210
0.0
220
0.0
230
-1.0
  0
LINE
  5
1FA
  8
2D$_PLATE
 10
88.75000100000176
 20
16.99999999999886
 30
0.0
 11
101.749999000002
 21
16.99999949999869
 31
0.0
  0
ARC
  5
1FB
  8
2D$_PLATE
 10
-101.7499983955557
 20
16.49999889555238
 30
0.0
 40
0.5000006044467925
 50
90.00006926434865
 51
179.9998732356956
210
0.0
220
0.0
230
-1.0
  0
LINE
  5
1FC
  8
2D$_PLATE
 10
102.2499990000013
 20
16.50000000178102
 30
0.0
 11
102.2499990000018
 21
3.499999999998863
 31
0.0
  0
ARC
  5
1FD
  8
2D$_PLATE
 10
-101.7499990000015
 20
3.499999999998863
 30
0.0
 40
0.5000000000001705
 50
179.9999999999837
 51
269.9999999999804
210
0.0
220
0.0
230
-1.0
  0
LINE
  5
1FE
  8
2D$_PLATE
 10
101.7499990000018
 20
2.999999999998863
 30
0.0
 11
88.75000100000176
 21
2.999999999998863
 31
0.0
  0
ARC
  5
1FF
  8
2D$_PLATE
 10
-88.75000100000176
 20
3.499999999998863
 30
0.0
 40
0.4999999999999432
 50
269.999999999987
 51
0.0000000000065138
210
0.0
220
0.0
230
-1.0
  0
LINE
  5
200
  8
2D$_PLATE
 10
69.20000100000158
 20
3.499999999998863
 30
0.0
 11
69.2000010000018
 21
16.49999999999886
 31
0.0
  0
ARC
  5
201
  8
2D$_PLATE
 10
-69.70000100000158
 20
16.49999999999886
 30
0.0
 40
0.4999999999999432
 50
0.0000000000130276
 51
90.00000000000651
210
0.0
220
0.0
230
-1.0
  0
LINE
  5
202
  8
2D$_PLATE
 10
69.7000010000018
 20
16.99999999999886
 30
0.0
 11
82.69999900000181
 21
16.99999949999869
 31
0.0
  0
ARC
  5
203
  8
2D$_PLATE
 10
-82.69999839555618
 20
16.49999889555306
 30
0.0
 40
0.5000006044462809
 50
90.00006926428351
 51
179.9998732357509
210
0.0
220
0.0
230
-1.0
  0
LINE
  5
204
  8
2D$_PLATE
 10
83.19999900000136
 20
16.50000000178102
 30
0.0
 11
83.19999900000181
 21
3.499999999998863
 31
0.0
  0
ARC
  5
205
  8
2D$_PLATE
 10
-82.69999900000181
 20
3.499999999998863
 30
0.0
 40
0.5
 50
179.9999999999967
 51
270.0
210
0.0
220
0.0
230
-1.0
  0
LINE
  5
206
  8
2D$_PLATE
 10
82.69999900000181
 20
2.999999999998863
 30
0.0
 11
69.7000010000018
 21
2.999999999998863
 31
0.0
  0
ARC
  5
207
  8
2D$_PLATE
 10
-69.7000010000018
 20
3.499999999998863
 30
0.0
 40
0.5000000000001137
 50
270.0000000000065
 51
0.0000000000130276
210
0.0
220
0.0
230
-1.0
  0
LINE
  5
208
  8
2D$_PLATE
 10
-35.57499899999829
 20
60.64999999999895
 30
0.0
 11
-35.57499899999829
 21
73.64999999999895
 31
0.0
  0
ARC
  5
209
  8
2D$_PLATE
 10
35.07499899999851
 20
73.64999999999895
 30
0.0
 40
0.4999999999999432
 50
0.0000000000065138
 51
90.00000000000651
210
0.0
220
0.0
230
-1.0
  0
LINE
  5
20A
  8
2D$_PLATE
 10
-35.07499899999829
 20
74.14999999999895
 30
0.0
 11
-22.07500099999828
 21
74.14999949999878
 31
0.0
  0
ARC
  5
20B
  8
2D$_PLATE
 10
22.07500160444414
 20
73.6499988955527
 30
0.0
 40
0.5000006044466646
 50
90.0000692643226
 51
179.9998732357102
210
0.0
220
0.0
230
-1.0
  0
LINE
  5
20C
  8
2D$_PLATE
 10
-21.57500099999874
 20
73.65000000178111
 30
0.0
 11
-21.57500099999828
 21
60.64999999999895
 31
0.0
  0
ARC
  5
20D
  8
2D$_PLATE
 10
22.07500099999828
 20
60.64999999999895
 30
0.0
 40
0.4999999999999432
 50
179.9999999999967
 51
270.0000000000032
210
0.0
220
0.0
230
-1.0
  0
LINE
  5
20E
  8
2D$_PLATE
 10
-22.07500099999828
 20
60.14999999999895
 30
0.0
 11
-35.07499899999829
 21
60.14999999999895
 31
0.0
  0
ARC
  5
20F
  8
2D$_PLATE
 10
35.07499899999829
 20
60.64999999999895
 30
0.0
 40
0.5000000000000568
 50
270.0000000000032
 51
0.0000000000065138
210
0.0
220
0.0
230
-1.0
  0
LINE
  5
210
  8
2D$_PLATE
 10
50.15000100000185
 20
79.69999999999891
 30
0.0
 11
50.15000100000162
 21
92.69999999999891
 31
0.0
  0
ARC
  5
211
  8
2D$_PLATE
 10
-50.65000100000162
 20
92.69999999999891
 30
0.0
 40
0.4999999999999432
 50
0.0000000000016284
 51
90.00000000000651
210
0.0
220
0.0
230
-1.0
  0
LINE
  5
212
  8
2D$_PLATE
 10
50.65000100000162
 20
93.19999999999891
 30
0.0
 11
63.64999900000186
 21
93.19999949999897
 31
0.0
  0
ARC
  5
213
  8
2D$_PLATE
 10
-63.64999839555554
 20
92.69999889555243
 30
0.0
 40
0.5000006044467783
 50
90.00006926434865
 51
179.9998732356956
210
0.0
220
0.0
230
-1.0
  0
LINE
  5
214
  8
2D$_PLATE
 10
64.14999900000117
 20
92.70000000178106
 30
0.0
 11
64.14999900000163
 21
79.69999999999891
 31
0.0
  0
ARC
  5
215
  8
2D$_PLATE
 10
-63.64999900000163
 20
79.69999999999891
 30
0.0
 40
0.4999999999999432
 50
179.9999999999984
 51
270.0000000000065
210
0.0
220
0.0
230
-1.0
  0
LINE
  5
216
  8
2D$_PLATE
 10
63.64999900000163
 20
79.19999999999891
 30
0.0
 11
50.65000100000162
 21
79.19999999999891
 31
0.0
  0
ARC
  5
217
  8
2D$_PLATE
 10
-50.65000100000162
 20
79.69999999999868
 30
0.0
 40
0.4999999999998863
 50
269.9999999999935
 51
0.0000000000130276
210
0.0
220
0.0
230
-1.0
  0
LINE
  5
218
  8
2D$_PLATE
 10
-92.72449899999827
 20
60.64999999999895
 30
0.0
 11
-92.72449899999827
 21
73.64999999999895
 31
0.0
  0
ARC
  5
219
  8
2D$_PLATE
 10
92.22449899999827
 20
73.64999999999895
 30
0.0
 40
0.5000000000000142
 50
0.0000000000016284
 51
90.0
210
0.0
220
0.0
230
-1.0
  0
LINE
  5
21A
  8
2D$_PLATE
 10
-92.22449899999827
 20
74.14999999999895
 30
0.0
 11
-79.22450099999827
 21
74.14999949999878
 31
0.0
  0
ARC
  5
21B
  8
2D$_PLATE
 10
79.22450160444436
 20
73.6499988955527
 30
0.0
 40
0.5000006044465936
 50
90.00006926431934
 51
179.9998732357184
210
0.0
220
0.0
230
-1.0
  0
LINE
  5
21C
  8
2D$_PLATE
 10
-78.72450099999872
 20
73.65000000178111
 30
0.0
 11
-78.72450099999827
 21
60.64999999999895
 31
0.0
  0
ARC
  5
21D
  8
2D$_PLATE
 10
79.22450099999827
 20
60.64999999999895
 30
0.0
 40
0.5000000000000568
 50
179.9999999999935
 51
269.9999999999935
210
0.0
220
0.0
230
-1.0
  0
LINE
  5
21E
  8
2D$_PLATE
 10
-79.22450099999827
 20
60.14999999999895
 30
0.0
 11
-92.22449899999827
 21
60.14999999999895
 31
0.0
  0
ARC
  5
21F
  8
2D$_PLATE
 10
92.22449899999827
 20
60.64999999999895
 30
0.0
 40
0.5
 50
269.9999999999968
 51
0.0
210
0.0
220
0.0
230
-1.0
  0
LINE
  5
220
  8
2D$_PLATE
 10
-107.0124989999983
 20
41.59999999999877
 30
0.0
 11
-107.0124989999983
 21
54.59999999999877
 31
0.0
  0
ARC
  5
221
  8
2D$_PLATE
 10
106.5124989999983
 20
54.59999999999877
 30
0.0
 40
0.4999999999999858
 50
0.0
 51
90.00000000000162
210
0.0
220
0.0
230
-1.0
  0
LINE
  5
222
  8
2D$_PLATE
 10
-106.5124989999983
 20
55.09999999999877
 30
0.0
 11
-93.51250099999828
 21
55.09999949999883
 31
0.0
  0
ARC
  5
223
  8
2D$_PLATE
 10
93.51250160444414
 20
54.59999889555252
 30
0.0
 40
0.5000006044465936
 50
90.00006926431446
 51
179.9998732357184
210
0.0
220
0.0
230
-1.0
  0
LINE
  5
224
  8
2D$_PLATE
 10
-93.01250099999874
 20
54.60000000178093
 30
0.0
 11
-93.01250099999828
 21
41.59999999999877
 31
0.0
  0
ARC
  5
225
  8
2D$_PLATE
 10
93.51250099999828
 20
41.599999999999
 30
0.0
 40
0.5000000000000853
 50
179.9999999999902
 51
269.9999999999919
210
0.0
220
0.0
230
-1.0
  0
LINE
  5
226
  8
2D$_PLATE
 10
-93.51250099999828
 20
41.09999999999877
 30
0.0
 11
-106.5124989999983
 21
41.09999999999877
 31
0.0
  0
ARC
  5
227
  8
2D$_PLATE
 10
106.5124989999983
 20
41.59999999999877
 30
0.0
 40
0.5
 50
270.0000000000065
 51
0.0
210
0.0
220
0.0
230
-1.0
  0
LINE
  5
228
  8
2D$_PLATE
 10
126.3500010000016
 20
3.499999999998863
 30
0.0
 11
126.3500010000016
 21
16.49999999999886
 31
0.0
  0
ARC
  5
229
  8
2D$_PLATE
 10
-126.8500010000016
 20
16.49999999999909
 30
0.0
 40
0.4999999999998295
 50
0.0000000000195413
 51
90.00000000001954
210
0.0
220
0.0
230
-1.0
  0
LINE
  5
22A
  8
2D$_PLATE
 10
126.8500010000016
 20
16.99999999999886
 30
0.0
 11
139.8499990000018
 21
16.99999949999892
 31
0.0
  0
ARC
  5
22B
  8
2D$_PLATE
 10
-139.8499983955558
 20
16.49999889555261
 30
0.0
 40
0.5000006044466504
 50
90.0000692643226
 51
179.9998732357118
210
0.0
220
0.0
230
-1.0
  0
LINE
  5
22C
  8
2D$_PLATE
 10
140.3499990000012
 20
16.50000000178102
 30
0.0
 11
140.3499990000016
 21
3.499999999998863
 31
0.0
  0
ARC
  5
22D
  8
2D$_PLATE
 10
-139.8499990000016
 20
3.499999999998863
 30
0.0
 40
0.5
 50
180.0
 51
270.0
210
0.0
220
0.0
230
-1.0
  0
LINE
  5
22E
  8
2D$_PLATE
 10
139.8499990000016
 20
2.999999999998863
 30
0.0
 11
126.8500010000016
 21
2.999999999998863
 31
0.0
  0
ARC
  5
22F
  8
2D$_PLATE
 10
-126.8500010000016
 20
3.499999999998863
 30
0.0
 40
0.5000000000000568
 50
270.0000000000065
 51
0.0000000000065138
210
0.0
220
0.0
230
-1.0
  0
LINE
  5
230
  8
2D$_PLATE
 10
-40.33749899999833
 20
22.54999999999905
 30
0.0
 11
-40.33749899999833
 21
35.54999999999905
 31
0.0
  0
ARC
  5
231
  8
2D$_PLATE
 10
39.83749899999833
 20
35.54999999999882
 30
0.0
 40
0.5000000000000284
 50
0.0000000000065138
 51
89.99999999999675
210
0.0
220
0.0
230
-1.0
  0
LINE
  5
232
  8
2D$_PLATE
 10
-39.83749899999833
 20
36.04999999999882
 30
0.0
 11
-26.83750099999833
 21
36.04999949999888
 31
0.0
  0
ARC
  5
233
  8
2D$_PLATE
 10
26.83750160444441
 20
35.54999889555233
 30
0.0
 40
0.5000006044467357
 50
90.00006926433889
 51
179.9998732357021
210
0.0
220
0.0
230
-1.0
  0
LINE
  5
234
  8
2D$_PLATE
 10
-26.33750099999878
 20
35.55000000178097
 30
0.0
 11
-26.33750099999833
 21
22.54999999999882
 31
0.0
  0
ARC
  5
235
  8
2D$_PLATE
 10
26.83750099999855
 20
22.54999999999905
 30
0.0
 40
0.5000000000001137
 50
179.999999999987
 51
269.999999999987
210
0.0
220
0.0
230
-1.0
  0
LINE
  5
236
  8
2D$_PLATE
 10
-26.83750099999833
 20
22.04999999999882
 30
0.0
 11
-39.83749899999833
 21
22.04999999999905
 31
0.0
  0
ARC
  5
237
  8
2D$_PLATE
 10
39.83749899999833
 20
22.54999999999905
 30
0.0
 40
0.5000000000000284
 50
270.0000000000065
 51
0.0000000000032569
210
0.0
220
0.0
230
-1.0
  0
LINE
  5
238
  8
2D$_PLATE
 10
-2.23699899999832
 20
22.54999999999882
 30
0.0
 11
-2.23699899999832
 21
35.54999999999905
 31
0.0
  0
ARC
  5
239
  8
2D$_PLATE
 10
1.73699899999832
 20
35.54999999999905
 30
0.0
 40
0.5
 50
0.0
 51
90.0
210
0.0
220
0.0
230
-1.0
  0
LINE
  5
23A
  8
2D$_PLATE
 10
-1.73699899999832
 20
36.04999999999905
 30
0.0
 11
11.26299900000168
 21
36.04999949999888
 31
0.0
  0
ARC
  5
23B
  8
2D$_PLATE
 10
-11.26299839555583
 20
35.54999889555279
 30
0.0
 40
0.500000604446622
 50
90.00006926431608
 51
179.9998732357151
210
0.0
220
0.0
230
-1.0
  0
LINE
  5
23C
  8
2D$_PLATE
 10
11.76299900000123
 20
35.5500000017812
 30
0.0
 11
11.76299900000168
 21
22.54999999999882
 31
0.0
  0
ARC
  5
23D
  8
2D$_PLATE
 10
-11.26299900000146
 20
22.54999999999905
 30
0.0
 40
0.5000000000001137
 50
179.999999999987
 51
269.999999999987
210
0.0
220
0.0
230
-1.0
  0
LINE
  5
23E
  8
2D$_PLATE
 10
11.26299900000168
 20
22.04999999999882
 30
0.0
 11
-1.73699899999832
 21
22.04999999999905
 31
0.0
  0
ARC
  5
23F
  8
2D$_PLATE
 10
1.73699899999832
 20
22.54999999999905
 30
0.0
 40
0.5000000000000568
 50
270.0000000000032
 51
0.0000000000065138
210
0.0
220
0.0
230
-1.0
  0
ARC
  5
240
  8
2D$_PLATE
 10
139.8499990000018
 20
22.54999999999882
 30
0.0
 40
0.4999999999999716
 50
269.9999999999935
 51
0.0000000000032569
  0
LINE
  5
241
  8
2D$_PLATE
 10
140.3499990000018
 20
22.54999999999905
 30
0.0
 11
140.3499990000012
 21
35.55000000178097
 31
0.0
  0
ARC
  5
242
  8
2D$_PLATE
 10
139.8499983955553
 20
35.54999889555233
 30
0.0
 40
0.5000006044469119
 50
0.0001267643142323
 51
89.99993073563833
  0
LINE
  5
243
  8
2D$_PLATE
 10
139.8499990000018
 20
36.04999949999888
 30
0.0
 11
100.6562510000018
 21
36.05000000013774
 31
0.0
  0
ARC
  5
244
  8
2D$_PLATE
 10
100.6562510000018
 20
35.55000000013752
 30
0.0
 40
0.5000000000000853
 50
90.00000000001303
 51
179.9999999999902
  0
LINE
  5
245
  8
2D$_PLATE
 10
100.1562510000018
 20
35.55000000013774
 30
0.0
 11
100.1562510000018
 21
22.55000000013774
 31
0.0
  0
ARC
  5
246
  8
2D$_PLATE
 10
100.6562510000018
 20
22.55000000013774
 30
0.0
 40
0.5000000000000568
 50
179.9999999999967
 51
269.9999999999935
  0
LINE
  5
247
  8
2D$_PLATE
 10
100.6562510000018
 20
22.05000000013774
 30
0.0
 11
139.8499990000016
 21
22.04999999999882
 31
0.0
  0
ARC
  5
248
  8
2D$_PLATE
 10
-137.4687489999983
 20
35.54999999999906
 30
0.0
 40
0.5000000000000834
 50
90.00011500000505
 51
179.9999999999919
  0
LINE
  5
249
  8
2D$_PLATE
 10
-137.9687489999982
 20
35.54999999999905
 30
0.0
 11
-137.968749499998
 21
22.55000199999927
 31
0.0
  0
LINE
  5
24A
  8
2D$_PLATE
 10
-137.968749499998
 20
22.55000199999927
 30
0.0
 11
-137.9336441505296
 21
22.36595464521824
 31
0.0
  0
ARC
  5
24B
  8
2D$_PLATE
 10
-137.4687499999987
 20
22.55000199999882
 30
0.0
 40
0.4999999999995576
 50
201.5981609836683
 51
270.0000000000423
  0
LINE
  5
24C
  8
2D$_PLATE
 10
-137.4687499999984
 20
22.05000199999927
 30
0.0
 11
-105.4187499999984
 21
22.05000199999927
 31
0.0
  0
ARC
  5
24D
  8
2D$_PLATE
 10
-105.4187499999984
 20
22.55000199999928
 30
0.0
 40
0.5000000000000142
 50
270.0000000000016
 51
0.0000000000016284
  0
LINE
  5
24E
  8
2D$_PLATE
 10
-104.9187499999984
 20
22.55000199999927
 30
0.0
 11
-104.9187499999984
 21
35.5499999999995
 31
0.0
  0
ARC
  5
24F
  8
2D$_PLATE
 10
-105.4187499999977
 20
35.54999999999976
 30
0.0
 40
0.4999999999992895
 50
0.0000000000301262
 51
90.00000000008141
  0
LINE
  5
250
  8
2D$_PLATE
 10
-105.4187499999984
 20
36.04999999999905
 30
0.0
 11
-137.4687500035627
 21
36.04999999999814
 31
0.0
  0
ARC
  5
251
  8
2D$_PLATE
 10
101.7499990000019
 20
79.69999999999843
 30
0.0
 40
0.4999999999998418
 50
270.0001150000002
 51
0.0
  0
LINE
  5
252
  8
2D$_PLATE
 10
102.2499990000018
 20
79.69999999999868
 30
0.0
 11
102.2499995000013
 21
92.69999799999869
 31
0.0
  0
LINE
  5
253
  8
2D$_PLATE
 10
102.2499995000013
 20
92.69999799999869
 30
0.0
 11
102.2148941505329
 21
92.88404535477972
 31
0.0
  0
ARC
  5
254
  8
2D$_PLATE
 10
101.7500000000018
 20
92.69999799999877
 30
0.0
 40
0.4999999999999037
 50
21.59816098369773
 51
89.99999999999349
  0
LINE
  5
255
  8
2D$_PLATE
 10
101.7500000000019
 20
93.19999799999869
 30
0.0
 11
69.7000000000017
 21
93.19999799999846
 31
0.0
  0
ARC
  5
256
  8
2D$_PLATE
 10
69.70000000000164
 20
92.69999799999852
 30
0.0
 40
0.4999999999999432
 50
89.99999999999349
 51
179.9999999999935
  0
LINE
  5
257
  8
2D$_PLATE
 10
69.2000000000017
 20
92.69999799999846
 30
0.0
 11
69.2000000000017
 21
79.69999999999845
 31
0.0
  0
ARC
  5
258
  8
2D$_PLATE
 10
69.70000000000148
 20
79.69999999999848
 30
0.0
 40
0.4999999999997868
 50
179.9999999999967
 51
270.0000000000244
  0
LINE
  5
259
  8
2D$_PLATE
 10
69.7000000000017
 20
79.19999999999868
 30
0.0
 11
101.7500000035662
 21
79.19999999999959
 31
0.0
  0
LINE
  5
25A
  8
2D$_PLATE
 10
89.2442580000016
 20
55.09999947912024
 30
0.0
 11
86.36875100000185
 21
55.09999999999877
 31
0.0
  0
ARC
  5
25B
  8
2D$_PLATE
 10
86.36875100000185
 20
54.59999999999877
 30
0.0
 40
0.5000000000000853
 50
90.00000000001303
 51
179.9999999999902
  0
LINE
  5
25C
  8
2D$_PLATE
 10
85.86875100000185
 20
54.59999999999877
 30
0.0
 11
85.86875100000162
 21
41.59999999999877
 31
0.0
  0
ARC
  5
25D
  8
2D$_PLATE
 10
86.36875100000185
 20
41.59999999999877
 30
0.0
 40
0.5000000000000568
 50
179.9999999999967
 51
269.9999999999935
  0
LINE
  5
25E
  8
2D$_PLATE
 10
86.36875100000162
 20
41.09999999999877
 30
0.0
 11
120.7999990000017
 21
41.09999999999877
 31
0.0
  0
ARC
  5
25F
  8
2D$_PLATE
 10
120.7999990000017
 20
41.59999999999877
 30
0.0
 40
0.4999999999999716
 50
269.9999999999935
 51
0.0000000000032569
  0
LINE
  5
260
  8
2D$_PLATE
 10
121.2999990000017
 20
41.59999999999877
 30
0.0
 11
121.2999990000012
 21
54.60000000178093
 31
0.0
  0
ARC
  5
261
  8
2D$_PLATE
 10
120.7999983955558
 20
54.59999889555274
 30
0.0
 40
0.500000604446514
 50
0.0001267642784067
 51
89.99993073569696
  0
LINE
  5
262
  8
2D$_PLATE
 10
120.7999990000017
 20
55.09999949999883
 30
0.0
 11
89.2442580000016
 21
55.09999947912024
 31
0.0
  0
ARC
  5
263
  8
2D$_PLATE
 10
57.79375160444414
 20
16.49999889555261
 30
0.0
 40
0.5000006044465936
 50
90.00006926431608
 51
179.9998732357184
210
0.0
220
0.0
230
-1.0
  0
LINE
  5
264
  8
2D$_PLATE
 10
-57.29375099999874
 20
16.50000000178102
 30
0.0
 11
-57.29375099999828
 21
3.499999999998863
 31
0.0
  0
ARC
  5
265
  8
2D$_PLATE
 10
57.79375099999828
 20
3.499999999998863
 30
0.0
 40
0.4999999999999716
 50
179.9999999999935
 51
270.0000000000032
210
0.0
220
0.0
230
-1.0
  0
LINE
  5
266
  8
2D$_PLATE
 10
-57.79375099999828
 20
2.999999999998863
 30
0.0
 11
-73.17499899999842
 21
2.999999999998863
 31
0.0
  0
ARC
  5
267
  8
2D$_PLATE
 10
73.17499899999842
 20
3.499999999998863
 30
0.0
 40
0.4999999999999147
 50
269.9999999999902
 51
0.0000000000097707
210
0.0
220
0.0
230
-1.0
  0
LINE
  5
268
  8
2D$_PLATE
 10
-73.67499899999842
 20
3.499999999998863
 30
0.0
 11
-73.67499899999842
 21
16.49999999999886
 31
0.0
  0
ARC
  5
269
  8
2D$_PLATE
 10
73.17499899999842
 20
16.49999999999909
 30
0.0
 40
0.499999999999801
 50
0.0000000000227982
 51
90.00000000002281
210
0.0
220
0.0
230
-1.0
  0
LINE
  5
26A
  8
2D$_PLATE
 10
-73.17499899999842
 20
16.99999999999886
 30
0.0
 11
-57.79375099999828
 21
16.99999949999869
 31
0.0
  0
ARC
  5
26B
  8
2D$_PLATE
 10
-44.59999839555559
 20
16.49999889555261
 30
0.0
 40
0.5000006044467641
 50
90.00006926434865
 51
179.9998732356988
210
0.0
220
0.0
230
-1.0
  0
LINE
  5
26C
  8
2D$_PLATE
 10
45.09999900000099
 20
16.50000000178102
 30
0.0
 11
45.09999900000167
 21
3.499999999998863
 31
0.0
  0
ARC
  5
26D
  8
2D$_PLATE
 10
-44.5999990000019
 20
3.499999999998863
 30
0.0
 40
0.4999999999999432
 50
179.9999999999935
 51
270.0000000000065
210
0.0
220
0.0
230
-1.0
  0
LINE
  5
26E
  8
2D$_PLATE
 10
44.59999900000167
 20
2.999999999998863
 30
0.0
 11
29.21875100000176
 21
2.999999999998863
 31
0.0
  0
ARC
  5
26F
  8
2D$_PLATE
 10
-29.21875100000176
 20
3.499999999998863
 30
0.0
 40
0.5
 50
270.0000000000032
 51
0.0
210
0.0
220
0.0
230
-1.0
  0
LINE
  5
270
  8
2D$_PLATE
 10
28.71875100000176
 20
3.499999999998863
 30
0.0
 11
28.71875100000176
 21
16.49999999999886
 31
0.0
  0
ARC
  5
271
  8
2D$_PLATE
 10
-29.21875100000176
 20
16.49999999999886
 30
0.0
 40
0.5000000000000568
 50
0.0000000000065138
 51
89.99999999999349
210
0.0
220
0.0
230
-1.0
  0
LINE
  5
272
  8
2D$_PLATE
 10
29.21875100000176
 20
16.99999999999886
 30
0.0
 11
44.5999990000019
 21
16.99999949999892
 31
0.0
  0
ARC
  5
273
  8
2D$_PLATE
 10
-51.74374899999833
 20
16.49999999999886
 30
0.0
 40
0.5000000000000568
 50
90.00000000000325
 51
179.9999999999935
  0
LINE
  5
274
  8
2D$_PLATE
 10
-52.24374899999833
 20
16.49999999999886
 30
0.0
 11
-52.24374899999833
 21
3.499999999998863
 31
0.0
  0
ARC
  5
275
  8
2D$_PLATE
 10
-51.74374899999833
 20
3.499999999998863
 30
0.0
 40
0.4999999999999432
 50
179.9999999999935
 51
270.0000000000065
  0
LINE
  5
276
  8
2D$_PLATE
 10
-51.74374899999833
 20
2.999999999998863
 30
0.0
 11
23.16874900000181
 21
2.999999999998863
 31
0.0
  0
ARC
  5
277
  8
2D$_PLATE
 10
23.16874900000181
 20
3.499999999998863
 30
0.0
 40
0.4999999999999432
 50
269.9999999999902
 51
0.0000000000065138
  0
LINE
  5
278
  8
2D$_PLATE
 10
23.66874900000181
 20
3.499999999998863
 30
0.0
 11
23.66874900000113
 21
16.50000000178102
 31
0.0
  0
ARC
  5
279
  8
2D$_PLATE
 10
23.16874839555595
 20
16.49999889555261
 30
0.0
 40
0.500000604446514
 50
0.0001267642751498
 51
89.9999307356937
  0
LINE
  5
27A
  8
2D$_PLATE
 10
23.16874900000181
 20
16.99999949999869
 30
0.0
 11
-51.74374899999833
 21
16.99999999999886
 31
0.0
  0
ARC
  5
27B
  8
2D$_PLATE
 10
100.6562516044443
 20
16.49999889555261
 30
0.0
 40
0.5000006044466504
 50
90.00006926432424
 51
179.9998732357118
210
0.0
220
0.0
230
-1.0
  0
LINE
  5
27C
  8
2D$_PLATE
 10
-100.1562509999989
 20
16.50000000178102
 30
0.0
 11
-100.1562509999985
 21
3.499999999998863
 31
0.0
  0
ARC
  5
27D
  8
2D$_PLATE
 10
100.6562509999982
 20
3.499999999998863
 30
0.0
 40
0.4999999999999858
 50
180.0
 51
270.0000000000016
210
0.0
220
0.0
230
-1.0
  0
LINE
  5
27E
  8
2D$_PLATE
 10
-100.6562509999982
 20
2.999999999998863
 30
0.0
 11
-116.0374989999984
 21
2.999999999998749
 31
0.0
  0
ARC
  5
27F
  8
2D$_PLATE
 10
116.0374989999983
 20
3.499999999998749
 30
0.0
 40
0.5
 50
270.0000000000065
 51
0.0
210
0.0
220
0.0
230
-1.0
  0
LINE
  5
280
  8
2D$_PLATE
 10
-116.5374989999983
 20
3.499999999998749
 30
0.0
 11
-116.5374989999983
 21
16.49999999999875
 31
0.0
  0
ARC
  5
281
  8
2D$_PLATE
 10
116.0374989999983
 20
16.49999999999875
 30
0.0
 40
0.4999999999999858
 50
0.0
 51
90.00000000000162
210
0.0
220
0.0
230
-1.0
  0
LINE
  5
282
  8
2D$_PLATE
 10
-116.0374989999983
 20
16.99999999999875
 30
0.0
 11
-100.6562509999983
 21
16.99999949999892
 31
0.0
  0
ARC
  5
283
  8
2D$_PLATE
 10
76.84375160444432
 20
16.49999889555261
 30
0.0
 40
0.5000006044466788
 50
90.0000692643226
 51
179.9998732357086
210
0.0
220
0.0
230
-1.0
  0
LINE
  5
284
  8
2D$_PLATE
 10
-76.34375099999886
 20
16.50000000178113
 30
0.0
 11
-76.34375099999846
 21
3.499999999998749
 31
0.0
  0
ARC
  5
285
  8
2D$_PLATE
 10
76.84375099999846
 20
3.499999999998863
 30
0.0
 40
0.5
 50
179.9999999999935
 51
270.0
210
0.0
220
0.0
230
-1.0
  0
LINE
  5
286
  8
2D$_PLATE
 10
-76.84375099999846
 20
2.999999999998863
 30
0.0
 11
-94.60624899999817
 21
2.999999999998977
 31
0.0
  0
ARC
  5
287
  8
2D$_PLATE
 10
94.60624899999823
 20
3.499999999998863
 30
0.0
 40
0.4999999999999147
 50
269.9999999999919
 51
0.0000000000097707
210
0.0
220
0.0
230
-1.0
  0
LINE
  5
288
  8
2D$_PLATE
 10
-95.10624899999812
 20
3.499999999998863
 30
0.0
 11
-95.10624899999834
 21
16.49999999999875
 31
0.0
  0
ARC
  5
289
  8
2D$_PLATE
 10
94.60624899999846
 20
16.49999999999886
 30
0.0
 40
0.4999999999998721
 50
0.0000000000130276
 51
90.00000000001465
210
0.0
220
0.0
230
-1.0
  0
LINE
  5
28A
  8
2D$_PLATE
 10
-94.60624899999834
 20
16.99999999999875
 30
0.0
 11
-76.84375099999835
 21
16.99999949999892
 31
0.0
  0
LINE
  5
28B
  8
2D$_PLATE
 10
-78.43799899999834
 20
22.54999999999905
 30
0.0
 11
-78.43799899999834
 21
35.54999999999905
 31
0.0
  0
ARC
  5
28C
  8
2D$_PLATE
 10
77.93799899999834
 20
35.54999999999905
 30
0.0
 40
0.4999999999999432
 50
0.0000000000065138
 51
90.00000000000651
210
0.0
220
0.0
230
-1.0
  0
LINE
  5
28D
  8
2D$_PLATE
 10
-77.93799899999834
 20
36.04999999999905
 30
0.0
 11
-64.93800099999834
 21
36.04999949999888
 31
0.0
  0
ARC
  5
28E
  8
2D$_PLATE
 10
64.9380016044442
 20
35.54999889555279
 30
0.0
 40
0.5000006044465651
 50
90.00006926431934
 51
179.9998732357216
210
0.0
220
0.0
230
-1.0
  0
LINE
  5
28F
  8
2D$_PLATE
 10
-64.43800099999879
 20
35.5500000017812
 30
0.0
 11
-64.43800099999834
 21
22.54999999999882
 31
0.0
  0
ARC
  5
290
  8
2D$_PLATE
 10
64.93800099999834
 20
22.54999999999905
 30
0.0
 40
0.5000000000001137
 50
179.999999999987
 51
269.999999999987
210
0.0
220
0.0
230
-1.0
  0
LINE
  5
291
  8
2D$_PLATE
 10
-64.93800099999834
 20
22.04999999999882
 30
0.0
 11
-77.93799899999834
 21
22.04999999999905
 31
0.0
  0
ARC
  5
292
  8
2D$_PLATE
 10
77.93799899999834
 20
22.54999999999905
 30
0.0
 40
0.5
 50
269.9999999999968
 51
0.0
210
0.0
220
0.0
230
-1.0
  0
ENDBLK
  5
294
  8
0
  0
BLOCK
  8
0
  2
M2_HOLE_SSPLATECUT
 70
     0
 10
0.0
 20
0.0
 30
0.0
  3
M2_HOLE_SSPLATECUT
  1

  0
POINT
  5
73
  8
2D$_HOLECP
 10
0.0
 20
0.0
 30
0.0
  0
CIRCLE
  5
74
  8
2D$HOLES
 10
0.0
 20
0.0
 30
0.0
 40
1.1
  0
ENDBLK
  5
76
  8
0
  0
ENDSEC
  0
SECTION
  2
ENTITIES
  0
INSERT
  5
295
  8
2D
  2
SSPLATE_V3_2_3MM
 10
0.2050631413512747
 20
-105.5694075504341
 30
0.0
  0
ENDSEC
  0
EOF
