  0
SECTION
  2
HEADER
  9
$ACADVER
  1
AC1009
  9
$DWGCODEPAGE
  3
ansi_1252
  9
$INSBASE
 10
0.0
 20
0.0
 30
0.0
  9
$EXTMIN
 10
1.000000000000000E+20
 20
1.000000000000000E+20
 30
1.000000000000000E+20
  9
$EXTMAX
 10
-1.000000000000000E+20
 20
-1.000000000000000E+20
 30
-1.000000000000000E+20
  9
$LIMMIN
 10
0.0
 20
0.0
  9
$LIMMAX
 10
12.0
 20
9.0
  9
$ORTHOMODE
 70
     0
  9
$REGENMODE
 70
     1
  9
$FILLMODE
 70
     1
  9
$QTEXTMODE
 70
     0
  9
$MIRRTEXT
 70
     1
  9
$DRAGMODE
 70
     2
  9
$LTSCALE
 40
1.0
  9
$OSMODE
 70
    37
  9
$ATTMODE
 70
     1
  9
$TEXTSIZE
 40
0.2
  9
$TRACEWID
 40
0.05
  9
$TEXTSTYLE
  7
STANDARD
  9
$CLAYER
  8
2D$HOLECP
  9
$CELTYPE
  6
BYLAYER
  9
$CECOLOR
 62
   256
  9
$DIMSCALE
 40
1.0
  9
$DIMASZ
 40
0.18
  9
$DIMEXO
 40
0.0625
  9
$DIMDLI
 40
0.38
  9
$DIMRND
 40
0.0
  9
$DIMDLE
 40
0.0
  9
$DIMEXE
 40
0.18
  9
$DIMTP
 40
0.0
  9
$DIMTM
 40
0.0
  9
$DIMTXT
 40
0.18
  9
$DIMCEN
 40
0.09
  9
$DIMTSZ
 40
0.0
  9
$DIMTOL
 70
     0
  9
$DIMLIM
 70
     0
  9
$DIMTIH
 70
     1
  9
$DIMTOH
 70
     1
  9
$DIMSE1
 70
     0
  9
$DIMSE2
 70
     0
  9
$DIMTAD
 70
     0
  9
$DIMZIN
 70
     0
  9
$DIMBLK
  1

  9
$DIMASO
 70
     1
  9
$DIMSHO
 70
     1
  9
$DIMPOST
  1

  9
$DIMAPOST
  1

  9
$DIMALT
 70
     0
  9
$DIMALTD
 70
     2
  9
$DIMALTF
 40
25.4
  9
$DIMLFAC
 40
1.0
  9
$DIMTOFL
 70
     0
  9
$DIMTVP
 40
0.0
  9
$DIMTIX
 70
     0
  9
$DIMSOXD
 70
     0
  9
$DIMSAH
 70
     0
  9
$DIMBLK1
  1

  9
$DIMBLK2
  1

  9
$DIMSTYLE
  2
STANDARD_ACAD
  9
$DIMCLRD
 70
     0
  9
$DIMCLRE
 70
     0
  9
$DIMCLRT
 70
     0
  9
$DIMTFAC
 40
1.0
  9
$DIMGAP
 40
0.09
  9
$LUNITS
 70
     2
  9
$LUPREC
 70
     3
  9
$SKETCHINC
 40
0.1
  9
$FILLETRAD
 40
0.5
  9
$AUNITS
 70
     0
  9
$AUPREC
 70
     0
  9
$MENU
  1
.
  9
$ELEVATION
 40
0.0
  9
$PELEVATION
 40
0.0
  9
$THICKNESS
 40
0.0
  9
$LIMCHECK
 70
     0
  9
$CHAMFERA
 40
0.0
  9
$CHAMFERB
 40
0.0
  9
$SKPOLY
 70
     0
  9
$TDCREATE
 40
2459456.759789004
  9
$TDUPDATE
 40
2459456.759808681
  9
$TDINDWG
 40
0.0000000116
  9
$TDUSRTIMER
 40
0.0000000116
  9
$USRTIMER
 70
     1
  9
$ANGBASE
 50
0.0
  9
$ANGDIR
 70
     0
  9
$PDMODE
 70
     0
  9
$PDSIZE
 40
0.0
  9
$PLINEWID
 40
0.0
  9
$COORDS
 70
     1
  9
$SPLFRAME
 70
     0
  9
$SPLINETYPE
 70
     6
  9
$SPLINESEGS
 70
     8
  9
$ATTDIA
 70
     0
  9
$ATTREQ
 70
     1
  9
$HANDLING
 70
     1
  9
$HANDSEED
  5
DB
  9
$SURFTAB1
 70
     6
  9
$SURFTAB2
 70
     6
  9
$SURFTYPE
 70
     6
  9
$SURFU
 70
     6
  9
$SURFV
 70
     6
  9
$UCSNAME
  2

  9
$UCSORG
 10
0.0
 20
0.0
 30
0.0
  9
$UCSXDIR
 10
1.0
 20
0.0
 30
0.0
  9
$UCSYDIR
 10
0.0
 20
1.0
 30
0.0
  9
$PUCSNAME
  2

  9
$PUCSORG
 10
0.0
 20
0.0
 30
0.0
  9
$PUCSXDIR
 10
1.0
 20
0.0
 30
0.0
  9
$PUCSYDIR
 10
0.0
 20
1.0
 30
0.0
  9
$USERI1
 70
     0
  9
$USERI2
 70
     0
  9
$USERI3
 70
     0
  9
$USERI4
 70
     0
  9
$USERI5
 70
     0
  9
$USERR1
 40
0.0
  9
$USERR2
 40
0.0
  9
$USERR3
 40
0.0
  9
$USERR4
 40
0.0
  9
$USERR5
 40
0.0
  9
$WORLDVIEW
 70
     1
  9
$SHADEDGE
 70
     3
  9
$SHADEDIF
 70
    70
  9
$TILEMODE
 70
     1
  9
$MAXACTVP
 70
    64
  9
$PLIMCHECK
 70
     0
  9
$PEXTMIN
 10
1.000000000000000E+20
 20
1.000000000000000E+20
 30
1.000000000000000E+20
  9
$PEXTMAX
 10
-1.000000000000000E+20
 20
-1.000000000000000E+20
 30
-1.000000000000000E+20
  9
$PLIMMIN
 10
0.0
 20
0.0
  9
$PLIMMAX
 10
12.0
 20
9.0
  9
$UNITMODE
 70
     0
  9
$VISRETAIN
 70
     1
  9
$PLINEGEN
 70
     0
  9
$PSLTSCALE
 70
     1
  0
ENDSEC
  0
SECTION
  2
TABLES
  0
TABLE
  2
VPORT
 70
     1
  0
VPORT
  2
*ACTIVE
 70
     0
 10
0.0
 20
0.0
 11
1.0
 21
1.0
 12
10.42990654205607
 22
4.5
 13
0.0
 23
0.0
 14
0.5
 24
0.5
 15
0.5
 25
0.5
 16
0.0
 26
0.0
 36
1.0
 17
0.0
 27
0.0
 37
0.0
 40
9.0
 41
1.972972972850329
 42
50.0
 43
0.0
 44
0.0
 50
0.0
 51
0.0
 71
     0
 72
   100
 73
     1
 74
     3
 75
     0
 76
     0
 77
     0
 78
     0
  0
ENDTAB
  0
TABLE
  2
LTYPE
 70
     1
  0
LTYPE
  2
CONTINUOUS
 70
     0
  3
Solid line
 72
    65
 73
     0
 40
0.0
  0
ENDTAB
  0
TABLE
  2
LAYER
 70
     3
  0
LAYER
  2
0
 70
     0
 62
     7
  6
CONTINUOUS
  0
LAYER
  2
2D$SSPLATE
 70
     0
 62
     3
  6
CONTINUOUS
  0
LAYER
  2
2D$HOLECP
 70
     0
 62
   181
  6
CONTINUOUS
  0
ENDTAB
  0
TABLE
  2
STYLE
 70
     1
  0
STYLE
  2
STANDARD
 70
     0
 40
0.0
 41
1.0
 50
0.0
 71
     0
 42
0.2
  3
txt
  4

  0
ENDTAB
  0
TABLE
  2
VIEW
 70
     0
  0
ENDTAB
  0
TABLE
  2
UCS
 70
     0
  0
ENDTAB
  0
TABLE
  2
APPID
 70
     1
  0
APPID
  2
ACAD
 70
     0
  0
ENDTAB
  0
TABLE
  2
DIMSTYLE
 70
     1
  0
DIMSTYLE
  2
STANDARD_ACAD
 70
     0
  3

  4

  5

  6

  7

 40
1.0
 41
0.18
 42
0.0625
 43
0.38
 44
0.18
 45
0.0
 46
0.0
 47
0.0
 48
0.0
140
0.18
141
0.09
142
0.0
143
25.4
144
1.0
145
0.0
146
1.0
147
0.09
 71
     0
 72
     0
 73
     1
 74
     1
 75
     0
 76
     0
 77
     0
 78
     0
170
     0
171
     2
172
     0
173
     0
174
     0
175
     0
176
     0
177
     0
178
     0
  0
ENDTAB
  0
ENDSEC
  0
SECTION
  2
BLOCKS
  0
BLOCK
  8
0
  2
$MODEL_SPACE
 70
     0
 10
0.0
 20
0.0
 30
0.0
  3
$MODEL_SPACE
  1

  0
ENDBLK
  5
21
  8
0
  0
BLOCK
 67
     1
  8
0
  2
$PAPER_SPACE
 70
     0
 10
0.0
 20
0.0
 30
0.0
  3
$PAPER_SPACE
  1

  0
ENDBLK
  5
1D
 67
     1
  8
0
  0
ENDSEC
  0
SECTION
  2
ENTITIES
  0
CIRCLE
  5
6F
  8
2D$SSPLATE
 10
-88.12618845270035
 20
-14.7326820420429
 30
0.0
 40
1.05
  0
POINT
  5
71
  8
2D$HOLECP
 10
-88.12618845270035
 20
-14.7326820420429
 30
0.0
  0
CIRCLE
  5
72
  8
2D$SSPLATE
 10
-53.2011884527002
 20
39.24231795795718
 30
0.0
 40
1.05
  0
CIRCLE
  5
73
  8
2D$SSPLATE
 10
-24.62618845270035
 20
-21.08268204204283
 30
0.0
 40
1.05
  0
CIRCLE
  5
74
  8
2D$SSPLATE
 10
-122.9972224527004
 20
-34.51054804204283
 30
0.0
 40
1.05
  0
CIRCLE
  5
75
  8
2D$SSPLATE
 10
-91.3011884527001
 20
24.16106795795729
 30
0.0
 40
1.05
  0
CIRCLE
  5
76
  8
2D$SSPLATE
 10
-138.9261884527001
 20
31.30481795795718
 30
0.0
 40
1.05
  0
CIRCLE
  5
77
  8
2D$SSPLATE
 10
-129.4011884527002
 20
35.27356795795718
 30
0.0
 40
1.05
  0
POINT
  5
78
  8
2D$HOLECP
 10
-122.9972224527004
 20
-34.51054804204283
 30
0.0
  0
POINT
  5
79
  8
2D$HOLECP
 10
-24.62618845270035
 20
-21.08268204204283
 30
0.0
  0
POINT
  5
7A
  8
2D$HOLECP
 10
-53.2011884527002
 20
39.24231795795718
 30
0.0
  0
POINT
  5
7B
  8
2D$HOLECP
 10
-91.3011884527001
 20
24.16106795795729
 30
0.0
  0
POINT
  5
7C
  8
2D$HOLECP
 10
-129.4011884527002
 20
35.27356795795718
 30
0.0
  0
POINT
  5
7D
  8
2D$HOLECP
 10
-138.9261884527001
 20
31.30481795795718
 30
0.0
  0
LINE
  5
7E
  8
2D$SSPLATE
 10
-145.4223010231077
 20
-46.7658092394157
 30
0.0
 11
-147.939656633433
 21
-32.48917613306547
 31
0.0
  0
ARC
  5
7F
  8
2D$SSPLATE
 10
143.6988874553363
 20
-46.46192492849838
 30
0.0
 40
1.750000000000137
 50
259.9999969869151
 51
349.9999999999943
210
0.0
220
0.0
230
-1.0
  0
LINE
  5
80
  8
2D$SSPLATE
 10
-75.7510272261431
 20
-36.25787679160577
 30
0.0
 11
-143.3950030537878
 21
-48.18533848028913
 31
0.0
  0
ARC
  5
81
  8
2D$SSPLATE
 10
-75.57737899668672
 20
-37.24268453548618
 30
0.0
 40
1.000000000000081
 50
10.00000000001007
 51
100.0000030130915
  0
LINE
  5
82
  8
2D$SSPLATE
 10
-74.08394819073186
 20
-39.95358103101056
 30
0.0
 11
-74.59257124367446
 21
-37.06903635781906
 31
0.0
  0
ARC
  5
83
  8
2D$SSPLATE
 10
72.3605346229605
 20
-39.64969672009369
 30
0.0
 40
1.749999999999945
 50
265.4556872211003
 51
350.0000000000077
210
0.0
220
0.0
230
-1.0
  0
LINE
  5
84
  8
2D$SSPLATE
 10
-22.66253879181883
 20
-37.45522128984486
 30
0.0
 11
-72.22188196207932
 21
-41.39419534136866
 31
0.0
  0
ARC
  5
85
  8
2D$SSPLATE
 10
22.80119145270027
 20
-35.71072266856996
 30
0.0
 40
1.749999999999858
 50
179.9999999999949
 51
265.4556872210914
210
0.0
220
0.0
230
-1.0
  0
LINE
  5
86
  8
2D$SSPLATE
 10
-21.05119145270042
 20
-15.33893204205081
 30
0.0
 11
-21.05119145270042
 21
-35.71072266856979
 31
0.0
  0
ARC
  5
87
  8
2D$SSPLATE
 10
-20.05119145270046
 20
-15.3389320420428
 30
0.0
 40
0.9999999999999432
 50
89.99999999999716
 51
179.9999999995408
  0
LINE
  5
88
  8
2D$SSPLATE
 10
-14.86368845270064
 20
-14.33893204204297
 30
0.0
 11
-20.05119145270042
 21
-14.33893204204286
 31
0.0
  0
ARC
  5
89
  8
2D$SSPLATE
 10
14.86368845270015
 20
-12.58893204204313
 30
0.0
 40
1.749999999999851
 50
179.9999999999791
 51
270.000000000016
210
0.0
220
0.0
230
-1.0
  0
LINE
  5
8A
  8
2D$SSPLATE
 10
-13.11368845270031
 20
3.761067957957053
 30
0.0
 11
-13.11368845270031
 21
-12.58893204204377
 31
0.0
  0
ARC
  5
8B
  8
2D$SSPLATE
 10
14.86368845270022
 20
3.761067957957266
 30
0.0
 40
1.749999999999901
 50
89.99999999999721
 51
179.999999999993
210
0.0
220
0.0
230
-1.0
  0
LINE
  5
8C
  8
2D$SSPLATE
 10
-32.00119145270035
 20
5.511067957956939
 30
0.0
 11
-14.86368845270031
 21
5.511067957957167
 31
0.0
  0
ARC
  5
8D
  8
2D$SSPLATE
 10
-32.00119145270015
 20
7.261067957957025
 30
0.0
 40
1.750000000000092
 50
179.9999999999972
 51
269.9999999999932
  0
LINE
  5
8E
  8
2D$SSPLATE
 10
-33.75119145270114
 20
56.94231795795589
 30
0.0
 11
-33.75119145270023
 21
7.261067957956939
 31
0.0
  0
ARC
  5
8F
  8
2D$SSPLATE
 10
35.50119145270114
 20
56.94231795795709
 30
0.0
 40
1.750000000000028
 50
89.99999999999278
 51
179.99999999996
210
0.0
220
0.0
230
-1.0
  0
LINE
  5
90
  8
2D$SSPLATE
 10
-51.80119150478388
 20
58.69231795795717
 30
0.0
 11
-35.50119145270136
 21
58.69231795795717
 31
0.0
  0
ARC
  5
91
  8
2D$SSPLATE
 10
-51.80119150478392
 20
59.69231795795697
 30
0.0
 40
0.999999999999865
 50
179.9999999999935
 51
270.0000000000028
  0
LINE
  5
92
  8
2D$SSPLATE
 10
-52.80119150478578
 20
64.87981095795827
 30
0.0
 11
-52.80119150478379
 21
59.69231795795717
 31
0.0
  0
ARC
  5
93
  8
2D$SSPLATE
 10
54.55119150478561
 20
64.87981095795728
 30
0.0
 40
1.749999999999829
 50
89.99999999999535
 51
179.9999999999684
210
0.0
220
0.0
230
-1.0
  0
LINE
  5
94
  8
2D$SSPLATE
 10
-109.0011914559007
 20
66.62981095795719
 30
0.0
 11
-54.55119150478576
 21
66.62981095795719
 31
0.0
  0
ARC
  5
95
  8
2D$SSPLATE
 10
109.0011914559004
 20
64.87981095795719
 30
0.0
 40
1.749999999999998
 50
0.0000067672102616
 51
89.99999999999116
210
0.0
220
0.0
230
-1.0
  0
LINE
  5
96
  8
2D$SSPLATE
 10
-110.7511925373459
 20
55.72356783984689
 30
0.0
 11
-110.7511914559004
 21
64.8798111646499
 31
0.0
  0
ARC
  5
97
  8
2D$SSPLATE
 10
-111.7511925373458
 20
55.72356795795709
 30
0.0
 40
0.9999999999999147
 50
269.9999999999943
 51
359.9999932327844
  0
LINE
  5
98
  8
2D$SSPLATE
 10
-147.101191452701
 20
54.72356795795717
 30
0.0
 11
-111.7511925373459
 21
54.72356795795717
 31
0.0
  0
ARC
  5
99
  8
2D$SSPLATE
 10
147.101191452701
 20
52.97356795795709
 30
0.0
 40
1.75
 50
0.0000000000176802
 51
90.0
210
0.0
220
0.0
230
-1.0
  0
LINE
  5
9A
  8
2D$SSPLATE
 10
-148.8511914527004
 20
-22.07028547307219
 30
0.0
 11
-148.8511914527004
 21
52.97356795795658
 31
0.0
  0
ARC
  5
9B
  8
2D$SSPLATE
 10
88.85119145269586
 20
-22.07028547305015
 30
0.0
 40
60.00000000000453
 50
350.0000000000013
 51
0.0000000000210612
210
0.0
220
0.0
230
-1.0
  0
CIRCLE
  5
9C
  8
2D$SSPLATE
 10
-127.5279384527004
 20
-23.74968204204286
 30
0.0
 40
1.05
  0
POINT
  5
9D
  8
2D$HOLECP
 10
-127.5279384527004
 20
-23.74968204204286
 30
0.0
  0
CIRCLE
  5
9E
  8
2D$SSPLATE
 10
-91.30119445270032
 20
9.079811957956977
 30
0.0
 40
1.05
  0
POINT
  5
9F
  8
2D$HOLECP
 10
-91.30119445270032
 20
9.079811957956977
 30
0.0
  0
POINT
  5
A0
  8
2D$HOLECP
 10
-75.95792145270033
 20
-27.02224404204286
 30
0.0
  0
CIRCLE
  5
A1
  8
2D$SSPLATE
 10
-75.95792145270033
 20
-27.02224404204286
 30
0.0
 40
1.05
  0
CIRCLE
  5
A2
  8
2D$SSPLATE
 10
-91.64127656611308
 20
-14.7326820420429
 30
0.0
 40
1.05
210
0.0
220
0.0
230
-1.0
  0
POINT
  5
A3
  8
2D$HOLECP
 10
91.64127656611308
 20
-14.7326820420429
 30
0.0
  0
CIRCLE
  5
A4
  8
2D$SSPLATE
 10
-56.71627656611292
 20
39.24231795795718
 30
0.0
 40
1.05
210
0.0
220
0.0
230
-1.0
  0
CIRCLE
  5
A5
  8
2D$SSPLATE
 10
-28.14127656611307
 20
-21.08268204204283
 30
0.0
 40
1.05
210
0.0
220
0.0
230
-1.0
  0
CIRCLE
  5
A6
  8
2D$SSPLATE
 10
-126.5123105661131
 20
-34.51054804204283
 30
0.0
 40
1.05
210
0.0
220
0.0
230
-1.0
  0
CIRCLE
  5
A7
  8
2D$SSPLATE
 10
-94.81627656611283
 20
24.16106795795729
 30
0.0
 40
1.05
210
0.0
220
0.0
230
-1.0
  0
CIRCLE
  5
A8
  8
2D$SSPLATE
 10
-142.4412765661128
 20
31.30481795795718
 30
0.0
 40
1.05
210
0.0
220
0.0
230
-1.0
  0
CIRCLE
  5
A9
  8
2D$SSPLATE
 10
-132.916276566113
 20
35.27356795795718
 30
0.0
 40
1.05
210
0.0
220
0.0
230
-1.0
  0
POINT
  5
AA
  8
2D$HOLECP
 10
126.5123105661131
 20
-34.51054804204283
 30
0.0
  0
POINT
  5
AB
  8
2D$HOLECP
 10
28.14127656611307
 20
-21.08268204204283
 30
0.0
  0
POINT
  5
AC
  8
2D$HOLECP
 10
56.71627656611292
 20
39.24231795795718
 30
0.0
  0
POINT
  5
AD
  8
2D$HOLECP
 10
94.81627656611283
 20
24.16106795795729
 30
0.0
  0
POINT
  5
AE
  8
2D$HOLECP
 10
132.916276566113
 20
35.27356795795718
 30
0.0
  0
POINT
  5
AF
  8
2D$HOLECP
 10
142.4412765661128
 20
31.30481795795718
 30
0.0
  0
LINE
  5
B0
  8
2D$SSPLATE
 10
148.9373891365205
 20
-46.7658092394157
 30
0.0
 11
151.4547447468458
 21
-32.48917613306547
 31
0.0
  0
ARC
  5
B1
  8
2D$SSPLATE
 10
147.213975568749
 20
-46.46192492849838
 30
0.0
 40
1.750000000000137
 50
259.9999969869151
 51
349.9999999999943
  0
LINE
  5
B2
  8
2D$SSPLATE
 10
79.26611533955582
 20
-36.25787679160577
 30
0.0
 11
146.9100911672005
 21
-48.18533848028913
 31
0.0
  0
ARC
  5
B3
  8
2D$SSPLATE
 10
-79.09246711009945
 20
-37.24268453548618
 30
0.0
 40
1.000000000000081
 50
10.00000000001007
 51
100.0000030130915
210
0.0
220
0.0
230
-1.0
  0
LINE
  5
B4
  8
2D$SSPLATE
 10
77.59903630414459
 20
-39.95358103101056
 30
0.0
 11
78.10765935708719
 21
-37.06903635781906
 31
0.0
  0
ARC
  5
B5
  8
2D$SSPLATE
 10
75.87562273637323
 20
-39.64969672009369
 30
0.0
 40
1.749999999999945
 50
265.4556872211003
 51
350.0000000000077
  0
LINE
  5
B6
  8
2D$SSPLATE
 10
26.17762690523155
 20
-37.45522128984486
 30
0.0
 11
75.73697007549205
 21
-41.39419534136866
 31
0.0
  0
ARC
  5
B7
  8
2D$SSPLATE
 10
26.31627956611299
 20
-35.71072266856996
 30
0.0
 40
1.749999999999858
 50
179.9999999999949
 51
265.4556872210914
  0
LINE
  5
B8
  8
2D$SSPLATE
 10
24.56627956611313
 20
-15.33893204205081
 30
0.0
 11
24.56627956611313
 21
-35.71072266856979
 31
0.0
  0
ARC
  5
B9
  8
2D$SSPLATE
 10
-23.56627956611318
 20
-15.3389320420428
 30
0.0
 40
0.9999999999999432
 50
89.99999999999716
 51
179.9999999995408
210
0.0
220
0.0
230
-1.0
  0
LINE
  5
BA
  8
2D$SSPLATE
 10
18.37877656611336
 20
-14.33893204204297
 30
0.0
 11
23.56627956611313
 21
-14.33893204204286
 31
0.0
  0
ARC
  5
BB
  8
2D$SSPLATE
 10
18.37877656611287
 20
-12.58893204204313
 30
0.0
 40
1.749999999999851
 50
179.9999999999791
 51
270.000000000016
  0
LINE
  5
BC
  8
2D$SSPLATE
 10
16.62877656611303
 20
3.761067957957053
 30
0.0
 11
16.62877656611303
 21
-12.58893204204377
 31
0.0
  0
ARC
  5
BD
  8
2D$SSPLATE
 10
18.37877656611294
 20
3.761067957957266
 30
0.0
 40
1.749999999999901
 50
89.99999999999721
 51
179.999999999993
  0
LINE
  5
BE
  8
2D$SSPLATE
 10
35.51627956611306
 20
5.511067957956939
 30
0.0
 11
18.37877656611303
 21
5.511067957957167
 31
0.0
  0
ARC
  5
BF
  8
2D$SSPLATE
 10
-35.51627956611286
 20
7.261067957957025
 30
0.0
 40
1.750000000000092
 50
179.9999999999972
 51
269.9999999999932
210
0.0
220
0.0
230
-1.0
  0
LINE
  5
C0
  8
2D$SSPLATE
 10
37.26627956611386
 20
56.94231795795589
 30
0.0
 11
37.26627956611295
 21
7.261067957956939
 31
0.0
  0
ARC
  5
C1
  8
2D$SSPLATE
 10
39.01627956611386
 20
56.94231795795709
 30
0.0
 40
1.750000000000028
 50
89.99999999999278
 51
179.99999999996
  0
LINE
  5
C2
  8
2D$SSPLATE
 10
55.3162796181966
 20
58.69231795795717
 30
0.0
 11
39.01627956611408
 21
58.69231795795717
 31
0.0
  0
ARC
  5
C3
  8
2D$SSPLATE
 10
-55.31627961819664
 20
59.69231795795697
 30
0.0
 40
0.999999999999865
 50
179.9999999999935
 51
270.0000000000028
210
0.0
220
0.0
230
-1.0
  0
LINE
  5
C4
  8
2D$SSPLATE
 10
56.3162796181985
 20
64.87981095795827
 30
0.0
 11
56.31627961819651
 21
59.69231795795717
 31
0.0
  0
ARC
  5
C5
  8
2D$SSPLATE
 10
58.06627961819833
 20
64.87981095795728
 30
0.0
 40
1.749999999999829
 50
89.99999999999535
 51
179.9999999999684
  0
LINE
  5
C6
  8
2D$SSPLATE
 10
112.5162795693134
 20
66.62981095795719
 30
0.0
 11
58.06627961819847
 21
66.62981095795719
 31
0.0
  0
ARC
  5
C7
  8
2D$SSPLATE
 10
112.5162795693132
 20
64.87981095795719
 30
0.0
 40
1.749999999999998
 50
0.0000067672102616
 51
89.99999999999116
  0
LINE
  5
C8
  8
2D$SSPLATE
 10
114.2662806507586
 20
55.72356783984689
 30
0.0
 11
114.2662795693132
 21
64.8798111646499
 31
0.0
  0
ARC
  5
C9
  8
2D$SSPLATE
 10
-115.2662806507585
 20
55.72356795795709
 30
0.0
 40
0.9999999999999147
 50
269.9999999999943
 51
359.9999932327844
210
0.0
220
0.0
230
-1.0
  0
LINE
  5
CA
  8
2D$SSPLATE
 10
150.6162795661137
 20
54.72356795795717
 30
0.0
 11
115.2662806507586
 21
54.72356795795717
 31
0.0
  0
ARC
  5
CB
  8
2D$SSPLATE
 10
150.6162795661137
 20
52.97356795795709
 30
0.0
 40
1.75
 50
0.0000000000176802
 51
90.0
  0
LINE
  5
CC
  8
2D$SSPLATE
 10
152.3662795661131
 20
-22.07028547307219
 30
0.0
 11
152.3662795661131
 21
52.97356795795658
 31
0.0
  0
ARC
  5
CD
  8
2D$SSPLATE
 10
92.36627956610859
 20
-22.07028547305015
 30
0.0
 40
60.00000000000453
 50
350.0000000000013
 51
0.0000000000210612
  0
CIRCLE
  5
CE
  8
2D$SSPLATE
 10
-131.0430265661131
 20
-23.74968204204286
 30
0.0
 40
1.05
210
0.0
220
0.0
230
-1.0
  0
POINT
  5
CF
  8
2D$HOLECP
 10
131.0430265661131
 20
-23.74968204204286
 30
0.0
  0
CIRCLE
  5
D0
  8
2D$SSPLATE
 10
-94.81628256611305
 20
9.079811957956977
 30
0.0
 40
1.05
210
0.0
220
0.0
230
-1.0
  0
POINT
  5
D1
  8
2D$HOLECP
 10
94.81628256611305
 20
9.079811957956977
 30
0.0
  0
POINT
  5
D2
  8
2D$HOLECP
 10
79.47300956611306
 20
-27.02224404204286
 30
0.0
  0
CIRCLE
  5
D3
  8
2D$SSPLATE
 10
-79.47300956611306
 20
-27.02224404204286
 30
0.0
 40
1.05
210
0.0
220
0.0
230
-1.0
  0
ENDSEC
  0
EOF
