  0
SECTION
  2
HEADER
  9
$ACADVER
  1
AC1009
  9
$DWGCODEPAGE
  3
ansi_1252
  9
$INSBASE
 10
0.0
 20
0.0
 30
0.0
  9
$EXTMIN
 10
1.000000000000000E+20
 20
1.000000000000000E+20
 30
1.000000000000000E+20
  9
$EXTMAX
 10
-1.000000000000000E+20
 20
-1.000000000000000E+20
 30
-1.000000000000000E+20
  9
$LIMMIN
 10
0.0
 20
0.0
  9
$LIMMAX
 10
12.0
 20
9.0
  9
$ORTHOMODE
 70
     0
  9
$REGENMODE
 70
     1
  9
$FILLMODE
 70
     1
  9
$QTEXTMODE
 70
     0
  9
$MIRRTEXT
 70
     1
  9
$DRAGMODE
 70
     2
  9
$LTSCALE
 40
1.0
  9
$OSMODE
 70
    37
  9
$ATTMODE
 70
     1
  9
$TEXTSIZE
 40
0.2
  9
$TRACEWID
 40
0.05
  9
$TEXTSTYLE
  7
STANDARD
  9
$CLAYER
  8
2D$HOLECP
  9
$CELTYPE
  6
BYLAYER
  9
$CECOLOR
 62
   256
  9
$DIMSCALE
 40
1.0
  9
$DIMASZ
 40
0.18
  9
$DIMEXO
 40
0.0625
  9
$DIMDLI
 40
0.38
  9
$DIMRND
 40
0.0
  9
$DIMDLE
 40
0.0
  9
$DIMEXE
 40
0.18
  9
$DIMTP
 40
0.0
  9
$DIMTM
 40
0.0
  9
$DIMTXT
 40
0.18
  9
$DIMCEN
 40
0.09
  9
$DIMTSZ
 40
0.0
  9
$DIMTOL
 70
     0
  9
$DIMLIM
 70
     0
  9
$DIMTIH
 70
     1
  9
$DIMTOH
 70
     1
  9
$DIMSE1
 70
     0
  9
$DIMSE2
 70
     0
  9
$DIMTAD
 70
     0
  9
$DIMZIN
 70
     0
  9
$DIMBLK
  1

  9
$DIMASO
 70
     1
  9
$DIMSHO
 70
     1
  9
$DIMPOST
  1

  9
$DIMAPOST
  1

  9
$DIMALT
 70
     0
  9
$DIMALTD
 70
     2
  9
$DIMALTF
 40
25.4
  9
$DIMLFAC
 40
1.0
  9
$DIMTOFL
 70
     0
  9
$DIMTVP
 40
0.0
  9
$DIMTIX
 70
     0
  9
$DIMSOXD
 70
     0
  9
$DIMSAH
 70
     0
  9
$DIMBLK1
  1

  9
$DIMBLK2
  1

  9
$DIMSTYLE
  2
STANDARD_ACAD
  9
$DIMCLRD
 70
     0
  9
$DIMCLRE
 70
     0
  9
$DIMCLRT
 70
     0
  9
$DIMTFAC
 40
1.0
  9
$DIMGAP
 40
0.09
  9
$LUNITS
 70
     2
  9
$LUPREC
 70
     3
  9
$SKETCHINC
 40
0.1
  9
$FILLETRAD
 40
0.5
  9
$AUNITS
 70
     0
  9
$AUPREC
 70
     0
  9
$MENU
  1
.
  9
$ELEVATION
 40
0.0
  9
$PELEVATION
 40
0.0
  9
$THICKNESS
 40
0.0
  9
$LIMCHECK
 70
     0
  9
$CHAMFERA
 40
0.0
  9
$CHAMFERB
 40
0.0
  9
$SKPOLY
 70
     0
  9
$TDCREATE
 40
2459456.690926759
  9
$TDUPDATE
 40
2459456.690937836
  9
$TDINDWG
 40
0.0000000116
  9
$TDUSRTIMER
 40
0.0000000116
  9
$USRTIMER
 70
     1
  9
$ANGBASE
 50
0.0
  9
$ANGDIR
 70
     0
  9
$PDMODE
 70
     0
  9
$PDSIZE
 40
0.0
  9
$PLINEWID
 40
0.0
  9
$COORDS
 70
     1
  9
$SPLFRAME
 70
     0
  9
$SPLINETYPE
 70
     6
  9
$SPLINESEGS
 70
     8
  9
$ATTDIA
 70
     0
  9
$ATTREQ
 70
     1
  9
$HANDLING
 70
     1
  9
$HANDSEED
  5
DA
  9
$SURFTAB1
 70
     6
  9
$SURFTAB2
 70
     6
  9
$SURFTYPE
 70
     6
  9
$SURFU
 70
     6
  9
$SURFV
 70
     6
  9
$UCSNAME
  2

  9
$UCSORG
 10
0.0
 20
0.0
 30
0.0
  9
$UCSXDIR
 10
1.0
 20
0.0
 30
0.0
  9
$UCSYDIR
 10
0.0
 20
1.0
 30
0.0
  9
$PUCSNAME
  2

  9
$PUCSORG
 10
0.0
 20
0.0
 30
0.0
  9
$PUCSXDIR
 10
1.0
 20
0.0
 30
0.0
  9
$PUCSYDIR
 10
0.0
 20
1.0
 30
0.0
  9
$USERI1
 70
     0
  9
$USERI2
 70
     0
  9
$USERI3
 70
     0
  9
$USERI4
 70
     0
  9
$USERI5
 70
     0
  9
$USERR1
 40
0.0
  9
$USERR2
 40
0.0
  9
$USERR3
 40
0.0
  9
$USERR4
 40
0.0
  9
$USERR5
 40
0.0
  9
$WORLDVIEW
 70
     1
  9
$SHADEDGE
 70
     3
  9
$SHADEDIF
 70
    70
  9
$TILEMODE
 70
     1
  9
$MAXACTVP
 70
    64
  9
$PLIMCHECK
 70
     0
  9
$PEXTMIN
 10
1.000000000000000E+20
 20
1.000000000000000E+20
 30
1.000000000000000E+20
  9
$PEXTMAX
 10
-1.000000000000000E+20
 20
-1.000000000000000E+20
 30
-1.000000000000000E+20
  9
$PLIMMIN
 10
0.0
 20
0.0
  9
$PLIMMAX
 10
12.0
 20
9.0
  9
$UNITMODE
 70
     0
  9
$VISRETAIN
 70
     1
  9
$PLINEGEN
 70
     0
  9
$PSLTSCALE
 70
     1
  0
ENDSEC
  0
SECTION
  2
TABLES
  0
TABLE
  2
VPORT
 70
     1
  0
VPORT
  2
*ACTIVE
 70
     0
 10
0.0
 20
0.0
 11
1.0
 21
1.0
 12
10.42990654205607
 22
4.5
 13
0.0
 23
0.0
 14
0.5
 24
0.5
 15
0.5
 25
0.5
 16
0.0
 26
0.0
 36
1.0
 17
0.0
 27
0.0
 37
0.0
 40
9.0
 41
1.972972972850329
 42
50.0
 43
0.0
 44
0.0
 50
0.0
 51
0.0
 71
     0
 72
   100
 73
     1
 74
     3
 75
     0
 76
     0
 77
     0
 78
     0
  0
ENDTAB
  0
TABLE
  2
LTYPE
 70
     1
  0
LTYPE
  2
CONTINUOUS
 70
     0
  3
Solid line
 72
    65
 73
     0
 40
0.0
  0
ENDTAB
  0
TABLE
  2
LAYER
 70
     5
  0
LAYER
  2
0
 70
     0
 62
     7
  6
CONTINUOUS
  0
LAYER
  2
2D$HOLECP
 70
     0
 62
   181
  6
CONTINUOUS
  0
LAYER
  2
2D$SSPLATE
 70
     0
 62
     3
  6
CONTINUOUS
  0
LAYER
  2
2D$GUIDE
 70
     0
 62
    12
  6
CONTINUOUS
  0
LAYER
  2
2D$SWITCHHOLES
 70
     0
 62
    81
  6
CONTINUOUS
  0
ENDTAB
  0
TABLE
  2
STYLE
 70
     1
  0
STYLE
  2
STANDARD
 70
     0
 40
0.0
 41
1.0
 50
0.0
 71
     0
 42
0.2
  3
txt
  4

  0
ENDTAB
  0
TABLE
  2
VIEW
 70
     0
  0
ENDTAB
  0
TABLE
  2
UCS
 70
     0
  0
ENDTAB
  0
TABLE
  2
APPID
 70
     1
  0
APPID
  2
ACAD
 70
     0
  0
ENDTAB
  0
TABLE
  2
DIMSTYLE
 70
     1
  0
DIMSTYLE
  2
STANDARD_ACAD
 70
     0
  3

  4

  5

  6

  7

 40
1.0
 41
0.18
 42
0.0625
 43
0.38
 44
0.18
 45
0.0
 46
0.0
 47
0.0
 48
0.0
140
0.18
141
0.09
142
0.0
143
25.4
144
1.0
145
0.0
146
1.0
147
0.09
 71
     0
 72
     0
 73
     1
 74
     1
 75
     0
 76
     0
 77
     0
 78
     0
170
     0
171
     2
172
     0
173
     0
174
     0
175
     0
176
     0
177
     0
178
     0
  0
ENDTAB
  0
ENDSEC
  0
SECTION
  2
BLOCKS
  0
BLOCK
  8
0
  2
$MODEL_SPACE
 70
     0
 10
0.0
 20
0.0
 30
0.0
  3
$MODEL_SPACE
  1

  0
ENDBLK
  5
21
  8
0
  0
BLOCK
 67
     1
  8
0
  2
$PAPER_SPACE
 70
     0
 10
0.0
 20
0.0
 30
0.0
  3
$PAPER_SPACE
  1

  0
ENDBLK
  5
1D
 67
     1
  8
0
  0
BLOCK
  8
0
  2
VANANASPLIT_REV1_1_PLATE
 70
     0
 10
0.0
 20
0.0
 30
0.0
  3
VANANASPLIT_REV1_1_PLATE
  1

  0
CIRCLE
  5
71
  8
2D$SSPLATE
 10
-0.0499936720562744
 20
50.31569317037156
 30
0.0
 40
1.05
  0
POINT
  5
72
  8
2D$HOLECP
 10
-0.0499936720562744
 20
50.31569317037156
 30
0.0
  0
POINT
  5
73
  8
2D$HOLECP
 10
-15.39326667205626
 20
86.4177491703714
 30
0.0
  0
CIRCLE
  5
74
  8
2D$SSPLATE
 10
-15.39326667205626
 20
86.4177491703714
 30
0.0
 40
1.05
  0
POINT
  5
75
  8
2D$HOLECP
 10
-51.62001067205631
 20
53.58825517037155
 30
0.0
  0
CIRCLE
  5
76
  8
2D$SSPLATE
 10
-51.62001067205631
 20
53.58825517037155
 30
0.0
 40
1.05
  0
ARC
  5
77
  8
2D$SSPLATE
 10
12.9432636720518
 20
55.26765173936427
 30
0.0
 40
60.00000000000453
 50
350.0000000000013
 51
0.0000000000210816
210
0.0
220
0.0
230
-1.0
  0
LINE
  5
78
  8
2D$SSPLATE
 10
-72.94326367205633
 20
55.26765173934223
 30
0.0
 11
-72.94326367205633
 21
130.311505170371
 31
0.0
  0
ARC
  5
79
  8
2D$SSPLATE
 10
71.19326367205693
 20
130.3115051703715
 30
0.0
 40
1.75
 50
0.0000000000176802
 51
90.0
210
0.0
220
0.0
230
-1.0
  0
LINE
  5
7A
  8
2D$SSPLATE
 10
-71.19326367205693
 20
132.0615051703716
 30
0.0
 11
-35.84326475670184
 21
132.0615051703716
 31
0.0
  0
ARC
  5
7B
  8
2D$SSPLATE
 10
-35.84326475670174
 20
133.0615051703715
 30
0.0
 40
0.9999999999999147
 50
269.9999999999939
 51
359.9999932327844
  0
LINE
  5
7C
  8
2D$SSPLATE
 10
-34.84326475670184
 20
133.0615050522613
 30
0.0
 11
-34.84326367525637
 21
142.2177483770643
 31
0.0
  0
ARC
  5
7D
  8
2D$SSPLATE
 10
33.09326367525638
 20
142.2177481703716
 30
0.0
 40
1.749999999999998
 50
0.0000067672102616
 51
89.99999999999116
210
0.0
220
0.0
230
-1.0
  0
LINE
  5
7E
  8
2D$SSPLATE
 10
-33.09326367525665
 20
143.9677481703716
 30
0.0
 11
21.35673627585831
 21
143.9677481703716
 31
0.0
  0
ARC
  5
7F
  8
2D$SSPLATE
 10
-21.35673627585845
 20
142.2177481703717
 30
0.0
 40
1.749999999999829
 50
89.99999999999535
 51
179.9999999999684
210
0.0
220
0.0
230
-1.0
  0
LINE
  5
80
  8
2D$SSPLATE
 10
23.10673627585828
 20
142.2177481703727
 30
0.0
 11
23.10673627586027
 21
137.0302551703716
 31
0.0
  0
ARC
  5
81
  8
2D$SSPLATE
 10
24.10673627586014
 20
137.0302551703714
 30
0.0
 40
0.999999999999865
 50
179.9999999999935
 51
270.0000000000028
  0
LINE
  5
82
  8
2D$SSPLATE
 10
24.10673627586019
 20
136.0302551703716
 30
0.0
 11
40.4067363279427
 21
136.0302551703716
 31
0.0
  0
ARC
  5
83
  8
2D$SSPLATE
 10
-40.40673632794292
 20
134.2802551703715
 30
0.0
 40
1.750000000000028
 50
89.99999999999278
 51
179.99999999996
210
0.0
220
0.0
230
-1.0
  0
LINE
  5
84
  8
2D$SSPLATE
 10
42.15673632794292
 20
134.2802551703703
 30
0.0
 11
42.15673632794383
 21
84.59900517037136
 31
0.0
  0
ARC
  5
85
  8
2D$SSPLATE
 10
43.90673632794392
 20
84.59900517037144
 30
0.0
 40
1.750000000000092
 50
179.9999999999972
 51
269.9999999999932
  0
LINE
  5
86
  8
2D$SSPLATE
 10
43.90673632794372
 20
82.84900517037136
 30
0.0
 11
61.04423932794376
 21
82.84900517037158
 31
0.0
  0
ARC
  5
87
  8
2D$SSPLATE
 10
-61.04423932794384
 20
81.09900517037168
 30
0.0
 40
1.749999999999901
 50
89.99999999999721
 51
179.999999999993
210
0.0
220
0.0
230
-1.0
  0
LINE
  5
88
  8
2D$SSPLATE
 10
62.79423932794376
 20
81.09900517037147
 30
0.0
 11
62.79423932794376
 21
64.74900517037065
 31
0.0
  0
ARC
  5
89
  8
2D$SSPLATE
 10
-61.04423932794391
 20
64.74900517037129
 30
0.0
 40
1.749999999999851
 50
179.9999999999791
 51
270.000000000016
210
0.0
220
0.0
230
-1.0
  0
LINE
  5
8A
  8
2D$SSPLATE
 10
61.04423932794342
 20
62.99900517037145
 30
0.0
 11
55.85673632794365
 21
62.99900517037156
 31
0.0
  0
ARC
  5
8B
  8
2D$SSPLATE
 10
55.8567363279436
 20
61.99900517037162
 30
0.0
 40
0.9999999999999432
 50
89.99999999999716
 51
179.9999999995408
  0
LINE
  5
8C
  8
2D$SSPLATE
 10
54.85673632794365
 20
61.9990051703636
 30
0.0
 11
54.85673632794365
 21
41.62721454384462
 31
0.0
  0
ARC
  5
8D
  8
2D$SSPLATE
 10
-53.10673632794379
 20
41.62721454384446
 30
0.0
 40
1.749999999999858
 50
179.9999999999949
 51
265.4556872210917
210
0.0
220
0.0
230
-1.0
  0
LINE
  5
8E
  8
2D$SSPLATE
 10
53.24538898882523
 20
39.88271592256956
 30
0.0
 11
3.686045818564736
 21
35.94374187104575
 31
0.0
  0
ARC
  5
8F
  8
2D$SSPLATE
 10
-3.547393157683556
 20
37.68824049232074
 30
0.0
 40
1.749999999999945
 50
265.4556872211003
 51
350.000000000008
210
0.0
220
0.0
230
-1.0
  0
LINE
  5
90
  8
2D$SSPLATE
 10
1.823979589912199
 20
37.38435618140386
 30
0.0
 11
1.315356536969603
 21
40.26890085459536
 31
0.0
  0
ARC
  5
91
  8
2D$SSPLATE
 10
0.3305487839573455
 20
40.09525267692824
 30
0.0
 40
1.000000000000081
 50
10.00000000001012
 51
100.0000030130918
  0
LINE
  5
92
  8
2D$SSPLATE
 10
0.1569005545009645
 20
41.08006042080865
 30
0.0
 11
-67.48707527314374
 21
29.15259873212528
 31
0.0
  0
ARC
  5
93
  8
2D$SSPLATE
 10
67.7909596746922
 20
30.87601228391604
 30
0.0
 40
1.750000000000137
 50
259.9999969869151
 51
349.9999999999944
210
0.0
220
0.0
230
-1.0
  0
LINE
  5
94
  8
2D$SSPLATE
 10
-69.51437324246368
 20
30.57212797299871
 30
0.0
 11
-72.03172885278897
 21
44.84876107934895
 31
0.0
  0
INSERT
  5
A3
  8
2D$GUIDE
  2
SWITCHHOLE_14MM
 10
-63.01826367205592
 20
118.1677551703716
 30
0.0
  0
INSERT
  5
A4
  8
2D$GUIDE
  2
SWITCHHOLE_14MM
 10
-63.01826667205626
 20
99.11775817037164
 30
0.0
  0
INSERT
  5
A5
  8
2D$GUIDE
  2
SWITCHHOLE_14MM
 10
-63.01826367205615
 20
80.06775817037158
 30
0.0
  0
INSERT
  5
A6
  8
2D$GUIDE
  2
SWITCHHOLE_14MM
 10
-63.01826167205616
 20
61.01775517037163
 30
0.0
  0
INSERT
  5
A7
  8
2D$GUIDE
  2
SWITCHHOLE_14MM
 10
-43.96826267205608
 20
122.1365051703716
 30
0.0
  0
INSERT
  5
A8
  8
2D$GUIDE
  2
SWITCHHOLE_14MM
 10
-43.96826567205642
 20
103.0865081703716
 30
0.0
  0
INSERT
  5
A9
  8
2D$GUIDE
  2
SWITCHHOLE_14MM
 10
-43.96826267205631
 20
84.03650817037158
 30
0.0
  0
INSERT
  5
AA
  8
2D$GUIDE
  2
SWITCHHOLE_14MM
 10
-43.96826067205632
 20
64.98650517037163
 30
0.0
  0
INSERT
  5
AB
  8
2D$GUIDE
  2
SWITCHHOLE_14MM
 10
-24.91826367205601
 20
130.0740051703716
 30
0.0
  0
INSERT
  5
AC
  8
2D$GUIDE
  2
SWITCHHOLE_14MM
 10
-24.91826667205635
 20
111.0240081703716
 30
0.0
  0
INSERT
  5
AD
  8
2D$GUIDE
  2
SWITCHHOLE_14MM
 10
-24.91826367205624
 20
91.97400817037158
 30
0.0
  0
INSERT
  5
AE
  8
2D$GUIDE
  2
SWITCHHOLE_14MM
 10
-24.91826167205625
 20
72.92400517037163
 30
0.0
  0
INSERT
  5
AF
  8
2D$GUIDE
  2
SWITCHHOLE_14MM
 10
-5.868267672056277
 20
134.0427481703715
 30
0.0
  0
INSERT
  5
B0
  8
2D$GUIDE
  2
SWITCHHOLE_14MM
 10
-5.86827067205661
 20
114.9927511703715
 30
0.0
  0
INSERT
  5
B1
  8
2D$GUIDE
  2
SWITCHHOLE_14MM
 10
-5.868267672056504
 20
95.94275117037148
 30
0.0
  0
INSERT
  5
B2
  8
2D$GUIDE
  2
SWITCHHOLE_14MM
 10
-5.868265672056509
 20
76.89274817037153
 30
0.0
  0
INSERT
  5
B3
  8
2D$GUIDE
  2
SWITCHHOLE_14MM
 10
13.1817363279439
 20
130.0740051703716
 30
0.0
  0
INSERT
  5
B4
  8
2D$GUIDE
  2
SWITCHHOLE_14MM
 10
13.18173332794356
 20
111.0240081703716
 30
0.0
  0
INSERT
  5
B5
  8
2D$GUIDE
  2
SWITCHHOLE_14MM
 10
13.18173632794367
 20
91.97400817037158
 30
0.0
  0
INSERT
  5
B6
  8
2D$GUIDE
  2
SWITCHHOLE_14MM
 10
13.18173832794366
 20
72.92400517037163
 30
0.0
  0
INSERT
  5
B7
  8
2D$GUIDE
  2
SWITCHHOLE_14MM
 10
32.23173632794408
 20
126.1052551703716
 30
0.0
  0
INSERT
  5
B8
  8
2D$GUIDE
  2
SWITCHHOLE_14MM
 10
32.23173332794374
 20
107.0552581703716
 30
0.0
  0
INSERT
  5
B9
  8
2D$GUIDE
  2
SWITCHHOLE_14MM
 10
32.23173632794385
 20
88.00525817037158
 30
0.0
  0
INSERT
  5
BA
  8
2D$GUIDE
  2
SWITCHHOLE_14MM
 10
32.23173832794384
 20
68.95525517037163
 30
0.0
  0
INSERT
  5
BB
  8
2D$GUIDE
  2
SWITCHHOLE_14MM
 10
52.8692393279438
 20
72.92400517037163
 30
0.0
  0
INSERT
  5
BC
  8
2D$GUIDE
  2
SWITCHHOLE_14MM
 10
40.16923632794365
 20
49.90525517037156
 30
0.0
  0
INSERT
  5
BD
  8
2D$GUIDE
  2
SWITCHHOLE_14MM
 10
12.50237332794376
 20
47.69304517037153
 30
0.0
 41
0.9999999999999999
 42
0.9999999999999999
 50
10.0
  0
INSERT
  5
BE
  8
2D$GUIDE
  2
SWITCHHOLE_14MM
 10
-11.91319467205636
 20
49.02988617037158
 30
0.0
 41
0.9999999999999999
 42
0.9999999999999999
 50
10.0
  0
INSERT
  5
BF
  8
2D$GUIDE
  2
SWITCHHOLE_14MM
 10
-35.36392767205626
 20
44.89488917037158
 30
0.0
 41
0.9999999999999999
 42
0.9999999999999999
 50
10.0
  0
INSERT
  5
C0
  8
2D$GUIDE
  2
SWITCHHOLE_14MM
 10
-58.81465667205617
 20
40.75988917037159
 30
0.0
 41
0.9999999999999999
 42
0.9999999999999999
 50
10.0
  0
POINT
  5
C1
  8
2D$HOLECP
 10
-63.01826067205604
 20
108.6427551703716
 30
0.0
  0
POINT
  5
C2
  8
2D$HOLECP
 10
-53.49326067205618
 20
112.6115051703716
 30
0.0
  0
POINT
  5
C3
  8
2D$HOLECP
 10
-15.39326067205604
 20
101.4990051703717
 30
0.0
  0
POINT
  5
C4
  8
2D$HOLECP
 10
22.70673932794386
 20
116.5802551703716
 30
0.0
  0
POINT
  5
C5
  8
2D$HOLECP
 10
51.28173932794371
 20
56.25525517037158
 30
0.0
  0
POINT
  5
C6
  8
2D$HOLECP
 10
-47.08929467205633
 20
42.82738917037159
 30
0.0
  0
CIRCLE
  5
C7
  8
2D$SSPLATE
 10
-53.49326067205618
 20
112.6115051703716
 30
0.0
 40
1.05
  0
CIRCLE
  5
C8
  8
2D$SSPLATE
 10
-63.01826067205604
 20
108.6427551703716
 30
0.0
 40
1.05
  0
CIRCLE
  5
C9
  8
2D$SSPLATE
 10
-15.39326067205604
 20
101.4990051703717
 30
0.0
 40
1.05
  0
CIRCLE
  5
CA
  8
2D$SSPLATE
 10
-47.08929467205633
 20
42.82738917037159
 30
0.0
 40
1.05
  0
CIRCLE
  5
CB
  8
2D$SSPLATE
 10
51.28173932794371
 20
56.25525517037158
 30
0.0
 40
1.05
  0
CIRCLE
  5
CC
  8
2D$SSPLATE
 10
22.70673932794386
 20
116.5802551703716
 30
0.0
 40
1.05
  0
POINT
  5
CD
  8
2D$HOLECP
 10
-12.21826067205629
 20
62.60525517037152
 30
0.0
  0
CIRCLE
  5
CE
  8
2D$SSPLATE
 10
-12.21826067205629
 20
62.60525517037152
 30
0.0
 40
1.05
  0
ENDBLK
  5
D0
  8
0
  0
BLOCK
  8
0
  2
SWITCHHOLE_14MM
 70
     0
 10
0.0
 20
0.0
 30
0.0
  3
SWITCHHOLE_14MM
  1

  0
POINT
  5
98
  8
2D$SWITCHHOLES
 10
0.0
 20
0.0
 30
0.0
  0
LINE
  5
99
  8
2D$SWITCHHOLES
 10
-6.499999999999972
 20
-7.0
 30
0.0
 11
6.499999999999972
 21
-7.000000000000007
 31
0.0
  0
ARC
  5
9A
  8
2D$SWITCHHOLES
 10
6.5
 20
-6.5
 30
0.0
 40
0.5
 50
270.0000000000001
 51
0.0
  0
LINE
  5
9B
  8
2D$SWITCHHOLES
 10
7.0
 20
-6.5
 30
0.0
 11
6.999999999999972
 21
6.5
 31
0.0
  0
ARC
  5
9C
  8
2D$SWITCHHOLES
 10
6.499999999999975
 20
6.500000000000003
 30
0.0
 40
0.4999999999999964
 50
0.0000000000003053
 51
90.0000000000004
  0
LINE
  5
9D
  8
2D$SWITCHHOLES
 10
6.499999999999972
 20
7.0
 30
0.0
 11
-6.5
 21
7.0
 31
0.0
  0
ARC
  5
9E
  8
2D$SWITCHHOLES
 10
-6.5
 20
6.5
 30
0.0
 40
0.5
 50
89.9999999999998
 51
180.0
  0
LINE
  5
9F
  8
2D$SWITCHHOLES
 10
-7.0
 20
6.500000000000004
 30
0.0
 11
-6.999999999999972
 21
-6.499999999999993
 31
0.0
  0
ARC
  5
A0
  8
2D$SWITCHHOLES
 10
-6.499999999999972
 20
-6.5
 30
0.0
 40
0.5
 50
179.9999999999993
 51
270.0
  0
ENDBLK
  5
A2
  8
0
  0
ENDSEC
  0
SECTION
  2
ENTITIES
  0
INSERT
  5
D1
  8
2D$HOLECP
  2
VANANASPLIT_REV1_1_PLATE
 10
72.87729557015541
 20
-118.6496287003881
 30
0.0
 41
-1.0
  0
INSERT
  5
D2
  8
2D$HOLECP
  2
VANANASPLIT_REV1_1_PLATE
 10
-82.45364810454544
 20
-118.6496287003881
 30
0.0
  0
ENDSEC
  0
EOF
