<?xml version="1.0" standalone="no"?>
 <!DOCTYPE svg PUBLIC "-//W3C//DTD SVG 1.1//EN" 
 "http://www.w3.org/Graphics/SVG/1.1/DTD/svg11.dtd"> 
<svg
  xmlns:svg="http://www.w3.org/2000/svg"
  xmlns="http://www.w3.org/2000/svg"
  xmlns:xlink="http://www.w3.org/1999/xlink"
  version="1.1"
  width="41.998900cm" height="29.700220cm" viewBox="0 0 165350 116930">
<title>SVG Picture created as ki75rt_PlateBottom-F_Cu.svg date 2020/07/06 00:16:26 </title>
  <desc>Picture generated by PCBNEW </desc>
<g style="fill:#000000; fill-opacity:1;stroke:#000000; stroke-opacity:1;
stroke-linecap:round; stroke-linejoin:round;"
 transform="translate(0 0) scale(1 1)">
</g>
<g style="fill:#000000; fill-opacity:0.0; 
stroke:#000000; stroke-width:-0.000393701; stroke-opacity:1; 
stroke-linecap:round; stroke-linejoin:round;">
<g >
</g>
<g >
</g>
<g >
</g>
<g >
</g>
<g >
</g>
<g >
</g>
<g >
</g>
<g >
</g>
<g >
</g>
<g >
</g>
<g >
</g>
<g >
</g>
<g >
</g>
<g style="fill:#000000; fill-opacity:0.0; 
stroke:#000000; stroke-width:-0.000393701; stroke-opacity:1; 
stroke-linecap:round; stroke-linejoin:round;">
</g>
<g style="fill:#000000; fill-opacity:1.0; 
stroke:#000000; stroke-width:0; stroke-opacity:1; 
stroke-linecap:round; stroke-linejoin:round;">
<circle cx="19300" cy="33700" r="393.701" /> 
</g>
<g style="fill:#000000; fill-opacity:1.0; 
stroke:#000000; stroke-width:39.3701; stroke-opacity:1; 
stroke-linecap:round; stroke-linejoin:round;">
</g>
<g >
</g>
<g >
</g>
<g >
</g>
<g style="fill:#000000; fill-opacity:1.0; 
stroke:#000000; stroke-width:39.3701; stroke-opacity:1; 
stroke-linecap:round; stroke-linejoin:round;">
</g>
<g style="fill:#000000; fill-opacity:1.0; 
stroke:#000000; stroke-width:100; stroke-opacity:1; 
stroke-linecap:round; stroke-linejoin:round;">
<path style="fill:#000000; fill-opacity:1.0; 
stroke:#000000; stroke-width:100; stroke-opacity:1; 
stroke-linecap:round; stroke-linejoin:round;fill-rule:evenodd;"
d="M 123575,11181.6
123707,11221.5
123829,11286.2
123936,11373.4
124024,11479.7
124089,11601.1
124130,11732.9
124145,11880.7
124145,48113.8
124131,48262.3
124091,48394.4
124026,48516.2
123939,48623.1
123833,48711
123711,48776.6
123580,48817.4
123432,48833
11573.7,48833
11425.2,48818.4
11293.1,48778.5
11171.3,48713.8
11064.4,48626.6
10976.5,48520.3
10910.9,48398.9
10870.1,48267.1
10854.5,48119.3
10854.5,41187.6
18116.9,41187.6
18116.9,41312.4
18141.3,41434.7
18189,41549.9
18258.3,41653.6
18346.4,41741.7
18450.1,41811
18565.3,41858.7
18687.6,41883.1
18812.4,41883.1
18934.7,41858.7
19049.9,41811
19153.6,41741.7
19241.7,41653.6
19311,41549.9
19358.7,41434.7
19383.1,41312.4
19383.1,41187.6
48116.9,41187.6
48116.9,41312.4
48141.3,41434.7
48189,41549.9
48258.3,41653.6
48346.4,41741.7
48450.1,41811
48565.3,41858.7
48687.6,41883.1
48812.4,41883.1
48934.7,41858.7
49049.9,41811
49153.6,41741.7
49241.7,41653.6
49311,41549.9
49358.7,41434.7
49383.1,41312.4
49383.1,41187.6
85616.9,41187.6
85616.9,41312.4
85641.3,41434.7
85689,41549.9
85758.3,41653.6
85846.4,41741.7
85950.1,41811
86065.3,41858.7
86187.6,41883.1
86312.4,41883.1
86434.7,41858.7
86549.9,41811
86653.6,41741.7
86741.7,41653.6
86811,41549.9
86858.7,41434.7
86883.1,41312.4
86883.1,41187.6
115617,41187.6
115617,41312.4
115641,41434.7
115689,41549.9
115758,41653.6
115846,41741.7
115950,41811
116065,41858.7
116188,41883.1
116312,41883.1
116435,41858.7
116550,41811
116654,41741.7
116742,41653.6
116811,41549.9
116859,41434.7
116883,41312.4
116883,41187.6
116859,41065.3
116811,40950.1
116742,40846.4
116654,40758.3
116550,40689
116435,40641.3
116312,40616.9
116188,40616.9
116065,40641.3
115950,40689
115846,40758.3
115758,40846.4
115689,40950.1
115641,41065.3
115617,41187.6
86883.1,41187.6
86858.7,41065.3
86811,40950.1
86741.7,40846.4
86653.6,40758.3
86549.9,40689
86434.7,40641.3
86312.4,40616.9
86187.6,40616.9
86065.3,40641.3
85950.1,40689
85846.4,40758.3
85758.3,40846.4
85689,40950.1
85641.3,41065.3
85616.9,41187.6
49383.1,41187.6
49358.7,41065.3
49311,40950.1
49241.7,40846.4
49153.6,40758.3
49049.9,40689
48934.7,40641.3
48812.4,40616.9
48687.6,40616.9
48565.3,40641.3
48450.1,40689
48346.4,40758.3
48258.3,40846.4
48189,40950.1
48141.3,41065.3
48116.9,41187.6
19383.1,41187.6
19358.7,41065.3
19311,40950.1
19241.7,40846.4
19153.6,40758.3
19049.9,40689
18934.7,40641.3
18812.4,40616.9
18687.6,40616.9
18565.3,40641.3
18450.1,40689
18346.4,40758.3
18258.3,40846.4
18189,40950.1
18141.3,41065.3
18116.9,41187.6
10854.5,41187.6
10854.5,34147
18923.7,34147
18961.4,34251.1
19075.4,34306.6
19198.1,34338.7
19324.6,34346.3
19450.3,34329.1
19570.1,34287.7
19638.6,34251.1
19676.3,34147
19300,33770.7
18923.7,34147
10854.5,34147
10854.5,33724.6
18653.7,33724.6
18670.9,33850.3
18712.3,33970.1
18748.9,34038.6
18853,34076.3
19229.3,33700
19370.7,33700
19747,34076.3
19851.1,34038.6
19906.6,33924.6
19938.7,33801.9
19945.6,33687.6
33116.9,33687.6
33116.9,33812.4
33141.3,33934.7
33189,34049.9
33258.3,34153.6
33346.4,34241.7
33450.1,34311
33565.3,34358.7
33687.6,34383.1
33812.4,34383.1
33934.7,34358.7
34049.9,34311
34153.6,34241.7
34241.7,34153.6
34311,34049.9
34358.7,33934.7
34383.1,33812.4
34383.1,33687.6
100617,33687.6
100617,33812.4
100641,33934.7
100689,34049.9
100758,34153.6
100846,34241.7
100950,34311
101065,34358.7
101188,34383.1
101312,34383.1
101435,34358.7
101550,34311
101654,34241.7
101742,34153.6
101811,34049.9
101859,33934.7
101883,33812.4
101883,33687.6
101859,33565.3
101811,33450.1
101742,33346.4
101654,33258.3
101550,33189
101435,33141.3
101312,33116.9
101188,33116.9
101065,33141.3
100950,33189
100846,33258.3
100758,33346.4
100689,33450.1
100641,33565.3
100617,33687.6
34383.1,33687.6
34358.7,33565.3
34311,33450.1
34241.7,33346.4
34153.6,33258.3
34049.9,33189
33934.7,33141.3
33812.4,33116.9
33687.6,33116.9
33565.3,33141.3
33450.1,33189
33346.4,33258.3
33258.3,33346.4
33189,33450.1
33141.3,33565.3
33116.9,33687.6
19945.6,33687.6
19946.3,33675.4
19929.1,33549.7
19887.7,33429.9
19851.1,33361.4
19747,33323.7
19370.7,33700
19229.3,33700
18853,33323.7
18748.9,33361.4
18693.4,33475.4
18661.3,33598.1
18653.7,33724.6
10854.5,33724.6
10854.5,33253
18923.7,33253
19300,33629.3
19676.3,33253
19638.6,33148.9
19524.6,33093.4
19401.9,33061.3
19275.4,33053.7
19149.7,33070.9
19029.9,33112.3
18961.4,33148.9
18923.7,33253
10854.5,33253
10854.5,26187.6
70616.9,26187.6
70616.9,26312.4
70641.3,26434.7
70689,26549.9
70758.3,26653.6
70846.4,26741.7
70950.1,26811
71065.3,26858.7
71187.6,26883.1
71312.4,26883.1
71434.7,26858.7
71549.9,26811
71653.6,26741.7
71741.7,26653.6
71811,26549.9
71858.7,26434.7
71883.1,26312.4
71883.1,26187.6
71858.7,26065.3
71811,25950.1
71741.7,25846.4
71653.6,25758.3
71549.9,25689
71434.7,25641.3
71312.4,25616.9
71187.6,25616.9
71065.3,25641.3
70950.1,25689
70846.4,25758.3
70758.3,25846.4
70689,25950.1
70641.3,26065.3
70616.9,26187.6
10854.5,26187.6
10854.5,18687.6
18116.9,18687.6
18116.9,18812.4
18141.3,18934.7
18189,19049.9
18258.3,19153.6
18346.4,19241.7
18450.1,19311
18565.3,19358.7
18687.6,19383.1
18812.4,19383.1
18934.7,19358.7
19049.9,19311
19153.6,19241.7
19241.7,19153.6
19311,19049.9
19358.7,18934.7
19383.1,18812.4
19383.1,18687.6
48116.9,18687.6
48116.9,18812.4
48141.3,18934.7
48189,19049.9
48258.3,19153.6
48346.4,19241.7
48450.1,19311
48565.3,19358.7
48687.6,19383.1
48812.4,19383.1
48934.7,19358.7
49049.9,19311
49153.6,19241.7
49241.7,19153.6
49311,19049.9
49358.7,18934.7
49383.1,18812.4
49383.1,18687.6
85616.9,18687.6
85616.9,18812.4
85641.3,18934.7
85689,19049.9
85758.3,19153.6
85846.4,19241.7
85950.1,19311
86065.3,19358.7
86187.6,19383.1
86312.4,19383.1
86434.7,19358.7
86549.9,19311
86653.6,19241.7
86741.7,19153.6
86811,19049.9
86858.7,18934.7
86883.1,18812.4
86883.1,18687.6
115617,18687.6
115617,18812.4
115641,18934.7
115689,19049.9
115758,19153.6
115846,19241.7
115950,19311
116065,19358.7
116188,19383.1
116312,19383.1
116435,19358.7
116550,19311
116654,19241.7
116742,19153.6
116811,19049.9
116859,18934.7
116883,18812.4
116883,18687.6
116859,18565.3
116811,18450.1
116742,18346.4
116654,18258.3
116550,18189
116435,18141.3
116312,18116.9
116188,18116.9
116065,18141.3
115950,18189
115846,18258.3
115758,18346.4
115689,18450.1
115641,18565.3
115617,18687.6
86883.1,18687.6
86858.7,18565.3
86811,18450.1
86741.7,18346.4
86653.6,18258.3
86549.9,18189
86434.7,18141.3
86312.4,18116.9
86187.6,18116.9
86065.3,18141.3
85950.1,18189
85846.4,18258.3
85758.3,18346.4
85689,18450.1
85641.3,18565.3
85616.9,18687.6
49383.1,18687.6
49358.7,18565.3
49311,18450.1
49241.7,18346.4
49153.6,18258.3
49049.9,18189
48934.7,18141.3
48812.4,18116.9
48687.6,18116.9
48565.3,18141.3
48450.1,18189
48346.4,18258.3
48258.3,18346.4
48189,18450.1
48141.3,18565.3
48116.9,18687.6
19383.1,18687.6
19358.7,18565.3
19311,18450.1
19241.7,18346.4
19153.6,18258.3
19049.9,18189
18934.7,18141.3
18812.4,18116.9
18687.6,18116.9
18565.3,18141.3
18450.1,18189
18346.4,18258.3
18258.3,18346.4
18189,18450.1
18141.3,18565.3
18116.9,18687.6
10854.5,18687.6
10854.5,11886.2
10869.1,11737.7
10909,11605.6
10973.7,11483.8
11060.9,11376.9
11167.2,11289
11288.6,11223.4
11420.4,11182.6
11568.2,11167
123426,11167
Z" /> 
</g>
</g> 
</svg>
