<?xml version="1.0" standalone="no"?>
 <!DOCTYPE svg PUBLIC "-//W3C//DTD SVG 1.1//EN" 
 "http://www.w3.org/Graphics/SVG/1.1/DTD/svg11.dtd"> 
<svg
  xmlns:svg="http://www.w3.org/2000/svg"
  xmlns="http://www.w3.org/2000/svg"
  xmlns:xlink="http://www.w3.org/1999/xlink"
  version="1.1"
  width="41.998900cm" height="29.700220cm" viewBox="0 0 165350 116930">
<title>SVG Picture created as ki75rt_PlateBottom-B_SilkS.svg date 2020/07/06 00:16:26 </title>
  <desc>Picture generated by PCBNEW </desc>
<g style="fill:#000000; fill-opacity:1;stroke:#000000; stroke-opacity:1;
stroke-linecap:round; stroke-linejoin:round;"
 transform="translate(0 0) scale(1 1)">
</g>
<g style="fill:#000000; fill-opacity:0.0; 
stroke:#000000; stroke-width:-0.000393701; stroke-opacity:1; 
stroke-linecap:round; stroke-linejoin:round;">
</g>
<g style="fill:#000000; fill-opacity:1.0; 
stroke:#000000; stroke-width:3.93701; stroke-opacity:1; 
stroke-linecap:round; stroke-linejoin:round;">
<path style="fill:#000000; fill-opacity:1.0; 
stroke:#000000; stroke-width:3.93701; stroke-opacity:1; 
stroke-linecap:round; stroke-linejoin:round;fill-rule:evenodd;"
d="M 67829.7,43353.2
67780,43367.7
67763.5,43400.5
67762.5,43421.3
67783.1,43496.4
67809.5,43529.7
67840.4,43573.8
67889.2,43666.1
67949.1,43792.8
68010.3,43933.3
68102.3,44137.9
68184.4,44284.7
68262.4,44380.9
68342.1,44433.6
68429.3,44450
68431,44450
68501.8,44440.5
68527.2,44400.9
68529.2,44369
68508.9,44300.4
68457.5,44277.3
68388.2,44244.1
68320.4,44178.6
68318.9,44176.6
68251.9,44086.6
68359.9,43826.6
68418.3,43699.2
68477.4,43591.5
68526.7,43522.3
68537.1,43512.6
68590.7,43448.9
68582.5,43396.4
68517.4,43361.4
68412.5,43350
68303.6,43363.6
68239.9,43399.7
68229.5,43451.1
68255.1,43489.3
68269.3,43541.3
68247,43638.4
68235.7,43670.4
68200.1,43756.6
68171.3,43809.1
68162.5,43816.7
68136.3,43788.1
68105.7,43718.4
68077.9,43631.6
68060.5,43551.9
68060.8,43503.2
68064.4,43498.8
68090.8,43452.9
68095.8,43414.7
68086.4,43375.8
68047.5,43356.4
67962.7,43350.2
67929.2,43350
Z" /> 
<path style="fill:#000000; fill-opacity:1.0; 
stroke:#000000; stroke-width:3.93701; stroke-opacity:1; 
stroke-linecap:round; stroke-linejoin:round;fill-rule:evenodd;"
d="M 71669.1,43363.6
71606.8,43399.4
71598.6,43450
71645.9,43504.2
71685.1,43553.6
71739.1,43648.7
71799.1,43773.1
71828.6,43841
71902.3,44007
71962.9,44109.2
72016.4,44147.7
72069.2,44122.5
72127.2,44033.7
72196.8,43881.3
72212.6,43843.3
72270.9,43709.3
72325,43598.7
72367.4,43526.2
72384.7,43506.7
72422.2,43454.1
72429.2,43415
72419.9,43375.9
72381.2,43356.5
72296.9,43350.2
72262.5,43350
72161.5,43354
72111.2,43369.8
72096,43403.1
72095.8,43410
72111,43478.7
72125.3,43501.7
72130.8,43550.6
72106.3,43639.2
72088.3,43683.3
72021.9,43833.3
71958.4,43687.3
71921.2,43585.8
71918.3,43522.9
71932.4,43496.1
71961.5,43429.7
71930.1,43380.6
71843.2,43353.7
71779.2,43350
Z" /> 
<path style="fill:#000000; fill-opacity:1.0; 
stroke:#000000; stroke-width:3.93701; stroke-opacity:1; 
stroke-linecap:round; stroke-linejoin:round;fill-rule:evenodd;"
d="M 70766.6,43979.2
70746.1,44038
70745.8,44050
70761.5,44115.3
70820.6,44141.8
70833.2,44143.5
70912.2,44133.1
70940.5,44101.8
70947.9,44017.3
70903,43965.3
70833.2,43956.5
Z" /> 
<path style="fill:#000000; fill-opacity:1.0; 
stroke:#000000; stroke-width:3.93701; stroke-opacity:1; 
stroke-linecap:round; stroke-linejoin:round;fill-rule:evenodd;"
d="M 70092.2,43003.7
69973.6,43065.2
69892.6,43173
69845.7,43332
69829.4,43546.9
69829.3,43566.7
69843.2,43786
69887.4,43949.1
69965.3,44060.8
70080.6,44125.9
70236.6,44149.3
70253.6,44149.5
70375.9,44133.9
70475.9,44076.5
70497,44058.3
70559.6,43989.5
70600.4,43905.6
70629.8,43783.2
70635.6,43750
70647.7,43604.4
70487.2,43604.4
70476.9,43706.8
70431.4,43838.2
70356.4,43930.8
70264,43978.3
70166.3,43974.3
70076.1,43913.3
70039.2,43853
70016,43761
70002.8,43621.4
70001.2,43588.3
69997.6,43451.6
70004.3,43361.3
70024.8,43297.7
70061.8,43241.7
70154.7,43168.1
70261.1,43151.6
70362.5,43193.2
70391.1,43219.3
70444.9,43314.9
70478.4,43451.2
70487.2,43604.4
70647.7,43604.4
70654.8,43519.8
70632.1,43323.2
70570.3,43166.1
70472.5,43054.2
70341.5,42993.4
70251.6,42983.8
Z" /> 
<path style="fill:#000000; fill-opacity:1.0; 
stroke:#000000; stroke-width:3.93701; stroke-opacity:1; 
stroke-linecap:round; stroke-linejoin:round;fill-rule:evenodd;"
d="M 69129.2,43340.8
68942.1,43338.1
68828.6,43340.6
68756.9,43358
68702.2,43398.5
68675.4,43427.9
68629.9,43492.8
68605.6,43568
68596.5,43676.6
68595.8,43737.8
68599,43860.9
68613.3,43940.7
68645.8,44000.3
68692.6,44051.9
68749.2,44102.9
68804.5,44131.5
68879.9,44143.5
68996.5,44144.8
69025.9,44144.3
69262.5,44140
69262.5,43753.3
69124.7,43753.3
69096.7,43874.2
69080.7,43902.4
69003.6,43968.1
68908.5,43979.8
68819.1,43935
68814.9,43931
68777.8,43856.7
68762.6,43741.6
68762.5,43731.7
68770.2,43630
68800.8,43567.5
68847.7,43529
68910.5,43494.1
68958.4,43497.6
69022.7,43539.9
69098.8,43634.2
69124.7,43753.3
69262.5,43753.3
69262.5,43625.2
69263,43429.3
69265.2,43290.1
69270.6,43197.2
69280.2,43140.8
69295.5,43110.6
69317.6,43096.5
69329.2,43093
69383.6,43052.2
69395.8,43012.8
69383.1,42971.4
69333.9,42953.2
69262.5,42950
69129.2,42950
Z" /> 
<path style="fill:#000000; fill-opacity:1.0; 
stroke:#000000; stroke-width:3.93701; stroke-opacity:1; 
stroke-linecap:round; stroke-linejoin:round;fill-rule:evenodd;"
d="M 65969,43348.3
65885.8,43379.8
65801.1,43459
65749.2,43576.6
65729.4,43715.2
65741,43857.1
65783.1,43985
65855.2,44081.3
65916.3,44118.1
66066.3,44147
66220,44130.6
66301.5,44099
66385.1,44018.8
66437.9,43897.9
66456.3,43770.8
66293.2,43770.8
66268.5,43871.6
66206.4,43947.9
66111.6,43982.7
66095.8,43983.3
65993.6,43954
65947.7,43909.2
65899.2,43801.5
65894.9,43695.6
65926.1,43602.9
65984.4,43534.6
66061.2,43502.1
66147.7,43516.5
66211.9,43563.1
66275.9,43662.3
66293.2,43770.8
66456.3,43770.8
66458.5,43755.6
66445.5,43611.1
66397.3,43483.6
66352,43424.3
66246.8,43361
66110.5,43334.8
Z" /> 
<path style="fill:#000000; fill-opacity:1.0; 
stroke:#000000; stroke-width:3.93701; stroke-opacity:1; 
stroke-linecap:round; stroke-linejoin:round;fill-rule:evenodd;"
d="M 65176.8,43364.3
65072.2,43402.7
65011.2,43458.8
65005.1,43526
65005.9,43528.1
65053.3,43576.7
65133.6,43570.8
65213.7,43529.5
65279,43494.8
65331,43501.6
65376.3,43528.4
65452.5,43614.8
65483.7,43731.4
65464.5,43854.8
65456.2,43873.8
65386.2,43954.3
65287.4,43980
65176.4,43948.5
65091.3,43924.3
65024.4,43941.6
64995.9,43995
64995.8,43998.1
65025.7,44060.5
65103.5,44107.5
65211.7,44135.5
65332.7,44141.2
65448.8,44121
65503,44098.2
65583.5,44019.6
65633.6,43899.6
65651.7,43756.8
65636.5,43609.9
65586.3,43477.5
65557.3,43434.3
65506,43383
65441.4,43357.8
65339.4,43350.1
65313.8,43350
Z" /> 
<path style="fill:#000000; fill-opacity:1.0; 
stroke:#000000; stroke-width:3.93701; stroke-opacity:1; 
stroke-linecap:round; stroke-linejoin:round;fill-rule:evenodd;"
d="M 64867.4,42955.5
64854.2,42956.4
64712.5,42966.7
64703.3,43475
64698.5,43676.6
64691.8,43819.9
64682.5,43913.1
64669.6,43964.7
64652.2,43982.9
64648.5,43983.3
64597.4,44010.6
64580.1,44074.7
64586.9,44108.3
64629.6,44144.7
64703.7,44149.3
64783.7,44125.1
64843.9,44075.9
64866,44029.7
64881.2,43957.8
64890.5,43849.3
64895,43693.1
64895.8,43542.6
64896.9,43356.1
64900.6,43226.6
64908.2,43144.5
64920.6,43100.2
64938.9,43084.1
64945.8,43083.3
64986.5,43055.4
64995.8,43014.8
64987.4,42972
64950.5,42954.7
Z" /> 
<path style="fill:#000000; fill-opacity:1.0; 
stroke:#000000; stroke-width:3.93701; stroke-opacity:1; 
stroke-linecap:round; stroke-linejoin:round;fill-rule:evenodd;"
d="M 64022.8,43366.6
63922.4,43446.2
63869.7,43570.8
63862.5,43651.9
63862.5,43783.3
64112.5,43783.3
64257.8,43788.8
64340.9,43807.2
64365.5,43841.4
64335.1,43894.5
64297,43932.3
64215,43974.4
64138.7,43968.4
63997.5,43941.7
63910.1,43946.6
63871.2,43983.5
63869.7,43989.7
63887.7,44047.8
63955.1,44096
64054.9,44130.3
64170.1,44146.7
64283.7,44141.3
64378.7,44110
64379.2,44109.7
64482.1,44014.3
64540.9,43877.9
64552.1,43712.4
64535.3,43616.4
64353.1,43616.4
64306.1,43641.7
64198.6,43650
64102.6,43645
64041.2,43632.2
64029.2,43621.8
64051.5,43580.9
64098.1,43531.3
64154.3,43490.4
64205.6,43493.5
64253.8,43517.8
64335.8,43574.8
64353.1,43616.4
64535.3,43616.4
64530.2,43587
64467,43453.1
64362.3,43370.3
64213.9,43337.3
64166.5,43336.7
Z" /> 
<path style="fill:#000000; fill-opacity:1.0; 
stroke:#000000; stroke-width:3.93701; stroke-opacity:1; 
stroke-linecap:round; stroke-linejoin:round;fill-rule:evenodd;"
d="M 62753.9,43353.4
62709.7,43370.1
62696.5,43410.1
62695.8,43433.3
62710.1,43496
62737.5,43516.7
62765.4,43546.2
62807.3,43625.8
62856.7,43741.9
62891.5,43835.2
62944.7,43981.1
62984.4,44074
63016.9,44124.6
63048.5,44143.4
63073.5,44143.5
63127.3,44114
63169.4,44035.5
63186.1,43983.3
63224,43856.9
63251.5,43793
63275.3,43789.7
63302,43845.2
63333.4,43941.7
63374.6,44059.5
63410.9,44124.3
63450.2,44148.7
63464.8,44150
63526.1,44131.8
63545.9,44108.3
63563.4,44058.6
63596.4,43964.3
63638.6,43844
63648.2,43816.7
63698.6,43690.2
63751.9,43584.2
63797.8,43518.4
63804.3,43512.6
63857.5,43448.7
63849,43396.2
63783.5,43361.3
63679.2,43350
63566,43363.8
63505.6,43402.1
63503,43460.1
63525.4,43495.5
63544,43548.2
63528.4,43633.1
63516.1,43670
63482.3,43746
63458,43760.4
63452,43750
63432.4,43691.2
63401.2,43594.5
63379.1,43525
63337.6,43415.7
63296.8,43361.4
63260.8,43350
63218.5,43366.8
63182,43425.1
63144,43537.1
63142.7,43541.7
63103.5,43672.7
63075.4,43744.3
63052.9,43761.7
63030.3,43730.1
63006.8,43667.8
62981.5,43569.2
62990.7,43508.4
62999.6,43495.5
63028.2,43429.4
62996.5,43380.5
62909.7,43353.6
62846.9,43350
Z" /> 
<path style="fill:#000000; fill-opacity:1.0; 
stroke:#000000; stroke-width:3.93701; stroke-opacity:1; 
stroke-linecap:round; stroke-linejoin:round;fill-rule:evenodd;"
d="M 71198,43008.7
71182.7,43036.1
71175.2,43087.7
71169,43191.9
71164.6,43334.4
71162.6,43501.1
71162.5,43536.1
71162.5,43983.3
71079.2,43983.3
71013.8,43999
70995.8,44050
71001.1,44082.4
71025.6,44102.2
71082.4,44112.5
71184.5,44116.2
71279.2,44116.7
71417.1,44115.3
71501.4,44109.4
71545,44095.9
71560.9,44071.9
71562.5,44052.1
71543.8,44003.2
71477.9,43979.9
71454.2,43977.1
71345.8,43966.7
71336.3,43605.7
71326.9,43244.8
71403,43267.9
71468.5,43285.9
71495.8,43291.1
71574.9,43275.2
71599.9,43232.1
71572.8,43170.8
71495.5,43100.2
71448.2,43069.8
71326.8,43006.8
71246.3,42986.8
Z" /> 
<path style="fill:#000000; fill-opacity:1.0; 
stroke:#000000; stroke-width:3.93701; stroke-opacity:1; 
stroke-linecap:round; stroke-linejoin:round;fill-rule:evenodd;"
d="M 66927.6,43355
66808.4,43360.9
66729.8,43369.8
66709.2,43376
66643.9,43456
66606.3,43593.4
66595.8,43764.5
66592.6,43886.7
66580.8,43954.9
66557.8,43981.5
66545.8,43983.3
66505.1,44011.1
66495.8,44050
66503.9,44088.7
66538.6,44108.7
66615.8,44116
66677.2,44116.7
66804.3,44109.5
66868.8,44086.4
66873.4,44044.9
66825.1,43986.7
66782.8,43937
66765.8,43877.6
66769.2,43784.5
66773.5,43745.1
66802.6,43601.8
66851,43518.4
66922.8,43489.8
66977.5,43496.6
67062.4,43550
67112.8,43659.2
67129.2,43822
67121.7,43914.4
67093.5,43960.3
67062.5,43973.7
67008,44014.4
66995.8,44053.9
67004.3,44089.1
67039.6,44108.1
67116.9,44115.7
67195.8,44116.7
67307.5,44114.2
67367.9,44103.5
67392.2,44079.5
67395.8,44050
67375,43995.7
67345.8,43983.3
67318.5,43969.5
67302.9,43919.7
67296.5,43821.6
67295.8,43753.6
67299.8,43621.6
67313.5,43543.7
67339.3,43507.7
67345.8,43504.6
67387.4,43459.3
67395.8,43419.7
67390.9,43389.5
67367.9,43370.2
67314.7,43359.4
67219.2,43354.5
67070.8,43353.1
Z" /> 
<path style="fill:#000000; fill-opacity:1.0; 
stroke:#000000; stroke-width:3.93701; stroke-opacity:1; 
stroke-linecap:round; stroke-linejoin:round;fill-rule:evenodd;"
d="M 73940.4,40748.8
73929.2,40801.4
73940.1,40852.5
73970.4,40955.5
74016.5,41100.1
74074.7,41275.7
74141.3,41471.9
74212.7,41678.2
74285.2,41884.1
74355.2,42079.1
74419,42252.9
74473,42394.8
74513.5,42494.5
74536.8,42541.5
74536.9,42541.7
74602.3,42581.1
74674.4,42556.6
74689.2,42543.3
74724.6,42489.4
74729.3,42468.3
74718.2,42417.8
74687.2,42317.1
74640,42176.1
74580.1,42004.6
74511.2,41812.4
74437,41609.3
74361.1,41405.2
74287,41209.9
74218.6,41033.2
74159.4,40884.9
74113,40775
74083.1,40713.1
74075.4,40703.2
73994.3,40699.8
Z" /> 
<path style="fill:#000000; fill-opacity:1.0; 
stroke:#000000; stroke-width:3.93701; stroke-opacity:1; 
stroke-linecap:round; stroke-linejoin:round;fill-rule:evenodd;"
d="M 60845.6,40715
60808.2,40765.9
60813.9,40809.7
60839.8,40905.9
60882.3,41044.4
60937.8,41215.2
61002.9,41408.3
61074,41613.6
61147.7,41821.3
61220.2,42021.2
61288.2,42203.4
61348.1,42357.8
61396.4,42474.5
61429.5,42543.5
61440,42557.4
61486.2,42578.4
61537.2,42567.9
61554.2,42561.3
61586.7,42518.5
61595.8,42466.1
61584.8,42411.4
61554.2,42305.6
61507.7,42159
61448.9,41982.1
61381.5,41785.2
61309.3,41578.7
61235.8,41373
61164.8,41178.5
61099.9,41005.7
61044.8,40864.8
61003.2,40766.3
60978.8,40720.6
60978.6,40720.4
60913.4,40691.9
Z" /> 
<path style="fill:#000000; fill-opacity:1.0; 
stroke:#000000; stroke-width:3.93701; stroke-opacity:1; 
stroke-linecap:round; stroke-linejoin:round;fill-rule:evenodd;"
d="M 71737.3,41359.4
71586.9,41411.5
71468.9,41505.3
71410.5,41599.7
71369.6,41754.9
71365.8,41919
71395.4,42074.8
71454.9,42205.3
71540.4,42293.5
71562.5,42305.6
71731.8,42355.8
71913.8,42363.3
71995.4,42350.2
72125.6,42287.8
72223.6,42180.9
72288.3,42043.7
72318.4,41890.2
72317.2,41858.3
72086.8,41858.3
72063.3,41997.6
72000.1,42110
71909.9,42173.7
71807.6,42184.8
71708.3,42139.7
71664.9,42095.5
71614.6,41990.2
71594.8,41859
71606.1,41729.1
71649.3,41627.9
71654.2,41621.8
71748.9,41546.7
71846.8,41528.7
71938.7,41559.3
72015.5,41630.1
72067.9,41732.6
72086.8,41858.3
72317.2,41858.3
72312.7,41734.4
72269.9,41590.3
72188.9,41472
72078,41397.4
71905.8,41353.2
Z" /> 
<path style="fill:#000000; fill-opacity:1.0; 
stroke:#000000; stroke-width:3.93701; stroke-opacity:1; 
stroke-linecap:round; stroke-linejoin:round;fill-rule:evenodd;"
d="M 70908.9,41074.5
70882.2,41110.2
70870.1,41192.1
70869,41206.3
70857.4,41296.1
70831,41339.1
70776.6,41355.4
70769,41356.3
70701.2,41378.1
70679.6,41434.1
70679.2,41450
70693.6,41513.8
70749.5,41540.7
70772.1,41544
70865,41554.7
70855.4,41843.7
70849.7,41983.4
70840.8,42071.6
70824.1,42123.6
70794.7,42154.4
70752.2,42177.4
70682.2,42229.1
70668.9,42294.4
70704.7,42356.8
70783.6,42373.5
70899.1,42343.5
70915.8,42336.4
70978.4,42303.4
71020.2,42261.4
71045.3,42197.3
71058,42098
71062.2,41950.7
71062.5,41871.8
71063.7,41726.7
71069.2,41634.1
71082.3,41579.9
71106.1,41550
71137.5,41532.9
71200.9,41481.7
71203.1,41421.8
71144,41370
71139.1,41367.8
71085.6,41324.1
71060,41242.1
71055.7,41201.1
71044.2,41114.3
71018.4,41075.7
70965.3,41066.7
70962.5,41066.7
Z" /> 
<path style="fill:#000000; fill-opacity:1.0; 
stroke:#000000; stroke-width:3.93701; stroke-opacity:1; 
stroke-linecap:round; stroke-linejoin:round;fill-rule:evenodd;"
d="M 69939.8,41359
69814.1,41389.1
69714,41445.4
69672.9,41491.4
69659.5,41541.5
69645.8,41641
69633.9,41772.9
69629.2,41850
69620.4,41997.3
69610.4,42090.9
69595.6,42143.5
69572.4,42168
69537.5,42177.3
69477.4,42207
69462.5,42269
69468.5,42317.8
69498.2,42341.7
69568.9,42349.5
69622.5,42350
69724,42343.3
69798.4,42326.3
69816.8,42315.7
69870.9,42302.7
69948.5,42332.2
70092.7,42377.6
70243.4,42362.1
70318.2,42334.7
70402,42283.7
70458.7,42223.6
70459.9,42221.6
70489.2,42120.3
70491.8,42050
70262.5,42050
70235.6,42127.3
70167.4,42173
70076.4,42185.1
69981.3,42161
69900.6,42098.5
69898.3,42095.5
69839.7,42007.7
69834.5,41953.1
69886.5,41924.9
69999.8,41916.7
70005.8,41916.7
70146.2,41928.8
70229.7,41967.1
70261.8,42034.4
70262.5,42050
70491.8,42050
70493.8,41997.3
70475.1,41901.5
70414.5,41831
70301,41780.1
70146.8,41753.1
70066.1,41750
69930.2,41742.3
69856.5,41717.9
69842.3,41674.7
69881.1,41614.6
69971.2,41561.5
70091.8,41555.9
70225.6,41598.2
70233.8,41602.4
70334.9,41637.1
70402.5,41623
70429,41562.2
70429.2,41556.2
70399.6,41474.6
70321,41412.8
70208.2,41372.1
70076.1,41353.7
Z" /> 
<path style="fill:#000000; fill-opacity:1.0; 
stroke:#000000; stroke-width:3.93701; stroke-opacity:1; 
stroke-linecap:round; stroke-linejoin:round;fill-rule:evenodd;"
d="M 69043.7,41070.9
69006.4,41138.9
68995.8,41252.7
68983.5,41326.2
68941.1,41349.9
68935.8,41350
68852,41370.7
68808,41419.7
68807.8,41477.7
68855.7,41525.2
68895.8,41538.3
68995.8,41558.3
68995.8,41853.5
68994.9,41994.7
68989.7,42083
68976.7,42132.3
68952.4,42156.5
68914.9,42169
68837.4,42211
68808.9,42275.2
68832.7,42337.6
68905.4,42379.2
69008.9,42363.9
69061.8,42340.5
69137.3,42285.2
69187.5,42202
69216.5,42079.4
69228,41906
69228.7,41845.6
69230.4,41705.3
69236.9,41618
69251.2,41569.8
69276.4,41547
69295.8,41540.3
69352.2,41495.6
69362.5,41450
69335,41381.2
69295.8,41359.7
69242.4,41319.5
69229.2,41248.8
69216.5,41130.4
69175.7,41066.7
69112.5,41050
Z" /> 
<path style="fill:#000000; fill-opacity:1.0; 
stroke:#000000; stroke-width:3.93701; stroke-opacity:1; 
stroke-linecap:round; stroke-linejoin:round;fill-rule:evenodd;"
d="M 68067.3,41358.2
67928,41402.8
67905.9,41415.3
67818.2,41502.8
67758,41627.9
67735.5,41763.8
67744,41837.8
67756.6,41874.5
67781.1,41897.6
67830.7,41910.2
67918.8,41915.5
68058.7,41916.7
68077.8,41916.7
68215.4,41919.2
68325.7,41925.8
68393.3,41935.5
68406.6,41941.7
68409.4,42004.3
68365.5,42074.2
68289.5,42132.1
68252.1,42147.9
68159.5,42168
68070.7,42156.2
67999.8,42131
67874.4,42095.3
67795.7,42107.2
67763.4,42166.8
67762.5,42183.9
67786.7,42243
67865.4,42298.8
67904.2,42317.6
68079.7,42371.7
68256.2,42368.8
68351.4,42346.8
68482.5,42276.8
68578.4,42160.7
68635.6,42011
68650.8,41839.9
68625.4,41689
68397.4,41689
68378.7,41725.8
68307.4,41744.7
68179.2,41750
68056.1,41746.3
67987.9,41733.6
67963.2,41709.4
67962.5,41702.4
67991,41631.7
68061.8,41565.9
68128.1,41533.7
68211.9,41534.9
68304.7,41572.3
68370.3,41630
68397.4,41689
68625.4,41689
68620.5,41660
68572.3,41539
68491.4,41446.9
68367.8,41383.7
68220.1,41353
Z" /> 
<path style="fill:#000000; fill-opacity:1.0; 
stroke:#000000; stroke-width:3.93701; stroke-opacity:1; 
stroke-linecap:round; stroke-linejoin:round;fill-rule:evenodd;"
d="M 64254.7,40790.8
64196.2,40816.6
64191.2,40823
64178.3,40875.1
64168.5,40974.9
64163.4,41103.5
64163,41142.8
64162.1,41277.4
64157.5,41356.9
64145.8,41392.6
64123.6,41396
64091,41380.7
64012.8,41360.4
63900,41355.5
63851.3,41358.6
63731.3,41379.6
63647.3,41423.3
63593.1,41475.5
63516.8,41605.9
63478.2,41770
63477.4,41946.4
63514.5,42113.8
63587.9,42248.5
63680.3,42316.3
63811.6,42355.4
63958.2,42360.8
64041.7,42346.3
64145.5,42328.4
64203.6,42344.6
64206.7,42347.6
64270.6,42379.1
64354.2,42361.3
64369.2,42337.9
64380.4,42277.1
64388.3,42172.6
64393.2,42017.8
64395.1,41849
64162.5,41849
64159.7,41975.3
64148.3,42053.3
64123.3,42101.2
64088.4,42131.4
63971.9,42179.9
63859.3,42167.6
63765.4,42096.1
63764.9,42095.5
63707,41969.3
63695.8,41860
63707.7,41719.7
63749.1,41626.8
63828.1,41565.5
63857.8,41551.9
63940.7,41529.1
64017.1,41545
64059.1,41564.9
64113.5,41596.5
64144.4,41632.7
64158.5,41691.6
64162.3,41791.6
64162.5,41849
64395.1,41849
64395.5,41806.3
64395.8,41663.1
64395.8,40981.7
64481.6,40949.1
64547.4,40903.1
64556.3,40858.2
64519.2,40820.4
64440.4,40795
64344.1,40784.4
Z" /> 
<path style="fill:#000000; fill-opacity:1.0; 
stroke:#000000; stroke-width:3.93701; stroke-opacity:1; 
stroke-linecap:round; stroke-linejoin:round;fill-rule:evenodd;"
d="M 63091.6,40792
63027.9,40818.5
63024.6,40823
63015.9,40868.7
63008.2,40970
63002.1,41115.6
62998,41294.5
62996.4,41495.3
62996.3,41504.2
62995.8,42141.7
62895,42161.8
62806.1,42199.5
62769.7,42259.3
62792.7,42329.3
62796.2,42333.8
62867.5,42372.7
62973.9,42377.5
63088,42348.8
63134.8,42321.6
63170.3,42276.9
63195.8,42206.4
63213,42101.4
63223.3,41953.7
63228.2,41754.6
63229.2,41550.1
63229.4,41337.9
63230.8,41183
63234.5,41076.3
63241.8,41008.4
63253.7,40970.1
63271.3,40952.1
63295.9,40945.2
63304.2,40944
63366.9,40910.9
63379.2,40866.7
63368.8,40825.4
63327.1,40802.8
63237.7,40791.1
63215.7,40789.6
Z" /> 
<path style="fill:#000000; fill-opacity:1.0; 
stroke:#000000; stroke-width:3.93701; stroke-opacity:1; 
stroke-linecap:round; stroke-linejoin:round;fill-rule:evenodd;"
d="M 61973.8,41390.4
61862.8,41460.5
61800.1,41573.1
61780.6,41724.3
61779.2,41900
62104.2,41909.5
62254.6,41915.2
62350.4,41923.4
62403.4,41936.6
62425.6,41957.3
62429.2,41979.4
62399.7,42065.4
62323.3,42129.2
62218.1,42163.7
62101.8,42162
62025.6,42136.6
61906.1,42089.5
61830.9,42090.4
61797.9,42139.7
61795.8,42165.9
61825.8,42250.4
61906,42315.5
62022,42357.6
62159.3,42373.1
62303.4,42358.4
62422.1,42319
62543.1,42236.4
62620.1,42118.2
62657.3,41955.5
62662.4,41842.7
62643.8,41705.2
62429.2,41705.2
62399.5,41728
62324.2,41743.5
62224.1,41751
62119.9,41750
62032.4,41740.1
61982.2,41720.5
61979.3,41716.9
61987.1,41674.3
62032.4,41611.1
62045.7,41597.1
62120.9,41538
62192.2,41526.9
62222.5,41532.7
62322.8,41574.9
62398.4,41637.4
62429.1,41703.5
62429.2,41705.2
62643.8,41705.2
62636.6,41652.4
62562,41506.3
62441.7,41407.6
62279.2,41359.3
62138.2,41357.6
Z" /> 
<path style="fill:#000000; fill-opacity:1.0; 
stroke:#000000; stroke-width:3.93701; stroke-opacity:1; 
stroke-linecap:round; stroke-linejoin:round;fill-rule:evenodd;"
d="M 73193.2,40854.3
73049.9,40862.6
72936,40875.1
72889.6,40884.5
72755,40953.8
72646.6,41070.2
72581.2,41214.7
72576,41238.4
72576.2,41374
72616.9,41514.5
72688.2,41636.3
72779.9,41715.8
72851.1,41752.5
72891,41773.4
72892.2,41774.1
72880.3,41802.1
72836.7,41868.7
72770.6,41959.8
72766.1,41965.8
72673,42077.3
72599.8,42136
72548.3,42150
72472.1,42175.9
72440.7,42242
72450.4,42300
72491.9,42334.4
72587.2,42349.1
72630.8,42350
72791.9,42350
72985.5,42067.5
73085,41928.5
73159.5,41840.1
73216.3,41794.7
73254.2,41784.2
73297.6,41789.8
73320,41818.9
73328.2,41887.6
73329.2,41962.8
73325.5,42069.6
73310.3,42127.6
73277.4,42154.7
73259.9,42160.3
73206.8,42196.2
73201.5,42255.9
73212.7,42296.7
73241.8,42321
73304,42334.2
73414.3,42341.6
73447.3,42343
73566.9,42344.7
73659.1,42339.9
73704.9,42329.8
73705.6,42329.1
73730.3,42265.8
73711.5,42197.6
73662.5,42159.7
73637.4,42149.5
73619.5,42127.6
73607.7,42084
73600.6,42008.7
73597.1,41891.7
73595.9,41723.1
73595.8,41615
73596.3,41416.4
73598.5,41274.4
73603.7,41178.9
73613.1,41120
73627.9,41087.6
73633.5,41083.3
73329.2,41083.3
73329.2,41550
73140.1,41550
72992.8,41538.7
72901.3,41503.8
72890.1,41494.8
72841.9,41411.1
72832.3,41300.1
72862.1,41189.5
72881.1,41157.4
72921.9,41114.5
72980.7,41092
73077.7,41083.9
73131.1,41083.3
73329.2,41083.3
73633.5,41083.3
73649.3,41071.5
73662.5,41066.7
73713.4,41022.9
73728.8,40954.7
73706.7,40892
73676.4,40870.2
73607.4,40858.2
73491,40851.7
73346.6,40850.5
Z" /> 
<path style="fill:#000000; fill-opacity:1.0; 
stroke:#000000; stroke-width:3.93701; stroke-opacity:1; 
stroke-linecap:round; stroke-linejoin:round;fill-rule:evenodd;"
d="M 66140.5,40858.2
66060.1,40868.4
66036.9,40877
66012,40915.3
65967.3,41005.8
65907.4,41138.5
65836.8,41303.5
65759.8,41490.9
65749.4,41516.7
65658.7,41739.6
65586.9,41906.7
65530.6,42025.2
65486.4,42101.9
65450.6,42144
65431,42155.9
65374,42201.2
65368.5,42258.1
65379.2,42296.5
65407.5,42320
65467.7,42333.1
65574.5,42340.6
65633.4,42343
65791,42341.4
65886,42321.4
65920.1,42281.6
65895.2,42220.8
65858.9,42179.7
65808.2,42097
65810.2,42030.4
65824.4,41990.3
65851.7,41966.4
65906.8,41954.5
66004.6,41950.4
66095.3,41950
66231.5,41952.2
66316.4,41960.8
66365,41979.3
66392.6,42010.8
66394.7,42014.5
66426,42094.3
66408.7,42139.7
66359.9,42160.3
66306.8,42196.2
66301.5,42255.9
66312,42295.4
66339.1,42319.4
66397.5,42332.8
66501.6,42340.3
66566.8,42343
66701.9,42345.5
66784.2,42338.8
66827.1,42321.1
66840.7,42301.3
66845.3,42215.9
66796.8,42154.1
66765.4,42141.1
66742.9,42126
66714.4,42087.3
66677.3,42019.3
66628.9,41916.2
66566.7,41772.3
66546,41722.1
66272.8,41722.1
66272,41725
66233.8,41739.4
66151.2,41748.5
66093.9,41750
65999.4,41745.5
65939.9,41733.8
65929.2,41725
65934.6,41698.9
65952.7,41642.2
65986.7,41546.1
66039.7,41402.1
66083.8,41283.3
66104,41284.9
66140.1,41343.2
66187.8,41451.1
66194,41466.7
66236.3,41582
66264.4,41672.9
66272.8,41722.1
66546,41722.1
66488,41581.8
66390.1,41338.9
66306.3,41128
66321,41089.4
66362,41066.8
66415.1,41029.9
66422.9,40956.2
66422.8,40955.5
66410.5,40902.2
66377.8,40874.4
66306.2,40861.9
66245.8,40858
Z" /> 
<path style="fill:#000000; fill-opacity:1.0; 
stroke:#000000; stroke-width:3.93701; stroke-opacity:1; 
stroke-linecap:round; stroke-linejoin:round;fill-rule:evenodd;"
d="M 67192.7,41723.6
67055.6,41729.7
66972.2,41738.9
66929.3,41754.6
66913.9,41780.5
66912.5,41800
66918.1,41832.2
66943.6,41852.9
67001.7,41865.2
67105.2,41872.5
67204.7,41876.3
67349.4,41879.1
67440.7,41874.8
67491.7,41861.4
67515.4,41837.3
67517.5,41832.4
67523.9,41778.7
67489.1,41743.9
67406,41725.8
67267.2,41721.7
Z" /> 
<path style="fill:#000000; fill-opacity:1.0; 
stroke:#000000; stroke-width:3.93701; stroke-opacity:1; 
stroke-linecap:round; stroke-linejoin:round;fill-rule:evenodd;"
d="M 64992.7,41723.6
64855.6,41729.7
64772.2,41738.9
64729.3,41754.6
64713.9,41780.5
64712.5,41800
64718.1,41832.2
64743.6,41852.9
64801.7,41865.2
64905.2,41872.5
65004.7,41876.3
65149.4,41879.1
65240.7,41874.8
65291.7,41861.4
65315.4,41837.3
65317.5,41832.4
65323.9,41778.7
65289.1,41743.9
65206,41725.8
65067.2,41721.7
Z" /> 
<path style="fill:#000000; fill-opacity:1.0; 
stroke:#000000; stroke-width:3.93701; stroke-opacity:1; 
stroke-linecap:round; stroke-linejoin:round;fill-rule:evenodd;"
d="M 59712.4,18066
59100.8,18164.1
58492.8,18326.4
58428,18347.7
57852.5,18574.6
57309,18858.2
56800.8,19194.9
56331.6,19581.2
55904.7,20013.4
55523.6,20487.9
55191.7,21001.3
54912.6,21549.8
54689.7,22130
54651.2,22252.9
54553.3,22611.4
54483,22955.1
54436.3,23309.4
54408.9,23699.4
54406.1,23766.7
54413.9,24394.1
54485.1,25007.8
54617.2,25604
54807.9,26178.7
55054.9,26728
55355.8,27248
55708.1,27734.8
56109.7,28184.6
56558,28593.4
57050.7,28957.3
57585.5,29272.4
57812.5,29384.8
57983,29459.8
58189.3,29543
58403.3,29623.5
58568.5,29680.9
58980.8,29834.1
59344.8,30004
59657.9,30188.5
59917.8,30385.1
60122.1,30591.6
60268.4,30805.8
60354.1,31025.3
60377.1,31247.8
60360.4,31378.7
60307.8,31538.2
60212.7,31715.8
60070.8,31918.5
59918.9,32105.8
59810.8,32246.9
59697.3,32417.4
59599.2,32585.7
59579.9,32622.9
59526.7,32730.4
59481.5,32828
59443.7,32922.2
59412.6,33019.1
59387.7,33125.2
59368.3,33246.8
59353.8,33390
59343.7,33561.3
59337.2,33766.9
59333.8,34013.2
59332.8,34306.3
59333.6,34652.7
59335.7,35058.7
59336,35116.7
59345.8,36833.3
59439.4,37100
59591.7,37451
59789.5,37774.6
60024.4,38059.2
60288.2,38293.5
60345.4,38334.5
60438.8,38405.4
60505,38468
60529.2,38507.5
60539,38562
60566.2,38668.1
60607.7,38815.6
60660.2,38993.9
60720.4,39192.8
60785,39401.9
60850.9,39610.8
60914.8,39809.1
60973.4,39986.5
61023.5,40132.5
61061.8,40236.8
61085.2,40289
61087.2,40291.7
61168,40338
61277.6,40350.2
61387.7,40328.9
61462.5,40283.3
61512.9,40200.5
61528.4,40125
61518.6,40065.8
61492,39954.3
61451.4,39801.7
61400,39619.3
61340.7,39418.5
61330.3,39384.2
61271.1,39188
61219.8,39014.9
61179,38874.5
61151.6,38776.3
61140.4,38730
61140.4,38727.7
61174.1,38729.9
61249.4,38744.3
61280.1,38751.2
61364.8,38764.9
61498,38779.5
61661.4,38793.3
61837,38804.5
61839.5,38804.6
62266.6,38827.1
62248.2,38946.9
62236.6,39034.3
62221.2,39167.1
62203.5,39330.7
62184.9,39510.5
62166.9,39692
62150.9,39860.8
62138.4,40002.1
62130.8,40101.5
62129.2,40137.6
62159.2,40239.5
62240.2,40313.4
62358.6,40348.6
62390.7,40350
62462.2,40346.9
62518.5,40332.6
62562.4,40299.3
62597,40239.3
62625.3,40145.1
62650,40008.9
62674.3,39823.1
62701,39580
62706.5,39528.2
62779.2,38833.3
63037.5,38823.6
63159.1,38822.6
63249.9,38828.7
63294,38840.6
63295.8,38844.2
63288.7,38885.1
63269,38979.9
63239,39117.7
63201.2,39287.6
63162.5,39458.5
63109,39695.8
63070.7,39877.4
63046.6,40012.3
63036.2,40109.6
63038.7,40178.2
63053.3,40227.3
63079.4,40265.8
63095.8,40283.3
63183.9,40333.6
63296.1,40350.5
63404,40333.6
63472,40291.3
63495.4,40241.3
63529.7,40135.6
63572.2,39984
63620.1,39796
63670.9,39581.2
63683.8,39523.8
63842.6,38815.1
64393.7,38824.2
64944.9,38833.3
65162,39538.6
65227.5,39747.1
65289.3,39936
65343.9,40095.3
65387.8,40214.9
65417.6,40284.9
65424.9,40296.9
65493.4,40335.2
65598.8,40350
65599.9,40350
65728.2,40325.1
65819.1,40256.8
65861,40154.8
65862.5,40128.8
65853,40068.6
65826.8,39957.4
65787.1,39807.5
65737.1,39631.4
65694.2,39487.1
65637.9,39301.9
65587.6,39136.1
65546.7,39001.4
65518.9,38909.5
65508.6,38875
65507.1,38857.4
65519.3,38843.7
65552.4,38833.4
65613.7,38826.2
65710.6,38821.4
65850.3,38818.5
66040.1,38817.1
66287.4,38816.7
66364,38816.7
67236.6,38816.7
67217.5,38925
67210.8,38993.4
67204.2,39115.2
67198.3,39276.9
67193.4,39465.1
67190.7,39623.6
67188.5,39838
67188.9,39995.9
67192.6,40107.6
67200.6,40183.3
67213.6,40233.1
67232.5,40267.3
67244.6,40282
67332.2,40334.9
67446.5,40350.8
67558.8,40329.3
67625.1,40287.4
67646.4,40260
67663.1,40219.8
67676.1,40157.8
67686.6,40064.9
67695.5,39932.1
67703.8,39750.4
67712.4,39520.7
67736.9,38816.7
68402,38816.7
68628.4,38817
68796.4,38818.6
68914.4,38822.2
68990.6,38828.5
69033.2,38838.3
69050.7,38852.3
69051.2,38871.2
69050.2,38875
68986.9,39101.1
68926.1,39329
68870.3,39548.7
68821.7,39750.2
68782.8,39923.5
68755.9,40058.5
68743.4,40145.4
68743.7,40170.1
68799.1,40278.8
68898.5,40337.9
68995.8,40350
69055.4,40349.4
69104.1,40343.2
69145.1,40324.8
69181.6,40287.2
69216.8,40224
69253.8,40128.3
69295.9,39993.5
69346.1,39812.8
69407.7,39579.5
69465.3,39358.3
69606.3,38816.7
70729.2,38816.7
70729.2,39528.2
70729.6,39765.6
70731.4,39945.2
70735.2,40076.1
70741.9,40167.1
70752,40227.2
70766.2,40265.3
70785.4,40290.4
70790.1,40294.8
70883.3,40340
71000.4,40347.7
71110.9,40318.8
71162.5,40283.3
71184.8,40257.2
71201.5,40223.4
71213.4,40172.6
71221.3,40095.7
71226,39983.3
71228.4,39826.4
71229.1,39615.6
71229.2,39516.7
71229.2,38816.7
71845.8,38816.7
72040.3,38817.3
72209.6,38818.9
72343.3,38821.4
72431,38824.5
72462.5,38828.1
72455.4,38862.7
72435.6,38951.6
72405.5,39084.3
72367.5,39250.2
72329.2,39416.7
72272.1,39670.6
72232.1,39868.4
72208.3,40018.3
72200.3,40128.2
72207.3,40206.5
72228.5,40261.3
72256.8,40294.8
72343.7,40336.6
72457.8,40348.2
72566.6,40328.7
72609.6,40306.3
72631.7,40281
72655.7,40233.2
72683.2,40156.5
72715.9,40045
72755.4,39892.4
72803.5,39692.5
72861.8,39439.4
72927.6,39146.8
72999,38826.9
73455.7,38804.1
73630.7,38794.4
73787.7,38783.9
73911.8,38773.7
73987.6,38764.9
73996.1,38763.3
74030.6,38758.7
74058.1,38768.4
74083.7,38802.1
74112.1,38869.4
74148.5,38980
74197.7,39143.5
74206.3,39172.7
74295.3,39471.7
74368.1,39713
74426.8,39902.7
74473.6,40047.2
74510.4,40152.8
74539.5,40225.7
74562.9,40272.3
74582.6,40298.6
74659,40336.6
74765.8,40348.6
74871.8,40334.6
74943.4,40297.7
74977.7,40256.3
74999.1,40207.6
75006.5,40143.1
74998.7,40054.6
74974.5,39933.7
74932.9,39772.3
74872.6,39561.9
74814.7,39367.6
74751.9,39157.2
74696.1,38967.5
74650.2,38808
74616.8,38688.1
74598.7,38617.6
74596.2,38603.6
74623.7,38570.5
74695.5,38518.3
74796.7,38457.9
74804.6,38453.6
74945.3,38361.7
75109.4,38229.3
75280.9,38069.4
75296.7,38053.6
75543.2,37771.1
75733.9,37472.9
75879.1,37141.4
75935.8,36964.8
75953.2,36903.2
75967.8,36844.9
75979.7,36783.4
75989.3,36712.4
75996.8,36625.4
76002.5,36516.2
76006.6,36378.4
76009.4,36205.5
76011.2,35991.3
76012.1,35729.3
76012.4,35413.1
76012.5,35050
76012,34721.6
76010.5,34411.4
76008.2,34126
76005.2,33872.3
76001.5,33657.2
75997.2,33487.4
75992.5,33369.8
75987.5,33311.2
75986.9,33308.3
75961.2,33216.7
74829.2,33216.7
74829,35108.3
74828.9,35511.9
74828.5,35854.2
74827.7,36140.7
74826.2,36376.6
74823.9,36567.5
74820.7,36718.7
74816.3,36835.6
74810.6,36923.6
74803.4,36988.1
74794.5,37034.5
74783.8,37068.2
74771.1,37094.5
74765,37104.9
74665.3,37210.5
74536.6,37261.4
74394.1,37252.6
74350.9,37237.6
74272.3,37196.8
74214.4,37142.9
74174.1,37066.1
74148.6,36956.2
74134.7,36803.5
74129.5,36597.9
74129.2,36505.5
74129.2,36024.3
74042,35967.2
74013.1,35946.7
73989.4,35932.5
73965.7,35930
73936.6,35944.5
73896.8,35981.5
73841.1,36046.3
73764.1,36144.5
73660.6,36281.4
73525.3,36462.4
73420.3,36602.9
73255,36821.5
73121.9,36990.6
73015.1,37115.3
72928.5,37200.7
72856.2,37251.8
72792.2,37273.9
72730.7,37272
72665.5,37251.3
72664.9,37251
72536.4,37171.3
72461.7,37056.8
72440.8,36975.5
72437.1,36935.5
72442.7,36893.9
72462.2,36843.1
72500.3,36775.8
72561.5,36684.2
72650.5,36560.9
72772,36398.2
72893.5,36237.6
73027.9,36059.4
73148.9,35897.4
73208,35817.2
71995.8,35817.2
71994.8,36182.9
71991.8,36488.9
71986.7,36733.8
71979.7,36916.2
71970.8,37034.7
71960.4,37087.3
71906.2,37150.3
71821,37215.8
71731.3,37265.9
71669.2,37283.2
71610.8,37268.8
71530.5,37234
71529.5,37233.5
71479.1,37206.9
71437.9,37180
71405,37146.1
71379.5,37098.6
71360.5,37031
71347,36936.5
71338.1,36808.5
71332.8,36640.6
71330.1,36425.9
71329.3,36157.9
71329.2,35829.9
71329.2,35824.3
71329.4,35488.4
71330.8,35212.8
71332.2,35116.7
70777.5,35116.7
70772.7,35404.9
70757.6,35642
70729.5,35843
70685.6,36022.8
70623.5,36196.6
70560.9,36336.6
70409.6,36586.5
70210.9,36812.9
69978.9,37002.5
69728.1,37142.1
69661.1,37168.8
69362.3,37250.4
69031.3,37294.6
68691.4,37300.3
68366.3,37266.6
68212.5,37233.5
67889.8,37117.1
67606.7,36947.9
67365.5,36728.2
67168.3,36460.2
67017.4,36146.5
66939.4,35896.7
66914,35771.5
66896.5,35623.7
66885.9,35440.2
66881.3,35207.7
66880.8,35116.7
66881.7,34898.6
66886,34731.8
66895.1,34600.9
66910.5,34490.3
66933.7,34384.7
66956.5,34301.2
67085.2,33953.3
67256.3,33656.9
67469.5,33412.2
67503.4,33386.5
66557.8,33386.5
66504.5,33508.5
66465.3,33557.8
66368.1,33666.7
65365.3,33676.4
65079.5,33679.4
64853.5,33682.6
64680.3,33686.5
64553,33691.5
64464.7,33698
64408.5,33706.6
64377.4,33717.7
64364.6,33731.7
64362.8,33743.1
64387,33830.1
64459.1,33961.1
64579.2,34136.3
64747.7,34356.2
64947.2,34600
65241.9,34966.3
65484.8,35301.3
65679.2,35611.3
65828.3,35902.8
65935.3,36182.3
66003.3,36456.1
66035.6,36730.7
66038.3,36792.5
66040,36925.3
66032.6,37011.4
66011.6,37070.6
65972.7,37122.9
65962.5,37134
65834.6,37235.6
65702.6,37271.3
65570.5,37241
65449.5,37152.2
65403.4,37100.6
65372.7,37045.3
65352.2,36969.4
65337.1,36856.1
65326.4,36739.7
65296.8,36499
65259.3,36328.2
63324.5,36328.2
63278.1,36476.5
63242.5,36537
63030.4,36795.9
62774.9,37006
62481.3,37163.9
62155.2,37266
62070.4,37282.2
61894.8,37305.4
61732.7,37309.9
61553,37295.8
61446.4,37281.7
61161.2,37213.5
60900.9,37098
60679.7,36942.4
60596.2,36860.7
60439.6,36642.2
60326.8,36383.6
60259.8,36096.8
60240.4,35793.7
60270.6,35486.1
60334.4,35236.1
60450.2,34978.4
60612.5,34765.1
60825,34592.1
61091.7,34455.7
61112.5,34447.4
61206.6,34413.9
61297.2,34391.3
61401.2,34377.8
61535.8,34371
61717.7,34369.1
61745.8,34369
61964.1,34372.2
62127.7,34382.5
62248.1,34401.1
62320.8,34422.3
62417.4,34451.7
62459.9,34446.7
62462.5,34437.8
62456.3,34391.2
62439.5,34294.5
62414.9,34162.8
62391.5,34043.2
62320.4,33686.4
61460.3,33676.6
60600.1,33666.7
60498,33568.8
60412.8,33450.3
60392.9,33325.6
60438.2,33202.4
60498,33131.2
60600.1,33033.3
61596.9,33023.6
61905.2,33021.1
62153.9,33020.8
62350.2,33024.1
62501.1,33032
62613.8,33045.7
62695.5,33066.3
62753.1,33095
62793.8,33132.9
62824.8,33181.3
62846.5,33226.5
62866.4,33289.6
62895.4,33406.9
62931.3,33566.8
62971.8,33757.8
63014.7,33968.4
63057.7,34187
63098.6,34402.1
63135,34602.3
63164.8,34775.8
63185.7,34911.3
63195.4,34997.2
63195.8,35009.4
63165.8,35127.8
63087.7,35235.9
62979.1,35313.3
62910.3,35335.9
62842.1,35341.6
62772.2,35327.1
62682.8,35286.2
62562,35216.3
62382.6,35113.8
62234.6,35046.1
62097.2,35006.4
61949.5,34988.3
61833,34984.8
61612.2,34995.1
61438.5,35032.2
61296.3,35101.5
61178.5,35199.3
61068,35337.7
60999.3,35496.8
60966.8,35692.4
60962.5,35820.8
60981.1,36065
61039.5,36261.1
61142,36417.3
61292.8,36541.8
61345.8,36573
61450.2,36623.5
61548.5,36651.4
61668.6,36662.7
61762.5,36664
61908.4,36658.2
62048.6,36643.4
62151.1,36623.1
62269.6,36567.5
62405.6,36472.1
62539.9,36353.1
62653.6,36226.3
62699.1,36161.4
62802.5,36042.5
62925.4,35980.6
63058,35979.8
63108.1,35996
63237.4,36079.4
63310.2,36193
63324.5,36328.2
65259.3,36328.2
65247.3,36273.4
65173.3,36053.7
65070.4,35830.5
64934,35594.6
64759.5,35336.7
64542.4,35047.4
64426,34900
64291.1,34729.1
64162.4,34561.7
64049.2,34410.2
63960.6,34286.9
63909.9,34210.7
63799.2,34003.6
63715.7,33793.2
63662.4,33592.1
63642.3,33413.1
63658.3,33268.9
63677.1,33220.7
63705.1,33169.4
63735.2,33127.4
63774,33093.9
63827.9,33067.8
63903.5,33048.5
64007.2,33034.9
64145.5,33026.3
64325,33021.8
64552.1,33020.5
64833.4,33021.5
65149.2,33023.8
66368,33033.3
66465.3,33142.2
66544.7,33265.7
66557.8,33386.5
67503.4,33386.5
67724.8,33219.1
68022,33077.9
68360.9,32988.5
68741.4,32951.2
68829.2,32950
69218.7,32976.1
69566.6,33054.1
69872.8,33184.2
70137.1,33366
70359.5,33599.6
70539.7,33884.8
70677.6,34221.5
70701.9,34301.2
70731.6,34412.9
70752.6,34518.4
70766.2,34632.8
70773.9,34771.8
70777.1,34950.6
70777.5,35116.7
71332.2,35116.7
71334,34991.1
71340,34816.7
71349.5,34683.3
71363.4,34584.4
71382.4,34513.6
71407.5,34464.5
71439.3,34430.6
71478.7,34405.6
71511.6,34389.8
71654.7,34355.2
71789.3,34377.6
71899.7,34452.4
71948.3,34521.5
71961.3,34557.8
71971.7,34615.9
71980,34702.1
71986.2,34822.7
71990.7,34983.9
71993.6,35192.2
71995.3,35453.7
71995.8,35774.9
71995.8,35817.2
73208,35817.2
73250.4,35759.7
73326.7,35654.2
73371.8,35589
73381.4,35572.8
73361.8,35536.7
73292.6,35467.9
73179.4,35371
73027.7,35250.9
72965,35203.2
72788.3,35067.2
72659.9,34961.7
72572.9,34880.1
72520.1,34815.7
72496.3,34768.1
72480.7,34630.5
72530,34507.6
72614.5,34421
72677.1,34377.1
72737.4,34352
72802.7,34348.8
72880.5,34371
72978.4,34421.7
73103.7,34504.3
73263.9,34622
73466.6,34778.1
73515.7,34816.4
74112.5,35282.8
74119.8,33610.4
72045.8,33610.4
72027.5,33781
71968.9,33901.1
71864.9,33976
71710.2,34010.8
71634.2,34014.6
71531.9,34007.2
71453.9,33972
71375.8,33903.3
71306.5,33825
71273,33752
71262.8,33652.9
71262.5,33616.7
71268.3,33504.8
71294.2,33427.7
71352.4,33354
71375.8,33330
71455.5,33259.8
71530.1,33226.4
71632,33216.9
71658.6,33216.7
71776.3,33224.6
71861.2,33256
71937,33313.9
71998.7,33375.3
72031.3,33434.2
72044,33515.4
72045.8,33610.4
74119.8,33610.4
74121.1,33311.1
74122.4,32954.9
74123.2,32618.9
74123.5,32309
74123.2,32031
74122.5,31790.8
74121.4,31594.3
74119.7,31447.2
74117.7,31355.6
74115.4,31325.1
74095.3,31313.8
74056.6,31303.6
73996,31294.5
73910.1,31286.5
73795.7,31279.5
73649.3,31273.4
73467.6,31268.2
73247.2,31263.9
72984.9,31260.2
72677.2,31257.3
72320.8,31254.9
71912.3,31253.2
71448.5,31251.9
70925.9,31251.1
70341.2,31250.6
70112.5,31250.5
69501.8,31250.2
68953.8,31249.7
68464.7,31248.8
68030.5,31247.4
67647.3,31245.4
67311.1,31242.7
67018.2,31239.2
66764.4,31234.7
66546,31229.2
66359,31222.4
66199.5,31214.4
66063.6,31205
65947.3,31194
65846.8,31181.4
65758.1,31167
65677.3,31150.8
65600.5,31132.5
65535.9,31115.5
65201.8,30997.5
64920.5,30840.6
64693.1,30646.7
64521,30417.7
64405.5,30155.3
64348,29861.6
64349.6,29538.3
64361.5,29437.6
64444.7,29041.9
64583.7,28628.2
64779.9,28193.9
65034.4,27736
65248,27400
65369.7,27210.7
65493.3,27007.1
65606.9,26809.6
65698.5,26638.4
65725.7,26583.3
65964.8,26006.8
66141.4,25415.5
66256,24814.5
66309.1,24208.6
66301.2,23602.9
66232.9,23002.2
66104.6,22411.5
65916.9,21835.8
65887.2,21768.9
63162,21768.9
63151.4,22175.2
63081.9,22572.6
62957.4,22957.8
62781.8,23327.5
62559,23678.3
62292.8,24007.1
61987.1,24310.4
61645.8,24585.1
61272.8,24827.9
60871.9,25035.4
60447,25204.3
60002,25331.4
59540.8,25413.4
59067.2,25447
58585.2,25428.9
58345.8,25399.9
57860.2,25299.1
57408.4,25147.8
56993.9,24948.9
56620.2,24705.1
56290.8,24419.3
56009,24094.3
55778.5,23732.8
55602.7,23337.6
55542.4,23150
55514.4,23031.5
55496,22899.6
55486,22738.1
55482.8,22530.6
55483,22466.7
55485.5,22265.9
55492.4,22112.5
55506,21987.4
55528.7,21871.2
55562.7,21744.9
55575.6,21701.6
55743.5,21260.8
55969.8,20848.3
56251,20466.9
56583.9,20119.6
56965.1,19809.4
57391.3,19539.2
57859.1,19311.9
58365.1,19130.6
58562.5,19075.4
58984.7,18993
59438.2,18953.2
59903.2,18955.8
60359.7,19000.6
60776.6,19084.8
61206.4,19227
61606.5,19418.4
61971.8,19654.2
62297.5,19929.4
62578.5,20239.2
62809.9,20578.8
62986.6,20943.3
63103.7,21327.8
63109.8,21356.9
63162,21768.9
65887.2,21768.9
65670.3,21280
65365.3,20748.9
65070,20332.8
64661.2,19859.8
64212.7,19438.1
63728.7,19069
63213.6,18753.7
62671.8,18493.6
62107.4,18290
61525,18144.1
60928.8,18057.3
60323.2,18030.8
Z" /> 
<path style="fill:#000000; fill-opacity:1.0; 
stroke:#000000; stroke-width:3.93701; stroke-opacity:1; 
stroke-linecap:round; stroke-linejoin:round;fill-rule:evenodd;"
d="M 68652.2,33635.2
68524.2,33642.3
68427.5,33657.2
68344.6,33682.3
68279.2,33710
68073.6,33834
67908.9,33999.4
67783.8,34209.3
67697.1,34466.5
67647.7,34773.8
67634.4,35134.3
67638.3,35281.9
67665.1,35605.4
67717.9,35873.1
67800.1,36091.7
67915,36268.2
68065.7,36409.3
68230.3,36509.4
68360.4,36569
68476.8,36605
68609,36624.8
68730.3,36633
68881.4,36636.1
69025.4,36631.6
69135.4,36620.4
69150.7,36617.5
69396.6,36538.5
69600.4,36414.3
69763.1,36243.1
69886,36022.8
69970.2,35751.6
70016.9,35427.4
70028,35133.3
70022.5,35015.3
69685.8,35015.3
69684.1,35292
69631.4,35531.1
69530.6,35729.2
69384.4,35882.7
69195.5,35988.5
68966.8,36043
68838.2,36050
68677.9,36041.8
68539,36019.6
68471.6,35999
68279.2,35892.1
68136.3,35750.1
68039,35566.8
67983.5,35336.3
67971.2,35215.9
67976.9,34940.6
68032.4,34704.2
68135.2,34510
68282.5,34361.3
68471.9,34261.2
68700.6,34212.9
68790.1,34208.9
69053.1,34231.9
69271.3,34304.3
69444.5,34425.8
69572.2,34596
69654.2,34814.7
69685.8,35015.3
70022.5,35015.3
70011.2,34770.6
69959.7,34462.5
69872.1,34205.5
69746.7,33996.5
69582.3,33832.1
69379.2,33710
69294.8,33675.4
69210.3,33652.9
69107.9,33640
68970.1,33634.4
68829.2,33633.3
Z" /> 
<path style="fill:#000000; fill-opacity:1.0; 
stroke:#000000; stroke-width:3.93701; stroke-opacity:1; 
stroke-linecap:round; stroke-linejoin:round;fill-rule:evenodd;"
d="M 68671.7,34766.9
68588.3,34846.9
68561.1,34904.4
68536.9,35030.7
68535.3,35174.5
68554,35311.7
68590.7,35418.4
68612,35449.5
68697.3,35500.5
68813.7,35520
68933.8,35507.9
69029.9,35464.4
69047.5,35448.1
69088.5,35366.8
69114.6,35244.7
69124.2,35106.6
69115.4,34977.1
69087.9,34883.3
69006.2,34787.4
68898,34736.4
68780.7,34729.8
Z" /> 
<g >
</g>
</g> 
</svg>
