  0
SECTION
  2
HEADER
  9
$ACADVER
  1
AC1009
  9
$DWGCODEPAGE
  3
ansi_1252
  9
$INSBASE
 10
0.0
 20
0.0
 30
0.0
  9
$EXTMIN
 10
1.000000000000000E+20
 20
1.000000000000000E+20
 30
1.000000000000000E+20
  9
$EXTMAX
 10
-1.000000000000000E+20
 20
-1.000000000000000E+20
 30
-1.000000000000000E+20
  9
$LIMMIN
 10
0.0
 20
0.0
  9
$LIMMAX
 10
12.0
 20
9.0
  9
$ORTHOMODE
 70
     0
  9
$REGENMODE
 70
     1
  9
$FILLMODE
 70
     1
  9
$QTEXTMODE
 70
     0
  9
$MIRRTEXT
 70
     1
  9
$DRAGMODE
 70
     2
  9
$LTSCALE
 40
1.0
  9
$OSMODE
 70
    37
  9
$ATTMODE
 70
     1
  9
$TEXTSIZE
 40
0.2
  9
$TRACEWID
 40
0.05
  9
$TEXTSTYLE
  7
STANDARD
  9
$CLAYER
  8
0
  9
$CELTYPE
  6
BYLAYER
  9
$CECOLOR
 62
   256
  9
$DIMSCALE
 40
1.0
  9
$DIMASZ
 40
0.18
  9
$DIMEXO
 40
0.0625
  9
$DIMDLI
 40
0.38
  9
$DIMRND
 40
0.0
  9
$DIMDLE
 40
0.0
  9
$DIMEXE
 40
0.18
  9
$DIMTP
 40
0.0
  9
$DIMTM
 40
0.0
  9
$DIMTXT
 40
0.18
  9
$DIMCEN
 40
0.09
  9
$DIMTSZ
 40
0.0
  9
$DIMTOL
 70
     0
  9
$DIMLIM
 70
     0
  9
$DIMTIH
 70
     1
  9
$DIMTOH
 70
     1
  9
$DIMSE1
 70
     0
  9
$DIMSE2
 70
     0
  9
$DIMTAD
 70
     0
  9
$DIMZIN
 70
     0
  9
$DIMBLK
  1

  9
$DIMASO
 70
     1
  9
$DIMSHO
 70
     1
  9
$DIMPOST
  1

  9
$DIMAPOST
  1

  9
$DIMALT
 70
     0
  9
$DIMALTD
 70
     2
  9
$DIMALTF
 40
25.4
  9
$DIMLFAC
 40
1.0
  9
$DIMTOFL
 70
     0
  9
$DIMTVP
 40
0.0
  9
$DIMTIX
 70
     0
  9
$DIMSOXD
 70
     0
  9
$DIMSAH
 70
     0
  9
$DIMBLK1
  1

  9
$DIMBLK2
  1

  9
$DIMSTYLE
  2
STANDARD_ACAD
  9
$DIMCLRD
 70
     0
  9
$DIMCLRE
 70
     0
  9
$DIMCLRT
 70
     0
  9
$DIMTFAC
 40
1.0
  9
$DIMGAP
 40
0.09
  9
$LUNITS
 70
     2
  9
$LUPREC
 70
     3
  9
$SKETCHINC
 40
0.1
  9
$FILLETRAD
 40
0.5
  9
$AUNITS
 70
     0
  9
$AUPREC
 70
     0
  9
$MENU
  1
.
  9
$ELEVATION
 40
0.0
  9
$PELEVATION
 40
0.0
  9
$THICKNESS
 40
0.0
  9
$LIMCHECK
 70
     0
  9
$CHAMFERA
 40
0.0
  9
$CHAMFERB
 40
0.0
  9
$SKPOLY
 70
     0
  9
$TDCREATE
 40
2459456.703613333
  9
$TDUPDATE
 40
2459456.703620995
  9
$TDINDWG
 40
0.0000000116
  9
$TDUSRTIMER
 40
0.0000000116
  9
$USRTIMER
 70
     1
  9
$ANGBASE
 50
0.0
  9
$ANGDIR
 70
     0
  9
$PDMODE
 70
     0
  9
$PDSIZE
 40
0.0
  9
$PLINEWID
 40
0.0
  9
$COORDS
 70
     1
  9
$SPLFRAME
 70
     0
  9
$SPLINETYPE
 70
     6
  9
$SPLINESEGS
 70
     8
  9
$ATTDIA
 70
     0
  9
$ATTREQ
 70
     1
  9
$HANDLING
 70
     1
  9
$HANDSEED
  5
19F
  9
$SURFTAB1
 70
     6
  9
$SURFTAB2
 70
     6
  9
$SURFTYPE
 70
     6
  9
$SURFU
 70
     6
  9
$SURFV
 70
     6
  9
$UCSNAME
  2

  9
$UCSORG
 10
0.0
 20
0.0
 30
0.0
  9
$UCSXDIR
 10
1.0
 20
0.0
 30
0.0
  9
$UCSYDIR
 10
0.0
 20
1.0
 30
0.0
  9
$PUCSNAME
  2

  9
$PUCSORG
 10
0.0
 20
0.0
 30
0.0
  9
$PUCSXDIR
 10
1.0
 20
0.0
 30
0.0
  9
$PUCSYDIR
 10
0.0
 20
1.0
 30
0.0
  9
$USERI1
 70
     0
  9
$USERI2
 70
     0
  9
$USERI3
 70
     0
  9
$USERI4
 70
     0
  9
$USERI5
 70
     0
  9
$USERR1
 40
0.0
  9
$USERR2
 40
0.0
  9
$USERR3
 40
0.0
  9
$USERR4
 40
0.0
  9
$USERR5
 40
0.0
  9
$WORLDVIEW
 70
     1
  9
$SHADEDGE
 70
     3
  9
$SHADEDIF
 70
    70
  9
$TILEMODE
 70
     1
  9
$MAXACTVP
 70
    64
  9
$PLIMCHECK
 70
     0
  9
$PEXTMIN
 10
1.000000000000000E+20
 20
1.000000000000000E+20
 30
1.000000000000000E+20
  9
$PEXTMAX
 10
-1.000000000000000E+20
 20
-1.000000000000000E+20
 30
-1.000000000000000E+20
  9
$PLIMMIN
 10
0.0
 20
0.0
  9
$PLIMMAX
 10
12.0
 20
9.0
  9
$UNITMODE
 70
     0
  9
$VISRETAIN
 70
     1
  9
$PLINEGEN
 70
     0
  9
$PSLTSCALE
 70
     1
  0
ENDSEC
  0
SECTION
  2
TABLES
  0
TABLE
  2
VPORT
 70
     1
  0
VPORT
  2
*ACTIVE
 70
     0
 10
0.0
 20
0.0
 11
1.0
 21
1.0
 12
10.42990654205607
 22
4.5
 13
0.0
 23
0.0
 14
0.5
 24
0.5
 15
0.5
 25
0.5
 16
0.0
 26
0.0
 36
1.0
 17
0.0
 27
0.0
 37
0.0
 40
9.0
 41
1.972972972850329
 42
50.0
 43
0.0
 44
0.0
 50
0.0
 51
0.0
 71
     0
 72
   100
 73
     1
 74
     3
 75
     0
 76
     0
 77
     0
 78
     0
  0
ENDTAB
  0
TABLE
  2
LTYPE
 70
     1
  0
LTYPE
  2
CONTINUOUS
 70
     0
  3
Solid line
 72
    65
 73
     0
 40
0.0
  0
ENDTAB
  0
TABLE
  2
LAYER
 70
     4
  0
LAYER
  2
0
 70
     0
 62
     7
  6
CONTINUOUS
  0
LAYER
  2
PLATE
 70
     0
 62
   110
  6
CONTINUOUS
  0
LAYER
  2
PLATE$SWITCHHOLES
 70
     0
 62
    81
  6
CONTINUOUS
  0
LAYER
  2
2D$SWITCHHOLES
 70
     0
 62
    81
  6
CONTINUOUS
  0
ENDTAB
  0
TABLE
  2
STYLE
 70
     1
  0
STYLE
  2
STANDARD
 70
     0
 40
0.0
 41
1.0
 50
0.0
 71
     0
 42
0.2
  3
txt
  4

  0
ENDTAB
  0
TABLE
  2
VIEW
 70
     0
  0
ENDTAB
  0
TABLE
  2
UCS
 70
     0
  0
ENDTAB
  0
TABLE
  2
APPID
 70
     1
  0
APPID
  2
ACAD
 70
     0
  0
ENDTAB
  0
TABLE
  2
DIMSTYLE
 70
     1
  0
DIMSTYLE
  2
STANDARD_ACAD
 70
     0
  3

  4

  5

  6

  7

 40
1.0
 41
0.18
 42
0.0625
 43
0.38
 44
0.18
 45
0.0
 46
0.0
 47
0.0
 48
0.0
140
0.18
141
0.09
142
0.0
143
25.4
144
1.0
145
0.0
146
1.0
147
0.09
 71
     0
 72
     0
 73
     1
 74
     1
 75
     0
 76
     0
 77
     0
 78
     0
170
     0
171
     2
172
     0
173
     0
174
     0
175
     0
176
     0
177
     0
178
     0
  0
ENDTAB
  0
ENDSEC
  0
SECTION
  2
BLOCKS
  0
BLOCK
  8
0
  2
$MODEL_SPACE
 70
     0
 10
0.0
 20
0.0
 30
0.0
  3
$MODEL_SPACE
  1

  0
ENDBLK
  5
21
  8
0
  0
BLOCK
 67
     1
  8
0
  2
$PAPER_SPACE
 70
     0
 10
0.0
 20
0.0
 30
0.0
  3
$PAPER_SPACE
  1

  0
ENDBLK
  5
1D
 67
     1
  8
0
  0
BLOCK
  8
0
  2
PLATE_NAANSPLIT_REV2
 70
     0
 10
0.0
 20
0.0
 30
0.0
  3
PLATE_NAANSPLIT_REV2
  1

  0
INSERT
  5
119
  8
0
  2
PLATE_NAANSPLIT_REV2_LEFT
 10
0.0
 20
-0.0000000000001279
 30
0.0
  0
INSERT
  5
194
  8
0
  2
PLATE_NAANSPLIT_REV2_RIGHT
 10
0.0
 20
-0.0000000000001279
 30
0.0
  0
ENDBLK
  5
196
  8
0
  0
BLOCK
  8
0
  2
PLATE_NAANSPLIT_REV2_LEFT
 70
     0
 10
0.0
 20
0.0
 30
0.0
  3
PLATE_NAANSPLIT_REV2_LEFT
  1

  0
ARC
  5
72
  8
PLATE$SWITCHHOLES
 10
-60.47499800000024
 20
-76.84375501244465
 30
0.0
 40
0.499999999999801
 50
89.99999999997394
 51
179.9999999999772
  0
LINE
  5
73
  8
PLATE$SWITCHHOLES
 10
-60.97499800000001
 20
-76.84375501244484
 30
0.0
 11
-60.97499799999996
 21
-89.84375501244484
 31
0.0
  0
ARC
  5
74
  8
PLATE$SWITCHHOLES
 10
-60.47499799999987
 20
-89.84375501244473
 30
0.0
 40
0.5000000000001137
 50
179.999999999987
 51
269.999999999987
  0
LINE
  5
75
  8
PLATE$SWITCHHOLES
 10
-60.47499799999996
 20
-90.34375501244484
 30
0.0
 11
-6.993754000000022
 21
-90.34376201244483
 31
0.0
  0
ARC
  5
76
  8
PLATE$SWITCHHOLES
 10
-6.993753999999965
 20
-89.84376301244488
 30
0.0
 40
0.4999989999999457
 50
269.9999999999935
 51
0.0000000000065138
  0
LINE
  5
77
  8
PLATE$SWITCHHOLES
 10
-6.49375500000002
 20
-89.84376301244482
 30
0.0
 11
-6.493755000001043
 21
-76.84376401600913
 31
0.0
  0
ARC
  5
78
  8
PLATE$SWITCHHOLES
 10
-6.99375500000002
 20
-76.84376301244482
 30
0.0
 40
0.4999999999999839
 50
359.9998850000014
 51
89.99988500000146
  0
LINE
  5
79
  8
PLATE$SWITCHHOLES
 10
-6.993753996435712
 20
-76.34376301244585
 30
0.0
 11
-9.86926199999999
 21
-76.34376301244482
 31
0.0
  0
LINE
  5
7A
  8
PLATE$SWITCHHOLES
 10
-9.86926199999999
 20
-76.34376301244482
 30
0.0
 11
-9.86926199999999
 21
-75.34376401244482
 31
0.0
  0
LINE
  5
7B
  8
PLATE$SWITCHHOLES
 10
-9.86926199999999
 20
-75.34376401244482
 30
0.0
 11
-12.36926199999999
 21
-75.34376401244482
 31
0.0
  0
LINE
  5
7C
  8
PLATE$SWITCHHOLES
 10
-12.36926199999999
 20
-75.34376401244482
 30
0.0
 11
-12.36926199999999
 21
-76.34376301244482
 31
0.0
  0
LINE
  5
7D
  8
PLATE$SWITCHHOLES
 10
-12.36926199999999
 20
-76.34376301244482
 30
0.0
 11
-28.919262
 21
-76.34376301244482
 31
0.0
  0
LINE
  5
7E
  8
PLATE$SWITCHHOLES
 10
-28.919262
 20
-76.34376301244482
 30
0.0
 11
-28.919262
 21
-75.34376401244482
 31
0.0
  0
LINE
  5
7F
  8
PLATE$SWITCHHOLES
 10
-28.919262
 20
-75.34376401244482
 30
0.0
 11
-31.419262
 21
-75.34376401244482
 31
0.0
  0
LINE
  5
80
  8
PLATE$SWITCHHOLES
 10
-31.419262
 20
-75.34376401244482
 30
0.0
 11
-31.419262
 21
-76.34376301244482
 31
0.0
  0
LINE
  5
81
  8
PLATE$SWITCHHOLES
 10
-31.419262
 20
-76.34376301244482
 30
0.0
 11
-33.668246
 21
-76.34376301244482
 31
0.0
  0
LINE
  5
82
  8
PLATE$SWITCHHOLES
 10
-33.668246
 20
-76.34376301244482
 30
0.0
 11
-33.668246
 21
-75.34376401244482
 31
0.0
  0
LINE
  5
83
  8
PLATE$SWITCHHOLES
 10
-33.668246
 20
-75.34376401244482
 30
0.0
 11
-36.168246
 21
-75.34376401244482
 31
0.0
  0
LINE
  5
84
  8
PLATE$SWITCHHOLES
 10
-36.168246
 20
-75.34376401244482
 30
0.0
 11
-36.168246
 21
-76.34376301244482
 31
0.0
  0
LINE
  5
85
  8
PLATE$SWITCHHOLES
 10
-36.168246
 20
-76.34376301244482
 30
0.0
 11
-52.71824600000001
 21
-76.34376301244482
 31
0.0
  0
LINE
  5
86
  8
PLATE$SWITCHHOLES
 10
-52.71824600000001
 20
-76.34376301244482
 30
0.0
 11
-52.71824600000001
 21
-75.34376401244482
 31
0.0
  0
LINE
  5
87
  8
PLATE$SWITCHHOLES
 10
-52.71824600000001
 20
-75.34376401244482
 30
0.0
 11
-55.21824600000001
 21
-75.34376401244482
 31
0.0
  0
LINE
  5
88
  8
PLATE$SWITCHHOLES
 10
-55.21824600000001
 20
-75.34376401244482
 30
0.0
 11
-55.21824600000001
 21
-76.34376301244482
 31
0.0
  0
LINE
  5
89
  8
PLATE$SWITCHHOLES
 10
-55.21824600000001
 20
-76.34376301244482
 30
0.0
 11
-60.47499800000001
 21
-76.34375501244484
 31
0.0
  0
ARC
  5
8A
  8
PLATE$SWITCHHOLES
 10
-108.0999980000001
 20
-76.84375501244473
 30
0.0
 40
0.4999999999998863
 50
89.99999999999022
 51
179.999999999987
  0
LINE
  5
8B
  8
PLATE$SWITCHHOLES
 10
-108.599998
 20
-76.84375501244484
 30
0.0
 11
-108.599998
 21
-89.84375501244484
 31
0.0
  0
ARC
  5
8C
  8
PLATE$SWITCHHOLES
 10
-108.0999979999999
 20
-89.84375501244479
 30
0.0
 40
0.5000000000000568
 50
179.9999999999935
 51
269.9999999999935
  0
LINE
  5
8D
  8
PLATE$SWITCHHOLES
 10
-108.099998
 20
-90.34375501244484
 30
0.0
 11
-90.33750500000001
 21
-90.34375901244483
 31
0.0
  0
ARC
  5
8E
  8
PLATE$SWITCHHOLES
 10
-90.33750500000026
 20
-89.8437590124445
 30
0.0
 40
0.5000000000003411
 50
270.0000000000293
 51
0.0000000000390827
  0
LINE
  5
8F
  8
PLATE$SWITCHHOLES
 10
-89.83750500000001
 20
-89.84375901244483
 30
0.0
 11
-89.83750500000001
 21
-76.84375901244483
 31
0.0
  0
ARC
  5
90
  8
PLATE$SWITCHHOLES
 10
-90.33750500000018
 20
-76.84375901244498
 30
0.0
 40
0.5000000000001421
 50
0.0000000000162844
 51
89.99999999998371
  0
LINE
  5
91
  8
PLATE$SWITCHHOLES
 10
-90.33750500000001
 20
-76.34375901244483
 30
0.0
 11
-108.099998
 21
-76.34375501244484
 31
0.0
  0
ARC
  5
92
  8
PLATE$SWITCHHOLES
 10
-84.28749800000021
 20
-76.84375501244467
 30
0.0
 40
0.4999999999998295
 50
89.99999999997719
 51
179.9999999999804
  0
LINE
  5
93
  8
PLATE$SWITCHHOLES
 10
-84.78749800000001
 20
-76.84375501244484
 30
0.0
 11
-84.78749799999996
 21
-89.84375501244484
 31
0.0
  0
ARC
  5
94
  8
PLATE$SWITCHHOLES
 10
-84.2874979999999
 20
-89.84375501244479
 30
0.0
 40
0.5000000000000853
 50
179.9999999999935
 51
269.9999999999902
  0
LINE
  5
95
  8
PLATE$SWITCHHOLES
 10
-84.28749799999996
 20
-90.34375501244484
 30
0.0
 11
-66.52499799999997
 21
-90.34375501244484
 31
0.0
  0
ARC
  5
96
  8
PLATE$SWITCHHOLES
 10
-66.52499800000031
 20
-89.8437550124445
 30
0.0
 40
0.5000000000003411
 50
270.0000000000358
 51
0.0000000000390827
  0
LINE
  5
97
  8
PLATE$SWITCHHOLES
 10
-66.02499799999997
 20
-89.84375501244484
 30
0.0
 11
-66.02499800000002
 21
-76.84375501244484
 31
0.0
  0
ARC
  5
98
  8
PLATE$SWITCHHOLES
 10
-66.52499800000005
 20
-76.84375501244484
 30
0.0
 40
0.5000000000000284
 50
0.0
 51
89.99999999999675
  0
LINE
  5
99
  8
PLATE$SWITCHHOLES
 10
-66.52499800000002
 20
-76.34375501244484
 30
0.0
 11
-84.28749800000001
 21
-76.34375501244484
 31
0.0
  0
LINE
  5
9A
  8
PLATE
 10
-21.11874943678009
 20
-49.60625489431528
 30
0.0
 11
-4.275003160188077
 21
-49.60625309567367
 31
0.0
  0
ARC
  5
9B
  8
PLATE
 10
4.275003000012474
 20
-51.10625309567435
 30
0.0
 40
1.500000000000691
 50
89.99999388174375
 51
179.9999999995951
210
0.0
220
0.0
230
-1.0
  0
LINE
  5
9C
  8
PLATE
 10
-2.775003000011793
 20
-51.10625309568492
 30
0.0
 11
-2.775003000010997
 21
-91.76875898458913
 31
0.0
  0
ARC
  5
9D
  8
PLATE
 10
4.275003000010996
 20
-91.76875898458901
 30
0.0
 40
1.5
 50
179.9999999999967
 51
270.0000014509099
210
0.0
220
0.0
230
-1.0
  0
LINE
  5
9E
  8
PLATE
 10
-4.275003037995758
 20
-93.26875898458901
 30
0.0
 11
-160.0312482112133
 21
-93.26875504030058
 31
0.0
  0
ARC
  5
9F
  8
PLATE
 10
160.0312481732281
 20
-91.76875504030046
 30
0.0
 40
1.500000000000114
 50
270.0000014509273
 51
359.9999909770366
210
0.0
220
0.0
230
-1.0
  0
LINE
  5
A0
  8
PLATE
 10
-161.5312481732282
 20
-91.76875527652113
 30
0.0
 11
-161.5312538267716
 21
-55.86876324866513
 31
0.0
  0
ARC
  5
A1
  8
PLATE
 10
160.0312538267715
 20
-55.86876301244475
 30
0.0
 40
1.500000000000061
 50
359.9999909770459
 51
89.99999999999784
210
0.0
220
0.0
230
-1.0
  0
LINE
  5
A2
  8
PLATE
 10
-160.0312538267716
 20
-54.36876301244469
 30
0.0
 11
-153.5062490000001
 21
-54.36876301244492
 31
0.0
  0
ARC
  5
A3
  8
PLATE
 10
-153.5062490000001
 20
-52.8687630124448
 30
0.0
 40
1.500000000000114
 50
270.0000000000032
 51
0.0000000000043425
  0
LINE
  5
A4
  8
PLATE
 10
-152.006249
 20
-52.86876301244492
 30
0.0
 11
-152.006249
 21
-36.81876141808484
 31
0.0
  0
ARC
  5
A5
  8
PLATE
 10
150.5062490000001
 20
-36.81876141808478
 30
0.0
 40
1.499999999999915
 50
0.0000000000016284
 51
89.9999690415209
210
0.0
220
0.0
230
-1.0
  0
LINE
  5
A6
  8
PLATE
 10
-150.5062498104912
 20
-35.31876141808507
 30
0.0
 11
-148.7437531895088
 21
-35.31876046575976
 31
0.0
  0
ARC
  5
A7
  8
PLATE
 10
-148.7437539999999
 20
-33.81876046575999
 30
0.0
 40
1.499999999999991
 50
270.0000309584823
 51
0.0
  0
LINE
  5
A8
  8
PLATE
 10
-147.243754
 20
-33.81876046575987
 30
0.0
 11
-147.243754
 21
-17.76876100403001
 31
0.0
  0
ARC
  5
A9
  8
PLATE
 10
145.7437540000001
 20
-17.76876100402995
 30
0.0
 40
1.499999999999943
 50
0.0000000000016284
 51
89.99999956170105
210
0.0
220
0.0
230
-1.0
  0
LINE
  5
AA
  8
PLATE
 10
-145.7437540114747
 20
-16.26876100403001
 30
0.0
 11
-139.2187497096702
 21
-16.26876095411501
 31
0.0
  0
ARC
  5
AB
  8
PLATE
 10
-139.2187497211449
 20
-14.76876095411506
 30
0.0
 40
1.499999999999943
 50
270.0000004383
 51
359.9999975907556
  0
LINE
  5
AC
  8
PLATE
 10
-137.7187497211449
 20
-14.7687610171888
 30
0.0
 11
-137.7187490462535
 21
1.281239067029332
 31
0.0
  0
ARC
  5
AD
  8
PLATE
 10
136.2187490462535
 20
1.281239003955477
 30
0.0
 40
1.499999999999973
 50
0.0000024092438108
 51
89.99999914578234
210
0.0
220
0.0
230
-1.0
  0
LINE
  5
AE
  8
PLATE
 10
-136.2187490686169
 20
2.78123900395542
 30
0.0
 11
-24.11875458664274
 21
2.781240675296771
 31
0.0
  0
ARC
  5
AF
  8
PLATE
 10
24.11875456427838
 20
1.281240675296942
 30
0.0
 40
1.499999999999829
 50
89.99999914574434
 51
179.9999942373167
210
0.0
220
0.0
230
-1.0
  0
LINE
  5
B0
  8
PLATE
 10
-22.61875456427856
 20
1.281240826163639
 30
0.0
 11
-22.61874959695598
 21
-48.10625504518306
 31
0.0
  0
ARC
  5
B1
  8
PLATE
 10
-21.11874959695598
 20
-48.10625489431534
 30
0.0
 40
1.500000000000008
 50
180.000005762723
 51
270.0000061182687
  0
LINE
  5
B2
  8
PLATE$SWITCHHOLES
 10
-137.462498
 20
-89.84375501244484
 30
0.0
 11
-137.462498
 21
-76.84375501244484
 31
0.0
  0
ARC
  5
B3
  8
PLATE$SWITCHHOLES
 10
-137.9624980000001
 20
-76.84375501244487
 30
0.0
 40
0.5000000000000568
 50
0.0000000000032569
 51
89.99999999999349
  0
LINE
  5
B4
  8
PLATE$SWITCHHOLES
 10
-137.962498
 20
-76.34375501244484
 30
0.0
 11
-155.724998
 21
-76.34375501244487
 31
0.0
  0
ARC
  5
B5
  8
PLATE$SWITCHHOLES
 10
-155.7249980000001
 20
-76.84375501244484
 30
0.0
 40
0.4999999999999716
 50
89.99999999999349
 51
179.9999999999967
  0
LINE
  5
B6
  8
PLATE$SWITCHHOLES
 10
-156.224998
 20
-76.84375501244487
 30
0.0
 11
-156.224998
 21
-89.84375501244484
 31
0.0
  0
ARC
  5
B7
  8
PLATE$SWITCHHOLES
 10
-155.7249979999999
 20
-89.84375501244479
 30
0.0
 40
0.5000000000000568
 50
179.9999999999935
 51
269.9999999999935
  0
LINE
  5
B8
  8
PLATE$SWITCHHOLES
 10
-155.724998
 20
-90.34375501244484
 30
0.0
 11
-137.962498
 21
-90.34375501244484
 31
0.0
  0
ARC
  5
B9
  8
PLATE$SWITCHHOLES
 10
-137.9624980000001
 20
-89.84375501244473
 30
0.0
 40
0.5000000000001137
 50
270.000000000013
 51
0.0000000000130276
  0
ARC
  5
BA
  8
PLATE$SWITCHHOLES
 10
-131.912498
 20
-76.8437550124449
 30
0.0
 40
0.5
 50
90.0
 51
180.0
  0
LINE
  5
BB
  8
PLATE$SWITCHHOLES
 10
-132.412498
 20
-76.8437550124449
 30
0.0
 11
-132.412498
 21
-89.84375501244484
 31
0.0
  0
ARC
  5
BC
  8
PLATE$SWITCHHOLES
 10
-131.912498
 20
-89.84375501244496
 30
0.0
 40
0.4999999999999432
 50
179.999999999987
 51
270.0000000000065
  0
LINE
  5
BD
  8
PLATE$SWITCHHOLES
 10
-131.912498
 20
-90.34375501244484
 30
0.0
 11
-114.150005
 21
-90.34375501244484
 31
0.0
  0
ARC
  5
BE
  8
PLATE$SWITCHHOLES
 10
-114.1500050000003
 20
-89.8437550124445
 30
0.0
 40
0.5000000000003411
 50
270.0000000000293
 51
0.0000000000390827
  0
LINE
  5
BF
  8
PLATE$SWITCHHOLES
 10
-113.650005
 20
-89.84375501244484
 30
0.0
 11
-113.650005
 21
-76.8437550124449
 31
0.0
  0
ARC
  5
C0
  8
PLATE$SWITCHHOLES
 10
-114.1500050000001
 20
-76.84375501244499
 30
0.0
 40
0.5000000000000568
 50
0.0000000000097707
 51
89.99999999999349
  0
LINE
  5
C1
  8
PLATE$SWITCHHOLES
 10
-114.150005
 20
-76.34375501244487
 30
0.0
 11
-131.912498
 21
-76.3437550124449
 31
0.0
  0
INSERT
  5
D7
  8
2D$SWITCHHOLES
  2
SWITCHHOLE_14MM_2U
 10
-139.7000040000001
 20
-64.29376300888254
 30
0.0
  0
INSERT
  5
E4
  8
PLATE$SWITCHHOLES
  2
SWITCHHOLE_14MM
 10
-127.793749
 20
-7.143761012444884
 30
0.0
  0
INSERT
  5
E5
  8
PLATE$SWITCHHOLES
  2
SWITCHHOLE_14MM
 10
-108.743751
 20
-7.143761012444884
 30
0.0
  0
INSERT
  5
E6
  8
PLATE$SWITCHHOLES
  2
SWITCHHOLE_14MM
 10
-89.69374700000003
 20
-7.143760012444886
 30
0.0
  0
INSERT
  5
E7
  8
PLATE$SWITCHHOLES
  2
SWITCHHOLE_14MM
 10
-70.643752
 20
-7.143762012444881
 30
0.0
  0
INSERT
  5
E8
  8
PLATE$SWITCHHOLES
  2
SWITCHHOLE_14MM
 10
-51.59374800000001
 20
-7.143755012444899
 30
0.0
  0
INSERT
  5
E9
  8
PLATE$SWITCHHOLES
  2
SWITCHHOLE_14MM
 10
-32.54375500000003
 20
-7.143759012444889
 30
0.0
  0
INSERT
  5
EA
  8
PLATE$SWITCHHOLES
  2
SWITCHHOLE_14MM
 10
-108.743743
 20
-26.19375901244484
 30
0.0
  0
INSERT
  5
EB
  8
PLATE$SWITCHHOLES
  2
SWITCHHOLE_14MM
 10
-89.69373900000002
 20
-26.19375801244485
 30
0.0
  0
INSERT
  5
EC
  8
PLATE$SWITCHHOLES
  2
SWITCHHOLE_14MM
 10
-70.643744
 20
-26.19376001244484
 30
0.0
  0
INSERT
  5
ED
  8
PLATE$SWITCHHOLES
  2
SWITCHHOLE_14MM
 10
-51.59374
 20
-26.19375301244486
 30
0.0
  0
INSERT
  5
EE
  8
PLATE$SWITCHHOLES
  2
SWITCHHOLE_14MM
 10
-32.54374700000002
 20
-26.19375701244485
 30
0.0
  0
INSERT
  5
EF
  8
PLATE$SWITCHHOLES
  2
SWITCHHOLE_14MM
 10
-108.743744
 20
-45.2437600124448
 30
0.0
  0
INSERT
  5
F0
  8
PLATE$SWITCHHOLES
  2
SWITCHHOLE_14MM
 10
-89.69374000000002
 20
-45.24375901244491
 30
0.0
  0
INSERT
  5
F1
  8
PLATE$SWITCHHOLES
  2
SWITCHHOLE_14MM
 10
-70.643745
 20
-45.24376101244491
 30
0.0
  0
INSERT
  5
F2
  8
PLATE$SWITCHHOLES
  2
SWITCHHOLE_14MM
 10
-51.59374099999999
 20
-45.24375401244481
 30
0.0
  0
INSERT
  5
F3
  8
PLATE$SWITCHHOLES
  2
SWITCHHOLE_14MM
 10
-32.54374800000002
 20
-45.2437580124448
 30
0.0
  0
INSERT
  5
F4
  8
PLATE$SWITCHHOLES
  2
SWITCHHOLE_14MM
 10
-108.743748
 20
-64.29376501244485
 30
0.0
  0
INSERT
  5
F5
  8
PLATE$SWITCHHOLES
  2
SWITCHHOLE_14MM
 10
-89.69374400000001
 20
-64.29376401244485
 30
0.0
  0
INSERT
  5
F6
  8
PLATE$SWITCHHOLES
  2
SWITCHHOLE_14MM
 10
-70.64374899999999
 20
-64.29376601244485
 30
0.0
  0
INSERT
  5
F7
  8
PLATE$SWITCHHOLES
  2
SWITCHHOLE_14MM
 10
-51.59374499999998
 20
-64.29375901244487
 30
0.0
  0
INSERT
  5
F8
  8
PLATE$SWITCHHOLES
  2
SWITCHHOLE_14MM
 10
-32.54375200000001
 20
-64.29376301244486
 30
0.0
  0
POINT
  5
F9
  8
PLATE$SWITCHHOLES
 10
-51.59375499999997
 20
-83.34375901244483
 30
0.0
  0
POINT
  5
FA
  8
PLATE$SWITCHHOLES
 10
-42.068755
 20
-83.34375901244483
 30
0.0
  0
POINT
  5
FB
  8
PLATE$SWITCHHOLES
 10
-23.018755
 20
-83.34375901244483
 30
0.0
  0
POINT
  5
FC
  8
PLATE$SWITCHHOLES
 10
-13.49375500000002
 20
-83.34375901244483
 30
0.0
  0
POINT
  5
FD
  8
PLATE$SWITCHHOLES
 10
-53.97499800000001
 20
-83.34375501244484
 30
0.0
  0
INSERT
  5
FE
  8
PLATE$SWITCHHOLES
  2
SWITCHHOLE_14MM
 10
-134.937499
 20
-45.24376201244479
 30
0.0
  0
INSERT
  5
FF
  8
PLATE$SWITCHHOLES
  2
SWITCHHOLE_14MM
 10
-132.556254
 20
-26.19376101244484
 30
0.0
  0
POINT
  5
100
  8
PLATE$SWITCHHOLES
 10
-144.462498
 20
-83.34375501244484
 30
0.0
  0
POINT
  5
101
  8
PLATE$SWITCHHOLES
 10
-120.650005
 20
-83.34375501244484
 30
0.0
  0
POINT
  5
102
  8
PLATE$SWITCHHOLES
 10
-101.599998
 20
-83.34375501244484
 30
0.0
  0
POINT
  5
103
  8
PLATE$SWITCHHOLES
 10
-96.83750500000002
 20
-83.34375901244483
 30
0.0
  0
POINT
  5
104
  8
PLATE$SWITCHHOLES
 10
-77.78749800000001
 20
-83.34375501244484
 30
0.0
  0
POINT
  5
105
  8
PLATE$SWITCHHOLES
 10
-73.02499799999997
 20
-83.34375501244484
 30
0.0
  0
INSERT
  5
10B
  8
PLATE
  2
2D_M2_2_2MM
 10
-118.268749544156
 20
-16.66876114231775
 30
0.0
  0
INSERT
  5
10C
  8
PLATE
  2
2D_M2_2_2MM
 10
-146.843754
 20
-45.24376101244479
 30
0.0
  0
INSERT
  5
10D
  8
PLATE
  2
2D_M2_2_2MM
 10
-61.11874800000001
 20
-73.81875501244474
 30
0.0
  0
INSERT
  5
10E
  8
PLATE
  2
2D_M2_2_2MM
 10
-15.87499800000001
 20
-71.43750501244483
 30
0.0
  0
INSERT
  5
10F
  8
PLATE
  2
2D_M2_2_2MM
 10
-6.349998000000028
 20
-71.43750501244483
 30
0.0
  0
INSERT
  5
110
  8
PLATE
  2
2D_M2_2_2MM
 10
-42.06875510503323
 20
-16.66875836700046
 30
0.0
  0
INSERT
  5
111
  8
PLATE
  2
2D_M2_2_2MM
 10
-80.16874791219044
 20
-35.71875906566117
 30
0.0
  0
INSERT
  5
112
  8
PLATE$SWITCHHOLES
  2
SWITCHHOLE_14MM
 10
-12.69999800000005
 20
-59.53125501244483
 30
0.0
  0
INSERT
  5
113
  8
PLATE
  2
2D_M2_2_2MM
 10
-121.443748
 20
-70.64375501244487
 30
0.0
  0
POINT
  5
114
  8
PLATE$SWITCHHOLES
 10
-149.224998
 20
-83.3437550124449
 30
0.0
  0
POINT
  5
115
  8
PLATE$SWITCHHOLES
 10
-125.412498
 20
-83.3437550124449
 30
0.0
  0
INSERT
  5
116
  8
PLATE
  2
2D_M2_2_2MM
 10
-134.937498
 20
-76.99375501244484
 30
0.0
  0
ENDBLK
  5
118
  8
0
  0
BLOCK
  8
0
  2
SWITCHHOLE_14MM_2U
 70
     0
 10
0.0
 20
0.0
 30
0.0
  3
SWITCHHOLE_14MM_2U
  1

  0
POINT
  5
C4
  8
2D$SWITCHHOLES
 10
0.0
 20
-0.0000000035622776
 30
0.0
  0
ARC
  5
C5
  8
2D$SWITCHHOLES
 10
15.27449999999999
 20
-6.500000003562313
 30
0.0
 40
0.5
 50
270.0
 51
0.0
  0
LINE
  5
C6
  8
2D$SWITCHHOLES
 10
15.77449999999999
 20
-6.500000003562313
 30
0.0
 11
15.77449999999999
 21
6.500001000000012
 31
0.0
  0
ARC
  5
C7
  8
2D$SWITCHHOLES
 10
15.27449999999999
 20
6.500001000000012
 30
0.0
 40
0.5
 50
0.0
 51
90.0
  0
LINE
  5
C8
  8
2D$SWITCHHOLES
 10
15.27449999999999
 20
7.000001000000012
 30
0.0
 11
-15.27450000000005
 21
7.000001000000012
 31
0.0
  0
ARC
  5
C9
  8
2D$SWITCHHOLES
 10
-15.27450000000005
 20
6.500000000000014
 30
0.0
 40
0.500001
 50
90.0
 51
180.0
  0
LINE
  5
CA
  8
2D$SWITCHHOLES
 10
-15.77450100000004
 20
6.500000000000014
 30
0.0
 11
-15.77449899999903
 21
-6.499999999999993
 31
0.0
  0
ARC
  5
CB
  8
2D$SWITCHHOLES
 10
-15.27450000000005
 20
-6.500001003562311
 30
0.0
 40
0.499999
 50
179.9998849999999
 51
269.9998849999998
  0
LINE
  5
CC
  8
2D$SWITCHHOLES
 10
-15.27450100356236
 20
-7.00000000356129
 30
0.0
 11
-13.14949200000007
 21
-7.000000003562313
 31
0.0
  0
LINE
  5
CD
  8
2D$SWITCHHOLES
 10
-13.14949200000007
 20
-7.000000003562313
 30
0.0
 11
-13.14949200000007
 21
-8.000000003562313
 31
0.0
  0
LINE
  5
CE
  8
2D$SWITCHHOLES
 10
-13.14949200000007
 20
-8.000000003562313
 30
0.0
 11
-10.64949200000007
 21
-8.000000003562313
 31
0.0
  0
LINE
  5
CF
  8
2D$SWITCHHOLES
 10
-10.64949200000007
 20
-8.000000003562313
 30
0.0
 11
-10.64949200000007
 21
-7.000000003562313
 31
0.0
  0
LINE
  5
D0
  8
2D$SWITCHHOLES
 10
-10.64949200000007
 20
-7.000000003562313
 30
0.0
 11
10.64949200000001
 21
-7.000000003562313
 31
0.0
  0
LINE
  5
D1
  8
2D$SWITCHHOLES
 10
10.64949200000001
 20
-7.000000003562313
 30
0.0
 11
10.64949200000001
 21
-8.000000003562313
 31
0.0
  0
LINE
  5
D2
  8
2D$SWITCHHOLES
 10
10.64949200000001
 20
-8.000000003562313
 30
0.0
 11
13.14949200000001
 21
-8.000000003562313
 31
0.0
  0
LINE
  5
D3
  8
2D$SWITCHHOLES
 10
13.14949200000001
 20
-8.000000003562313
 30
0.0
 11
13.14949200000001
 21
-7.000000003562313
 31
0.0
  0
LINE
  5
D4
  8
2D$SWITCHHOLES
 10
13.14949200000001
 20
-7.000000003562313
 30
0.0
 11
15.27449999999999
 21
-7.000000003562313
 31
0.0
  0
ENDBLK
  5
D6
  8
0
  0
BLOCK
  8
0
  2
SWITCHHOLE_14MM
 70
     0
 10
0.0
 20
0.0
 30
0.0
  3
SWITCHHOLE_14MM
  1

  0
LINE
  5
D9
  8
PLATE$SWITCHHOLES
 10
-6.499999999999972
 20
-7.0
 30
0.0
 11
6.5
 21
-7.0
 31
0.0
  0
ARC
  5
DA
  8
PLATE$SWITCHHOLES
 10
6.5
 20
-6.5
 30
0.0
 40
0.5
 50
270.0000000000001
 51
0.0
  0
LINE
  5
DB
  8
PLATE$SWITCHHOLES
 10
7.0
 20
-6.5
 30
0.0
 11
7.0
 21
6.5
 31
0.0
  0
ARC
  5
DC
  8
PLATE$SWITCHHOLES
 10
6.499999999999977
 20
6.499999999999978
 30
0.0
 40
0.5000000000000231
 50
0.0000000000025444
 51
89.99999999999736
  0
LINE
  5
DD
  8
PLATE$SWITCHHOLES
 10
6.5
 20
7.0
 30
0.0
 11
-6.5
 21
7.0
 31
0.0
  0
ARC
  5
DE
  8
PLATE$SWITCHHOLES
 10
-6.5
 20
6.5
 30
0.0
 40
0.5
 50
89.9999999999998
 51
180.0
  0
LINE
  5
DF
  8
PLATE$SWITCHHOLES
 10
-7.0
 20
6.5
 30
0.0
 11
-6.999999999999972
 21
-6.5
 31
0.0
  0
ARC
  5
E0
  8
PLATE$SWITCHHOLES
 10
-6.499999999999972
 20
-6.5
 30
0.0
 40
0.5
 50
179.9999999999993
 51
270.0
  0
POINT
  5
E1
  8
PLATE$SWITCHHOLES
 10
0.0
 20
0.0
 30
0.0
  0
ENDBLK
  5
E3
  8
0
  0
BLOCK
  8
0
  2
2D_M2_2_2MM
 70
     0
 10
0.0
 20
0.0
 30
0.0
  3
2D_M2_2_2MM
  1

  0
POINT
  5
107
  8
PLATE
 10
0.0
 20
0.0
 30
0.0
  0
CIRCLE
  5
108
  8
PLATE
 10
0.0
 20
0.0
 30
0.0
 40
1.100000000000023
  0
ENDBLK
  5
10A
  8
0
  0
BLOCK
  8
0
  2
PLATE_NAANSPLIT_REV2_RIGHT
 70
     0
 10
0.0
 20
0.0
 30
0.0
  3
PLATE_NAANSPLIT_REV2_RIGHT
  1

  0
INSERT
  5
11B
  8
PLATE
  2
2D_M2_2_2MM
 10
157.1625019999999
 20
-45.24375501244486
 30
0.0
  0
INSERT
  5
11C
  8
2D$SWITCHHOLES
  2
SWITCHHOLE_14MM_2U
 10
139.7000019999999
 20
-45.24375500888254
 30
0.0
  0
INSERT
  5
11D
  8
PLATE$SWITCHHOLES
  2
SWITCHHOLE_14MM
 10
12.70000899999991
 20
-59.53125101244484
 30
0.0
  0
INSERT
  5
11E
  8
PLATE
  2
2D_M2_2_2MM
 10
42.06875200000002
 20
-16.66875501244488
 30
0.0
  0
INSERT
  5
11F
  8
PLATE
  2
2D_M2_2_2MM
 10
80.16875200000004
 20
-35.71875501244483
 30
0.0
  0
INSERT
  5
120
  8
PLATE
  2
2D_M2_2_2MM
 10
118.2687519999998
 20
-16.66875501244476
 30
0.0
  0
INSERT
  5
121
  8
PLATE
  2
2D_M2_2_2MM
 10
61.11875199999997
 20
-73.81875501244474
 30
0.0
  0
INSERT
  5
122
  8
PLATE
  2
2D_M2_2_2MM
 10
15.87500199999999
 20
-71.43750501244483
 30
0.0
  0
INSERT
  5
123
  8
PLATE
  2
2D_M2_2_2MM
 10
6.350001999999961
 20
-71.43750501244483
 30
0.0
  0
ARC
  5
124
  8
PLATE
 10
-4.27500884601956
 20
-51.10625101244492
 30
0.0
 40
1.500000000000029
 50
0.000008020392018
 51
89.99999999999947
210
0.0
220
0.0
230
-1.0
  0
LINE
  5
125
  8
PLATE
 10
4.275008846019545
 20
-49.6062510124449
 30
0.0
 11
21.11875199999991
 21
-49.6062510124449
 31
0.0
  0
ARC
  5
126
  8
PLATE
 10
21.11875199999999
 20
-48.10625101244491
 30
0.0
 40
1.499999999999979
 50
269.999999999997
 51
0.0000000000008142
  0
LINE
  5
127
  8
PLATE
 10
22.61875199999997
 20
-48.1062510124449
 30
0.0
 11
22.61875199999985
 21
1.281244987555169
 31
0.0
  0
ARC
  5
128
  8
PLATE
 10
-24.1187519999999
 20
1.281244987555131
 30
0.0
 40
1.500000000000039
 50
0.0000000000014673
 51
89.99999999999851
210
0.0
220
0.0
230
-1.0
  0
LINE
  5
129
  8
PLATE
 10
24.11875199999985
 20
2.781244987555169
 30
0.0
 11
155.2687520000003
 21
2.781244987555169
 31
0.0
  0
ARC
  5
12A
  8
PLATE
 10
-155.2687520000001
 20
1.281244987555141
 30
0.0
 40
1.500000000000028
 50
90.00000000000325
 51
179.9999999999989
210
0.0
220
0.0
230
-1.0
  0
LINE
  5
12B
  8
PLATE
 10
156.7687520000001
 20
1.281244987555169
 30
0.0
 11
156.7687520000001
 21
-33.81875501244502
 31
0.0
  0
ARC
  5
12C
  8
PLATE
 10
158.2687520000001
 20
-33.81875501244498
 30
0.0
 40
1.5
 50
179.9999999999984
 51
270.0
  0
LINE
  5
12D
  8
PLATE
 10
158.2687520000001
 20
-35.31875501244502
 30
0.0
 11
160.0312520000001
 21
-35.31875501244502
 31
0.0
  0
ARC
  5
12E
  8
PLATE
 10
-160.031252
 20
-36.81875501244499
 30
0.0
 40
1.500000000000021
 50
90.0000000000011
 51
179.9999999999992
210
0.0
220
0.0
230
-1.0
  0
LINE
  5
12F
  8
PLATE
 10
161.5312520000001
 20
-36.8187550124449
 30
0.0
 11
161.5312520000001
 21
-52.86875501244494
 31
0.0
  0
ARC
  5
130
  8
PLATE
 10
163.031252
 20
-52.86875501244496
 30
0.0
 40
1.499999999999972
 50
179.9999999999992
 51
270.0000000000011
  0
LINE
  5
131
  8
PLATE
 10
163.0312520000001
 20
-54.36875501244494
 30
0.0
 11
169.5562520000002
 21
-54.36875501244494
 31
0.0
  0
ARC
  5
132
  8
PLATE
 10
-169.5562520000002
 20
-55.86875501244486
 30
0.0
 40
1.499999999999943
 50
89.99999999999675
 51
179.9999999999957
210
0.0
220
0.0
230
-1.0
  0
LINE
  5
133
  8
PLATE
 10
171.0562520000002
 20
-55.86875501244494
 30
0.0
 11
171.0562520000002
 21
-72.71875501244496
 31
0.0
  0
ARC
  5
134
  8
PLATE
 10
-169.556252
 20
-72.7187550124447
 30
0.0
 40
1.500000000000114
 50
179.999999999993
 51
269.9999999999989
210
0.0
220
0.0
230
-1.0
  0
LINE
  5
135
  8
PLATE
 10
169.5562520000001
 20
-74.21875501244484
 30
0.0
 11
163.0312520000001
 21
-74.21875501244484
 31
0.0
  0
ARC
  5
136
  8
PLATE
 10
163.031252
 20
-75.71875501244482
 30
0.0
 40
1.499999999999986
 50
89.99999999999892
 51
179.9999999999973
  0
LINE
  5
137
  8
PLATE
 10
161.5312520000001
 20
-75.71875501244496
 30
0.0
 11
161.5312519999999
 21
-91.7687550124448
 31
0.0
  0
ARC
  5
138
  8
PLATE
 10
-160.0312519999998
 20
-91.7687550124448
 30
0.0
 40
1.499999999999972
 50
179.9999999999995
 51
270.0000000000032
210
0.0
220
0.0
230
-1.0
  0
LINE
  5
139
  8
PLATE
 10
160.0312519999997
 20
-93.2687550124448
 30
0.0
 11
4.275003153991803
 21
-93.2687550124448
 31
0.0
  0
ARC
  5
13A
  8
PLATE
 10
-4.275003153991817
 20
-91.76875501244483
 30
0.0
 40
1.499999999999957
 50
270.0000000000005
 51
0.0000080203944607
210
0.0
220
0.0
230
-1.0
  0
LINE
  5
13B
  8
PLATE
 10
2.77500315399186
 20
-91.76875480247135
 30
0.0
 11
2.775008846019545
 21
-51.10625080247145
 31
0.0
  0
ARC
  5
13C
  8
PLATE$SWITCHHOLES
 10
66.52500199999996
 20
-76.84375501244483
 30
0.0
 40
0.5
 50
89.99999999999837
 51
180.0
  0
LINE
  5
13D
  8
PLATE$SWITCHHOLES
 10
66.02500199999996
 20
-76.84375501244484
 30
0.0
 11
66.02500199999996
 21
-89.84375501244484
 31
0.0
  0
ARC
  5
13E
  8
PLATE$SWITCHHOLES
 10
66.52500199999997
 20
-89.84375501244483
 30
0.0
 40
0.5
 50
180.0
 51
270.0
  0
LINE
  5
13F
  8
PLATE$SWITCHHOLES
 10
66.52500199999996
 20
-90.34375501244484
 30
0.0
 11
81.90625199999998
 21
-90.34375501244484
 31
0.0
  0
ARC
  5
140
  8
PLATE$SWITCHHOLES
 10
81.906252
 20
-89.8437550124448
 30
0.0
 40
0.5000000000000284
 50
270.0
 51
0.0000000000032569
  0
LINE
  5
141
  8
PLATE$SWITCHHOLES
 10
82.40625199999998
 20
-89.84375501244484
 30
0.0
 11
82.40625199999998
 21
-76.84375501244484
 31
0.0
  0
ARC
  5
142
  8
PLATE$SWITCHHOLES
 10
81.90625199999994
 20
-76.84375501244486
 30
0.0
 40
0.5000000000000568
 50
0.0000000000032569
 51
89.99999999999349
  0
LINE
  5
143
  8
PLATE$SWITCHHOLES
 10
81.90625199999998
 20
-76.34375501244484
 30
0.0
 11
66.52500199999996
 21
-76.34375501244484
 31
0.0
  0
POINT
  5
144
  8
PLATE$SWITCHHOLES
 10
75.40625199999998
 20
-83.34375501244484
 30
0.0
  0
POINT
  5
145
  8
PLATE$SWITCHHOLES
 10
73.02500199999996
 20
-83.34375501244484
 30
0.0
  0
INSERT
  5
146
  8
PLATE$SWITCHHOLES
  2
SWITCHHOLE_14MM
 10
151.606252
 20
-83.34375501244483
 30
0.0
  0
INSERT
  5
147
  8
PLATE$SWITCHHOLES
  2
SWITCHHOLE_14MM
 10
132.556252
 20
-83.34375501244483
 30
0.0
  0
INSERT
  5
148
  8
PLATE$SWITCHHOLES
  2
SWITCHHOLE_14MM
 10
113.506252
 20
-83.34375501244483
 30
0.0
  0
INSERT
  5
149
  8
PLATE$SWITCHHOLES
  2
SWITCHHOLE_14MM
 10
94.45625199999995
 20
-83.34375501244483
 30
0.0
  0
POINT
  5
14A
  8
PLATE$SWITCHHOLES
 10
42.068755
 20
-83.34375901244483
 30
0.0
  0
POINT
  5
14B
  8
PLATE$SWITCHHOLES
 10
23.018755
 20
-83.34375901244483
 30
0.0
  0
POINT
  5
14C
  8
PLATE$SWITCHHOLES
 10
13.49375500000002
 20
-83.34375901244483
 30
0.0
  0
POINT
  5
14D
  8
PLATE$SWITCHHOLES
 10
53.97499800000001
 20
-83.34375501244484
 30
0.0
  0
POINT
  5
14E
  8
PLATE$SWITCHHOLES
 10
51.59375499999997
 20
-83.34375901244483
 30
0.0
  0
ARC
  5
14F
  8
PLATE$SWITCHHOLES
 10
-60.47499800000006
 20
-76.8437550124448
 30
0.0
 40
0.4999999999999716
 50
89.99999999999594
 51
179.9999999999967
210
0.0
220
0.0
230
-1.0
  0
LINE
  5
150
  8
PLATE$SWITCHHOLES
 10
60.97499800000001
 20
-76.84375501244484
 30
0.0
 11
60.97499800000001
 21
-89.84375501244484
 31
0.0
  0
ARC
  5
151
  8
PLATE$SWITCHHOLES
 10
-60.47499800000007
 20
-89.84375501244487
 30
0.0
 40
0.4999999999999574
 50
179.9999999999951
 51
270.0000000000049
210
0.0
220
0.0
230
-1.0
  0
LINE
  5
152
  8
PLATE$SWITCHHOLES
 10
60.47499800000001
 20
-90.34375501244484
 30
0.0
 11
6.993754000000022
 21
-90.34376201244483
 31
0.0
  0
ARC
  5
153
  8
PLATE$SWITCHHOLES
 10
-6.993754000000021
 20
-89.84376301244482
 30
0.0
 40
0.4999989999999883
 50
269.9999999999997
 51
0.0000000000016284
210
0.0
220
0.0
230
-1.0
  0
LINE
  5
154
  8
PLATE$SWITCHHOLES
 10
6.49375500000002
 20
-89.84376301244482
 30
0.0
 11
6.493755000001043
 21
-76.84376401600913
 31
0.0
  0
ARC
  5
155
  8
PLATE$SWITCHHOLES
 10
-6.993754999999961
 20
-76.84376301244475
 30
0.0
 40
0.4999999999999235
 50
359.9998849999949
 51
89.99988500000838
210
0.0
220
0.0
230
-1.0
  0
LINE
  5
156
  8
PLATE$SWITCHHOLES
 10
6.993753996435712
 20
-76.34376301244585
 30
0.0
 11
9.86926199999999
 21
-76.34376301244482
 31
0.0
  0
LINE
  5
157
  8
PLATE$SWITCHHOLES
 10
9.86926199999999
 20
-76.34376301244482
 30
0.0
 11
9.86926199999999
 21
-75.34376401244482
 31
0.0
  0
LINE
  5
158
  8
PLATE$SWITCHHOLES
 10
9.86926199999999
 20
-75.34376401244482
 30
0.0
 11
12.36926199999999
 21
-75.34376401244482
 31
0.0
  0
LINE
  5
159
  8
PLATE$SWITCHHOLES
 10
12.36926199999999
 20
-75.34376401244482
 30
0.0
 11
12.36926199999999
 21
-76.34376301244482
 31
0.0
  0
LINE
  5
15A
  8
PLATE$SWITCHHOLES
 10
12.36926199999999
 20
-76.34376301244482
 30
0.0
 11
28.919262
 21
-76.34376301244482
 31
0.0
  0
LINE
  5
15B
  8
PLATE$SWITCHHOLES
 10
28.919262
 20
-76.34376301244482
 30
0.0
 11
28.919262
 21
-75.34376401244482
 31
0.0
  0
LINE
  5
15C
  8
PLATE$SWITCHHOLES
 10
28.919262
 20
-75.34376401244482
 30
0.0
 11
31.419262
 21
-75.34376401244482
 31
0.0
  0
LINE
  5
15D
  8
PLATE$SWITCHHOLES
 10
31.419262
 20
-75.34376401244482
 30
0.0
 11
31.419262
 21
-76.34376301244482
 31
0.0
  0
LINE
  5
15E
  8
PLATE$SWITCHHOLES
 10
31.419262
 20
-76.34376301244482
 30
0.0
 11
33.668246
 21
-76.34376301244482
 31
0.0
  0
LINE
  5
15F
  8
PLATE$SWITCHHOLES
 10
33.668246
 20
-76.34376301244482
 30
0.0
 11
33.668246
 21
-75.34376401244482
 31
0.0
  0
LINE
  5
160
  8
PLATE$SWITCHHOLES
 10
33.668246
 20
-75.34376401244482
 30
0.0
 11
36.168246
 21
-75.34376401244482
 31
0.0
  0
LINE
  5
161
  8
PLATE$SWITCHHOLES
 10
36.168246
 20
-75.34376401244482
 30
0.0
 11
36.168246
 21
-76.34376301244482
 31
0.0
  0
LINE
  5
162
  8
PLATE$SWITCHHOLES
 10
36.168246
 20
-76.34376301244482
 30
0.0
 11
52.71824600000001
 21
-76.34376301244482
 31
0.0
  0
LINE
  5
163
  8
PLATE$SWITCHHOLES
 10
52.71824600000001
 20
-76.34376301244482
 30
0.0
 11
52.71824600000001
 21
-75.34376401244482
 31
0.0
  0
LINE
  5
164
  8
PLATE$SWITCHHOLES
 10
52.71824600000001
 20
-75.34376401244482
 30
0.0
 11
55.21824600000001
 21
-75.34376401244482
 31
0.0
  0
LINE
  5
165
  8
PLATE$SWITCHHOLES
 10
55.21824600000001
 20
-75.34376401244482
 30
0.0
 11
55.21824600000001
 21
-76.34376301244482
 31
0.0
  0
LINE
  5
166
  8
PLATE$SWITCHHOLES
 10
55.21824600000001
 20
-76.34376301244482
 30
0.0
 11
60.47499800000001
 21
-76.34375501244484
 31
0.0
  0
POINT
  5
167
  8
PLATE$SWITCHHOLES
 10
144.4625020000001
 20
-64.29375501244489
 30
0.0
  0
ARC
  5
168
  8
PLATE$SWITCHHOLES
 10
167.6312519999999
 20
-70.79375501244485
 30
0.0
 40
0.5000000000000284
 50
270.0000000000032
 51
0.0000000000032569
  0
LINE
  5
169
  8
PLATE$SWITCHHOLES
 10
168.131252
 20
-70.79375501244489
 30
0.0
 11
168.131252
 21
-57.79375501244489
 31
0.0
  0
ARC
  5
16A
  8
PLATE$SWITCHHOLES
 10
167.6312519999998
 20
-57.79375501244499
 30
0.0
 40
0.5000000000001421
 50
0.0000000000130276
 51
89.99999999998371
  0
LINE
  5
16B
  8
PLATE$SWITCHHOLES
 10
167.631252
 20
-57.29375501244489
 30
0.0
 11
128.4375020000001
 21
-57.29375501244489
 31
0.0
  0
ARC
  5
16C
  8
PLATE$SWITCHHOLES
 10
128.4375019999999
 20
-57.79375501244483
 30
0.0
 40
0.4999999999999503
 50
89.99999999999349
 51
179.9999999999943
  0
LINE
  5
16D
  8
PLATE$SWITCHHOLES
 10
127.9375020000001
 20
-57.79375501244489
 30
0.0
 11
127.9375020000001
 21
-70.79375501244489
 31
0.0
  0
ARC
  5
16E
  8
PLATE$SWITCHHOLES
 10
128.437502
 20
-70.79375501244485
 30
0.0
 40
0.5000000000000284
 50
179.9999999999967
 51
269.9999999999968
  0
LINE
  5
16F
  8
PLATE$SWITCHHOLES
 10
128.4375020000001
 20
-71.29375501244489
 30
0.0
 11
131.31301
 21
-71.29375501244489
 31
0.0
  0
LINE
  5
170
  8
PLATE$SWITCHHOLES
 10
131.31301
 20
-71.29375501244489
 30
0.0
 11
131.31301
 21
-72.2937540124449
 31
0.0
  0
LINE
  5
171
  8
PLATE$SWITCHHOLES
 10
131.31301
 20
-72.2937540124449
 30
0.0
 11
133.81301
 21
-72.2937540124449
 31
0.0
  0
LINE
  5
172
  8
PLATE$SWITCHHOLES
 10
133.81301
 20
-72.2937540124449
 30
0.0
 11
133.81301
 21
-71.29375501244489
 31
0.0
  0
LINE
  5
173
  8
PLATE$SWITCHHOLES
 10
133.81301
 20
-71.29375501244489
 30
0.0
 11
155.1119940000001
 21
-71.29375501244489
 31
0.0
  0
LINE
  5
174
  8
PLATE$SWITCHHOLES
 10
155.1119940000001
 20
-71.29375501244489
 30
0.0
 11
155.1119940000001
 21
-72.2937540124449
 31
0.0
  0
LINE
  5
175
  8
PLATE$SWITCHHOLES
 10
155.1119940000001
 20
-72.2937540124449
 30
0.0
 11
157.6119940000001
 21
-72.2937540124449
 31
0.0
  0
LINE
  5
176
  8
PLATE$SWITCHHOLES
 10
157.6119940000001
 20
-72.2937540124449
 30
0.0
 11
157.6119940000001
 21
-71.29375501244489
 31
0.0
  0
LINE
  5
177
  8
PLATE$SWITCHHOLES
 10
157.6119940000001
 20
-71.29375501244489
 30
0.0
 11
167.631252
 21
-71.29375501244489
 31
0.0
  0
POINT
  5
178
  8
PLATE$SWITCHHOLES
 10
161.131252
 20
-64.29375501244489
 30
0.0
  0
POINT
  5
179
  8
PLATE$SWITCHHOLES
 10
134.9375020000001
 20
-64.29375501244489
 30
0.0
  0
INSERT
  5
17A
  8
PLATE$SWITCHHOLES
  2
SWITCHHOLE_14MM
 10
132.556252
 20
-26.19375501244485
 30
0.0
  0
INSERT
  5
17B
  8
PLATE$SWITCHHOLES
  2
SWITCHHOLE_14MM
 10
146.843745
 20
-7.143759012444889
 30
0.0
  0
INSERT
  5
17C
  8
PLATE$SWITCHHOLES
  2
SWITCHHOLE_14MM
 10
127.793752
 20
-7.143755012444899
 30
0.0
  0
INSERT
  5
17D
  8
PLATE$SWITCHHOLES
  2
SWITCHHOLE_14MM
 10
108.743752
 20
-64.29375501244488
 30
0.0
  0
INSERT
  5
17E
  8
PLATE$SWITCHHOLES
  2
SWITCHHOLE_14MM
 10
89.693759
 20
-64.29375101244489
 30
0.0
  0
INSERT
  5
17F
  8
PLATE$SWITCHHOLES
  2
SWITCHHOLE_14MM
 10
70.643755
 20
-64.29375801244487
 30
0.0
  0
INSERT
  5
180
  8
PLATE$SWITCHHOLES
  2
SWITCHHOLE_14MM
 10
51.59375999999997
 20
-64.29375601244487
 30
0.0
  0
INSERT
  5
181
  8
PLATE$SWITCHHOLES
  2
SWITCHHOLE_14MM
 10
32.54375599999997
 20
-64.29375701244487
 30
0.0
  0
INSERT
  5
182
  8
PLATE$SWITCHHOLES
  2
SWITCHHOLE_14MM
 10
108.743752
 20
-45.24375501244492
 30
0.0
  0
INSERT
  5
183
  8
PLATE$SWITCHHOLES
  2
SWITCHHOLE_14MM
 10
89.693759
 20
-45.24375101244493
 30
0.0
  0
INSERT
  5
184
  8
PLATE$SWITCHHOLES
  2
SWITCHHOLE_14MM
 10
70.643755
 20
-45.24375801244491
 30
0.0
  0
INSERT
  5
185
  8
PLATE$SWITCHHOLES
  2
SWITCHHOLE_14MM
 10
51.59375999999997
 20
-45.24375601244492
 30
0.0
  0
INSERT
  5
186
  8
PLATE$SWITCHHOLES
  2
SWITCHHOLE_14MM
 10
32.54375599999997
 20
-45.24375701244492
 30
0.0
  0
INSERT
  5
187
  8
PLATE$SWITCHHOLES
  2
SWITCHHOLE_14MM
 10
108.743752
 20
-26.19375501244485
 30
0.0
  0
INSERT
  5
188
  8
PLATE$SWITCHHOLES
  2
SWITCHHOLE_14MM
 10
89.693759
 20
-26.19375101244486
 30
0.0
  0
INSERT
  5
189
  8
PLATE$SWITCHHOLES
  2
SWITCHHOLE_14MM
 10
70.643755
 20
-26.19375801244485
 30
0.0
  0
INSERT
  5
18A
  8
PLATE$SWITCHHOLES
  2
SWITCHHOLE_14MM
 10
51.59375999999997
 20
-26.19375601244485
 30
0.0
  0
INSERT
  5
18B
  8
PLATE$SWITCHHOLES
  2
SWITCHHOLE_14MM
 10
32.54375599999997
 20
-26.19375701244485
 30
0.0
  0
INSERT
  5
18C
  8
PLATE$SWITCHHOLES
  2
SWITCHHOLE_14MM
 10
108.743752
 20
-7.143755012444899
 30
0.0
  0
INSERT
  5
18D
  8
PLATE$SWITCHHOLES
  2
SWITCHHOLE_14MM
 10
89.693759
 20
-7.143751012444909
 30
0.0
  0
INSERT
  5
18E
  8
PLATE$SWITCHHOLES
  2
SWITCHHOLE_14MM
 10
70.643755
 20
-7.143758012444891
 30
0.0
  0
INSERT
  5
18F
  8
PLATE$SWITCHHOLES
  2
SWITCHHOLE_14MM
 10
51.59375999999997
 20
-7.143756012444896
 30
0.0
  0
INSERT
  5
190
  8
PLATE$SWITCHHOLES
  2
SWITCHHOLE_14MM
 10
32.54375599999997
 20
-7.143757012444894
 30
0.0
  0
INSERT
  5
191
  8
PLATE
  2
2D_M2_2_2MM
 10
123.8250019999999
 20
-70.64375501244484
 30
0.0
  0
ENDBLK
  5
193
  8
0
  0
ENDSEC
  0
SECTION
  2
ENTITIES
  0
INSERT
  5
197
  8
PLATE
  2
PLATE_NAANSPLIT_REV2
 10
-0.138533593305965
 20
25.78176954605578
 30
0.0
  0
ENDSEC
  0
EOF
