  0
SECTION
  2
HEADER
  9
$ACADVER
  1
AC1009
  9
$DWGCODEPAGE
  3
ansi_1252
  9
$INSBASE
 10
0.0
 20
0.0
 30
0.0
  9
$EXTMIN
 10
1.000000000000000E+20
 20
1.000000000000000E+20
 30
1.000000000000000E+20
  9
$EXTMAX
 10
-1.000000000000000E+20
 20
-1.000000000000000E+20
 30
-1.000000000000000E+20
  9
$LIMMIN
 10
0.0
 20
0.0
  9
$LIMMAX
 10
12.0
 20
9.0
  9
$ORTHOMODE
 70
     0
  9
$REGENMODE
 70
     1
  9
$FILLMODE
 70
     1
  9
$QTEXTMODE
 70
     0
  9
$MIRRTEXT
 70
     1
  9
$DRAGMODE
 70
     2
  9
$LTSCALE
 40
1.0
  9
$OSMODE
 70
    37
  9
$ATTMODE
 70
     1
  9
$TEXTSIZE
 40
0.2
  9
$TRACEWID
 40
0.05
  9
$TEXTSTYLE
  7
STANDARD
  9
$CLAYER
  8
0
  9
$CELTYPE
  6
BYLAYER
  9
$CECOLOR
 62
   256
  9
$DIMSCALE
 40
1.0
  9
$DIMASZ
 40
0.18
  9
$DIMEXO
 40
0.0625
  9
$DIMDLI
 40
0.38
  9
$DIMRND
 40
0.0
  9
$DIMDLE
 40
0.0
  9
$DIMEXE
 40
0.18
  9
$DIMTP
 40
0.0
  9
$DIMTM
 40
0.0
  9
$DIMTXT
 40
0.18
  9
$DIMCEN
 40
0.09
  9
$DIMTSZ
 40
0.0
  9
$DIMTOL
 70
     0
  9
$DIMLIM
 70
     0
  9
$DIMTIH
 70
     1
  9
$DIMTOH
 70
     1
  9
$DIMSE1
 70
     0
  9
$DIMSE2
 70
     0
  9
$DIMTAD
 70
     0
  9
$DIMZIN
 70
     0
  9
$DIMBLK
  1

  9
$DIMASO
 70
     1
  9
$DIMSHO
 70
     1
  9
$DIMPOST
  1

  9
$DIMAPOST
  1

  9
$DIMALT
 70
     0
  9
$DIMALTD
 70
     2
  9
$DIMALTF
 40
25.4
  9
$DIMLFAC
 40
1.0
  9
$DIMTOFL
 70
     0
  9
$DIMTVP
 40
0.0
  9
$DIMTIX
 70
     0
  9
$DIMSOXD
 70
     0
  9
$DIMSAH
 70
     0
  9
$DIMBLK1
  1

  9
$DIMBLK2
  1

  9
$DIMSTYLE
  2
STANDARD_ACAD
  9
$DIMCLRD
 70
     0
  9
$DIMCLRE
 70
     0
  9
$DIMCLRT
 70
     0
  9
$DIMTFAC
 40
1.0
  9
$DIMGAP
 40
0.09
  9
$LUNITS
 70
     2
  9
$LUPREC
 70
     3
  9
$SKETCHINC
 40
0.1
  9
$FILLETRAD
 40
0.5
  9
$AUNITS
 70
     0
  9
$AUPREC
 70
     0
  9
$MENU
  1
.
  9
$ELEVATION
 40
0.0
  9
$PELEVATION
 40
0.0
  9
$THICKNESS
 40
0.0
  9
$LIMCHECK
 70
     0
  9
$CHAMFERA
 40
0.0
  9
$CHAMFERB
 40
0.0
  9
$SKPOLY
 70
     0
  9
$TDCREATE
 40
2459456.706368727
  9
$TDUPDATE
 40
2459456.706385232
  9
$TDINDWG
 40
0.0000000116
  9
$TDUSRTIMER
 40
0.0000000116
  9
$USRTIMER
 70
     1
  9
$ANGBASE
 50
0.0
  9
$ANGDIR
 70
     0
  9
$PDMODE
 70
     0
  9
$PDSIZE
 40
0.0
  9
$PLINEWID
 40
0.0
  9
$COORDS
 70
     1
  9
$SPLFRAME
 70
     0
  9
$SPLINETYPE
 70
     6
  9
$SPLINESEGS
 70
     8
  9
$ATTDIA
 70
     0
  9
$ATTREQ
 70
     1
  9
$HANDLING
 70
     1
  9
$HANDSEED
  5
BC
  9
$SURFTAB1
 70
     6
  9
$SURFTAB2
 70
     6
  9
$SURFTYPE
 70
     6
  9
$SURFU
 70
     6
  9
$SURFV
 70
     6
  9
$UCSNAME
  2

  9
$UCSORG
 10
0.0
 20
0.0
 30
0.0
  9
$UCSXDIR
 10
1.0
 20
0.0
 30
0.0
  9
$UCSYDIR
 10
0.0
 20
1.0
 30
0.0
  9
$PUCSNAME
  2

  9
$PUCSORG
 10
0.0
 20
0.0
 30
0.0
  9
$PUCSXDIR
 10
1.0
 20
0.0
 30
0.0
  9
$PUCSYDIR
 10
0.0
 20
1.0
 30
0.0
  9
$USERI1
 70
     0
  9
$USERI2
 70
     0
  9
$USERI3
 70
     0
  9
$USERI4
 70
     0
  9
$USERI5
 70
     0
  9
$USERR1
 40
0.0
  9
$USERR2
 40
0.0
  9
$USERR3
 40
0.0
  9
$USERR4
 40
0.0
  9
$USERR5
 40
0.0
  9
$WORLDVIEW
 70
     1
  9
$SHADEDGE
 70
     3
  9
$SHADEDIF
 70
    70
  9
$TILEMODE
 70
     1
  9
$MAXACTVP
 70
    64
  9
$PLIMCHECK
 70
     0
  9
$PEXTMIN
 10
1.000000000000000E+20
 20
1.000000000000000E+20
 30
1.000000000000000E+20
  9
$PEXTMAX
 10
-1.000000000000000E+20
 20
-1.000000000000000E+20
 30
-1.000000000000000E+20
  9
$PLIMMIN
 10
0.0
 20
0.0
  9
$PLIMMAX
 10
12.0
 20
9.0
  9
$UNITMODE
 70
     0
  9
$VISRETAIN
 70
     1
  9
$PLINEGEN
 70
     0
  9
$PSLTSCALE
 70
     1
  0
ENDSEC
  0
SECTION
  2
TABLES
  0
TABLE
  2
VPORT
 70
     1
  0
VPORT
  2
*ACTIVE
 70
     0
 10
0.0
 20
0.0
 11
1.0
 21
1.0
 12
10.42990654205607
 22
4.5
 13
0.0
 23
0.0
 14
0.5
 24
0.5
 15
0.5
 25
0.5
 16
0.0
 26
0.0
 36
1.0
 17
0.0
 27
0.0
 37
0.0
 40
9.0
 41
1.972972972850329
 42
50.0
 43
0.0
 44
0.0
 50
0.0
 51
0.0
 71
     0
 72
   100
 73
     1
 74
     3
 75
     0
 76
     0
 77
     0
 78
     0
  0
ENDTAB
  0
TABLE
  2
LTYPE
 70
     1
  0
LTYPE
  2
CONTINUOUS
 70
     0
  3
Solid line
 72
    65
 73
     0
 40
0.0
  0
ENDTAB
  0
TABLE
  2
LAYER
 70
     2
  0
LAYER
  2
0
 70
     0
 62
     7
  6
CONTINUOUS
  0
LAYER
  2
PLATE
 70
     0
 62
   110
  6
CONTINUOUS
  0
ENDTAB
  0
TABLE
  2
STYLE
 70
     1
  0
STYLE
  2
STANDARD
 70
     0
 40
0.0
 41
1.0
 50
0.0
 71
     0
 42
0.2
  3
txt
  4

  0
ENDTAB
  0
TABLE
  2
VIEW
 70
     0
  0
ENDTAB
  0
TABLE
  2
UCS
 70
     0
  0
ENDTAB
  0
TABLE
  2
APPID
 70
     1
  0
APPID
  2
ACAD
 70
     0
  0
ENDTAB
  0
TABLE
  2
DIMSTYLE
 70
     1
  0
DIMSTYLE
  2
STANDARD_ACAD
 70
     0
  3

  4

  5

  6

  7

 40
1.0
 41
0.18
 42
0.0625
 43
0.38
 44
0.18
 45
0.0
 46
0.0
 47
0.0
 48
0.0
140
0.18
141
0.09
142
0.0
143
25.4
144
1.0
145
0.0
146
1.0
147
0.09
 71
     0
 72
     0
 73
     1
 74
     1
 75
     0
 76
     0
 77
     0
 78
     0
170
     0
171
     2
172
     0
173
     0
174
     0
175
     0
176
     0
177
     0
178
     0
  0
ENDTAB
  0
ENDSEC
  0
SECTION
  2
BLOCKS
  0
BLOCK
  8
0
  2
$MODEL_SPACE
 70
     0
 10
0.0
 20
0.0
 30
0.0
  3
$MODEL_SPACE
  1

  0
ENDBLK
  5
21
  8
0
  0
BLOCK
 67
     1
  8
0
  2
$PAPER_SPACE
 70
     0
 10
0.0
 20
0.0
 30
0.0
  3
$PAPER_SPACE
  1

  0
ENDBLK
  5
1D
 67
     1
  8
0
  0
BLOCK
  8
0
  2
2D_M2_2_2MM
 70
     0
 10
0.0
 20
0.0
 30
0.0
  3
2D_M2_2_2MM
  1

  0
POINT
  5
70
  8
PLATE
 10
0.0
 20
0.0
 30
0.0
  0
CIRCLE
  5
71
  8
PLATE
 10
0.0
 20
0.0
 30
0.0
 40
1.100000000000023
  0
ENDBLK
  5
73
  8
0
  0
ENDSEC
  0
SECTION
  2
ENTITIES
  0
INSERT
  5
74
  8
PLATE
  2
2D_M2_2_2MM
 10
119.5641811577541
 20
-34.45090046430505
 30
0.0
  0
ARC
  5
75
  8
PLATE
 10
-0.0141880037735973
 20
-14.91339646430492
 30
0.0
 40
1.499999999999787
 50
0.0000080203776334
 51
90.0000000000087
210
0.0
220
0.0
230
-1.0
  0
LINE
  5
76
  8
PLATE
 10
0.0141880037738247
 20
-13.41339646430538
 30
0.0
 11
16.85793115775414
 21
-13.41339646430538
 31
0.0
  0
ARC
  5
77
  8
PLATE
 10
16.85793115775368
 20
-11.9133964643047
 30
0.0
 40
1.500000000000455
 50
270.0000000000173
 51
0.0000000000173701
  0
LINE
  5
78
  8
PLATE
 10
18.35793115775414
 20
-11.91339646430538
 30
0.0
 11
18.35793115775414
 21
37.47409953569468
 31
0.0
  0
ARC
  5
79
  8
PLATE
 10
-19.85793115775232
 20
37.47409953569672
 30
0.0
 40
1.499999999998181
 50
0.0000000000781653
 51
90.00000000006949
210
0.0
220
0.0
230
-1.0
  0
LINE
  5
7A
  8
PLATE
 10
19.85793115775414
 20
38.97409953569468
 30
0.0
 11
151.0079311577545
 21
38.97409953569468
 31
0.0
  0
ARC
  5
7B
  8
PLATE
 10
-151.0079311577551
 20
37.47409953569536
 30
0.0
 40
1.499999999999318
 50
89.99999999997394
 51
179.9999999999739
210
0.0
220
0.0
230
-1.0
  0
LINE
  5
7C
  8
PLATE
 10
152.5079311577545
 20
37.47409953569468
 30
0.0
 11
152.5079311577545
 21
2.37409953569454
 31
0.0
  0
ARC
  5
7D
  8
PLATE
 10
154.0079311577542
 20
2.374099535694768
 30
0.0
 40
1.499999999999773
 50
179.9999999999913
 51
270.0000000000086
  0
LINE
  5
7E
  8
PLATE
 10
154.0079311577545
 20
0.8740995356945405
 30
0.0
 11
155.7704311577543
 21
0.8740995356945405
 31
0.0
  0
ARC
  5
7F
  8
PLATE
 10
-155.7704311577543
 20
-0.6259004643054595
 30
0.0
 40
1.500000000000227
 50
90.0
 51
179.9999999999913
210
0.0
220
0.0
230
-1.0
  0
LINE
  5
80
  8
PLATE
 10
157.2704311577543
 20
-0.6259004643052322
 30
0.0
 11
157.2704311577543
 21
-16.67590046430541
 31
0.0
  0
ARC
  5
81
  8
PLATE
 10
158.7704311577543
 20
-16.67590046430541
 30
0.0
 40
1.5
 50
180.0
 51
270.0
  0
LINE
  5
82
  8
PLATE
 10
158.7704311577543
 20
-18.17590046430541
 30
0.0
 11
165.2954311577544
 21
-18.17590046430541
 31
0.0
  0
ARC
  5
83
  8
PLATE
 10
-165.295431157755
 20
-19.67590046430473
 30
0.0
 40
1.499999999999318
 50
89.99999999997394
 51
179.9999999999739
210
0.0
220
0.0
230
-1.0
  0
LINE
  5
84
  8
PLATE
 10
166.7954311577544
 20
-19.67590046430541
 30
0.0
 11
166.7954311577544
 21
-36.52590046430532
 31
0.0
  0
ARC
  5
85
  8
PLATE
 10
-165.2954311577532
 20
-36.52590046430441
 30
0.0
 40
1.500000000001137
 50
179.9999999999653
 51
269.9999999999566
210
0.0
220
0.0
230
-1.0
  0
LINE
  5
86
  8
PLATE
 10
165.2954311577544
 20
-38.02590046430532
 30
0.0
 11
158.7704311577543
 21
-38.02590046430532
 31
0.0
  0
ARC
  5
87
  8
PLATE
 10
158.7704311577531
 20
-39.52590046430441
 30
0.0
 40
1.499999999999091
 50
89.99999999995657
 51
179.9999999999653
  0
LINE
  5
88
  8
PLATE
 10
157.2704311577543
 20
-39.52590046430532
 30
0.0
 11
157.270431157754
 21
-55.57590046430528
 31
0.0
  0
ARC
  5
89
  8
PLATE
 10
-155.7704311577531
 20
-55.57590046430414
 30
0.0
 40
1.500000000000909
 50
179.9999999999653
 51
269.9999999999652
210
0.0
220
0.0
230
-1.0
  0
LINE
  5
8A
  8
PLATE
 10
155.770431157754
 20
-57.07590046430528
 30
0.0
 11
0.0141823117460262
 21
-57.07590046430528
 31
0.0
  0
ARC
  5
8B
  8
PLATE
 10
-0.0141823117455715
 20
-55.57590046430573
 30
0.0
 40
1.499999999999318
 50
269.9999999999826
 51
0.0000080204123736
210
0.0
220
0.0
230
-1.0
  0
LINE
  5
8C
  8
PLATE
 10
-1.485817688253974
 20
-55.57590025433183
 30
0.0
 11
-1.485811996226175
 21
-14.91339625433193
 31
0.0
  0
INSERT
  5
8D
  8
PLATE
  2
2D_M2_2_2MM
 10
2.089181157754183
 20
-35.2446504643051
 30
0.0
  0
INSERT
  5
8E
  8
PLATE
  2
2D_M2_2_2MM
 10
11.61418115775427
 20
-35.2446504643051
 30
0.0
  0
INSERT
  5
8F
  8
PLATE
  2
2D_M2_2_2MM
 10
56.85793115775436
 20
-37.625900464305
 30
0.0
  0
INSERT
  5
90
  8
PLATE
  2
2D_M2_2_2MM
 10
114.007931157754
 20
19.52409953569509
 30
0.0
  0
INSERT
  5
91
  8
PLATE
  2
2D_M2_2_2MM
 10
75.90793115775432
 20
0.4740995356949043
 30
0.0
  0
INSERT
  5
92
  8
PLATE
  2
2D_M2_2_2MM
 10
37.80793115775418
 20
19.52409953569509
 30
0.0
  0
INSERT
  5
93
  8
PLATE
  2
2D_M2_2_2MM
 10
152.9016811577542
 20
-9.05090046430496
 30
0.0
  0
INSERT
  5
94
  8
PLATE
  2
2D_M2_2_2MM
 10
-139.1983188422457
 20
-40.80090046430496
 30
0.0
  0
INSERT
  5
95
  8
PLATE
  2
2D_M2_2_2MM
 10
-125.7045688422457
 20
-34.45090046430505
 30
0.0
  0
INSERT
  5
96
  8
PLATE
  2
2D_M2_2_2MM
 10
-84.4295687544361
 20
0.4740954824785604
 30
0.0
  0
INSERT
  5
97
  8
PLATE
  2
2D_M2_2_2MM
 10
-46.32957594727895
 20
19.52409618113938
 30
0.0
  0
INSERT
  5
98
  8
PLATE
  2
2D_M2_2_2MM
 10
-10.61081884224564
 20
-35.2446504643051
 30
0.0
  0
INSERT
  5
99
  8
PLATE
  2
2D_M2_2_2MM
 10
-20.13581884224573
 20
-35.2446504643051
 30
0.0
  0
INSERT
  5
9A
  8
PLATE
  2
2D_M2_2_2MM
 10
-65.37956884224582
 20
-37.625900464305
 30
0.0
  0
INSERT
  5
9B
  8
PLATE
  2
2D_M2_2_2MM
 10
-151.1045748422457
 20
-9.050906464304944
 30
0.0
  0
INSERT
  5
9C
  8
PLATE
  2
2D_M2_2_2MM
 10
-122.5295703864017
 20
19.52409340582221
 30
0.0
  0
LINE
  5
9D
  8
PLATE
 10
-25.37957027902576
 20
-13.41340034617565
 30
0.0
 11
-8.535824002433856
 21
-13.41339854753414
 31
0.0
  0
ARC
  5
9E
  8
PLATE
 10
8.535823842258196
 20
-14.91339854753483
 30
0.0
 40
1.500000000000691
 50
89.9999938817405
 51
179.9999999996005
210
0.0
220
0.0
230
-1.0
  0
LINE
  5
9F
  8
PLATE
 10
-7.035823842257514
 20
-14.91339854754528
 30
0.0
 11
-7.035823842256605
 21
-55.57590443644949
 31
0.0
  0
ARC
  5
A0
  8
PLATE
 10
8.535823842256832
 20
-55.57590443644949
 30
0.0
 40
1.500000000000227
 50
180.0
 51
270.0000014509045
210
0.0
220
0.0
230
-1.0
  0
LINE
  5
A1
  8
PLATE
 10
-8.535823880241423
 20
-57.07590443644949
 30
0.0
 11
-164.292069053459
 21
-57.07590049216105
 31
0.0
  0
ARC
  5
A2
  8
PLATE
 10
164.2920690154735
 20
-55.57590049216105
 30
0.0
 40
1.5
 50
270.0000014509392
 51
359.9999909770481
210
0.0
220
0.0
230
-1.0
  0
LINE
  5
A3
  8
PLATE
 10
-165.7920690154739
 20
-55.57590072838161
 30
0.0
 11
-165.7920746690173
 21
-19.6759087005255
 31
0.0
  0
ARC
  5
A4
  8
PLATE
 10
164.2920746690177
 20
-19.67590846430494
 30
0.0
 40
1.499999999999564
 50
359.9999909770393
 51
90.00000000001303
210
0.0
220
0.0
230
-1.0
  0
LINE
  5
A5
  8
PLATE
 10
-164.2920746690173
 20
-18.17590846430517
 30
0.0
 11
-157.7670698422457
 21
-18.17590846430539
 31
0.0
  0
ARC
  5
A6
  8
PLATE
 10
-157.7670698422465
 20
-16.67590846430448
 30
0.0
 40
1.500000000000909
 50
270.0000000000304
 51
0.0000000000347401
  0
LINE
  5
A7
  8
PLATE
 10
-156.2670698422457
 20
-16.67590846430539
 30
0.0
 11
-156.2670698422457
 21
-0.625906869945311
 31
0.0
  0
ARC
  5
A8
  8
PLATE
 10
154.7670698422461
 20
-0.6259068699450836
 30
0.0
 40
1.499999999999659
 50
0.000000000008685
 51
89.9999690415296
210
0.0
220
0.0
230
-1.0
  0
LINE
  5
A9
  8
PLATE
 10
-154.7670706527369
 20
0.8740931300544617
 30
0.0
 11
-153.0045740317545
 21
0.87409408237977
 31
0.0
  0
ARC
  5
AA
  8
PLATE
 10
-153.0045748422461
 20
2.374094082380225
 30
0.0
 40
1.500000000000674
 50
270.0000309585008
 51
0.0000000000260551
  0
LINE
  5
AB
  8
PLATE
 10
-151.5045748422457
 20
2.37409408237977
 30
0.0
 11
-151.5045748422458
 21
18.42409354410961
 31
0.0
  0
ARC
  5
AC
  8
PLATE
 10
150.004574842246
 20
18.42409354411006
 30
0.0
 40
1.499999999999773
 50
0.0000000000173701
 51
89.99999956170973
210
0.0
220
0.0
230
-1.0
  0
LINE
  5
AD
  8
PLATE
 10
-150.0045748537204
 20
19.92409354410961
 30
0.0
 11
-143.4795705519159
 21
19.92409359402473
 31
0.0
  0
ARC
  5
AE
  8
PLATE
 10
-143.4795705633906
 20
21.42409359402473
 30
0.0
 40
1.5
 50
270.000000438299
 51
359.9999975907454
  0
LINE
  5
AF
  8
PLATE
 10
-141.9795705633906
 20
21.42409353095081
 30
0.0
 11
-141.9795698884992
 21
37.47409361516884
 31
0.0
  0
ARC
  5
B0
  8
PLATE
 10
140.4795698884998
 20
37.47409355209584
 30
0.0
 40
1.499999999999433
 50
0.0000024092112419
 51
89.9999991458008
210
0.0
220
0.0
230
-1.0
  0
LINE
  5
B1
  8
PLATE
 10
-140.4795699108627
 20
38.97409355209493
 30
0.0
 11
-28.37957542888853
 21
38.97409522343628
 31
0.0
  0
ARC
  5
B2
  8
PLATE
 10
28.37957540652474
 20
37.47409522343628
 30
0.0
 40
1.500000000000227
 50
89.99999914576604
 51
179.9999942373058
210
0.0
220
0.0
230
-1.0
  0
LINE
  5
B3
  8
PLATE
 10
-26.87957540652428
 20
37.47409537430326
 30
0.0
 11
-26.87957043920164
 21
-11.91340049704354
 31
0.0
  0
ARC
  5
B4
  8
PLATE
 10
-25.37957043920187
 20
-11.91340034617565
 30
0.0
 40
1.49999999999978
 50
180.0000057627289
 51
270.0000061182769
  0
ENDSEC
  0
EOF
