  0
SECTION
  2
HEADER
  9
$ANGBASE
  50
0.0
  9
$ANGDIR
  70
1
  9
$MEASUREMENT
  70
0
  0
ENDSEC
  0
SECTION
  2
TABLES
  0
TABLE
  2
LTYPE
  70
4
  0
LTYPE
  5
40F
  2
CONTINUOUS
  70
0
  3
Solid line
  72
65
  73
0
  40
0.0
  0
LTYPE
  5
410
  2
DASHDOT
 70
0
  3
Dash Dot ____ _ ____ _
 72
65
 73
4
 40
2.0
 49
1.25
 49
-0.25
 49
0.25
 49
-0.25
  0
LTYPE
  5
411
  2
DASHED
 70
0
  3
Dashed __ __ __ __ __
 72
65
 73
2
 40
0.75
 49
0.5
 49
-0.25
  0
LTYPE
  5
43B
  2
DOTTED
 70
0
  3
Dotted .  .  .  .
 72
65
 73
2
 40
0.2
 49
0.0
 49
-0.2
  0
ENDTAB
  0
TABLE
  2
STYLE
  70
4
  0
STYLE
  2
KICAD
  70
0
  40
0
  41
1
  42
1
  50
0
  71
0
  3
isocp.shx
  0
STYLE
  2
KICADB
  70
0
  40
0
  41
1
  42
1
  50
0
  71
0
  3
isocp.shx
  0
STYLE
  2
KICADI
  70
0
  40
0
  41
1
  42
1
  50
15
  71
0
  3
isocp.shx
  0
STYLE
  2
KICADBI
  70
0
  40
0
  41
1
  42
1
  50
15
  71
0
  3
isocp.shx
  0
ENDTAB
  0
TABLE
  2
LAYER
  70
1
  0
LAYER
  2
BLACK
  70
0
  62
7
  6
CONTINUOUS
  0
ENDTAB
  0
ENDSEC
  0
SECTION
  2
ENTITIES
0
LINE
8
BLACK
6
CONTINUOUS
10
1.08045
20
-1.18855
11
1.08048
21
-1.18834
0
LINE
8
BLACK
6
CONTINUOUS
10
1.08048
20
-1.18834
11
1.08048
21
-1.18813
0
LINE
8
BLACK
6
CONTINUOUS
10
1.08048
20
-1.18813
11
1.08193
21
-1.17328
0
LINE
8
BLACK
6
CONTINUOUS
10
1.08193
20
-1.17328
11
1.08194
21
-1.17321
0
LINE
8
BLACK
6
CONTINUOUS
10
1.08194
20
-1.17321
11
1.08203
21
-1.17277
0
LINE
8
BLACK
6
CONTINUOUS
10
1.08203
20
-1.17277
11
1.08212
21
-1.17232
0
LINE
8
BLACK
6
CONTINUOUS
10
1.08212
20
-1.17232
11
1.08611
21
-1.15912
0
LINE
8
BLACK
6
CONTINUOUS
10
1.08611
20
-1.15912
11
1.08613
21
-1.15905
0
LINE
8
BLACK
6
CONTINUOUS
10
1.08613
20
-1.15905
11
1.08631
21
-1.15863
0
LINE
8
BLACK
6
CONTINUOUS
10
1.08631
20
-1.15863
11
1.08648
21
-1.15822
0
LINE
8
BLACK
6
CONTINUOUS
10
1.08648
20
-1.15822
11
1.09296
21
-1.14603
0
LINE
8
BLACK
6
CONTINUOUS
10
1.09296
20
-1.14603
11
1.09299
21
-1.14597
0
LINE
8
BLACK
6
CONTINUOUS
10
1.09299
20
-1.14597
11
1.09325
21
-1.1456
0
LINE
8
BLACK
6
CONTINUOUS
10
1.09325
20
-1.1456
11
1.0935
21
-1.14522
0
LINE
8
BLACK
6
CONTINUOUS
10
1.0935
20
-1.14522
11
1.10222
21
-1.13453
0
LINE
8
BLACK
6
CONTINUOUS
10
1.10222
20
-1.13453
11
1.10226
21
-1.13448
0
LINE
8
BLACK
6
CONTINUOUS
10
1.10226
20
-1.13448
11
1.10259
21
-1.13416
0
LINE
8
BLACK
6
CONTINUOUS
10
1.10259
20
-1.13416
11
1.10291
21
-1.13384
0
LINE
8
BLACK
6
CONTINUOUS
10
1.10291
20
-1.13384
11
1.11354
21
-1.12505
0
LINE
8
BLACK
6
CONTINUOUS
10
1.11354
20
-1.12505
11
1.11359
21
-1.125
0
LINE
8
BLACK
6
CONTINUOUS
10
1.11359
20
-1.125
11
1.11397
21
-1.12475
0
LINE
8
BLACK
6
CONTINUOUS
10
1.11397
20
-1.12475
11
1.11434
21
-1.1245
0
LINE
8
BLACK
6
CONTINUOUS
10
1.11434
20
-1.1245
11
1.12648
21
-1.11794
0
LINE
8
BLACK
6
CONTINUOUS
10
1.12648
20
-1.11794
11
1.12654
21
-1.11791
0
LINE
8
BLACK
6
CONTINUOUS
10
1.12654
20
-1.11791
11
1.12696
21
-1.11773
0
LINE
8
BLACK
6
CONTINUOUS
10
1.12696
20
-1.11773
11
1.12738
21
-1.11756
0
LINE
8
BLACK
6
CONTINUOUS
10
1.12738
20
-1.11756
11
1.14056
21
-1.11348
0
LINE
8
BLACK
6
CONTINUOUS
10
1.14056
20
-1.11348
11
1.14062
21
-1.11346
0
LINE
8
BLACK
6
CONTINUOUS
10
1.14062
20
-1.11346
11
1.14107
21
-1.11337
0
LINE
8
BLACK
6
CONTINUOUS
10
1.14107
20
-1.11337
11
1.14151
21
-1.11328
0
LINE
8
BLACK
6
CONTINUOUS
10
1.14151
20
-1.11328
11
1.1563
21
-1.11173
0
LINE
8
BLACK
6
CONTINUOUS
10
1.1563
20
-1.11173
11
1.15637
21
-1.11172
0
LINE
8
BLACK
6
CONTINUOUS
10
1.15637
20
-1.11172
11
1.15659
21
-1.11172
0
LINE
8
BLACK
6
CONTINUOUS
10
1.15659
20
-1.11172
11
1.15682
21
-1.1117
0
LINE
8
BLACK
6
CONTINUOUS
10
1.15682
20
-1.1117
11
12.3426
21
-1.1117
0
LINE
8
BLACK
6
CONTINUOUS
10
12.3426
20
-1.1117
11
12.3427
21
-1.1117
0
LINE
8
BLACK
6
CONTINUOUS
10
12.3427
20
-1.1117
11
12.3429
21
-1.11173
0
LINE
8
BLACK
6
CONTINUOUS
10
12.3429
20
-1.11173
11
12.3431
21
-1.11173
0
LINE
8
BLACK
6
CONTINUOUS
10
12.3431
20
-1.11173
11
12.358
21
-1.11318
0
LINE
8
BLACK
6
CONTINUOUS
10
12.358
20
-1.11318
11
12.358
21
-1.11319
0
LINE
8
BLACK
6
CONTINUOUS
10
12.358
20
-1.11319
11
12.3585
21
-1.11328
0
LINE
8
BLACK
6
CONTINUOUS
10
12.3585
20
-1.11328
11
12.3589
21
-1.11337
0
LINE
8
BLACK
6
CONTINUOUS
10
12.3589
20
-1.11337
11
12.3721
21
-1.11736
0
LINE
8
BLACK
6
CONTINUOUS
10
12.3721
20
-1.11736
11
12.3722
21
-1.11738
0
LINE
8
BLACK
6
CONTINUOUS
10
12.3722
20
-1.11738
11
12.3726
21
-1.11756
0
LINE
8
BLACK
6
CONTINUOUS
10
12.3726
20
-1.11756
11
12.373
21
-1.11773
0
LINE
8
BLACK
6
CONTINUOUS
10
12.373
20
-1.11773
11
12.3852
21
-1.12421
0
LINE
8
BLACK
6
CONTINUOUS
10
12.3852
20
-1.12421
11
12.3853
21
-1.12424
0
LINE
8
BLACK
6
CONTINUOUS
10
12.3853
20
-1.12424
11
12.3857
21
-1.1245
0
LINE
8
BLACK
6
CONTINUOUS
10
12.3857
20
-1.1245
11
12.386
21
-1.12475
0
LINE
8
BLACK
6
CONTINUOUS
10
12.386
20
-1.12475
11
12.3967
21
-1.13347
0
LINE
8
BLACK
6
CONTINUOUS
10
12.3967
20
-1.13347
11
12.3968
21
-1.13351
0
LINE
8
BLACK
6
CONTINUOUS
10
12.3968
20
-1.13351
11
12.3971
21
-1.13384
0
LINE
8
BLACK
6
CONTINUOUS
10
12.3971
20
-1.13384
11
12.3974
21
-1.13416
0
LINE
8
BLACK
6
CONTINUOUS
10
12.3974
20
-1.13416
11
12.4062
21
-1.14479
0
LINE
8
BLACK
6
CONTINUOUS
10
12.4062
20
-1.14479
11
12.4062
21
-1.14484
0
LINE
8
BLACK
6
CONTINUOUS
10
12.4062
20
-1.14484
11
12.4065
21
-1.14522
0
LINE
8
BLACK
6
CONTINUOUS
10
12.4065
20
-1.14522
11
12.4068
21
-1.14559
0
LINE
8
BLACK
6
CONTINUOUS
10
12.4068
20
-1.14559
11
12.4133
21
-1.15773
0
LINE
8
BLACK
6
CONTINUOUS
10
12.4133
20
-1.15773
11
12.4133
21
-1.15779
0
LINE
8
BLACK
6
CONTINUOUS
10
12.4133
20
-1.15779
11
12.4135
21
-1.15821
0
LINE
8
BLACK
6
CONTINUOUS
10
12.4135
20
-1.15821
11
12.4137
21
-1.15863
0
LINE
8
BLACK
6
CONTINUOUS
10
12.4137
20
-1.15863
11
12.4178
21
-1.17181
0
LINE
8
BLACK
6
CONTINUOUS
10
12.4178
20
-1.17181
11
12.4178
21
-1.17187
0
LINE
8
BLACK
6
CONTINUOUS
10
12.4178
20
-1.17187
11
12.4179
21
-1.17232
0
LINE
8
BLACK
6
CONTINUOUS
10
12.4179
20
-1.17232
11
12.418
21
-1.17276
0
LINE
8
BLACK
6
CONTINUOUS
10
12.418
20
-1.17276
11
12.4195
21
-1.18755
0
LINE
8
BLACK
6
CONTINUOUS
10
12.4195
20
-1.18755
11
12.4195
21
-1.18762
0
LINE
8
BLACK
6
CONTINUOUS
10
12.4195
20
-1.18762
11
12.4195
21
-1.18784
0
LINE
8
BLACK
6
CONTINUOUS
10
12.4195
20
-1.18784
11
12.4195
21
-1.18807
0
LINE
8
BLACK
6
CONTINUOUS
10
12.4195
20
-1.18807
11
12.4195
21
-4.81138
0
LINE
8
BLACK
6
CONTINUOUS
10
12.4195
20
-4.81138
11
12.4195
21
-4.81145
0
LINE
8
BLACK
6
CONTINUOUS
10
12.4195
20
-4.81145
11
12.4195
21
-4.81166
0
LINE
8
BLACK
6
CONTINUOUS
10
12.4195
20
-4.81166
11
12.4195
21
-4.81187
0
LINE
8
BLACK
6
CONTINUOUS
10
12.4195
20
-4.81187
11
12.4181
21
-4.82672
0
LINE
8
BLACK
6
CONTINUOUS
10
12.4181
20
-4.82672
11
12.4181
21
-4.82679
0
LINE
8
BLACK
6
CONTINUOUS
10
12.4181
20
-4.82679
11
12.418
21
-4.82723
0
LINE
8
BLACK
6
CONTINUOUS
10
12.418
20
-4.82723
11
12.4179
21
-4.82768
0
LINE
8
BLACK
6
CONTINUOUS
10
12.4179
20
-4.82768
11
12.4139
21
-4.84088
0
LINE
8
BLACK
6
CONTINUOUS
10
12.4139
20
-4.84088
11
12.4139
21
-4.84095
0
LINE
8
BLACK
6
CONTINUOUS
10
12.4139
20
-4.84095
11
12.4137
21
-4.84137
0
LINE
8
BLACK
6
CONTINUOUS
10
12.4137
20
-4.84137
11
12.4135
21
-4.84178
0
LINE
8
BLACK
6
CONTINUOUS
10
12.4135
20
-4.84178
11
12.407
21
-4.85397
0
LINE
8
BLACK
6
CONTINUOUS
10
12.407
20
-4.85397
11
12.407
21
-4.85403
0
LINE
8
BLACK
6
CONTINUOUS
10
12.407
20
-4.85403
11
12.4068
21
-4.8544
0
LINE
8
BLACK
6
CONTINUOUS
10
12.4068
20
-4.8544
11
12.4065
21
-4.85478
0
LINE
8
BLACK
6
CONTINUOUS
10
12.4065
20
-4.85478
11
12.3978
21
-4.86547
0
LINE
8
BLACK
6
CONTINUOUS
10
12.3978
20
-4.86547
11
12.3977
21
-4.86552
0
LINE
8
BLACK
6
CONTINUOUS
10
12.3977
20
-4.86552
11
12.3974
21
-4.86584
0
LINE
8
BLACK
6
CONTINUOUS
10
12.3974
20
-4.86584
11
12.3971
21
-4.86616
0
LINE
8
BLACK
6
CONTINUOUS
10
12.3971
20
-4.86616
11
12.3865
21
-4.87495
0
LINE
8
BLACK
6
CONTINUOUS
10
12.3865
20
-4.87495
11
12.3864
21
-4.875
0
LINE
8
BLACK
6
CONTINUOUS
10
12.3864
20
-4.875
11
12.386
21
-4.87525
0
LINE
8
BLACK
6
CONTINUOUS
10
12.386
20
-4.87525
11
12.3857
21
-4.8755
0
LINE
8
BLACK
6
CONTINUOUS
10
12.3857
20
-4.8755
11
12.3735
21
-4.88206
0
LINE
8
BLACK
6
CONTINUOUS
10
12.3735
20
-4.88206
11
12.3735
21
-4.88206
0
LINE
8
BLACK
6
CONTINUOUS
10
12.3735
20
-4.88206
11
12.3735
21
-4.88206
0
LINE
8
BLACK
6
CONTINUOUS
10
12.3735
20
-4.88206
11
12.3735
21
-4.88209
0
LINE
8
BLACK
6
CONTINUOUS
10
12.3735
20
-4.88209
11
12.373
21
-4.88227
0
LINE
8
BLACK
6
CONTINUOUS
10
12.373
20
-4.88227
11
12.3726
21
-4.88244
0
LINE
8
BLACK
6
CONTINUOUS
10
12.3726
20
-4.88244
11
12.3594
21
-4.88652
0
LINE
8
BLACK
6
CONTINUOUS
10
12.3594
20
-4.88652
11
12.3594
21
-4.88654
0
LINE
8
BLACK
6
CONTINUOUS
10
12.3594
20
-4.88654
11
12.3589
21
-4.88663
0
LINE
8
BLACK
6
CONTINUOUS
10
12.3589
20
-4.88663
11
12.3585
21
-4.88672
0
LINE
8
BLACK
6
CONTINUOUS
10
12.3585
20
-4.88672
11
12.3437
21
-4.88827
0
LINE
8
BLACK
6
CONTINUOUS
10
12.3437
20
-4.88827
11
12.3436
21
-4.88828
0
LINE
8
BLACK
6
CONTINUOUS
10
12.3436
20
-4.88828
11
12.3434
21
-4.88828
0
LINE
8
BLACK
6
CONTINUOUS
10
12.3434
20
-4.88828
11
12.3432
21
-4.8883
0
LINE
8
BLACK
6
CONTINUOUS
10
12.3432
20
-4.8883
11
1.15737
21
-4.8883
0
LINE
8
BLACK
6
CONTINUOUS
10
1.15737
20
-4.8883
11
1.1573
21
-4.8883
0
LINE
8
BLACK
6
CONTINUOUS
10
1.1573
20
-4.8883
11
1.15709
21
-4.88827
0
LINE
8
BLACK
6
CONTINUOUS
10
1.15709
20
-4.88827
11
1.15688
21
-4.88827
0
LINE
8
BLACK
6
CONTINUOUS
10
1.15688
20
-4.88827
11
1.14203
21
-4.88682
0
LINE
8
BLACK
6
CONTINUOUS
10
1.14203
20
-4.88682
11
1.14196
21
-4.88681
0
LINE
8
BLACK
6
CONTINUOUS
10
1.14196
20
-4.88681
11
1.14152
21
-4.88672
0
LINE
8
BLACK
6
CONTINUOUS
10
1.14152
20
-4.88672
11
1.14107
21
-4.88663
0
LINE
8
BLACK
6
CONTINUOUS
10
1.14107
20
-4.88663
11
1.12787
21
-4.88264
0
LINE
8
BLACK
6
CONTINUOUS
10
1.12787
20
-4.88264
11
1.1278
21
-4.88262
0
LINE
8
BLACK
6
CONTINUOUS
10
1.1278
20
-4.88262
11
1.12738
21
-4.88244
0
LINE
8
BLACK
6
CONTINUOUS
10
1.12738
20
-4.88244
11
1.12697
21
-4.88227
0
LINE
8
BLACK
6
CONTINUOUS
10
1.12697
20
-4.88227
11
1.11478
21
-4.87579
0
LINE
8
BLACK
6
CONTINUOUS
10
1.11478
20
-4.87579
11
1.11472
21
-4.87576
0
LINE
8
BLACK
6
CONTINUOUS
10
1.11472
20
-4.87576
11
1.11435
21
-4.8755
0
LINE
8
BLACK
6
CONTINUOUS
10
1.11435
20
-4.8755
11
1.11397
21
-4.87525
0
LINE
8
BLACK
6
CONTINUOUS
10
1.11397
20
-4.87525
11
1.10328
21
-4.86653
0
LINE
8
BLACK
6
CONTINUOUS
10
1.10328
20
-4.86653
11
1.10323
21
-4.86649
0
LINE
8
BLACK
6
CONTINUOUS
10
1.10323
20
-4.86649
11
1.10291
21
-4.86616
0
LINE
8
BLACK
6
CONTINUOUS
10
1.10291
20
-4.86616
11
1.10259
21
-4.86584
0
LINE
8
BLACK
6
CONTINUOUS
10
1.10259
20
-4.86584
11
1.0938
21
-4.85521
0
LINE
8
BLACK
6
CONTINUOUS
10
1.0938
20
-4.85521
11
1.09375
21
-4.85516
0
LINE
8
BLACK
6
CONTINUOUS
10
1.09375
20
-4.85516
11
1.0935
21
-4.85478
0
LINE
8
BLACK
6
CONTINUOUS
10
1.0935
20
-4.85478
11
1.09325
21
-4.85441
0
LINE
8
BLACK
6
CONTINUOUS
10
1.09325
20
-4.85441
11
1.08669
21
-4.84227
0
LINE
8
BLACK
6
CONTINUOUS
10
1.08669
20
-4.84227
11
1.08669
21
-4.84227
0
LINE
8
BLACK
6
CONTINUOUS
10
1.08669
20
-4.84227
11
1.08669
21
-4.84227
0
LINE
8
BLACK
6
CONTINUOUS
10
1.08669
20
-4.84227
11
1.08666
21
-4.84221
0
LINE
8
BLACK
6
CONTINUOUS
10
1.08666
20
-4.84221
11
1.08648
21
-4.84179
0
LINE
8
BLACK
6
CONTINUOUS
10
1.08648
20
-4.84179
11
1.08631
21
-4.84137
0
LINE
8
BLACK
6
CONTINUOUS
10
1.08631
20
-4.84137
11
1.08223
21
-4.82819
0
LINE
8
BLACK
6
CONTINUOUS
10
1.08223
20
-4.82819
11
1.08221
21
-4.82813
0
LINE
8
BLACK
6
CONTINUOUS
10
1.08221
20
-4.82813
11
1.08212
21
-4.82768
0
LINE
8
BLACK
6
CONTINUOUS
10
1.08212
20
-4.82768
11
1.08203
21
-4.82724
0
LINE
8
BLACK
6
CONTINUOUS
10
1.08203
20
-4.82724
11
1.08048
21
-4.81245
0
LINE
8
BLACK
6
CONTINUOUS
10
1.08048
20
-4.81245
11
1.08047
21
-4.81238
0
LINE
8
BLACK
6
CONTINUOUS
10
1.08047
20
-4.81238
11
1.08047
21
-4.81216
0
LINE
8
BLACK
6
CONTINUOUS
10
1.08047
20
-4.81216
11
1.08045
21
-4.81193
0
LINE
8
BLACK
6
CONTINUOUS
10
1.08045
20
-4.81193
11
1.08045
21
-1.18862
0
LINE
8
BLACK
6
CONTINUOUS
10
1.08045
20
-1.18862
11
1.08045
21
-1.18855
0
LINE
8
BLACK
6
CONTINUOUS
10
11.6193
20
-4.06669
11
11.608
21
-4.06893
0
LINE
8
BLACK
6
CONTINUOUS
10
11.608
20
-4.06893
11
11.5974
21
-4.07333
0
LINE
8
BLACK
6
CONTINUOUS
10
11.5974
20
-4.07333
11
11.5878
21
-4.07971
0
LINE
8
BLACK
6
CONTINUOUS
10
11.5878
20
-4.07971
11
11.5797
21
-4.08783
0
LINE
8
BLACK
6
CONTINUOUS
10
11.5797
20
-4.08783
11
11.5733
21
-4.09738
0
LINE
8
BLACK
6
CONTINUOUS
10
11.5733
20
-4.09738
11
11.5689
21
-4.10799
0
LINE
8
BLACK
6
CONTINUOUS
10
11.5689
20
-4.10799
11
11.5667
21
-4.11926
0
LINE
8
BLACK
6
CONTINUOUS
10
11.5667
20
-4.11926
11
11.5667
21
-4.13074
0
LINE
8
BLACK
6
CONTINUOUS
10
11.5667
20
-4.13074
11
11.5689
21
-4.14201
0
LINE
8
BLACK
6
CONTINUOUS
10
11.5689
20
-4.14201
11
11.5733
21
-4.15262
0
LINE
8
BLACK
6
CONTINUOUS
10
11.5733
20
-4.15262
11
11.5797
21
-4.16217
0
LINE
8
BLACK
6
CONTINUOUS
10
11.5797
20
-4.16217
11
11.5878
21
-4.17029
0
LINE
8
BLACK
6
CONTINUOUS
10
11.5878
20
-4.17029
11
11.5974
21
-4.17667
0
LINE
8
BLACK
6
CONTINUOUS
10
11.5974
20
-4.17667
11
11.608
21
-4.18107
0
LINE
8
BLACK
6
CONTINUOUS
10
11.608
20
-4.18107
11
11.6193
21
-4.18331
0
LINE
8
BLACK
6
CONTINUOUS
10
11.6193
20
-4.18331
11
11.6307
21
-4.18331
0
LINE
8
BLACK
6
CONTINUOUS
10
11.6307
20
-4.18331
11
11.642
21
-4.18107
0
LINE
8
BLACK
6
CONTINUOUS
10
11.642
20
-4.18107
11
11.6526
21
-4.17667
0
LINE
8
BLACK
6
CONTINUOUS
10
11.6526
20
-4.17667
11
11.6622
21
-4.17029
0
LINE
8
BLACK
6
CONTINUOUS
10
11.6622
20
-4.17029
11
11.6703
21
-4.16217
0
LINE
8
BLACK
6
CONTINUOUS
10
11.6703
20
-4.16217
11
11.6767
21
-4.15262
0
LINE
8
BLACK
6
CONTINUOUS
10
11.6767
20
-4.15262
11
11.6811
21
-4.14201
0
LINE
8
BLACK
6
CONTINUOUS
10
11.6811
20
-4.14201
11
11.6833
21
-4.13074
0
LINE
8
BLACK
6
CONTINUOUS
10
11.6833
20
-4.13074
11
11.6833
21
-4.11926
0
LINE
8
BLACK
6
CONTINUOUS
10
11.6833
20
-4.11926
11
11.6811
21
-4.10799
0
LINE
8
BLACK
6
CONTINUOUS
10
11.6811
20
-4.10799
11
11.6767
21
-4.09738
0
LINE
8
BLACK
6
CONTINUOUS
10
11.6767
20
-4.09738
11
11.6703
21
-4.08783
0
LINE
8
BLACK
6
CONTINUOUS
10
11.6703
20
-4.08783
11
11.6622
21
-4.07971
0
LINE
8
BLACK
6
CONTINUOUS
10
11.6622
20
-4.07971
11
11.6526
21
-4.07333
0
LINE
8
BLACK
6
CONTINUOUS
10
11.6526
20
-4.07333
11
11.642
21
-4.06893
0
LINE
8
BLACK
6
CONTINUOUS
10
11.642
20
-4.06893
11
11.6307
21
-4.06669
0
LINE
8
BLACK
6
CONTINUOUS
10
11.6307
20
-4.06669
11
11.6193
21
-4.06669
0
LINE
8
BLACK
6
CONTINUOUS
10
8.61926
20
-4.06669
11
8.60799
21
-4.06893
0
LINE
8
BLACK
6
CONTINUOUS
10
8.60799
20
-4.06893
11
8.59738
21
-4.07333
0
LINE
8
BLACK
6
CONTINUOUS
10
8.59738
20
-4.07333
11
8.58783
21
-4.07971
0
LINE
8
BLACK
6
CONTINUOUS
10
8.58783
20
-4.07971
11
8.57971
21
-4.08783
0
LINE
8
BLACK
6
CONTINUOUS
10
8.57971
20
-4.08783
11
8.57333
21
-4.09738
0
LINE
8
BLACK
6
CONTINUOUS
10
8.57333
20
-4.09738
11
8.56893
21
-4.10799
0
LINE
8
BLACK
6
CONTINUOUS
10
8.56893
20
-4.10799
11
8.56669
21
-4.11926
0
LINE
8
BLACK
6
CONTINUOUS
10
8.56669
20
-4.11926
11
8.56669
21
-4.13074
0
LINE
8
BLACK
6
CONTINUOUS
10
8.56669
20
-4.13074
11
8.56893
21
-4.14201
0
LINE
8
BLACK
6
CONTINUOUS
10
8.56893
20
-4.14201
11
8.57333
21
-4.15262
0
LINE
8
BLACK
6
CONTINUOUS
10
8.57333
20
-4.15262
11
8.57971
21
-4.16217
0
LINE
8
BLACK
6
CONTINUOUS
10
8.57971
20
-4.16217
11
8.58783
21
-4.17029
0
LINE
8
BLACK
6
CONTINUOUS
10
8.58783
20
-4.17029
11
8.59738
21
-4.17667
0
LINE
8
BLACK
6
CONTINUOUS
10
8.59738
20
-4.17667
11
8.60799
21
-4.18107
0
LINE
8
BLACK
6
CONTINUOUS
10
8.60799
20
-4.18107
11
8.61926
21
-4.18331
0
LINE
8
BLACK
6
CONTINUOUS
10
8.61926
20
-4.18331
11
8.63074
21
-4.18331
0
LINE
8
BLACK
6
CONTINUOUS
10
8.63074
20
-4.18331
11
8.64201
21
-4.18107
0
LINE
8
BLACK
6
CONTINUOUS
10
8.64201
20
-4.18107
11
8.65262
21
-4.17667
0
LINE
8
BLACK
6
CONTINUOUS
10
8.65262
20
-4.17667
11
8.66217
21
-4.17029
0
LINE
8
BLACK
6
CONTINUOUS
10
8.66217
20
-4.17029
11
8.67029
21
-4.16217
0
LINE
8
BLACK
6
CONTINUOUS
10
8.67029
20
-4.16217
11
8.67667
21
-4.15262
0
LINE
8
BLACK
6
CONTINUOUS
10
8.67667
20
-4.15262
11
8.68107
21
-4.14201
0
LINE
8
BLACK
6
CONTINUOUS
10
8.68107
20
-4.14201
11
8.68331
21
-4.13074
0
LINE
8
BLACK
6
CONTINUOUS
10
8.68331
20
-4.13074
11
8.68331
21
-4.11926
0
LINE
8
BLACK
6
CONTINUOUS
10
8.68331
20
-4.11926
11
8.68107
21
-4.10799
0
LINE
8
BLACK
6
CONTINUOUS
10
8.68107
20
-4.10799
11
8.67667
21
-4.09738
0
LINE
8
BLACK
6
CONTINUOUS
10
8.67667
20
-4.09738
11
8.67029
21
-4.08783
0
LINE
8
BLACK
6
CONTINUOUS
10
8.67029
20
-4.08783
11
8.66217
21
-4.07971
0
LINE
8
BLACK
6
CONTINUOUS
10
8.66217
20
-4.07971
11
8.65262
21
-4.07333
0
LINE
8
BLACK
6
CONTINUOUS
10
8.65262
20
-4.07333
11
8.64201
21
-4.06893
0
LINE
8
BLACK
6
CONTINUOUS
10
8.64201
20
-4.06893
11
8.63074
21
-4.06669
0
LINE
8
BLACK
6
CONTINUOUS
10
8.63074
20
-4.06669
11
8.61926
21
-4.06669
0
LINE
8
BLACK
6
CONTINUOUS
10
4.86926
20
-4.06669
11
4.85799
21
-4.06893
0
LINE
8
BLACK
6
CONTINUOUS
10
4.85799
20
-4.06893
11
4.84738
21
-4.07333
0
LINE
8
BLACK
6
CONTINUOUS
10
4.84738
20
-4.07333
11
4.83783
21
-4.07971
0
LINE
8
BLACK
6
CONTINUOUS
10
4.83783
20
-4.07971
11
4.82971
21
-4.08783
0
LINE
8
BLACK
6
CONTINUOUS
10
4.82971
20
-4.08783
11
4.82333
21
-4.09738
0
LINE
8
BLACK
6
CONTINUOUS
10
4.82333
20
-4.09738
11
4.81893
21
-4.10799
0
LINE
8
BLACK
6
CONTINUOUS
10
4.81893
20
-4.10799
11
4.81669
21
-4.11926
0
LINE
8
BLACK
6
CONTINUOUS
10
4.81669
20
-4.11926
11
4.81669
21
-4.13074
0
LINE
8
BLACK
6
CONTINUOUS
10
4.81669
20
-4.13074
11
4.81893
21
-4.14201
0
LINE
8
BLACK
6
CONTINUOUS
10
4.81893
20
-4.14201
11
4.82333
21
-4.15262
0
LINE
8
BLACK
6
CONTINUOUS
10
4.82333
20
-4.15262
11
4.82971
21
-4.16217
0
LINE
8
BLACK
6
CONTINUOUS
10
4.82971
20
-4.16217
11
4.83783
21
-4.17029
0
LINE
8
BLACK
6
CONTINUOUS
10
4.83783
20
-4.17029
11
4.84738
21
-4.17667
0
LINE
8
BLACK
6
CONTINUOUS
10
4.84738
20
-4.17667
11
4.85799
21
-4.18107
0
LINE
8
BLACK
6
CONTINUOUS
10
4.85799
20
-4.18107
11
4.86926
21
-4.18331
0
LINE
8
BLACK
6
CONTINUOUS
10
4.86926
20
-4.18331
11
4.88074
21
-4.18331
0
LINE
8
BLACK
6
CONTINUOUS
10
4.88074
20
-4.18331
11
4.89201
21
-4.18107
0
LINE
8
BLACK
6
CONTINUOUS
10
4.89201
20
-4.18107
11
4.90262
21
-4.17667
0
LINE
8
BLACK
6
CONTINUOUS
10
4.90262
20
-4.17667
11
4.91217
21
-4.17029
0
LINE
8
BLACK
6
CONTINUOUS
10
4.91217
20
-4.17029
11
4.92029
21
-4.16217
0
LINE
8
BLACK
6
CONTINUOUS
10
4.92029
20
-4.16217
11
4.92667
21
-4.15262
0
LINE
8
BLACK
6
CONTINUOUS
10
4.92667
20
-4.15262
11
4.93107
21
-4.14201
0
LINE
8
BLACK
6
CONTINUOUS
10
4.93107
20
-4.14201
11
4.93331
21
-4.13074
0
LINE
8
BLACK
6
CONTINUOUS
10
4.93331
20
-4.13074
11
4.93331
21
-4.11926
0
LINE
8
BLACK
6
CONTINUOUS
10
4.93331
20
-4.11926
11
4.93107
21
-4.10799
0
LINE
8
BLACK
6
CONTINUOUS
10
4.93107
20
-4.10799
11
4.92667
21
-4.09738
0
LINE
8
BLACK
6
CONTINUOUS
10
4.92667
20
-4.09738
11
4.92029
21
-4.08783
0
LINE
8
BLACK
6
CONTINUOUS
10
4.92029
20
-4.08783
11
4.91217
21
-4.07971
0
LINE
8
BLACK
6
CONTINUOUS
10
4.91217
20
-4.07971
11
4.90262
21
-4.07333
0
LINE
8
BLACK
6
CONTINUOUS
10
4.90262
20
-4.07333
11
4.89201
21
-4.06893
0
LINE
8
BLACK
6
CONTINUOUS
10
4.89201
20
-4.06893
11
4.88074
21
-4.06669
0
LINE
8
BLACK
6
CONTINUOUS
10
4.88074
20
-4.06669
11
4.86926
21
-4.06669
0
LINE
8
BLACK
6
CONTINUOUS
10
1.86926
20
-4.06669
11
1.85799
21
-4.06893
0
LINE
8
BLACK
6
CONTINUOUS
10
1.85799
20
-4.06893
11
1.84738
21
-4.07333
0
LINE
8
BLACK
6
CONTINUOUS
10
1.84738
20
-4.07333
11
1.83783
21
-4.07971
0
LINE
8
BLACK
6
CONTINUOUS
10
1.83783
20
-4.07971
11
1.82971
21
-4.08783
0
LINE
8
BLACK
6
CONTINUOUS
10
1.82971
20
-4.08783
11
1.82333
21
-4.09738
0
LINE
8
BLACK
6
CONTINUOUS
10
1.82333
20
-4.09738
11
1.81893
21
-4.10799
0
LINE
8
BLACK
6
CONTINUOUS
10
1.81893
20
-4.10799
11
1.81669
21
-4.11926
0
LINE
8
BLACK
6
CONTINUOUS
10
1.81669
20
-4.11926
11
1.81669
21
-4.13074
0
LINE
8
BLACK
6
CONTINUOUS
10
1.81669
20
-4.13074
11
1.81893
21
-4.14201
0
LINE
8
BLACK
6
CONTINUOUS
10
1.81893
20
-4.14201
11
1.82333
21
-4.15262
0
LINE
8
BLACK
6
CONTINUOUS
10
1.82333
20
-4.15262
11
1.82971
21
-4.16217
0
LINE
8
BLACK
6
CONTINUOUS
10
1.82971
20
-4.16217
11
1.83783
21
-4.17029
0
LINE
8
BLACK
6
CONTINUOUS
10
1.83783
20
-4.17029
11
1.84738
21
-4.17667
0
LINE
8
BLACK
6
CONTINUOUS
10
1.84738
20
-4.17667
11
1.85799
21
-4.18107
0
LINE
8
BLACK
6
CONTINUOUS
10
1.85799
20
-4.18107
11
1.86926
21
-4.18331
0
LINE
8
BLACK
6
CONTINUOUS
10
1.86926
20
-4.18331
11
1.88074
21
-4.18331
0
LINE
8
BLACK
6
CONTINUOUS
10
1.88074
20
-4.18331
11
1.89201
21
-4.18107
0
LINE
8
BLACK
6
CONTINUOUS
10
1.89201
20
-4.18107
11
1.90262
21
-4.17667
0
LINE
8
BLACK
6
CONTINUOUS
10
1.90262
20
-4.17667
11
1.91217
21
-4.17029
0
LINE
8
BLACK
6
CONTINUOUS
10
1.91217
20
-4.17029
11
1.92029
21
-4.16217
0
LINE
8
BLACK
6
CONTINUOUS
10
1.92029
20
-4.16217
11
1.92667
21
-4.15262
0
LINE
8
BLACK
6
CONTINUOUS
10
1.92667
20
-4.15262
11
1.93107
21
-4.14201
0
LINE
8
BLACK
6
CONTINUOUS
10
1.93107
20
-4.14201
11
1.93331
21
-4.13074
0
LINE
8
BLACK
6
CONTINUOUS
10
1.93331
20
-4.13074
11
1.93331
21
-4.11926
0
LINE
8
BLACK
6
CONTINUOUS
10
1.93331
20
-4.11926
11
1.93107
21
-4.10799
0
LINE
8
BLACK
6
CONTINUOUS
10
1.93107
20
-4.10799
11
1.92667
21
-4.09738
0
LINE
8
BLACK
6
CONTINUOUS
10
1.92667
20
-4.09738
11
1.92029
21
-4.08783
0
LINE
8
BLACK
6
CONTINUOUS
10
1.92029
20
-4.08783
11
1.91217
21
-4.07971
0
LINE
8
BLACK
6
CONTINUOUS
10
1.91217
20
-4.07971
11
1.90262
21
-4.07333
0
LINE
8
BLACK
6
CONTINUOUS
10
1.90262
20
-4.07333
11
1.89201
21
-4.06893
0
LINE
8
BLACK
6
CONTINUOUS
10
1.89201
20
-4.06893
11
1.88074
21
-4.06669
0
LINE
8
BLACK
6
CONTINUOUS
10
1.88074
20
-4.06669
11
1.86926
21
-4.06669
0
LINE
8
BLACK
6
CONTINUOUS
10
10.1193
20
-3.31669
11
10.108
21
-3.31893
0
LINE
8
BLACK
6
CONTINUOUS
10
10.108
20
-3.31893
11
10.0974
21
-3.32333
0
LINE
8
BLACK
6
CONTINUOUS
10
10.0974
20
-3.32333
11
10.0878
21
-3.32971
0
LINE
8
BLACK
6
CONTINUOUS
10
10.0878
20
-3.32971
11
10.0797
21
-3.33783
0
LINE
8
BLACK
6
CONTINUOUS
10
10.0797
20
-3.33783
11
10.0733
21
-3.34738
0
LINE
8
BLACK
6
CONTINUOUS
10
10.0733
20
-3.34738
11
10.0689
21
-3.35799
0
LINE
8
BLACK
6
CONTINUOUS
10
10.0689
20
-3.35799
11
10.0667
21
-3.36926
0
LINE
8
BLACK
6
CONTINUOUS
10
10.0667
20
-3.36926
11
10.0667
21
-3.38074
0
LINE
8
BLACK
6
CONTINUOUS
10
10.0667
20
-3.38074
11
10.0689
21
-3.39201
0
LINE
8
BLACK
6
CONTINUOUS
10
10.0689
20
-3.39201
11
10.0733
21
-3.40262
0
LINE
8
BLACK
6
CONTINUOUS
10
10.0733
20
-3.40262
11
10.0797
21
-3.41217
0
LINE
8
BLACK
6
CONTINUOUS
10
10.0797
20
-3.41217
11
10.0878
21
-3.42029
0
LINE
8
BLACK
6
CONTINUOUS
10
10.0878
20
-3.42029
11
10.0974
21
-3.42667
0
LINE
8
BLACK
6
CONTINUOUS
10
10.0974
20
-3.42667
11
10.108
21
-3.43107
0
LINE
8
BLACK
6
CONTINUOUS
10
10.108
20
-3.43107
11
10.1193
21
-3.43331
0
LINE
8
BLACK
6
CONTINUOUS
10
10.1193
20
-3.43331
11
10.1307
21
-3.43331
0
LINE
8
BLACK
6
CONTINUOUS
10
10.1307
20
-3.43331
11
10.142
21
-3.43107
0
LINE
8
BLACK
6
CONTINUOUS
10
10.142
20
-3.43107
11
10.1526
21
-3.42667
0
LINE
8
BLACK
6
CONTINUOUS
10
10.1526
20
-3.42667
11
10.1622
21
-3.42029
0
LINE
8
BLACK
6
CONTINUOUS
10
10.1622
20
-3.42029
11
10.1703
21
-3.41217
0
LINE
8
BLACK
6
CONTINUOUS
10
10.1703
20
-3.41217
11
10.1767
21
-3.40262
0
LINE
8
BLACK
6
CONTINUOUS
10
10.1767
20
-3.40262
11
10.1811
21
-3.39201
0
LINE
8
BLACK
6
CONTINUOUS
10
10.1811
20
-3.39201
11
10.1833
21
-3.38074
0
LINE
8
BLACK
6
CONTINUOUS
10
10.1833
20
-3.38074
11
10.1833
21
-3.36926
0
LINE
8
BLACK
6
CONTINUOUS
10
10.1833
20
-3.36926
11
10.1811
21
-3.35799
0
LINE
8
BLACK
6
CONTINUOUS
10
10.1811
20
-3.35799
11
10.1767
21
-3.34738
0
LINE
8
BLACK
6
CONTINUOUS
10
10.1767
20
-3.34738
11
10.1703
21
-3.33783
0
LINE
8
BLACK
6
CONTINUOUS
10
10.1703
20
-3.33783
11
10.1622
21
-3.32971
0
LINE
8
BLACK
6
CONTINUOUS
10
10.1622
20
-3.32971
11
10.1526
21
-3.32333
0
LINE
8
BLACK
6
CONTINUOUS
10
10.1526
20
-3.32333
11
10.142
21
-3.31893
0
LINE
8
BLACK
6
CONTINUOUS
10
10.142
20
-3.31893
11
10.1307
21
-3.31669
0
LINE
8
BLACK
6
CONTINUOUS
10
10.1307
20
-3.31669
11
10.1193
21
-3.31669
0
LINE
8
BLACK
6
CONTINUOUS
10
3.36926
20
-3.31669
11
3.35799
21
-3.31893
0
LINE
8
BLACK
6
CONTINUOUS
10
3.35799
20
-3.31893
11
3.34738
21
-3.32333
0
LINE
8
BLACK
6
CONTINUOUS
10
3.34738
20
-3.32333
11
3.33783
21
-3.32971
0
LINE
8
BLACK
6
CONTINUOUS
10
3.33783
20
-3.32971
11
3.32971
21
-3.33783
0
LINE
8
BLACK
6
CONTINUOUS
10
3.32971
20
-3.33783
11
3.32333
21
-3.34738
0
LINE
8
BLACK
6
CONTINUOUS
10
3.32333
20
-3.34738
11
3.31893
21
-3.35799
0
LINE
8
BLACK
6
CONTINUOUS
10
3.31893
20
-3.35799
11
3.31669
21
-3.36926
0
LINE
8
BLACK
6
CONTINUOUS
10
3.31669
20
-3.36926
11
3.31669
21
-3.38074
0
LINE
8
BLACK
6
CONTINUOUS
10
3.31669
20
-3.38074
11
3.31893
21
-3.39201
0
LINE
8
BLACK
6
CONTINUOUS
10
3.31893
20
-3.39201
11
3.32333
21
-3.40262
0
LINE
8
BLACK
6
CONTINUOUS
10
3.32333
20
-3.40262
11
3.32971
21
-3.41217
0
LINE
8
BLACK
6
CONTINUOUS
10
3.32971
20
-3.41217
11
3.33783
21
-3.42029
0
LINE
8
BLACK
6
CONTINUOUS
10
3.33783
20
-3.42029
11
3.34738
21
-3.42667
0
LINE
8
BLACK
6
CONTINUOUS
10
3.34738
20
-3.42667
11
3.35799
21
-3.43107
0
LINE
8
BLACK
6
CONTINUOUS
10
3.35799
20
-3.43107
11
3.36926
21
-3.43331
0
LINE
8
BLACK
6
CONTINUOUS
10
3.36926
20
-3.43331
11
3.38074
21
-3.43331
0
LINE
8
BLACK
6
CONTINUOUS
10
3.38074
20
-3.43331
11
3.39201
21
-3.43107
0
LINE
8
BLACK
6
CONTINUOUS
10
3.39201
20
-3.43107
11
3.40262
21
-3.42667
0
LINE
8
BLACK
6
CONTINUOUS
10
3.40262
20
-3.42667
11
3.41217
21
-3.42029
0
LINE
8
BLACK
6
CONTINUOUS
10
3.41217
20
-3.42029
11
3.42029
21
-3.41217
0
LINE
8
BLACK
6
CONTINUOUS
10
3.42029
20
-3.41217
11
3.42667
21
-3.40262
0
LINE
8
BLACK
6
CONTINUOUS
10
3.42667
20
-3.40262
11
3.43107
21
-3.39201
0
LINE
8
BLACK
6
CONTINUOUS
10
3.43107
20
-3.39201
11
3.43331
21
-3.38074
0
LINE
8
BLACK
6
CONTINUOUS
10
3.43331
20
-3.38074
11
3.43331
21
-3.36926
0
LINE
8
BLACK
6
CONTINUOUS
10
3.43331
20
-3.36926
11
3.43107
21
-3.35799
0
LINE
8
BLACK
6
CONTINUOUS
10
3.43107
20
-3.35799
11
3.42667
21
-3.34738
0
LINE
8
BLACK
6
CONTINUOUS
10
3.42667
20
-3.34738
11
3.42029
21
-3.33783
0
LINE
8
BLACK
6
CONTINUOUS
10
3.42029
20
-3.33783
11
3.41217
21
-3.32971
0
LINE
8
BLACK
6
CONTINUOUS
10
3.41217
20
-3.32971
11
3.40262
21
-3.32333
0
LINE
8
BLACK
6
CONTINUOUS
10
3.40262
20
-3.32333
11
3.39201
21
-3.31893
0
LINE
8
BLACK
6
CONTINUOUS
10
3.39201
20
-3.31893
11
3.38074
21
-3.31669
0
LINE
8
BLACK
6
CONTINUOUS
10
3.38074
20
-3.31669
11
3.36926
21
-3.31669
0
LINE
8
BLACK
6
CONTINUOUS
10
1.84865
20
-3.40489
11
1.84148
21
-3.40786
0
LINE
8
BLACK
6
CONTINUOUS
10
1.84148
20
-3.40786
11
1.83388
21
-3.40937
0
LINE
8
BLACK
6
CONTINUOUS
10
1.83388
20
-3.40937
11
1.82612
21
-3.40937
0
LINE
8
BLACK
6
CONTINUOUS
10
1.82612
20
-3.40937
11
1.81852
21
-3.40786
0
LINE
8
BLACK
6
CONTINUOUS
10
1.81852
20
-3.40786
11
1.81135
21
-3.40489
0
LINE
8
BLACK
6
CONTINUOUS
10
1.81135
20
-3.40489
11
1.81009
21
-3.40405
0
LINE
8
BLACK
6
CONTINUOUS
10
1.81009
20
-3.40405
11
1.79815
21
-3.41599
0
LINE
8
BLACK
6
CONTINUOUS
10
1.79815
20
-3.41599
11
1.80015
21
-3.4215
0
LINE
8
BLACK
6
CONTINUOUS
10
1.80015
20
-3.4215
11
1.80929
21
-3.42595
0
LINE
8
BLACK
6
CONTINUOUS
10
1.80929
20
-3.42595
11
1.8206
21
-3.42891
0
LINE
8
BLACK
6
CONTINUOUS
10
1.8206
20
-3.42891
11
1.83227
21
-3.42961
0
LINE
8
BLACK
6
CONTINUOUS
10
1.83227
20
-3.42961
11
1.84386
21
-3.42803
0
LINE
8
BLACK
6
CONTINUOUS
10
1.84386
20
-3.42803
11
1.855
21
-3.42417
0
LINE
8
BLACK
6
CONTINUOUS
10
1.855
20
-3.42417
11
1.85981
21
-3.42161
0
LINE
8
BLACK
6
CONTINUOUS
10
1.85981
20
-3.42161
11
1.86185
21
-3.41599
0
LINE
8
BLACK
6
CONTINUOUS
10
1.86185
20
-3.41599
11
1.84991
21
-3.40405
0
LINE
8
BLACK
6
CONTINUOUS
10
1.84991
20
-3.40405
11
1.84865
21
-3.40489
0
LINE
8
BLACK
6
CONTINUOUS
10
1.7785
20
-3.34015
11
1.77405
21
-3.34929
0
LINE
8
BLACK
6
CONTINUOUS
10
1.77405
20
-3.34929
11
1.77109
21
-3.3606
0
LINE
8
BLACK
6
CONTINUOUS
10
1.77109
20
-3.3606
11
1.77039
21
-3.37227
0
LINE
8
BLACK
6
CONTINUOUS
10
1.77039
20
-3.37227
11
1.77197
21
-3.38386
0
LINE
8
BLACK
6
CONTINUOUS
10
1.77197
20
-3.38386
11
1.77583
21
-3.395
0
LINE
8
BLACK
6
CONTINUOUS
10
1.77583
20
-3.395
11
1.77839
21
-3.39981
0
LINE
8
BLACK
6
CONTINUOUS
10
1.77839
20
-3.39981
11
1.78401
21
-3.40185
0
LINE
8
BLACK
6
CONTINUOUS
10
1.78401
20
-3.40185
11
1.79595
21
-3.38991
0
LINE
8
BLACK
6
CONTINUOUS
10
1.79595
20
-3.38991
11
1.79511
21
-3.38865
0
LINE
8
BLACK
6
CONTINUOUS
10
1.79511
20
-3.38865
11
1.79214
21
-3.38148
0
LINE
8
BLACK
6
CONTINUOUS
10
1.79214
20
-3.38148
11
1.79063
21
-3.37388
0
LINE
8
BLACK
6
CONTINUOUS
10
1.79063
20
-3.37388
11
1.79063
21
-3.36612
0
LINE
8
BLACK
6
CONTINUOUS
10
1.79063
20
-3.36612
11
1.79214
21
-3.35852
0
LINE
8
BLACK
6
CONTINUOUS
10
1.79214
20
-3.35852
11
1.79511
21
-3.35135
0
LINE
8
BLACK
6
CONTINUOUS
10
1.79511
20
-3.35135
11
1.79595
21
-3.35009
0
LINE
8
BLACK
6
CONTINUOUS
10
1.79595
20
-3.35009
11
1.78401
21
-3.33815
0
LINE
8
BLACK
6
CONTINUOUS
10
1.78401
20
-3.33815
11
1.7785
21
-3.34015
0
LINE
8
BLACK
6
CONTINUOUS
10
1.86405
20
-3.35009
11
1.86489
21
-3.35135
0
LINE
8
BLACK
6
CONTINUOUS
10
1.86489
20
-3.35135
11
1.86786
21
-3.35852
0
LINE
8
BLACK
6
CONTINUOUS
10
1.86786
20
-3.35852
11
1.86937
21
-3.36612
0
LINE
8
BLACK
6
CONTINUOUS
10
1.86937
20
-3.36612
11
1.86937
21
-3.37388
0
LINE
8
BLACK
6
CONTINUOUS
10
1.86937
20
-3.37388
11
1.86786
21
-3.38148
0
LINE
8
BLACK
6
CONTINUOUS
10
1.86786
20
-3.38148
11
1.86489
21
-3.38865
0
LINE
8
BLACK
6
CONTINUOUS
10
1.86489
20
-3.38865
11
1.86405
21
-3.38991
0
LINE
8
BLACK
6
CONTINUOUS
10
1.86405
20
-3.38991
11
1.87599
21
-3.40185
0
LINE
8
BLACK
6
CONTINUOUS
10
1.87599
20
-3.40185
11
1.8815
21
-3.39985
0
LINE
8
BLACK
6
CONTINUOUS
10
1.8815
20
-3.39985
11
1.88595
21
-3.39071
0
LINE
8
BLACK
6
CONTINUOUS
10
1.88595
20
-3.39071
11
1.88891
21
-3.3794
0
LINE
8
BLACK
6
CONTINUOUS
10
1.88891
20
-3.3794
11
1.88957
21
-3.36846
0
LINE
8
BLACK
6
CONTINUOUS
10
1.88957
20
-3.36846
11
1.88957
21
-3.36846
0
LINE
8
BLACK
6
CONTINUOUS
10
1.88957
20
-3.36846
11
1.88961
21
-3.36773
0
LINE
8
BLACK
6
CONTINUOUS
10
1.88961
20
-3.36773
11
1.88803
21
-3.35614
0
LINE
8
BLACK
6
CONTINUOUS
10
1.88803
20
-3.35614
11
1.88417
21
-3.345
0
LINE
8
BLACK
6
CONTINUOUS
10
1.88417
20
-3.345
11
1.88161
21
-3.34019
0
LINE
8
BLACK
6
CONTINUOUS
10
1.88161
20
-3.34019
11
1.87599
21
-3.33815
0
LINE
8
BLACK
6
CONTINUOUS
10
1.87599
20
-3.33815
11
1.86405
21
-3.35009
0
LINE
8
BLACK
6
CONTINUOUS
10
1.81614
20
-3.31197
11
1.805
21
-3.31583
0
LINE
8
BLACK
6
CONTINUOUS
10
1.805
20
-3.31583
11
1.80019
21
-3.31839
0
LINE
8
BLACK
6
CONTINUOUS
10
1.80019
20
-3.31839
11
1.79815
21
-3.32401
0
LINE
8
BLACK
6
CONTINUOUS
10
1.79815
20
-3.32401
11
1.81009
21
-3.33595
0
LINE
8
BLACK
6
CONTINUOUS
10
1.81009
20
-3.33595
11
1.81135
21
-3.33511
0
LINE
8
BLACK
6
CONTINUOUS
10
1.81135
20
-3.33511
11
1.81852
21
-3.33214
0
LINE
8
BLACK
6
CONTINUOUS
10
1.81852
20
-3.33214
11
1.82612
21
-3.33063
0
LINE
8
BLACK
6
CONTINUOUS
10
1.82612
20
-3.33063
11
1.83388
21
-3.33063
0
LINE
8
BLACK
6
CONTINUOUS
10
1.83388
20
-3.33063
11
1.84148
21
-3.33214
0
LINE
8
BLACK
6
CONTINUOUS
10
1.84148
20
-3.33214
11
1.84865
21
-3.33511
0
LINE
8
BLACK
6
CONTINUOUS
10
1.84865
20
-3.33511
11
1.84991
21
-3.33595
0
LINE
8
BLACK
6
CONTINUOUS
10
1.84991
20
-3.33595
11
1.86185
21
-3.32401
0
LINE
8
BLACK
6
CONTINUOUS
10
1.86185
20
-3.32401
11
1.85985
21
-3.3185
0
LINE
8
BLACK
6
CONTINUOUS
10
1.85985
20
-3.3185
11
1.85071
21
-3.31405
0
LINE
8
BLACK
6
CONTINUOUS
10
1.85071
20
-3.31405
11
1.8394
21
-3.31109
0
LINE
8
BLACK
6
CONTINUOUS
10
1.8394
20
-3.31109
11
1.82773
21
-3.31039
0
LINE
8
BLACK
6
CONTINUOUS
10
1.82773
20
-3.31039
11
1.81614
21
-3.31197
0
LINE
8
BLACK
6
CONTINUOUS
10
7.11926
20
-2.56669
11
7.10799
21
-2.56893
0
LINE
8
BLACK
6
CONTINUOUS
10
7.10799
20
-2.56893
11
7.09738
21
-2.57333
0
LINE
8
BLACK
6
CONTINUOUS
10
7.09738
20
-2.57333
11
7.08783
21
-2.57971
0
LINE
8
BLACK
6
CONTINUOUS
10
7.08783
20
-2.57971
11
7.07971
21
-2.58783
0
LINE
8
BLACK
6
CONTINUOUS
10
7.07971
20
-2.58783
11
7.07333
21
-2.59738
0
LINE
8
BLACK
6
CONTINUOUS
10
7.07333
20
-2.59738
11
7.06893
21
-2.60799
0
LINE
8
BLACK
6
CONTINUOUS
10
7.06893
20
-2.60799
11
7.06669
21
-2.61926
0
LINE
8
BLACK
6
CONTINUOUS
10
7.06669
20
-2.61926
11
7.06669
21
-2.63074
0
LINE
8
BLACK
6
CONTINUOUS
10
7.06669
20
-2.63074
11
7.06893
21
-2.64201
0
LINE
8
BLACK
6
CONTINUOUS
10
7.06893
20
-2.64201
11
7.07333
21
-2.65262
0
LINE
8
BLACK
6
CONTINUOUS
10
7.07333
20
-2.65262
11
7.07971
21
-2.66217
0
LINE
8
BLACK
6
CONTINUOUS
10
7.07971
20
-2.66217
11
7.08783
21
-2.67029
0
LINE
8
BLACK
6
CONTINUOUS
10
7.08783
20
-2.67029
11
7.09738
21
-2.67667
0
LINE
8
BLACK
6
CONTINUOUS
10
7.09738
20
-2.67667
11
7.10799
21
-2.68107
0
LINE
8
BLACK
6
CONTINUOUS
10
7.10799
20
-2.68107
11
7.11926
21
-2.68331
0
LINE
8
BLACK
6
CONTINUOUS
10
7.11926
20
-2.68331
11
7.13074
21
-2.68331
0
LINE
8
BLACK
6
CONTINUOUS
10
7.13074
20
-2.68331
11
7.14201
21
-2.68107
0
LINE
8
BLACK
6
CONTINUOUS
10
7.14201
20
-2.68107
11
7.15262
21
-2.67667
0
LINE
8
BLACK
6
CONTINUOUS
10
7.15262
20
-2.67667
11
7.16217
21
-2.67029
0
LINE
8
BLACK
6
CONTINUOUS
10
7.16217
20
-2.67029
11
7.17029
21
-2.66217
0
LINE
8
BLACK
6
CONTINUOUS
10
7.17029
20
-2.66217
11
7.17667
21
-2.65262
0
LINE
8
BLACK
6
CONTINUOUS
10
7.17667
20
-2.65262
11
7.18107
21
-2.64201
0
LINE
8
BLACK
6
CONTINUOUS
10
7.18107
20
-2.64201
11
7.18331
21
-2.63074
0
LINE
8
BLACK
6
CONTINUOUS
10
7.18331
20
-2.63074
11
7.18331
21
-2.61926
0
LINE
8
BLACK
6
CONTINUOUS
10
7.18331
20
-2.61926
11
7.18107
21
-2.60799
0
LINE
8
BLACK
6
CONTINUOUS
10
7.18107
20
-2.60799
11
7.17667
21
-2.59738
0
LINE
8
BLACK
6
CONTINUOUS
10
7.17667
20
-2.59738
11
7.17029
21
-2.58783
0
LINE
8
BLACK
6
CONTINUOUS
10
7.17029
20
-2.58783
11
7.16217
21
-2.57971
0
LINE
8
BLACK
6
CONTINUOUS
10
7.16217
20
-2.57971
11
7.15262
21
-2.57333
0
LINE
8
BLACK
6
CONTINUOUS
10
7.15262
20
-2.57333
11
7.14201
21
-2.56893
0
LINE
8
BLACK
6
CONTINUOUS
10
7.14201
20
-2.56893
11
7.13074
21
-2.56669
0
LINE
8
BLACK
6
CONTINUOUS
10
7.13074
20
-2.56669
11
7.11926
21
-2.56669
0
LINE
8
BLACK
6
CONTINUOUS
10
11.6193
20
-1.81669
11
11.608
21
-1.81893
0
LINE
8
BLACK
6
CONTINUOUS
10
11.608
20
-1.81893
11
11.5974
21
-1.82333
0
LINE
8
BLACK
6
CONTINUOUS
10
11.5974
20
-1.82333
11
11.5878
21
-1.82971
0
LINE
8
BLACK
6
CONTINUOUS
10
11.5878
20
-1.82971
11
11.5797
21
-1.83783
0
LINE
8
BLACK
6
CONTINUOUS
10
11.5797
20
-1.83783
11
11.5733
21
-1.84738
0
LINE
8
BLACK
6
CONTINUOUS
10
11.5733
20
-1.84738
11
11.5689
21
-1.85799
0
LINE
8
BLACK
6
CONTINUOUS
10
11.5689
20
-1.85799
11
11.5667
21
-1.86926
0
LINE
8
BLACK
6
CONTINUOUS
10
11.5667
20
-1.86926
11
11.5667
21
-1.88074
0
LINE
8
BLACK
6
CONTINUOUS
10
11.5667
20
-1.88074
11
11.5689
21
-1.89201
0
LINE
8
BLACK
6
CONTINUOUS
10
11.5689
20
-1.89201
11
11.5733
21
-1.90262
0
LINE
8
BLACK
6
CONTINUOUS
10
11.5733
20
-1.90262
11
11.5797
21
-1.91217
0
LINE
8
BLACK
6
CONTINUOUS
10
11.5797
20
-1.91217
11
11.5878
21
-1.92029
0
LINE
8
BLACK
6
CONTINUOUS
10
11.5878
20
-1.92029
11
11.5974
21
-1.92667
0
LINE
8
BLACK
6
CONTINUOUS
10
11.5974
20
-1.92667
11
11.608
21
-1.93107
0
LINE
8
BLACK
6
CONTINUOUS
10
11.608
20
-1.93107
11
11.6193
21
-1.93331
0
LINE
8
BLACK
6
CONTINUOUS
10
11.6193
20
-1.93331
11
11.6307
21
-1.93331
0
LINE
8
BLACK
6
CONTINUOUS
10
11.6307
20
-1.93331
11
11.642
21
-1.93107
0
LINE
8
BLACK
6
CONTINUOUS
10
11.642
20
-1.93107
11
11.6526
21
-1.92667
0
LINE
8
BLACK
6
CONTINUOUS
10
11.6526
20
-1.92667
11
11.6622
21
-1.92029
0
LINE
8
BLACK
6
CONTINUOUS
10
11.6622
20
-1.92029
11
11.6703
21
-1.91217
0
LINE
8
BLACK
6
CONTINUOUS
10
11.6703
20
-1.91217
11
11.6767
21
-1.90262
0
LINE
8
BLACK
6
CONTINUOUS
10
11.6767
20
-1.90262
11
11.6811
21
-1.89201
0
LINE
8
BLACK
6
CONTINUOUS
10
11.6811
20
-1.89201
11
11.6833
21
-1.88074
0
LINE
8
BLACK
6
CONTINUOUS
10
11.6833
20
-1.88074
11
11.6833
21
-1.86926
0
LINE
8
BLACK
6
CONTINUOUS
10
11.6833
20
-1.86926
11
11.6811
21
-1.85799
0
LINE
8
BLACK
6
CONTINUOUS
10
11.6811
20
-1.85799
11
11.6767
21
-1.84738
0
LINE
8
BLACK
6
CONTINUOUS
10
11.6767
20
-1.84738
11
11.6703
21
-1.83783
0
LINE
8
BLACK
6
CONTINUOUS
10
11.6703
20
-1.83783
11
11.6622
21
-1.82971
0
LINE
8
BLACK
6
CONTINUOUS
10
11.6622
20
-1.82971
11
11.6526
21
-1.82333
0
LINE
8
BLACK
6
CONTINUOUS
10
11.6526
20
-1.82333
11
11.642
21
-1.81893
0
LINE
8
BLACK
6
CONTINUOUS
10
11.642
20
-1.81893
11
11.6307
21
-1.81669
0
LINE
8
BLACK
6
CONTINUOUS
10
11.6307
20
-1.81669
11
11.6193
21
-1.81669
0
LINE
8
BLACK
6
CONTINUOUS
10
8.61926
20
-1.81669
11
8.60799
21
-1.81893
0
LINE
8
BLACK
6
CONTINUOUS
10
8.60799
20
-1.81893
11
8.59738
21
-1.82333
0
LINE
8
BLACK
6
CONTINUOUS
10
8.59738
20
-1.82333
11
8.58783
21
-1.82971
0
LINE
8
BLACK
6
CONTINUOUS
10
8.58783
20
-1.82971
11
8.57971
21
-1.83783
0
LINE
8
BLACK
6
CONTINUOUS
10
8.57971
20
-1.83783
11
8.57333
21
-1.84738
0
LINE
8
BLACK
6
CONTINUOUS
10
8.57333
20
-1.84738
11
8.56893
21
-1.85799
0
LINE
8
BLACK
6
CONTINUOUS
10
8.56893
20
-1.85799
11
8.56669
21
-1.86926
0
LINE
8
BLACK
6
CONTINUOUS
10
8.56669
20
-1.86926
11
8.56669
21
-1.88074
0
LINE
8
BLACK
6
CONTINUOUS
10
8.56669
20
-1.88074
11
8.56893
21
-1.89201
0
LINE
8
BLACK
6
CONTINUOUS
10
8.56893
20
-1.89201
11
8.57333
21
-1.90262
0
LINE
8
BLACK
6
CONTINUOUS
10
8.57333
20
-1.90262
11
8.57971
21
-1.91217
0
LINE
8
BLACK
6
CONTINUOUS
10
8.57971
20
-1.91217
11
8.58783
21
-1.92029
0
LINE
8
BLACK
6
CONTINUOUS
10
8.58783
20
-1.92029
11
8.59738
21
-1.92667
0
LINE
8
BLACK
6
CONTINUOUS
10
8.59738
20
-1.92667
11
8.60799
21
-1.93107
0
LINE
8
BLACK
6
CONTINUOUS
10
8.60799
20
-1.93107
11
8.61926
21
-1.93331
0
LINE
8
BLACK
6
CONTINUOUS
10
8.61926
20
-1.93331
11
8.63074
21
-1.93331
0
LINE
8
BLACK
6
CONTINUOUS
10
8.63074
20
-1.93331
11
8.64201
21
-1.93107
0
LINE
8
BLACK
6
CONTINUOUS
10
8.64201
20
-1.93107
11
8.65262
21
-1.92667
0
LINE
8
BLACK
6
CONTINUOUS
10
8.65262
20
-1.92667
11
8.66217
21
-1.92029
0
LINE
8
BLACK
6
CONTINUOUS
10
8.66217
20
-1.92029
11
8.67029
21
-1.91217
0
LINE
8
BLACK
6
CONTINUOUS
10
8.67029
20
-1.91217
11
8.67667
21
-1.90262
0
LINE
8
BLACK
6
CONTINUOUS
10
8.67667
20
-1.90262
11
8.68107
21
-1.89201
0
LINE
8
BLACK
6
CONTINUOUS
10
8.68107
20
-1.89201
11
8.68331
21
-1.88074
0
LINE
8
BLACK
6
CONTINUOUS
10
8.68331
20
-1.88074
11
8.68331
21
-1.86926
0
LINE
8
BLACK
6
CONTINUOUS
10
8.68331
20
-1.86926
11
8.68107
21
-1.85799
0
LINE
8
BLACK
6
CONTINUOUS
10
8.68107
20
-1.85799
11
8.67667
21
-1.84738
0
LINE
8
BLACK
6
CONTINUOUS
10
8.67667
20
-1.84738
11
8.67029
21
-1.83783
0
LINE
8
BLACK
6
CONTINUOUS
10
8.67029
20
-1.83783
11
8.66217
21
-1.82971
0
LINE
8
BLACK
6
CONTINUOUS
10
8.66217
20
-1.82971
11
8.65262
21
-1.82333
0
LINE
8
BLACK
6
CONTINUOUS
10
8.65262
20
-1.82333
11
8.64201
21
-1.81893
0
LINE
8
BLACK
6
CONTINUOUS
10
8.64201
20
-1.81893
11
8.63074
21
-1.81669
0
LINE
8
BLACK
6
CONTINUOUS
10
8.63074
20
-1.81669
11
8.61926
21
-1.81669
0
LINE
8
BLACK
6
CONTINUOUS
10
4.86926
20
-1.81669
11
4.85799
21
-1.81893
0
LINE
8
BLACK
6
CONTINUOUS
10
4.85799
20
-1.81893
11
4.84738
21
-1.82333
0
LINE
8
BLACK
6
CONTINUOUS
10
4.84738
20
-1.82333
11
4.83783
21
-1.82971
0
LINE
8
BLACK
6
CONTINUOUS
10
4.83783
20
-1.82971
11
4.82971
21
-1.83783
0
LINE
8
BLACK
6
CONTINUOUS
10
4.82971
20
-1.83783
11
4.82333
21
-1.84738
0
LINE
8
BLACK
6
CONTINUOUS
10
4.82333
20
-1.84738
11
4.81893
21
-1.85799
0
LINE
8
BLACK
6
CONTINUOUS
10
4.81893
20
-1.85799
11
4.81669
21
-1.86926
0
LINE
8
BLACK
6
CONTINUOUS
10
4.81669
20
-1.86926
11
4.81669
21
-1.88074
0
LINE
8
BLACK
6
CONTINUOUS
10
4.81669
20
-1.88074
11
4.81893
21
-1.89201
0
LINE
8
BLACK
6
CONTINUOUS
10
4.81893
20
-1.89201
11
4.82333
21
-1.90262
0
LINE
8
BLACK
6
CONTINUOUS
10
4.82333
20
-1.90262
11
4.82971
21
-1.91217
0
LINE
8
BLACK
6
CONTINUOUS
10
4.82971
20
-1.91217
11
4.83783
21
-1.92029
0
LINE
8
BLACK
6
CONTINUOUS
10
4.83783
20
-1.92029
11
4.84738
21
-1.92667
0
LINE
8
BLACK
6
CONTINUOUS
10
4.84738
20
-1.92667
11
4.85799
21
-1.93107
0
LINE
8
BLACK
6
CONTINUOUS
10
4.85799
20
-1.93107
11
4.86926
21
-1.93331
0
LINE
8
BLACK
6
CONTINUOUS
10
4.86926
20
-1.93331
11
4.88074
21
-1.93331
0
LINE
8
BLACK
6
CONTINUOUS
10
4.88074
20
-1.93331
11
4.89201
21
-1.93107
0
LINE
8
BLACK
6
CONTINUOUS
10
4.89201
20
-1.93107
11
4.90262
21
-1.92667
0
LINE
8
BLACK
6
CONTINUOUS
10
4.90262
20
-1.92667
11
4.91217
21
-1.92029
0
LINE
8
BLACK
6
CONTINUOUS
10
4.91217
20
-1.92029
11
4.92029
21
-1.91217
0
LINE
8
BLACK
6
CONTINUOUS
10
4.92029
20
-1.91217
11
4.92667
21
-1.90262
0
LINE
8
BLACK
6
CONTINUOUS
10
4.92667
20
-1.90262
11
4.93107
21
-1.89201
0
LINE
8
BLACK
6
CONTINUOUS
10
4.93107
20
-1.89201
11
4.93331
21
-1.88074
0
LINE
8
BLACK
6
CONTINUOUS
10
4.93331
20
-1.88074
11
4.93331
21
-1.86926
0
LINE
8
BLACK
6
CONTINUOUS
10
4.93331
20
-1.86926
11
4.93107
21
-1.85799
0
LINE
8
BLACK
6
CONTINUOUS
10
4.93107
20
-1.85799
11
4.92667
21
-1.84738
0
LINE
8
BLACK
6
CONTINUOUS
10
4.92667
20
-1.84738
11
4.92029
21
-1.83783
0
LINE
8
BLACK
6
CONTINUOUS
10
4.92029
20
-1.83783
11
4.91217
21
-1.82971
0
LINE
8
BLACK
6
CONTINUOUS
10
4.91217
20
-1.82971
11
4.90262
21
-1.82333
0
LINE
8
BLACK
6
CONTINUOUS
10
4.90262
20
-1.82333
11
4.89201
21
-1.81893
0
LINE
8
BLACK
6
CONTINUOUS
10
4.89201
20
-1.81893
11
4.88074
21
-1.81669
0
LINE
8
BLACK
6
CONTINUOUS
10
4.88074
20
-1.81669
11
4.86926
21
-1.81669
0
LINE
8
BLACK
6
CONTINUOUS
10
1.86926
20
-1.81669
11
1.85799
21
-1.81893
0
LINE
8
BLACK
6
CONTINUOUS
10
1.85799
20
-1.81893
11
1.84738
21
-1.82333
0
LINE
8
BLACK
6
CONTINUOUS
10
1.84738
20
-1.82333
11
1.83783
21
-1.82971
0
LINE
8
BLACK
6
CONTINUOUS
10
1.83783
20
-1.82971
11
1.82971
21
-1.83783
0
LINE
8
BLACK
6
CONTINUOUS
10
1.82971
20
-1.83783
11
1.82333
21
-1.84738
0
LINE
8
BLACK
6
CONTINUOUS
10
1.82333
20
-1.84738
11
1.81893
21
-1.85799
0
LINE
8
BLACK
6
CONTINUOUS
10
1.81893
20
-1.85799
11
1.81669
21
-1.86926
0
LINE
8
BLACK
6
CONTINUOUS
10
1.81669
20
-1.86926
11
1.81669
21
-1.88074
0
LINE
8
BLACK
6
CONTINUOUS
10
1.81669
20
-1.88074
11
1.81893
21
-1.89201
0
LINE
8
BLACK
6
CONTINUOUS
10
1.81893
20
-1.89201
11
1.82333
21
-1.90262
0
LINE
8
BLACK
6
CONTINUOUS
10
1.82333
20
-1.90262
11
1.82971
21
-1.91217
0
LINE
8
BLACK
6
CONTINUOUS
10
1.82971
20
-1.91217
11
1.83783
21
-1.92029
0
LINE
8
BLACK
6
CONTINUOUS
10
1.83783
20
-1.92029
11
1.84738
21
-1.92667
0
LINE
8
BLACK
6
CONTINUOUS
10
1.84738
20
-1.92667
11
1.85799
21
-1.93107
0
LINE
8
BLACK
6
CONTINUOUS
10
1.85799
20
-1.93107
11
1.86926
21
-1.93331
0
LINE
8
BLACK
6
CONTINUOUS
10
1.86926
20
-1.93331
11
1.88074
21
-1.93331
0
LINE
8
BLACK
6
CONTINUOUS
10
1.88074
20
-1.93331
11
1.89201
21
-1.93107
0
LINE
8
BLACK
6
CONTINUOUS
10
1.89201
20
-1.93107
11
1.90262
21
-1.92667
0
LINE
8
BLACK
6
CONTINUOUS
10
1.90262
20
-1.92667
11
1.91217
21
-1.92029
0
LINE
8
BLACK
6
CONTINUOUS
10
1.91217
20
-1.92029
11
1.92029
21
-1.91217
0
LINE
8
BLACK
6
CONTINUOUS
10
1.92029
20
-1.91217
11
1.92667
21
-1.90262
0
LINE
8
BLACK
6
CONTINUOUS
10
1.92667
20
-1.90262
11
1.93107
21
-1.89201
0
LINE
8
BLACK
6
CONTINUOUS
10
1.93107
20
-1.89201
11
1.93331
21
-1.88074
0
LINE
8
BLACK
6
CONTINUOUS
10
1.93331
20
-1.88074
11
1.93331
21
-1.86926
0
LINE
8
BLACK
6
CONTINUOUS
10
1.93331
20
-1.86926
11
1.93107
21
-1.85799
0
LINE
8
BLACK
6
CONTINUOUS
10
1.93107
20
-1.85799
11
1.92667
21
-1.84738
0
LINE
8
BLACK
6
CONTINUOUS
10
1.92667
20
-1.84738
11
1.92029
21
-1.83783
0
LINE
8
BLACK
6
CONTINUOUS
10
1.92029
20
-1.83783
11
1.91217
21
-1.82971
0
LINE
8
BLACK
6
CONTINUOUS
10
1.91217
20
-1.82971
11
1.90262
21
-1.82333
0
LINE
8
BLACK
6
CONTINUOUS
10
1.90262
20
-1.82333
11
1.89201
21
-1.81893
0
LINE
8
BLACK
6
CONTINUOUS
10
1.89201
20
-1.81893
11
1.88074
21
-1.81669
0
LINE
8
BLACK
6
CONTINUOUS
10
1.88074
20
-1.81669
11
1.86926
21
-1.81669
0
LINE
8
BLACK
6
CONTINUOUS
10
11.6376
20
-4.08336
11
11.6455
21
-4.08662
0
LINE
8
BLACK
6
CONTINUOUS
10
11.6455
20
-4.08662
11
11.6526
21
-4.09136
0
LINE
8
BLACK
6
CONTINUOUS
10
11.6526
20
-4.09136
11
11.6586
21
-4.09739
0
LINE
8
BLACK
6
CONTINUOUS
10
11.6586
20
-4.09739
11
11.6634
21
-4.10449
0
LINE
8
BLACK
6
CONTINUOUS
10
11.6634
20
-4.10449
11
11.6666
21
-4.11237
0
LINE
8
BLACK
6
CONTINUOUS
10
11.6666
20
-4.11237
11
11.6683
21
-4.12073
0
LINE
8
BLACK
6
CONTINUOUS
10
11.6683
20
-4.12073
11
11.6683
21
-4.12927
0
LINE
8
BLACK
6
CONTINUOUS
10
11.6683
20
-4.12927
11
11.6666
21
-4.13763
0
LINE
8
BLACK
6
CONTINUOUS
10
11.6666
20
-4.13763
11
11.6634
21
-4.14551
0
LINE
8
BLACK
6
CONTINUOUS
10
11.6634
20
-4.14551
11
11.6586
21
-4.15261
0
LINE
8
BLACK
6
CONTINUOUS
10
11.6586
20
-4.15261
11
11.6526
21
-4.15864
0
LINE
8
BLACK
6
CONTINUOUS
10
11.6526
20
-4.15864
11
11.6455
21
-4.16338
0
LINE
8
BLACK
6
CONTINUOUS
10
11.6455
20
-4.16338
11
11.6376
21
-4.16664
0
LINE
8
BLACK
6
CONTINUOUS
10
11.6376
20
-4.16664
11
11.6293
21
-4.16831
0
LINE
8
BLACK
6
CONTINUOUS
10
11.6293
20
-4.16831
11
11.6207
21
-4.16831
0
LINE
8
BLACK
6
CONTINUOUS
10
11.6207
20
-4.16831
11
11.6124
21
-4.16664
0
LINE
8
BLACK
6
CONTINUOUS
10
11.6124
20
-4.16664
11
11.6045
21
-4.16338
0
LINE
8
BLACK
6
CONTINUOUS
10
11.6045
20
-4.16338
11
11.5974
21
-4.15864
0
LINE
8
BLACK
6
CONTINUOUS
10
11.5974
20
-4.15864
11
11.5914
21
-4.15261
0
LINE
8
BLACK
6
CONTINUOUS
10
11.5914
20
-4.15261
11
11.5866
21
-4.14551
0
LINE
8
BLACK
6
CONTINUOUS
10
11.5866
20
-4.14551
11
11.5834
21
-4.13763
0
LINE
8
BLACK
6
CONTINUOUS
10
11.5834
20
-4.13763
11
11.5817
21
-4.12927
0
LINE
8
BLACK
6
CONTINUOUS
10
11.5817
20
-4.12927
11
11.5817
21
-4.12073
0
LINE
8
BLACK
6
CONTINUOUS
10
11.5817
20
-4.12073
11
11.5834
21
-4.11237
0
LINE
8
BLACK
6
CONTINUOUS
10
11.5834
20
-4.11237
11
11.5866
21
-4.10449
0
LINE
8
BLACK
6
CONTINUOUS
10
11.5866
20
-4.10449
11
11.5914
21
-4.09739
0
LINE
8
BLACK
6
CONTINUOUS
10
11.5914
20
-4.09739
11
11.5974
21
-4.09136
0
LINE
8
BLACK
6
CONTINUOUS
10
11.5974
20
-4.09136
11
11.6045
21
-4.08662
0
LINE
8
BLACK
6
CONTINUOUS
10
11.6045
20
-4.08662
11
11.6124
21
-4.08336
0
LINE
8
BLACK
6
CONTINUOUS
10
11.6124
20
-4.08336
11
11.6207
21
-4.08169
0
LINE
8
BLACK
6
CONTINUOUS
10
11.6207
20
-4.08169
11
11.6293
21
-4.08169
0
LINE
8
BLACK
6
CONTINUOUS
10
11.6293
20
-4.08169
11
11.6376
21
-4.08336
0
LINE
8
BLACK
6
CONTINUOUS
10
8.63763
20
-4.08336
11
8.64551
21
-4.08662
0
LINE
8
BLACK
6
CONTINUOUS
10
8.64551
20
-4.08662
11
8.65261
21
-4.09136
0
LINE
8
BLACK
6
CONTINUOUS
10
8.65261
20
-4.09136
11
8.65864
21
-4.09739
0
LINE
8
BLACK
6
CONTINUOUS
10
8.65864
20
-4.09739
11
8.66338
21
-4.10449
0
LINE
8
BLACK
6
CONTINUOUS
10
8.66338
20
-4.10449
11
8.66664
21
-4.11237
0
LINE
8
BLACK
6
CONTINUOUS
10
8.66664
20
-4.11237
11
8.66831
21
-4.12073
0
LINE
8
BLACK
6
CONTINUOUS
10
8.66831
20
-4.12073
11
8.66831
21
-4.12927
0
LINE
8
BLACK
6
CONTINUOUS
10
8.66831
20
-4.12927
11
8.66664
21
-4.13763
0
LINE
8
BLACK
6
CONTINUOUS
10
8.66664
20
-4.13763
11
8.66338
21
-4.14551
0
LINE
8
BLACK
6
CONTINUOUS
10
8.66338
20
-4.14551
11
8.65864
21
-4.15261
0
LINE
8
BLACK
6
CONTINUOUS
10
8.65864
20
-4.15261
11
8.65261
21
-4.15864
0
LINE
8
BLACK
6
CONTINUOUS
10
8.65261
20
-4.15864
11
8.64551
21
-4.16338
0
LINE
8
BLACK
6
CONTINUOUS
10
8.64551
20
-4.16338
11
8.63763
21
-4.16664
0
LINE
8
BLACK
6
CONTINUOUS
10
8.63763
20
-4.16664
11
8.62927
21
-4.16831
0
LINE
8
BLACK
6
CONTINUOUS
10
8.62927
20
-4.16831
11
8.62073
21
-4.16831
0
LINE
8
BLACK
6
CONTINUOUS
10
8.62073
20
-4.16831
11
8.61237
21
-4.16664
0
LINE
8
BLACK
6
CONTINUOUS
10
8.61237
20
-4.16664
11
8.60449
21
-4.16338
0
LINE
8
BLACK
6
CONTINUOUS
10
8.60449
20
-4.16338
11
8.59739
21
-4.15864
0
LINE
8
BLACK
6
CONTINUOUS
10
8.59739
20
-4.15864
11
8.59136
21
-4.15261
0
LINE
8
BLACK
6
CONTINUOUS
10
8.59136
20
-4.15261
11
8.58662
21
-4.14551
0
LINE
8
BLACK
6
CONTINUOUS
10
8.58662
20
-4.14551
11
8.58336
21
-4.13763
0
LINE
8
BLACK
6
CONTINUOUS
10
8.58336
20
-4.13763
11
8.58169
21
-4.12927
0
LINE
8
BLACK
6
CONTINUOUS
10
8.58169
20
-4.12927
11
8.58169
21
-4.12073
0
LINE
8
BLACK
6
CONTINUOUS
10
8.58169
20
-4.12073
11
8.58336
21
-4.11237
0
LINE
8
BLACK
6
CONTINUOUS
10
8.58336
20
-4.11237
11
8.58662
21
-4.10449
0
LINE
8
BLACK
6
CONTINUOUS
10
8.58662
20
-4.10449
11
8.59136
21
-4.09739
0
LINE
8
BLACK
6
CONTINUOUS
10
8.59136
20
-4.09739
11
8.59739
21
-4.09136
0
LINE
8
BLACK
6
CONTINUOUS
10
8.59739
20
-4.09136
11
8.60449
21
-4.08662
0
LINE
8
BLACK
6
CONTINUOUS
10
8.60449
20
-4.08662
11
8.61237
21
-4.08336
0
LINE
8
BLACK
6
CONTINUOUS
10
8.61237
20
-4.08336
11
8.62073
21
-4.08169
0
LINE
8
BLACK
6
CONTINUOUS
10
8.62073
20
-4.08169
11
8.62927
21
-4.08169
0
LINE
8
BLACK
6
CONTINUOUS
10
8.62927
20
-4.08169
11
8.63763
21
-4.08336
0
LINE
8
BLACK
6
CONTINUOUS
10
4.88763
20
-4.08336
11
4.89551
21
-4.08662
0
LINE
8
BLACK
6
CONTINUOUS
10
4.89551
20
-4.08662
11
4.90261
21
-4.09136
0
LINE
8
BLACK
6
CONTINUOUS
10
4.90261
20
-4.09136
11
4.90864
21
-4.09739
0
LINE
8
BLACK
6
CONTINUOUS
10
4.90864
20
-4.09739
11
4.91338
21
-4.10449
0
LINE
8
BLACK
6
CONTINUOUS
10
4.91338
20
-4.10449
11
4.91664
21
-4.11237
0
LINE
8
BLACK
6
CONTINUOUS
10
4.91664
20
-4.11237
11
4.91831
21
-4.12073
0
LINE
8
BLACK
6
CONTINUOUS
10
4.91831
20
-4.12073
11
4.91831
21
-4.12927
0
LINE
8
BLACK
6
CONTINUOUS
10
4.91831
20
-4.12927
11
4.91664
21
-4.13763
0
LINE
8
BLACK
6
CONTINUOUS
10
4.91664
20
-4.13763
11
4.91338
21
-4.14551
0
LINE
8
BLACK
6
CONTINUOUS
10
4.91338
20
-4.14551
11
4.90864
21
-4.15261
0
LINE
8
BLACK
6
CONTINUOUS
10
4.90864
20
-4.15261
11
4.90261
21
-4.15864
0
LINE
8
BLACK
6
CONTINUOUS
10
4.90261
20
-4.15864
11
4.89551
21
-4.16338
0
LINE
8
BLACK
6
CONTINUOUS
10
4.89551
20
-4.16338
11
4.88763
21
-4.16664
0
LINE
8
BLACK
6
CONTINUOUS
10
4.88763
20
-4.16664
11
4.87927
21
-4.16831
0
LINE
8
BLACK
6
CONTINUOUS
10
4.87927
20
-4.16831
11
4.87073
21
-4.16831
0
LINE
8
BLACK
6
CONTINUOUS
10
4.87073
20
-4.16831
11
4.86237
21
-4.16664
0
LINE
8
BLACK
6
CONTINUOUS
10
4.86237
20
-4.16664
11
4.85449
21
-4.16338
0
LINE
8
BLACK
6
CONTINUOUS
10
4.85449
20
-4.16338
11
4.84739
21
-4.15864
0
LINE
8
BLACK
6
CONTINUOUS
10
4.84739
20
-4.15864
11
4.84136
21
-4.15261
0
LINE
8
BLACK
6
CONTINUOUS
10
4.84136
20
-4.15261
11
4.83662
21
-4.14551
0
LINE
8
BLACK
6
CONTINUOUS
10
4.83662
20
-4.14551
11
4.83336
21
-4.13763
0
LINE
8
BLACK
6
CONTINUOUS
10
4.83336
20
-4.13763
11
4.83169
21
-4.12927
0
LINE
8
BLACK
6
CONTINUOUS
10
4.83169
20
-4.12927
11
4.83169
21
-4.12073
0
LINE
8
BLACK
6
CONTINUOUS
10
4.83169
20
-4.12073
11
4.83336
21
-4.11237
0
LINE
8
BLACK
6
CONTINUOUS
10
4.83336
20
-4.11237
11
4.83662
21
-4.10449
0
LINE
8
BLACK
6
CONTINUOUS
10
4.83662
20
-4.10449
11
4.84136
21
-4.09739
0
LINE
8
BLACK
6
CONTINUOUS
10
4.84136
20
-4.09739
11
4.84739
21
-4.09136
0
LINE
8
BLACK
6
CONTINUOUS
10
4.84739
20
-4.09136
11
4.85449
21
-4.08662
0
LINE
8
BLACK
6
CONTINUOUS
10
4.85449
20
-4.08662
11
4.86237
21
-4.08336
0
LINE
8
BLACK
6
CONTINUOUS
10
4.86237
20
-4.08336
11
4.87073
21
-4.08169
0
LINE
8
BLACK
6
CONTINUOUS
10
4.87073
20
-4.08169
11
4.87927
21
-4.08169
0
LINE
8
BLACK
6
CONTINUOUS
10
4.87927
20
-4.08169
11
4.88763
21
-4.08336
0
LINE
8
BLACK
6
CONTINUOUS
10
1.88763
20
-4.08336
11
1.89551
21
-4.08662
0
LINE
8
BLACK
6
CONTINUOUS
10
1.89551
20
-4.08662
11
1.90261
21
-4.09136
0
LINE
8
BLACK
6
CONTINUOUS
10
1.90261
20
-4.09136
11
1.90864
21
-4.09739
0
LINE
8
BLACK
6
CONTINUOUS
10
1.90864
20
-4.09739
11
1.91338
21
-4.10449
0
LINE
8
BLACK
6
CONTINUOUS
10
1.91338
20
-4.10449
11
1.91664
21
-4.11237
0
LINE
8
BLACK
6
CONTINUOUS
10
1.91664
20
-4.11237
11
1.91831
21
-4.12073
0
LINE
8
BLACK
6
CONTINUOUS
10
1.91831
20
-4.12073
11
1.91831
21
-4.12927
0
LINE
8
BLACK
6
CONTINUOUS
10
1.91831
20
-4.12927
11
1.91664
21
-4.13763
0
LINE
8
BLACK
6
CONTINUOUS
10
1.91664
20
-4.13763
11
1.91338
21
-4.14551
0
LINE
8
BLACK
6
CONTINUOUS
10
1.91338
20
-4.14551
11
1.90864
21
-4.15261
0
LINE
8
BLACK
6
CONTINUOUS
10
1.90864
20
-4.15261
11
1.90261
21
-4.15864
0
LINE
8
BLACK
6
CONTINUOUS
10
1.90261
20
-4.15864
11
1.89551
21
-4.16338
0
LINE
8
BLACK
6
CONTINUOUS
10
1.89551
20
-4.16338
11
1.88763
21
-4.16664
0
LINE
8
BLACK
6
CONTINUOUS
10
1.88763
20
-4.16664
11
1.87927
21
-4.16831
0
LINE
8
BLACK
6
CONTINUOUS
10
1.87927
20
-4.16831
11
1.87073
21
-4.16831
0
LINE
8
BLACK
6
CONTINUOUS
10
1.87073
20
-4.16831
11
1.86237
21
-4.16664
0
LINE
8
BLACK
6
CONTINUOUS
10
1.86237
20
-4.16664
11
1.85449
21
-4.16338
0
LINE
8
BLACK
6
CONTINUOUS
10
1.85449
20
-4.16338
11
1.84739
21
-4.15864
0
LINE
8
BLACK
6
CONTINUOUS
10
1.84739
20
-4.15864
11
1.84136
21
-4.15261
0
LINE
8
BLACK
6
CONTINUOUS
10
1.84136
20
-4.15261
11
1.83662
21
-4.14551
0
LINE
8
BLACK
6
CONTINUOUS
10
1.83662
20
-4.14551
11
1.83336
21
-4.13763
0
LINE
8
BLACK
6
CONTINUOUS
10
1.83336
20
-4.13763
11
1.83169
21
-4.12927
0
LINE
8
BLACK
6
CONTINUOUS
10
1.83169
20
-4.12927
11
1.83169
21
-4.12073
0
LINE
8
BLACK
6
CONTINUOUS
10
1.83169
20
-4.12073
11
1.83336
21
-4.11237
0
LINE
8
BLACK
6
CONTINUOUS
10
1.83336
20
-4.11237
11
1.83662
21
-4.10449
0
LINE
8
BLACK
6
CONTINUOUS
10
1.83662
20
-4.10449
11
1.84136
21
-4.09739
0
LINE
8
BLACK
6
CONTINUOUS
10
1.84136
20
-4.09739
11
1.84739
21
-4.09136
0
LINE
8
BLACK
6
CONTINUOUS
10
1.84739
20
-4.09136
11
1.85449
21
-4.08662
0
LINE
8
BLACK
6
CONTINUOUS
10
1.85449
20
-4.08662
11
1.86237
21
-4.08336
0
LINE
8
BLACK
6
CONTINUOUS
10
1.86237
20
-4.08336
11
1.87073
21
-4.08169
0
LINE
8
BLACK
6
CONTINUOUS
10
1.87073
20
-4.08169
11
1.87927
21
-4.08169
0
LINE
8
BLACK
6
CONTINUOUS
10
1.87927
20
-4.08169
11
1.88763
21
-4.08336
0
LINE
8
BLACK
6
CONTINUOUS
10
10.1376
20
-3.33336
11
10.1455
21
-3.33662
0
LINE
8
BLACK
6
CONTINUOUS
10
10.1455
20
-3.33662
11
10.1526
21
-3.34136
0
LINE
8
BLACK
6
CONTINUOUS
10
10.1526
20
-3.34136
11
10.1586
21
-3.34739
0
LINE
8
BLACK
6
CONTINUOUS
10
10.1586
20
-3.34739
11
10.1634
21
-3.35449
0
LINE
8
BLACK
6
CONTINUOUS
10
10.1634
20
-3.35449
11
10.1666
21
-3.36237
0
LINE
8
BLACK
6
CONTINUOUS
10
10.1666
20
-3.36237
11
10.1683
21
-3.37073
0
LINE
8
BLACK
6
CONTINUOUS
10
10.1683
20
-3.37073
11
10.1683
21
-3.37927
0
LINE
8
BLACK
6
CONTINUOUS
10
10.1683
20
-3.37927
11
10.1666
21
-3.38763
0
LINE
8
BLACK
6
CONTINUOUS
10
10.1666
20
-3.38763
11
10.1634
21
-3.39551
0
LINE
8
BLACK
6
CONTINUOUS
10
10.1634
20
-3.39551
11
10.1586
21
-3.40261
0
LINE
8
BLACK
6
CONTINUOUS
10
10.1586
20
-3.40261
11
10.1526
21
-3.40864
0
LINE
8
BLACK
6
CONTINUOUS
10
10.1526
20
-3.40864
11
10.1455
21
-3.41338
0
LINE
8
BLACK
6
CONTINUOUS
10
10.1455
20
-3.41338
11
10.1376
21
-3.41664
0
LINE
8
BLACK
6
CONTINUOUS
10
10.1376
20
-3.41664
11
10.1293
21
-3.41831
0
LINE
8
BLACK
6
CONTINUOUS
10
10.1293
20
-3.41831
11
10.1207
21
-3.41831
0
LINE
8
BLACK
6
CONTINUOUS
10
10.1207
20
-3.41831
11
10.1124
21
-3.41664
0
LINE
8
BLACK
6
CONTINUOUS
10
10.1124
20
-3.41664
11
10.1045
21
-3.41338
0
LINE
8
BLACK
6
CONTINUOUS
10
10.1045
20
-3.41338
11
10.0974
21
-3.40864
0
LINE
8
BLACK
6
CONTINUOUS
10
10.0974
20
-3.40864
11
10.0914
21
-3.40261
0
LINE
8
BLACK
6
CONTINUOUS
10
10.0914
20
-3.40261
11
10.0866
21
-3.39551
0
LINE
8
BLACK
6
CONTINUOUS
10
10.0866
20
-3.39551
11
10.0834
21
-3.38763
0
LINE
8
BLACK
6
CONTINUOUS
10
10.0834
20
-3.38763
11
10.0817
21
-3.37927
0
LINE
8
BLACK
6
CONTINUOUS
10
10.0817
20
-3.37927
11
10.0817
21
-3.37073
0
LINE
8
BLACK
6
CONTINUOUS
10
10.0817
20
-3.37073
11
10.0834
21
-3.36237
0
LINE
8
BLACK
6
CONTINUOUS
10
10.0834
20
-3.36237
11
10.0866
21
-3.35449
0
LINE
8
BLACK
6
CONTINUOUS
10
10.0866
20
-3.35449
11
10.0914
21
-3.34739
0
LINE
8
BLACK
6
CONTINUOUS
10
10.0914
20
-3.34739
11
10.0974
21
-3.34136
0
LINE
8
BLACK
6
CONTINUOUS
10
10.0974
20
-3.34136
11
10.1045
21
-3.33662
0
LINE
8
BLACK
6
CONTINUOUS
10
10.1045
20
-3.33662
11
10.1124
21
-3.33336
0
LINE
8
BLACK
6
CONTINUOUS
10
10.1124
20
-3.33336
11
10.1207
21
-3.33169
0
LINE
8
BLACK
6
CONTINUOUS
10
10.1207
20
-3.33169
11
10.1293
21
-3.33169
0
LINE
8
BLACK
6
CONTINUOUS
10
10.1293
20
-3.33169
11
10.1376
21
-3.33336
0
LINE
8
BLACK
6
CONTINUOUS
10
3.38763
20
-3.33336
11
3.39551
21
-3.33662
0
LINE
8
BLACK
6
CONTINUOUS
10
3.39551
20
-3.33662
11
3.40261
21
-3.34136
0
LINE
8
BLACK
6
CONTINUOUS
10
3.40261
20
-3.34136
11
3.40864
21
-3.34739
0
LINE
8
BLACK
6
CONTINUOUS
10
3.40864
20
-3.34739
11
3.41338
21
-3.35449
0
LINE
8
BLACK
6
CONTINUOUS
10
3.41338
20
-3.35449
11
3.41664
21
-3.36237
0
LINE
8
BLACK
6
CONTINUOUS
10
3.41664
20
-3.36237
11
3.41831
21
-3.37073
0
LINE
8
BLACK
6
CONTINUOUS
10
3.41831
20
-3.37073
11
3.41831
21
-3.37927
0
LINE
8
BLACK
6
CONTINUOUS
10
3.41831
20
-3.37927
11
3.41664
21
-3.38763
0
LINE
8
BLACK
6
CONTINUOUS
10
3.41664
20
-3.38763
11
3.41338
21
-3.39551
0
LINE
8
BLACK
6
CONTINUOUS
10
3.41338
20
-3.39551
11
3.40864
21
-3.40261
0
LINE
8
BLACK
6
CONTINUOUS
10
3.40864
20
-3.40261
11
3.40261
21
-3.40864
0
LINE
8
BLACK
6
CONTINUOUS
10
3.40261
20
-3.40864
11
3.39551
21
-3.41338
0
LINE
8
BLACK
6
CONTINUOUS
10
3.39551
20
-3.41338
11
3.38763
21
-3.41664
0
LINE
8
BLACK
6
CONTINUOUS
10
3.38763
20
-3.41664
11
3.37927
21
-3.41831
0
LINE
8
BLACK
6
CONTINUOUS
10
3.37927
20
-3.41831
11
3.37073
21
-3.41831
0
LINE
8
BLACK
6
CONTINUOUS
10
3.37073
20
-3.41831
11
3.36237
21
-3.41664
0
LINE
8
BLACK
6
CONTINUOUS
10
3.36237
20
-3.41664
11
3.35449
21
-3.41338
0
LINE
8
BLACK
6
CONTINUOUS
10
3.35449
20
-3.41338
11
3.34739
21
-3.40864
0
LINE
8
BLACK
6
CONTINUOUS
10
3.34739
20
-3.40864
11
3.34136
21
-3.40261
0
LINE
8
BLACK
6
CONTINUOUS
10
3.34136
20
-3.40261
11
3.33662
21
-3.39551
0
LINE
8
BLACK
6
CONTINUOUS
10
3.33662
20
-3.39551
11
3.33336
21
-3.38763
0
LINE
8
BLACK
6
CONTINUOUS
10
3.33336
20
-3.38763
11
3.33169
21
-3.37927
0
LINE
8
BLACK
6
CONTINUOUS
10
3.33169
20
-3.37927
11
3.33169
21
-3.37073
0
LINE
8
BLACK
6
CONTINUOUS
10
3.33169
20
-3.37073
11
3.33336
21
-3.36237
0
LINE
8
BLACK
6
CONTINUOUS
10
3.33336
20
-3.36237
11
3.33662
21
-3.35449
0
LINE
8
BLACK
6
CONTINUOUS
10
3.33662
20
-3.35449
11
3.34136
21
-3.34739
0
LINE
8
BLACK
6
CONTINUOUS
10
3.34136
20
-3.34739
11
3.34739
21
-3.34136
0
LINE
8
BLACK
6
CONTINUOUS
10
3.34739
20
-3.34136
11
3.35449
21
-3.33662
0
LINE
8
BLACK
6
CONTINUOUS
10
3.35449
20
-3.33662
11
3.36237
21
-3.33336
0
LINE
8
BLACK
6
CONTINUOUS
10
3.36237
20
-3.33336
11
3.37073
21
-3.33169
0
LINE
8
BLACK
6
CONTINUOUS
10
3.37073
20
-3.33169
11
3.37927
21
-3.33169
0
LINE
8
BLACK
6
CONTINUOUS
10
3.37927
20
-3.33169
11
3.38763
21
-3.33336
0
LINE
8
BLACK
6
CONTINUOUS
10
7.13763
20
-2.58336
11
7.14551
21
-2.58662
0
LINE
8
BLACK
6
CONTINUOUS
10
7.14551
20
-2.58662
11
7.15261
21
-2.59136
0
LINE
8
BLACK
6
CONTINUOUS
10
7.15261
20
-2.59136
11
7.15864
21
-2.59739
0
LINE
8
BLACK
6
CONTINUOUS
10
7.15864
20
-2.59739
11
7.16338
21
-2.60449
0
LINE
8
BLACK
6
CONTINUOUS
10
7.16338
20
-2.60449
11
7.16664
21
-2.61237
0
LINE
8
BLACK
6
CONTINUOUS
10
7.16664
20
-2.61237
11
7.16831
21
-2.62073
0
LINE
8
BLACK
6
CONTINUOUS
10
7.16831
20
-2.62073
11
7.16831
21
-2.62927
0
LINE
8
BLACK
6
CONTINUOUS
10
7.16831
20
-2.62927
11
7.16664
21
-2.63763
0
LINE
8
BLACK
6
CONTINUOUS
10
7.16664
20
-2.63763
11
7.16338
21
-2.64551
0
LINE
8
BLACK
6
CONTINUOUS
10
7.16338
20
-2.64551
11
7.15864
21
-2.65261
0
LINE
8
BLACK
6
CONTINUOUS
10
7.15864
20
-2.65261
11
7.15261
21
-2.65864
0
LINE
8
BLACK
6
CONTINUOUS
10
7.15261
20
-2.65864
11
7.14551
21
-2.66338
0
LINE
8
BLACK
6
CONTINUOUS
10
7.14551
20
-2.66338
11
7.13763
21
-2.66664
0
LINE
8
BLACK
6
CONTINUOUS
10
7.13763
20
-2.66664
11
7.12927
21
-2.66831
0
LINE
8
BLACK
6
CONTINUOUS
10
7.12927
20
-2.66831
11
7.12073
21
-2.66831
0
LINE
8
BLACK
6
CONTINUOUS
10
7.12073
20
-2.66831
11
7.11237
21
-2.66664
0
LINE
8
BLACK
6
CONTINUOUS
10
7.11237
20
-2.66664
11
7.10449
21
-2.66338
0
LINE
8
BLACK
6
CONTINUOUS
10
7.10449
20
-2.66338
11
7.09739
21
-2.65864
0
LINE
8
BLACK
6
CONTINUOUS
10
7.09739
20
-2.65864
11
7.09136
21
-2.65261
0
LINE
8
BLACK
6
CONTINUOUS
10
7.09136
20
-2.65261
11
7.08662
21
-2.64551
0
LINE
8
BLACK
6
CONTINUOUS
10
7.08662
20
-2.64551
11
7.08336
21
-2.63763
0
LINE
8
BLACK
6
CONTINUOUS
10
7.08336
20
-2.63763
11
7.08169
21
-2.62927
0
LINE
8
BLACK
6
CONTINUOUS
10
7.08169
20
-2.62927
11
7.08169
21
-2.62073
0
LINE
8
BLACK
6
CONTINUOUS
10
7.08169
20
-2.62073
11
7.08336
21
-2.61237
0
LINE
8
BLACK
6
CONTINUOUS
10
7.08336
20
-2.61237
11
7.08662
21
-2.60449
0
LINE
8
BLACK
6
CONTINUOUS
10
7.08662
20
-2.60449
11
7.09136
21
-2.59739
0
LINE
8
BLACK
6
CONTINUOUS
10
7.09136
20
-2.59739
11
7.09739
21
-2.59136
0
LINE
8
BLACK
6
CONTINUOUS
10
7.09739
20
-2.59136
11
7.10449
21
-2.58662
0
LINE
8
BLACK
6
CONTINUOUS
10
7.10449
20
-2.58662
11
7.11237
21
-2.58336
0
LINE
8
BLACK
6
CONTINUOUS
10
7.11237
20
-2.58336
11
7.12073
21
-2.58169
0
LINE
8
BLACK
6
CONTINUOUS
10
7.12073
20
-2.58169
11
7.12927
21
-2.58169
0
LINE
8
BLACK
6
CONTINUOUS
10
7.12927
20
-2.58169
11
7.13763
21
-2.58336
0
LINE
8
BLACK
6
CONTINUOUS
10
11.6376
20
-1.83336
11
11.6455
21
-1.83662
0
LINE
8
BLACK
6
CONTINUOUS
10
11.6455
20
-1.83662
11
11.6526
21
-1.84136
0
LINE
8
BLACK
6
CONTINUOUS
10
11.6526
20
-1.84136
11
11.6586
21
-1.84739
0
LINE
8
BLACK
6
CONTINUOUS
10
11.6586
20
-1.84739
11
11.6634
21
-1.85449
0
LINE
8
BLACK
6
CONTINUOUS
10
11.6634
20
-1.85449
11
11.6666
21
-1.86237
0
LINE
8
BLACK
6
CONTINUOUS
10
11.6666
20
-1.86237
11
11.6683
21
-1.87073
0
LINE
8
BLACK
6
CONTINUOUS
10
11.6683
20
-1.87073
11
11.6683
21
-1.87927
0
LINE
8
BLACK
6
CONTINUOUS
10
11.6683
20
-1.87927
11
11.6666
21
-1.88763
0
LINE
8
BLACK
6
CONTINUOUS
10
11.6666
20
-1.88763
11
11.6634
21
-1.89551
0
LINE
8
BLACK
6
CONTINUOUS
10
11.6634
20
-1.89551
11
11.6586
21
-1.90261
0
LINE
8
BLACK
6
CONTINUOUS
10
11.6586
20
-1.90261
11
11.6526
21
-1.90864
0
LINE
8
BLACK
6
CONTINUOUS
10
11.6526
20
-1.90864
11
11.6455
21
-1.91338
0
LINE
8
BLACK
6
CONTINUOUS
10
11.6455
20
-1.91338
11
11.6376
21
-1.91664
0
LINE
8
BLACK
6
CONTINUOUS
10
11.6376
20
-1.91664
11
11.6293
21
-1.91831
0
LINE
8
BLACK
6
CONTINUOUS
10
11.6293
20
-1.91831
11
11.6207
21
-1.91831
0
LINE
8
BLACK
6
CONTINUOUS
10
11.6207
20
-1.91831
11
11.6124
21
-1.91664
0
LINE
8
BLACK
6
CONTINUOUS
10
11.6124
20
-1.91664
11
11.6045
21
-1.91338
0
LINE
8
BLACK
6
CONTINUOUS
10
11.6045
20
-1.91338
11
11.5974
21
-1.90864
0
LINE
8
BLACK
6
CONTINUOUS
10
11.5974
20
-1.90864
11
11.5914
21
-1.90261
0
LINE
8
BLACK
6
CONTINUOUS
10
11.5914
20
-1.90261
11
11.5866
21
-1.89551
0
LINE
8
BLACK
6
CONTINUOUS
10
11.5866
20
-1.89551
11
11.5834
21
-1.88763
0
LINE
8
BLACK
6
CONTINUOUS
10
11.5834
20
-1.88763
11
11.5817
21
-1.87927
0
LINE
8
BLACK
6
CONTINUOUS
10
11.5817
20
-1.87927
11
11.5817
21
-1.87073
0
LINE
8
BLACK
6
CONTINUOUS
10
11.5817
20
-1.87073
11
11.5834
21
-1.86237
0
LINE
8
BLACK
6
CONTINUOUS
10
11.5834
20
-1.86237
11
11.5866
21
-1.85449
0
LINE
8
BLACK
6
CONTINUOUS
10
11.5866
20
-1.85449
11
11.5914
21
-1.84739
0
LINE
8
BLACK
6
CONTINUOUS
10
11.5914
20
-1.84739
11
11.5974
21
-1.84136
0
LINE
8
BLACK
6
CONTINUOUS
10
11.5974
20
-1.84136
11
11.6045
21
-1.83662
0
LINE
8
BLACK
6
CONTINUOUS
10
11.6045
20
-1.83662
11
11.6124
21
-1.83336
0
LINE
8
BLACK
6
CONTINUOUS
10
11.6124
20
-1.83336
11
11.6207
21
-1.83169
0
LINE
8
BLACK
6
CONTINUOUS
10
11.6207
20
-1.83169
11
11.6293
21
-1.83169
0
LINE
8
BLACK
6
CONTINUOUS
10
11.6293
20
-1.83169
11
11.6376
21
-1.83336
0
LINE
8
BLACK
6
CONTINUOUS
10
8.63763
20
-1.83336
11
8.64551
21
-1.83662
0
LINE
8
BLACK
6
CONTINUOUS
10
8.64551
20
-1.83662
11
8.65261
21
-1.84136
0
LINE
8
BLACK
6
CONTINUOUS
10
8.65261
20
-1.84136
11
8.65864
21
-1.84739
0
LINE
8
BLACK
6
CONTINUOUS
10
8.65864
20
-1.84739
11
8.66338
21
-1.85449
0
LINE
8
BLACK
6
CONTINUOUS
10
8.66338
20
-1.85449
11
8.66664
21
-1.86237
0
LINE
8
BLACK
6
CONTINUOUS
10
8.66664
20
-1.86237
11
8.66831
21
-1.87073
0
LINE
8
BLACK
6
CONTINUOUS
10
8.66831
20
-1.87073
11
8.66831
21
-1.87927
0
LINE
8
BLACK
6
CONTINUOUS
10
8.66831
20
-1.87927
11
8.66664
21
-1.88763
0
LINE
8
BLACK
6
CONTINUOUS
10
8.66664
20
-1.88763
11
8.66338
21
-1.89551
0
LINE
8
BLACK
6
CONTINUOUS
10
8.66338
20
-1.89551
11
8.65864
21
-1.90261
0
LINE
8
BLACK
6
CONTINUOUS
10
8.65864
20
-1.90261
11
8.65261
21
-1.90864
0
LINE
8
BLACK
6
CONTINUOUS
10
8.65261
20
-1.90864
11
8.64551
21
-1.91338
0
LINE
8
BLACK
6
CONTINUOUS
10
8.64551
20
-1.91338
11
8.63763
21
-1.91664
0
LINE
8
BLACK
6
CONTINUOUS
10
8.63763
20
-1.91664
11
8.62927
21
-1.91831
0
LINE
8
BLACK
6
CONTINUOUS
10
8.62927
20
-1.91831
11
8.62073
21
-1.91831
0
LINE
8
BLACK
6
CONTINUOUS
10
8.62073
20
-1.91831
11
8.61237
21
-1.91664
0
LINE
8
BLACK
6
CONTINUOUS
10
8.61237
20
-1.91664
11
8.60449
21
-1.91338
0
LINE
8
BLACK
6
CONTINUOUS
10
8.60449
20
-1.91338
11
8.59739
21
-1.90864
0
LINE
8
BLACK
6
CONTINUOUS
10
8.59739
20
-1.90864
11
8.59136
21
-1.90261
0
LINE
8
BLACK
6
CONTINUOUS
10
8.59136
20
-1.90261
11
8.58662
21
-1.89551
0
LINE
8
BLACK
6
CONTINUOUS
10
8.58662
20
-1.89551
11
8.58336
21
-1.88763
0
LINE
8
BLACK
6
CONTINUOUS
10
8.58336
20
-1.88763
11
8.58169
21
-1.87927
0
LINE
8
BLACK
6
CONTINUOUS
10
8.58169
20
-1.87927
11
8.58169
21
-1.87073
0
LINE
8
BLACK
6
CONTINUOUS
10
8.58169
20
-1.87073
11
8.58336
21
-1.86237
0
LINE
8
BLACK
6
CONTINUOUS
10
8.58336
20
-1.86237
11
8.58662
21
-1.85449
0
LINE
8
BLACK
6
CONTINUOUS
10
8.58662
20
-1.85449
11
8.59136
21
-1.84739
0
LINE
8
BLACK
6
CONTINUOUS
10
8.59136
20
-1.84739
11
8.59739
21
-1.84136
0
LINE
8
BLACK
6
CONTINUOUS
10
8.59739
20
-1.84136
11
8.60449
21
-1.83662
0
LINE
8
BLACK
6
CONTINUOUS
10
8.60449
20
-1.83662
11
8.61237
21
-1.83336
0
LINE
8
BLACK
6
CONTINUOUS
10
8.61237
20
-1.83336
11
8.62073
21
-1.83169
0
LINE
8
BLACK
6
CONTINUOUS
10
8.62073
20
-1.83169
11
8.62927
21
-1.83169
0
LINE
8
BLACK
6
CONTINUOUS
10
8.62927
20
-1.83169
11
8.63763
21
-1.83336
0
LINE
8
BLACK
6
CONTINUOUS
10
4.88763
20
-1.83336
11
4.89551
21
-1.83662
0
LINE
8
BLACK
6
CONTINUOUS
10
4.89551
20
-1.83662
11
4.90261
21
-1.84136
0
LINE
8
BLACK
6
CONTINUOUS
10
4.90261
20
-1.84136
11
4.90864
21
-1.84739
0
LINE
8
BLACK
6
CONTINUOUS
10
4.90864
20
-1.84739
11
4.91338
21
-1.85449
0
LINE
8
BLACK
6
CONTINUOUS
10
4.91338
20
-1.85449
11
4.91664
21
-1.86237
0
LINE
8
BLACK
6
CONTINUOUS
10
4.91664
20
-1.86237
11
4.91831
21
-1.87073
0
LINE
8
BLACK
6
CONTINUOUS
10
4.91831
20
-1.87073
11
4.91831
21
-1.87927
0
LINE
8
BLACK
6
CONTINUOUS
10
4.91831
20
-1.87927
11
4.91664
21
-1.88763
0
LINE
8
BLACK
6
CONTINUOUS
10
4.91664
20
-1.88763
11
4.91338
21
-1.89551
0
LINE
8
BLACK
6
CONTINUOUS
10
4.91338
20
-1.89551
11
4.90864
21
-1.90261
0
LINE
8
BLACK
6
CONTINUOUS
10
4.90864
20
-1.90261
11
4.90261
21
-1.90864
0
LINE
8
BLACK
6
CONTINUOUS
10
4.90261
20
-1.90864
11
4.89551
21
-1.91338
0
LINE
8
BLACK
6
CONTINUOUS
10
4.89551
20
-1.91338
11
4.88763
21
-1.91664
0
LINE
8
BLACK
6
CONTINUOUS
10
4.88763
20
-1.91664
11
4.87927
21
-1.91831
0
LINE
8
BLACK
6
CONTINUOUS
10
4.87927
20
-1.91831
11
4.87073
21
-1.91831
0
LINE
8
BLACK
6
CONTINUOUS
10
4.87073
20
-1.91831
11
4.86237
21
-1.91664
0
LINE
8
BLACK
6
CONTINUOUS
10
4.86237
20
-1.91664
11
4.85449
21
-1.91338
0
LINE
8
BLACK
6
CONTINUOUS
10
4.85449
20
-1.91338
11
4.84739
21
-1.90864
0
LINE
8
BLACK
6
CONTINUOUS
10
4.84739
20
-1.90864
11
4.84136
21
-1.90261
0
LINE
8
BLACK
6
CONTINUOUS
10
4.84136
20
-1.90261
11
4.83662
21
-1.89551
0
LINE
8
BLACK
6
CONTINUOUS
10
4.83662
20
-1.89551
11
4.83336
21
-1.88763
0
LINE
8
BLACK
6
CONTINUOUS
10
4.83336
20
-1.88763
11
4.83169
21
-1.87927
0
LINE
8
BLACK
6
CONTINUOUS
10
4.83169
20
-1.87927
11
4.83169
21
-1.87073
0
LINE
8
BLACK
6
CONTINUOUS
10
4.83169
20
-1.87073
11
4.83336
21
-1.86237
0
LINE
8
BLACK
6
CONTINUOUS
10
4.83336
20
-1.86237
11
4.83662
21
-1.85449
0
LINE
8
BLACK
6
CONTINUOUS
10
4.83662
20
-1.85449
11
4.84136
21
-1.84739
0
LINE
8
BLACK
6
CONTINUOUS
10
4.84136
20
-1.84739
11
4.84739
21
-1.84136
0
LINE
8
BLACK
6
CONTINUOUS
10
4.84739
20
-1.84136
11
4.85449
21
-1.83662
0
LINE
8
BLACK
6
CONTINUOUS
10
4.85449
20
-1.83662
11
4.86237
21
-1.83336
0
LINE
8
BLACK
6
CONTINUOUS
10
4.86237
20
-1.83336
11
4.87073
21
-1.83169
0
LINE
8
BLACK
6
CONTINUOUS
10
4.87073
20
-1.83169
11
4.87927
21
-1.83169
0
LINE
8
BLACK
6
CONTINUOUS
10
4.87927
20
-1.83169
11
4.88763
21
-1.83336
0
LINE
8
BLACK
6
CONTINUOUS
10
1.88763
20
-1.83336
11
1.89551
21
-1.83662
0
LINE
8
BLACK
6
CONTINUOUS
10
1.89551
20
-1.83662
11
1.90261
21
-1.84136
0
LINE
8
BLACK
6
CONTINUOUS
10
1.90261
20
-1.84136
11
1.90864
21
-1.84739
0
LINE
8
BLACK
6
CONTINUOUS
10
1.90864
20
-1.84739
11
1.91338
21
-1.85449
0
LINE
8
BLACK
6
CONTINUOUS
10
1.91338
20
-1.85449
11
1.91664
21
-1.86237
0
LINE
8
BLACK
6
CONTINUOUS
10
1.91664
20
-1.86237
11
1.91831
21
-1.87073
0
LINE
8
BLACK
6
CONTINUOUS
10
1.91831
20
-1.87073
11
1.91831
21
-1.87927
0
LINE
8
BLACK
6
CONTINUOUS
10
1.91831
20
-1.87927
11
1.91664
21
-1.88763
0
LINE
8
BLACK
6
CONTINUOUS
10
1.91664
20
-1.88763
11
1.91338
21
-1.89551
0
LINE
8
BLACK
6
CONTINUOUS
10
1.91338
20
-1.89551
11
1.90864
21
-1.90261
0
LINE
8
BLACK
6
CONTINUOUS
10
1.90864
20
-1.90261
11
1.90261
21
-1.90864
0
LINE
8
BLACK
6
CONTINUOUS
10
1.90261
20
-1.90864
11
1.89551
21
-1.91338
0
LINE
8
BLACK
6
CONTINUOUS
10
1.89551
20
-1.91338
11
1.88763
21
-1.91664
0
LINE
8
BLACK
6
CONTINUOUS
10
1.88763
20
-1.91664
11
1.87927
21
-1.91831
0
LINE
8
BLACK
6
CONTINUOUS
10
1.87927
20
-1.91831
11
1.87073
21
-1.91831
0
LINE
8
BLACK
6
CONTINUOUS
10
1.87073
20
-1.91831
11
1.86237
21
-1.91664
0
LINE
8
BLACK
6
CONTINUOUS
10
1.86237
20
-1.91664
11
1.85449
21
-1.91338
0
LINE
8
BLACK
6
CONTINUOUS
10
1.85449
20
-1.91338
11
1.84739
21
-1.90864
0
LINE
8
BLACK
6
CONTINUOUS
10
1.84739
20
-1.90864
11
1.84136
21
-1.90261
0
LINE
8
BLACK
6
CONTINUOUS
10
1.84136
20
-1.90261
11
1.83662
21
-1.89551
0
LINE
8
BLACK
6
CONTINUOUS
10
1.83662
20
-1.89551
11
1.83336
21
-1.88763
0
LINE
8
BLACK
6
CONTINUOUS
10
1.83336
20
-1.88763
11
1.83169
21
-1.87927
0
LINE
8
BLACK
6
CONTINUOUS
10
1.83169
20
-1.87927
11
1.83169
21
-1.87073
0
LINE
8
BLACK
6
CONTINUOUS
10
1.83169
20
-1.87073
11
1.83336
21
-1.86237
0
LINE
8
BLACK
6
CONTINUOUS
10
1.83336
20
-1.86237
11
1.83662
21
-1.85449
0
LINE
8
BLACK
6
CONTINUOUS
10
1.83662
20
-1.85449
11
1.84136
21
-1.84739
0
LINE
8
BLACK
6
CONTINUOUS
10
1.84136
20
-1.84739
11
1.84739
21
-1.84136
0
LINE
8
BLACK
6
CONTINUOUS
10
1.84739
20
-1.84136
11
1.85449
21
-1.83662
0
LINE
8
BLACK
6
CONTINUOUS
10
1.85449
20
-1.83662
11
1.86237
21
-1.83336
0
LINE
8
BLACK
6
CONTINUOUS
10
1.86237
20
-1.83336
11
1.87073
21
-1.83169
0
LINE
8
BLACK
6
CONTINUOUS
10
1.87073
20
-1.83169
11
1.87927
21
-1.83169
0
LINE
8
BLACK
6
CONTINUOUS
10
1.87927
20
-1.83169
11
1.88763
21
-1.83336
  0
ENDSEC
  0
EOF
