  0
SECTION
  2
HEADER
  9
$ANGBASE
  50
0.0
  9
$ANGDIR
  70
1
  9
$MEASUREMENT
  70
0
  0
ENDSEC
  0
SECTION
  2
TABLES
  0
TABLE
  2
LTYPE
  70
4
  0
LTYPE
  5
40F
  2
CONTINUOUS
  70
0
  3
Solid line
  72
65
  73
0
  40
0.0
  0
LTYPE
  5
410
  2
DASHDOT
 70
0
  3
Dash Dot ____ _ ____ _
 72
65
 73
4
 40
2.0
 49
1.25
 49
-0.25
 49
0.25
 49
-0.25
  0
LTYPE
  5
411
  2
DASHED
 70
0
  3
Dashed __ __ __ __ __
 72
65
 73
2
 40
0.75
 49
0.5
 49
-0.25
  0
LTYPE
  5
43B
  2
DOTTED
 70
0
  3
Dotted .  .  .  .
 72
65
 73
2
 40
0.2
 49
0.0
 49
-0.2
  0
ENDTAB
  0
TABLE
  2
STYLE
  70
4
  0
STYLE
  2
KICAD
  70
0
  40
0
  41
1
  42
1
  50
0
  71
0
  3
isocp.shx
  0
STYLE
  2
KICADB
  70
0
  40
0
  41
1
  42
1
  50
0
  71
0
  3
isocp.shx
  0
STYLE
  2
KICADI
  70
0
  40
0
  41
1
  42
1
  50
15
  71
0
  3
isocp.shx
  0
STYLE
  2
KICADBI
  70
0
  40
0
  41
1
  42
1
  50
15
  71
0
  3
isocp.shx
  0
ENDTAB
  0
TABLE
  2
LAYER
  70
1
  0
LAYER
  2
BLACK
  70
0
  62
7
  6
CONTINUOUS
  0
ENDTAB
  0
ENDSEC
  0
SECTION
  2
ENTITIES
0
LINE
8
BLACK
6
CONTINUOUS
10
12.3634
20
-4.90717
11
12.3632
21
-4.90722
0
LINE
8
BLACK
6
CONTINUOUS
10
12.3632
20
-4.90722
11
12.3629
21
-4.90727
0
LINE
8
BLACK
6
CONTINUOUS
10
12.3629
20
-4.90727
11
12.3447
21
-4.90918
0
LINE
8
BLACK
6
CONTINUOUS
10
12.3447
20
-4.90918
11
12.3447
21
-4.90919
0
LINE
8
BLACK
6
CONTINUOUS
10
12.3447
20
-4.90919
11
12.3445
21
-4.90919
0
LINE
8
BLACK
6
CONTINUOUS
10
12.3445
20
-4.90919
11
12.3444
21
-4.9092
0
LINE
8
BLACK
6
CONTINUOUS
10
12.3444
20
-4.9092
11
12.3439
21
-4.9092
0
LINE
8
BLACK
6
CONTINUOUS
10
12.3439
20
-4.9092
11
12.3439
21
-4.9092
0
LINE
8
BLACK
6
CONTINUOUS
10
12.3439
20
-4.9092
11
1.15611
21
-4.9092
0
LINE
8
BLACK
6
CONTINUOUS
10
1.15611
20
-4.9092
11
1.15596
21
-4.90919
0
LINE
8
BLACK
6
CONTINUOUS
10
1.15596
20
-4.90919
11
1.15596
21
-4.90919
0
LINE
8
BLACK
6
CONTINUOUS
10
1.15596
20
-4.90919
11
1.13775
21
-4.9074
0
LINE
8
BLACK
6
CONTINUOUS
10
1.13775
20
-4.9074
11
1.13771
21
-4.9074
0
LINE
8
BLACK
6
CONTINUOUS
10
1.13771
20
-4.9074
11
1.13745
21
-4.90734
0
LINE
8
BLACK
6
CONTINUOUS
10
1.13745
20
-4.90734
11
1.13719
21
-4.90729
0
LINE
8
BLACK
6
CONTINUOUS
10
1.13719
20
-4.90729
11
1.11967
21
-4.902
0
LINE
8
BLACK
6
CONTINUOUS
10
1.11967
20
-4.902
11
1.11967
21
-4.902
0
LINE
8
BLACK
6
CONTINUOUS
10
1.11967
20
-4.902
11
1.11963
21
-4.90199
0
LINE
8
BLACK
6
CONTINUOUS
10
1.11963
20
-4.90199
11
1.11939
21
-4.90189
0
LINE
8
BLACK
6
CONTINUOUS
10
1.11939
20
-4.90189
11
1.11914
21
-4.90178
0
LINE
8
BLACK
6
CONTINUOUS
10
1.11914
20
-4.90178
11
1.10298
21
-4.89319
0
LINE
8
BLACK
6
CONTINUOUS
10
1.10298
20
-4.89319
11
1.10298
21
-4.89319
0
LINE
8
BLACK
6
CONTINUOUS
10
1.10298
20
-4.89319
11
1.10298
21
-4.89319
0
LINE
8
BLACK
6
CONTINUOUS
10
1.10298
20
-4.89319
11
1.10295
21
-4.89317
0
LINE
8
BLACK
6
CONTINUOUS
10
1.10295
20
-4.89317
11
1.10273
21
-4.89302
0
LINE
8
BLACK
6
CONTINUOUS
10
1.10273
20
-4.89302
11
1.1025
21
-4.89287
0
LINE
8
BLACK
6
CONTINUOUS
10
1.1025
20
-4.89287
11
1.08832
21
-4.88131
0
LINE
8
BLACK
6
CONTINUOUS
10
1.08832
20
-4.88131
11
1.08832
21
-4.88131
0
LINE
8
BLACK
6
CONTINUOUS
10
1.08832
20
-4.88131
11
1.08832
21
-4.88131
0
LINE
8
BLACK
6
CONTINUOUS
10
1.08832
20
-4.88131
11
1.08829
21
-4.88128
0
LINE
8
BLACK
6
CONTINUOUS
10
1.08829
20
-4.88128
11
1.08811
21
-4.88109
0
LINE
8
BLACK
6
CONTINUOUS
10
1.08811
20
-4.88109
11
1.08792
21
-4.8809
0
LINE
8
BLACK
6
CONTINUOUS
10
1.08792
20
-4.8809
11
1.07625
21
-4.86681
0
LINE
8
BLACK
6
CONTINUOUS
10
1.07625
20
-4.86681
11
1.07625
21
-4.86681
0
LINE
8
BLACK
6
CONTINUOUS
10
1.07625
20
-4.86681
11
1.07625
21
-4.86681
0
LINE
8
BLACK
6
CONTINUOUS
10
1.07625
20
-4.86681
11
1.07623
21
-4.86677
0
LINE
8
BLACK
6
CONTINUOUS
10
1.07623
20
-4.86677
11
1.07608
21
-4.86655
0
LINE
8
BLACK
6
CONTINUOUS
10
1.07608
20
-4.86655
11
1.07593
21
-4.86633
0
LINE
8
BLACK
6
CONTINUOUS
10
1.07593
20
-4.86633
11
1.06723
21
-4.85023
0
LINE
8
BLACK
6
CONTINUOUS
10
1.06723
20
-4.85023
11
1.06721
21
-4.8502
0
LINE
8
BLACK
6
CONTINUOUS
10
1.06721
20
-4.8502
11
1.06711
21
-4.84995
0
LINE
8
BLACK
6
CONTINUOUS
10
1.06711
20
-4.84995
11
1.067
21
-4.8497
0
LINE
8
BLACK
6
CONTINUOUS
10
1.067
20
-4.8497
11
1.06159
21
-4.83222
0
LINE
8
BLACK
6
CONTINUOUS
10
1.06159
20
-4.83222
11
1.06158
21
-4.83218
0
LINE
8
BLACK
6
CONTINUOUS
10
1.06158
20
-4.83218
11
1.06153
21
-4.83192
0
LINE
8
BLACK
6
CONTINUOUS
10
1.06153
20
-4.83192
11
1.06148
21
-4.83166
0
LINE
8
BLACK
6
CONTINUOUS
10
1.06148
20
-4.83166
11
1.05957
21
-4.81346
0
LINE
8
BLACK
6
CONTINUOUS
10
1.05957
20
-4.81346
11
1.05956
21
-4.81342
0
LINE
8
BLACK
6
CONTINUOUS
10
1.05956
20
-4.81342
11
1.05956
21
-4.81329
0
LINE
8
BLACK
6
CONTINUOUS
10
1.05956
20
-4.81329
11
1.05955
21
-4.81316
0
LINE
8
BLACK
6
CONTINUOUS
10
1.05955
20
-4.81316
11
1.05955
21
-4.81265
0
LINE
8
BLACK
6
CONTINUOUS
10
1.05955
20
-4.81265
11
1.05955
21
-4.81264
0
LINE
8
BLACK
6
CONTINUOUS
10
1.05955
20
-4.81264
11
1.05955
21
-4.81252
0
LINE
8
BLACK
6
CONTINUOUS
10
1.05955
20
-4.81252
11
1.05955
21
-4.81251
0
LINE
8
BLACK
6
CONTINUOUS
10
1.05955
20
-4.81251
11
1.05955
21
-4.8125
0
LINE
8
BLACK
6
CONTINUOUS
10
1.05955
20
-4.8125
11
1.05955
21
-1.18736
0
LINE
8
BLACK
6
CONTINUOUS
10
1.05955
20
-1.18736
11
1.05956
21
-1.18721
0
LINE
8
BLACK
6
CONTINUOUS
10
1.05956
20
-1.18721
11
1.05956
21
-1.18721
0
LINE
8
BLACK
6
CONTINUOUS
10
1.05956
20
-1.18721
11
1.06135
21
-1.169
0
LINE
8
BLACK
6
CONTINUOUS
10
1.06135
20
-1.169
11
1.06135
21
-1.169
0
LINE
8
BLACK
6
CONTINUOUS
10
1.06135
20
-1.169
11
1.06135
21
-1.169
0
LINE
8
BLACK
6
CONTINUOUS
10
1.06135
20
-1.169
11
1.06135
21
-1.16896
0
LINE
8
BLACK
6
CONTINUOUS
10
1.06135
20
-1.16896
11
1.06141
21
-1.1687
0
LINE
8
BLACK
6
CONTINUOUS
10
1.06141
20
-1.1687
11
1.06146
21
-1.16844
0
LINE
8
BLACK
6
CONTINUOUS
10
1.06146
20
-1.16844
11
1.06675
21
-1.15092
0
LINE
8
BLACK
6
CONTINUOUS
10
1.06675
20
-1.15092
11
1.06675
21
-1.15092
0
LINE
8
BLACK
6
CONTINUOUS
10
1.06675
20
-1.15092
11
1.06675
21
-1.15092
0
LINE
8
BLACK
6
CONTINUOUS
10
1.06675
20
-1.15092
11
1.06676
21
-1.15088
0
LINE
8
BLACK
6
CONTINUOUS
10
1.06676
20
-1.15088
11
1.06686
21
-1.15064
0
LINE
8
BLACK
6
CONTINUOUS
10
1.06686
20
-1.15064
11
1.06697
21
-1.15039
0
LINE
8
BLACK
6
CONTINUOUS
10
1.06697
20
-1.15039
11
1.07556
21
-1.13423
0
LINE
8
BLACK
6
CONTINUOUS
10
1.07556
20
-1.13423
11
1.07556
21
-1.13423
0
LINE
8
BLACK
6
CONTINUOUS
10
1.07556
20
-1.13423
11
1.07556
21
-1.13423
0
LINE
8
BLACK
6
CONTINUOUS
10
1.07556
20
-1.13423
11
1.07558
21
-1.1342
0
LINE
8
BLACK
6
CONTINUOUS
10
1.07558
20
-1.1342
11
1.07573
21
-1.13398
0
LINE
8
BLACK
6
CONTINUOUS
10
1.07573
20
-1.13398
11
1.07588
21
-1.13375
0
LINE
8
BLACK
6
CONTINUOUS
10
1.07588
20
-1.13375
11
1.08744
21
-1.11957
0
LINE
8
BLACK
6
CONTINUOUS
10
1.08744
20
-1.11957
11
1.08747
21
-1.11954
0
LINE
8
BLACK
6
CONTINUOUS
10
1.08747
20
-1.11954
11
1.08766
21
-1.11935
0
LINE
8
BLACK
6
CONTINUOUS
10
1.08766
20
-1.11935
11
1.08785
21
-1.11917
0
LINE
8
BLACK
6
CONTINUOUS
10
1.08785
20
-1.11917
11
1.10194
21
-1.1075
0
LINE
8
BLACK
6
CONTINUOUS
10
1.10194
20
-1.1075
11
1.10198
21
-1.10748
0
LINE
8
BLACK
6
CONTINUOUS
10
1.10198
20
-1.10748
11
1.1022
21
-1.10733
0
LINE
8
BLACK
6
CONTINUOUS
10
1.1022
20
-1.10733
11
1.10242
21
-1.10718
0
LINE
8
BLACK
6
CONTINUOUS
10
1.10242
20
-1.10718
11
1.11852
21
-1.09848
0
LINE
8
BLACK
6
CONTINUOUS
10
1.11852
20
-1.09848
11
1.11855
21
-1.09846
0
LINE
8
BLACK
6
CONTINUOUS
10
1.11855
20
-1.09846
11
1.1188
21
-1.09836
0
LINE
8
BLACK
6
CONTINUOUS
10
1.1188
20
-1.09836
11
1.11905
21
-1.09825
0
LINE
8
BLACK
6
CONTINUOUS
10
1.11905
20
-1.09825
11
1.13653
21
-1.09284
0
LINE
8
BLACK
6
CONTINUOUS
10
1.13653
20
-1.09284
11
1.13657
21
-1.09283
0
LINE
8
BLACK
6
CONTINUOUS
10
1.13657
20
-1.09283
11
1.13683
21
-1.09278
0
LINE
8
BLACK
6
CONTINUOUS
10
1.13683
20
-1.09278
11
1.13709
21
-1.09273
0
LINE
8
BLACK
6
CONTINUOUS
10
1.13709
20
-1.09273
11
1.15529
21
-1.09082
0
LINE
8
BLACK
6
CONTINUOUS
10
1.15529
20
-1.09082
11
1.15533
21
-1.09081
0
LINE
8
BLACK
6
CONTINUOUS
10
1.15533
20
-1.09081
11
1.15546
21
-1.09081
0
LINE
8
BLACK
6
CONTINUOUS
10
1.15546
20
-1.09081
11
1.15559
21
-1.0908
0
LINE
8
BLACK
6
CONTINUOUS
10
1.15559
20
-1.0908
11
1.1561
21
-1.0908
0
LINE
8
BLACK
6
CONTINUOUS
10
1.1561
20
-1.0908
11
1.15611
21
-1.0908
0
LINE
8
BLACK
6
CONTINUOUS
10
1.15611
20
-1.0908
11
12.3439
21
-1.0908
0
LINE
8
BLACK
6
CONTINUOUS
10
12.3439
20
-1.0908
11
12.344
21
-1.09081
0
LINE
8
BLACK
6
CONTINUOUS
10
12.344
20
-1.09081
11
12.344
21
-1.09081
0
LINE
8
BLACK
6
CONTINUOUS
10
12.344
20
-1.09081
11
12.3622
21
-1.0926
0
LINE
8
BLACK
6
CONTINUOUS
10
12.3622
20
-1.0926
11
12.3622
21
-1.0926
0
LINE
8
BLACK
6
CONTINUOUS
10
12.3622
20
-1.0926
11
12.3622
21
-1.0926
0
LINE
8
BLACK
6
CONTINUOUS
10
12.3622
20
-1.0926
11
12.3623
21
-1.0926
0
LINE
8
BLACK
6
CONTINUOUS
10
12.3623
20
-1.0926
11
12.3625
21
-1.09266
0
LINE
8
BLACK
6
CONTINUOUS
10
12.3625
20
-1.09266
11
12.3628
21
-1.09271
0
LINE
8
BLACK
6
CONTINUOUS
10
12.3628
20
-1.09271
11
12.3803
21
-1.098
0
LINE
8
BLACK
6
CONTINUOUS
10
12.3803
20
-1.098
11
12.3803
21
-1.098
0
LINE
8
BLACK
6
CONTINUOUS
10
12.3803
20
-1.098
11
12.3803
21
-1.098
0
LINE
8
BLACK
6
CONTINUOUS
10
12.3803
20
-1.098
11
12.3804
21
-1.09801
0
LINE
8
BLACK
6
CONTINUOUS
10
12.3804
20
-1.09801
11
12.3806
21
-1.09811
0
LINE
8
BLACK
6
CONTINUOUS
10
12.3806
20
-1.09811
11
12.3809
21
-1.09822
0
LINE
8
BLACK
6
CONTINUOUS
10
12.3809
20
-1.09822
11
12.397
21
-1.10681
0
LINE
8
BLACK
6
CONTINUOUS
10
12.397
20
-1.10681
11
12.397
21
-1.10681
0
LINE
8
BLACK
6
CONTINUOUS
10
12.397
20
-1.10681
11
12.397
21
-1.10681
0
LINE
8
BLACK
6
CONTINUOUS
10
12.397
20
-1.10681
11
12.3971
21
-1.10683
0
LINE
8
BLACK
6
CONTINUOUS
10
12.3971
20
-1.10683
11
12.3973
21
-1.10698
0
LINE
8
BLACK
6
CONTINUOUS
10
12.3973
20
-1.10698
11
12.3975
21
-1.10713
0
LINE
8
BLACK
6
CONTINUOUS
10
12.3975
20
-1.10713
11
12.4117
21
-1.11869
0
LINE
8
BLACK
6
CONTINUOUS
10
12.4117
20
-1.11869
11
12.4117
21
-1.11872
0
LINE
8
BLACK
6
CONTINUOUS
10
12.4117
20
-1.11872
11
12.4119
21
-1.11891
0
LINE
8
BLACK
6
CONTINUOUS
10
12.4119
20
-1.11891
11
12.4121
21
-1.1191
0
LINE
8
BLACK
6
CONTINUOUS
10
12.4121
20
-1.1191
11
12.4237
21
-1.13319
0
LINE
8
BLACK
6
CONTINUOUS
10
12.4237
20
-1.13319
11
12.4238
21
-1.13323
0
LINE
8
BLACK
6
CONTINUOUS
10
12.4238
20
-1.13323
11
12.4239
21
-1.13345
0
LINE
8
BLACK
6
CONTINUOUS
10
12.4239
20
-1.13345
11
12.4241
21
-1.13367
0
LINE
8
BLACK
6
CONTINUOUS
10
12.4241
20
-1.13367
11
12.4328
21
-1.14977
0
LINE
8
BLACK
6
CONTINUOUS
10
12.4328
20
-1.14977
11
12.4328
21
-1.1498
0
LINE
8
BLACK
6
CONTINUOUS
10
12.4328
20
-1.1498
11
12.4329
21
-1.15005
0
LINE
8
BLACK
6
CONTINUOUS
10
12.4329
20
-1.15005
11
12.433
21
-1.1503
0
LINE
8
BLACK
6
CONTINUOUS
10
12.433
20
-1.1503
11
12.4384
21
-1.16778
0
LINE
8
BLACK
6
CONTINUOUS
10
12.4384
20
-1.16778
11
12.4384
21
-1.16782
0
LINE
8
BLACK
6
CONTINUOUS
10
12.4384
20
-1.16782
11
12.4385
21
-1.16808
0
LINE
8
BLACK
6
CONTINUOUS
10
12.4385
20
-1.16808
11
12.4385
21
-1.16834
0
LINE
8
BLACK
6
CONTINUOUS
10
12.4385
20
-1.16834
11
12.4404
21
-1.18654
0
LINE
8
BLACK
6
CONTINUOUS
10
12.4404
20
-1.18654
11
12.4404
21
-1.18658
0
LINE
8
BLACK
6
CONTINUOUS
10
12.4404
20
-1.18658
11
12.4404
21
-1.18671
0
LINE
8
BLACK
6
CONTINUOUS
10
12.4404
20
-1.18671
11
12.4405
21
-1.18684
0
LINE
8
BLACK
6
CONTINUOUS
10
12.4405
20
-1.18684
11
12.4405
21
-1.18735
0
LINE
8
BLACK
6
CONTINUOUS
10
12.4405
20
-1.18735
11
12.4405
21
-1.18736
0
LINE
8
BLACK
6
CONTINUOUS
10
12.4405
20
-1.18736
11
12.4405
21
-4.81264
0
LINE
8
BLACK
6
CONTINUOUS
10
12.4405
20
-4.81264
11
12.4404
21
-4.81279
0
LINE
8
BLACK
6
CONTINUOUS
10
12.4404
20
-4.81279
11
12.4404
21
-4.81279
0
LINE
8
BLACK
6
CONTINUOUS
10
12.4404
20
-4.81279
11
12.4387
21
-4.831
0
LINE
8
BLACK
6
CONTINUOUS
10
12.4387
20
-4.831
11
12.4386
21
-4.83104
0
LINE
8
BLACK
6
CONTINUOUS
10
12.4386
20
-4.83104
11
12.4386
21
-4.8313
0
LINE
8
BLACK
6
CONTINUOUS
10
12.4386
20
-4.8313
11
12.4385
21
-4.83156
0
LINE
8
BLACK
6
CONTINUOUS
10
12.4385
20
-4.83156
11
12.4333
21
-4.84908
0
LINE
8
BLACK
6
CONTINUOUS
10
12.4333
20
-4.84908
11
12.4332
21
-4.84912
0
LINE
8
BLACK
6
CONTINUOUS
10
12.4332
20
-4.84912
11
12.4331
21
-4.84936
0
LINE
8
BLACK
6
CONTINUOUS
10
12.4331
20
-4.84936
11
12.433
21
-4.84961
0
LINE
8
BLACK
6
CONTINUOUS
10
12.433
20
-4.84961
11
12.4244
21
-4.86577
0
LINE
8
BLACK
6
CONTINUOUS
10
12.4244
20
-4.86577
11
12.4244
21
-4.86577
0
LINE
8
BLACK
6
CONTINUOUS
10
12.4244
20
-4.86577
11
12.4244
21
-4.86577
0
LINE
8
BLACK
6
CONTINUOUS
10
12.4244
20
-4.86577
11
12.4244
21
-4.8658
0
LINE
8
BLACK
6
CONTINUOUS
10
12.4244
20
-4.8658
11
12.4243
21
-4.86602
0
LINE
8
BLACK
6
CONTINUOUS
10
12.4243
20
-4.86602
11
12.4241
21
-4.86625
0
LINE
8
BLACK
6
CONTINUOUS
10
12.4241
20
-4.86625
11
12.4126
21
-4.88043
0
LINE
8
BLACK
6
CONTINUOUS
10
12.4126
20
-4.88043
11
12.4126
21
-4.88043
0
LINE
8
BLACK
6
CONTINUOUS
10
12.4126
20
-4.88043
11
12.4126
21
-4.88043
0
LINE
8
BLACK
6
CONTINUOUS
10
12.4126
20
-4.88043
11
12.4125
21
-4.88046
0
LINE
8
BLACK
6
CONTINUOUS
10
12.4125
20
-4.88046
11
12.4123
21
-4.88064
0
LINE
8
BLACK
6
CONTINUOUS
10
12.4123
20
-4.88064
11
12.4122
21
-4.88083
0
LINE
8
BLACK
6
CONTINUOUS
10
12.4122
20
-4.88083
11
12.3981
21
-4.8925
0
LINE
8
BLACK
6
CONTINUOUS
10
12.3981
20
-4.8925
11
12.3981
21
-4.8925
0
LINE
8
BLACK
6
CONTINUOUS
10
12.3981
20
-4.8925
11
12.3981
21
-4.8925
0
LINE
8
BLACK
6
CONTINUOUS
10
12.3981
20
-4.8925
11
12.398
21
-4.89252
0
LINE
8
BLACK
6
CONTINUOUS
10
12.398
20
-4.89252
11
12.3978
21
-4.89267
0
LINE
8
BLACK
6
CONTINUOUS
10
12.3978
20
-4.89267
11
12.3976
21
-4.89282
0
LINE
8
BLACK
6
CONTINUOUS
10
12.3976
20
-4.89282
11
12.3815
21
-4.90152
0
LINE
8
BLACK
6
CONTINUOUS
10
12.3815
20
-4.90152
11
12.3814
21
-4.90154
0
LINE
8
BLACK
6
CONTINUOUS
10
12.3814
20
-4.90154
11
12.3812
21
-4.90164
0
LINE
8
BLACK
6
CONTINUOUS
10
12.3812
20
-4.90164
11
12.381
21
-4.90175
0
LINE
8
BLACK
6
CONTINUOUS
10
12.381
20
-4.90175
11
12.3635
21
-4.90716
0
LINE
8
BLACK
6
CONTINUOUS
10
12.3635
20
-4.90716
11
12.3635
21
-4.90716
0
LINE
8
BLACK
6
CONTINUOUS
10
12.3635
20
-4.90716
11
12.3634
21
-4.90717
0
LINE
8
BLACK
6
CONTINUOUS
10
1.15626
20
-1.0967
11
1.15576
21
-1.0967
0
LINE
8
BLACK
6
CONTINUOUS
10
1.15576
20
-1.0967
11
1.138
21
-1.09857
0
LINE
8
BLACK
6
CONTINUOUS
10
1.138
20
-1.09857
11
1.12107
21
-1.10381
0
LINE
8
BLACK
6
CONTINUOUS
10
1.12107
20
-1.10381
11
1.10548
21
-1.11224
0
LINE
8
BLACK
6
CONTINUOUS
10
1.10548
20
-1.11224
11
1.09183
21
-1.12353
0
LINE
8
BLACK
6
CONTINUOUS
10
1.09183
20
-1.12353
11
1.08063
21
-1.13726
0
LINE
8
BLACK
6
CONTINUOUS
10
1.08063
20
-1.13726
11
1.07232
21
-1.15291
0
LINE
8
BLACK
6
CONTINUOUS
10
1.07232
20
-1.15291
11
1.0672
21
-1.16987
0
LINE
8
BLACK
6
CONTINUOUS
10
1.0672
20
-1.16987
11
1.06545
21
-1.18764
0
LINE
8
BLACK
6
CONTINUOUS
10
1.06545
20
-1.18764
11
1.06545
21
-4.81249
0
LINE
8
BLACK
6
CONTINUOUS
10
1.06545
20
-4.81249
11
1.06545
21
-4.81299
0
LINE
8
BLACK
6
CONTINUOUS
10
1.06545
20
-4.81299
11
1.06732
21
-4.83075
0
LINE
8
BLACK
6
CONTINUOUS
10
1.06732
20
-4.83075
11
1.07256
21
-4.84768
0
LINE
8
BLACK
6
CONTINUOUS
10
1.07256
20
-4.84768
11
1.08099
21
-4.86327
0
LINE
8
BLACK
6
CONTINUOUS
10
1.08099
20
-4.86327
11
1.09228
21
-4.87692
0
LINE
8
BLACK
6
CONTINUOUS
10
1.09228
20
-4.87692
11
1.10601
21
-4.88812
0
LINE
8
BLACK
6
CONTINUOUS
10
1.10601
20
-4.88812
11
1.12166
21
-4.89643
0
LINE
8
BLACK
6
CONTINUOUS
10
1.12166
20
-4.89643
11
1.13862
21
-4.90155
0
LINE
8
BLACK
6
CONTINUOUS
10
1.13862
20
-4.90155
11
1.15639
21
-4.9033
0
LINE
8
BLACK
6
CONTINUOUS
10
1.15639
20
-4.9033
11
12.3437
21
-4.9033
0
LINE
8
BLACK
6
CONTINUOUS
10
12.3437
20
-4.9033
11
12.3442
21
-4.9033
0
LINE
8
BLACK
6
CONTINUOUS
10
12.3442
20
-4.9033
11
12.362
21
-4.90143
0
LINE
8
BLACK
6
CONTINUOUS
10
12.362
20
-4.90143
11
12.3789
21
-4.89619
0
LINE
8
BLACK
6
CONTINUOUS
10
12.3789
20
-4.89619
11
12.3945
21
-4.88776
0
LINE
8
BLACK
6
CONTINUOUS
10
12.3945
20
-4.88776
11
12.4082
21
-4.87647
0
LINE
8
BLACK
6
CONTINUOUS
10
12.4082
20
-4.87647
11
12.4194
21
-4.86274
0
LINE
8
BLACK
6
CONTINUOUS
10
12.4194
20
-4.86274
11
12.4277
21
-4.84709
0
LINE
8
BLACK
6
CONTINUOUS
10
12.4277
20
-4.84709
11
12.4328
21
-4.83013
0
LINE
8
BLACK
6
CONTINUOUS
10
12.4328
20
-4.83013
11
12.4345
21
-4.81236
0
LINE
8
BLACK
6
CONTINUOUS
10
12.4345
20
-4.81236
11
12.4345
21
-1.18751
0
LINE
8
BLACK
6
CONTINUOUS
10
12.4345
20
-1.18751
11
12.4345
21
-1.18751
0
LINE
8
BLACK
6
CONTINUOUS
10
12.4345
20
-1.18751
11
12.4345
21
-1.18701
0
LINE
8
BLACK
6
CONTINUOUS
10
12.4345
20
-1.18701
11
12.4327
21
-1.16925
0
LINE
8
BLACK
6
CONTINUOUS
10
12.4327
20
-1.16925
11
12.4274
21
-1.15232
0
LINE
8
BLACK
6
CONTINUOUS
10
12.4274
20
-1.15232
11
12.419
21
-1.13673
0
LINE
8
BLACK
6
CONTINUOUS
10
12.419
20
-1.13673
11
12.4077
21
-1.12308
0
LINE
8
BLACK
6
CONTINUOUS
10
12.4077
20
-1.12308
11
12.394
21
-1.11188
0
LINE
8
BLACK
6
CONTINUOUS
10
12.394
20
-1.11188
11
12.3783
21
-1.10357
0
LINE
8
BLACK
6
CONTINUOUS
10
12.3783
20
-1.10357
11
12.3614
21
-1.09845
0
LINE
8
BLACK
6
CONTINUOUS
10
12.3614
20
-1.09845
11
12.3436
21
-1.0967
0
LINE
8
BLACK
6
CONTINUOUS
10
12.3436
20
-1.0967
11
1.15626
21
-1.0967
  0
ENDSEC
  0
EOF
