  0
SECTION
  2
HEADER
  9
$ACADVER
  1
AC1009
  9
$DWGCODEPAGE
  3
ansi_1252
  9
$INSBASE
 10
0.0
 20
0.0
 30
0.0
  9
$EXTMIN
 10
1.000000000000000E+20
 20
1.000000000000000E+20
 30
1.000000000000000E+20
  9
$EXTMAX
 10
-1.000000000000000E+20
 20
-1.000000000000000E+20
 30
-1.000000000000000E+20
  9
$LIMMIN
 10
0.0
 20
0.0
  9
$LIMMAX
 10
12.0
 20
9.0
  9
$ORTHOMODE
 70
     0
  9
$REGENMODE
 70
     1
  9
$FILLMODE
 70
     1
  9
$QTEXTMODE
 70
     0
  9
$MIRRTEXT
 70
     1
  9
$DRAGMODE
 70
     2
  9
$LTSCALE
 40
1.0
  9
$OSMODE
 70
    37
  9
$ATTMODE
 70
     1
  9
$TEXTSIZE
 40
0.2
  9
$TRACEWID
 40
0.05
  9
$TEXTSTYLE
  7
STANDARD
  9
$CLAYER
  8
0
  9
$CELTYPE
  6
BYLAYER
  9
$CECOLOR
 62
   256
  9
$DIMSCALE
 40
1.0
  9
$DIMASZ
 40
0.18
  9
$DIMEXO
 40
0.0625
  9
$DIMDLI
 40
0.38
  9
$DIMRND
 40
0.0
  9
$DIMDLE
 40
0.0
  9
$DIMEXE
 40
0.18
  9
$DIMTP
 40
0.0
  9
$DIMTM
 40
0.0
  9
$DIMTXT
 40
0.18
  9
$DIMCEN
 40
0.09
  9
$DIMTSZ
 40
0.0
  9
$DIMTOL
 70
     0
  9
$DIMLIM
 70
     0
  9
$DIMTIH
 70
     1
  9
$DIMTOH
 70
     1
  9
$DIMSE1
 70
     0
  9
$DIMSE2
 70
     0
  9
$DIMTAD
 70
     0
  9
$DIMZIN
 70
     0
  9
$DIMBLK
  1

  9
$DIMASO
 70
     1
  9
$DIMSHO
 70
     1
  9
$DIMPOST
  1

  9
$DIMAPOST
  1

  9
$DIMALT
 70
     0
  9
$DIMALTD
 70
     2
  9
$DIMALTF
 40
25.4
  9
$DIMLFAC
 40
1.0
  9
$DIMTOFL
 70
     0
  9
$DIMTVP
 40
0.0
  9
$DIMTIX
 70
     0
  9
$DIMSOXD
 70
     0
  9
$DIMSAH
 70
     0
  9
$DIMBLK1
  1

  9
$DIMBLK2
  1

  9
$DIMSTYLE
  2
STANDARD_ACAD
  9
$DIMCLRD
 70
     0
  9
$DIMCLRE
 70
     0
  9
$DIMCLRT
 70
     0
  9
$DIMTFAC
 40
1.0
  9
$DIMGAP
 40
0.09
  9
$LUNITS
 70
     2
  9
$LUPREC
 70
     3
  9
$SKETCHINC
 40
0.1
  9
$FILLETRAD
 40
0.5
  9
$AUNITS
 70
     0
  9
$AUPREC
 70
     0
  9
$MENU
  1
.
  9
$ELEVATION
 40
0.0
  9
$PELEVATION
 40
0.0
  9
$THICKNESS
 40
0.0
  9
$LIMCHECK
 70
     0
  9
$CHAMFERA
 40
0.0
  9
$CHAMFERB
 40
0.0
  9
$SKPOLY
 70
     0
  9
$TDCREATE
 40
2459456.711545509
  9
$TDUPDATE
 40
2459456.711550972
  9
$TDINDWG
 40
0.0000000116
  9
$TDUSRTIMER
 40
0.0000000116
  9
$USRTIMER
 70
     1
  9
$ANGBASE
 50
0.0
  9
$ANGDIR
 70
     0
  9
$PDMODE
 70
     0
  9
$PDSIZE
 40
0.0
  9
$PLINEWID
 40
0.0
  9
$COORDS
 70
     1
  9
$SPLFRAME
 70
     0
  9
$SPLINETYPE
 70
     6
  9
$SPLINESEGS
 70
     8
  9
$ATTDIA
 70
     0
  9
$ATTREQ
 70
     1
  9
$HANDLING
 70
     1
  9
$HANDSEED
  5
17C
  9
$SURFTAB1
 70
     6
  9
$SURFTAB2
 70
     6
  9
$SURFTYPE
 70
     6
  9
$SURFU
 70
     6
  9
$SURFV
 70
     6
  9
$UCSNAME
  2

  9
$UCSORG
 10
0.0
 20
0.0
 30
0.0
  9
$UCSXDIR
 10
1.0
 20
0.0
 30
0.0
  9
$UCSYDIR
 10
0.0
 20
1.0
 30
0.0
  9
$PUCSNAME
  2

  9
$PUCSORG
 10
0.0
 20
0.0
 30
0.0
  9
$PUCSXDIR
 10
1.0
 20
0.0
 30
0.0
  9
$PUCSYDIR
 10
0.0
 20
1.0
 30
0.0
  9
$USERI1
 70
     0
  9
$USERI2
 70
     0
  9
$USERI3
 70
     0
  9
$USERI4
 70
     0
  9
$USERI5
 70
     0
  9
$USERR1
 40
0.0
  9
$USERR2
 40
0.0
  9
$USERR3
 40
0.0
  9
$USERR4
 40
0.0
  9
$USERR5
 40
0.0
  9
$WORLDVIEW
 70
     1
  9
$SHADEDGE
 70
     3
  9
$SHADEDIF
 70
    70
  9
$TILEMODE
 70
     1
  9
$MAXACTVP
 70
    64
  9
$PLIMCHECK
 70
     0
  9
$PEXTMIN
 10
1.000000000000000E+20
 20
1.000000000000000E+20
 30
1.000000000000000E+20
  9
$PEXTMAX
 10
-1.000000000000000E+20
 20
-1.000000000000000E+20
 30
-1.000000000000000E+20
  9
$PLIMMIN
 10
0.0
 20
0.0
  9
$PLIMMAX
 10
12.0
 20
9.0
  9
$UNITMODE
 70
     0
  9
$VISRETAIN
 70
     1
  9
$PLINEGEN
 70
     0
  9
$PSLTSCALE
 70
     1
  0
ENDSEC
  0
SECTION
  2
TABLES
  0
TABLE
  2
VPORT
 70
     1
  0
VPORT
  2
*ACTIVE
 70
     0
 10
0.0
 20
0.0
 11
1.0
 21
1.0
 12
10.42990654205607
 22
4.5
 13
0.0
 23
0.0
 14
0.5
 24
0.5
 15
0.5
 25
0.5
 16
0.0
 26
0.0
 36
1.0
 17
0.0
 27
0.0
 37
0.0
 40
9.0
 41
1.972972972850329
 42
50.0
 43
0.0
 44
0.0
 50
0.0
 51
0.0
 71
     0
 72
   100
 73
     1
 74
     3
 75
     0
 76
     0
 77
     0
 78
     0
  0
ENDTAB
  0
TABLE
  2
LTYPE
 70
     1
  0
LTYPE
  2
CONTINUOUS
 70
     0
  3
Solid line
 72
    65
 73
     0
 40
0.0
  0
ENDTAB
  0
TABLE
  2
LAYER
 70
     6
  0
LAYER
  2
0
 70
     0
 62
     7
  6
CONTINUOUS
  0
LAYER
  2
2D$SWITCHHOLES
 70
     0
 62
    81
  6
CONTINUOUS
  0
LAYER
  2
2D$SSPLATE
 70
     0
 62
     3
  6
CONTINUOUS
  0
LAYER
  2
DEFAULT
 70
     0
 62
     7
  6
CONTINUOUS
  0
LAYER
  2
2D$HOLES
 70
     0
 62
     4
  6
CONTINUOUS
  0
LAYER
  2
LABELS
 70
     0
 62
   125
  6
CONTINUOUS
  0
ENDTAB
  0
TABLE
  2
STYLE
 70
     1
  0
STYLE
  2
STANDARD
 70
     0
 40
0.0
 41
1.0
 50
0.0
 71
     0
 42
0.2
  3
txt
  4

  0
ENDTAB
  0
TABLE
  2
VIEW
 70
     0
  0
ENDTAB
  0
TABLE
  2
UCS
 70
     0
  0
ENDTAB
  0
TABLE
  2
APPID
 70
     1
  0
APPID
  2
ACAD
 70
     0
  0
ENDTAB
  0
TABLE
  2
DIMSTYLE
 70
     1
  0
DIMSTYLE
  2
STANDARD_ACAD
 70
     0
  3

  4

  5

  6

  7

 40
1.0
 41
0.18
 42
0.0625
 43
0.38
 44
0.18
 45
0.0
 46
0.0
 47
0.0
 48
0.0
140
0.18
141
0.09
142
0.0
143
25.4
144
1.0
145
0.0
146
1.0
147
0.09
 71
     0
 72
     0
 73
     1
 74
     1
 75
     0
 76
     0
 77
     0
 78
     0
170
     0
171
     2
172
     0
173
     0
174
     0
175
     0
176
     0
177
     0
178
     0
  0
ENDTAB
  0
ENDSEC
  0
SECTION
  2
BLOCKS
  0
BLOCK
  8
0
  2
$MODEL_SPACE
 70
     0
 10
0.0
 20
0.0
 30
0.0
  3
$MODEL_SPACE
  1

  0
ENDBLK
  5
21
  8
0
  0
BLOCK
 67
     1
  8
0
  2
$PAPER_SPACE
 70
     0
 10
0.0
 20
0.0
 30
0.0
  3
$PAPER_SPACE
  1

  0
ENDBLK
  5
1D
 67
     1
  8
0
  0
BLOCK
  8
0
  2
SSPLATE_NAAN_REV1_5
 70
     0
 10
0.0
 20
0.0
 30
0.0
  3
SSPLATE_NAAN_REV1_5
  1

  0
LINE
  5
70
  8
2D$SWITCHHOLES
 10
7.262112745187508
 20
-56.5
 30
0.0
 11
-10.46875
 21
-56.5
 31
0.0
  0
ARC
  5
71
  8
2D$SWITCHHOLES
 10
-10.46875
 20
-57.0
 30
0.0
 40
0.5
 50
89.9999999999998
 51
180.0
  0
LINE
  5
72
  8
2D$SWITCHHOLES
 10
-10.96875
 20
-57.0
 30
0.0
 11
-10.96874999999997
 21
-70.0
 31
0.0
  0
ARC
  5
73
  8
2D$SWITCHHOLES
 10
-10.46874999999997
 20
-70.0
 30
0.0
 40
0.5
 50
180.0
 51
270.0
  0
LINE
  5
74
  8
2D$SWITCHHOLES
 10
-10.46874999999997
 20
-70.5
 30
0.0
 11
7.293749999999989
 21
-70.5
 31
0.0
  0
ARC
  5
75
  8
2D$SWITCHHOLES
 10
7.293749999999989
 20
-70.0
 30
0.0
 40
0.5
 50
270.0000000000001
 51
0.0
  0
LINE
  5
76
  8
2D$SWITCHHOLES
 10
7.793749999999989
 20
-70.0
 30
0.0
 11
7.79374999999996
 21
-57.0
 31
0.0
  0
ARC
  5
77
  8
2D$SWITCHHOLES
 10
7.293749999999982
 20
-56.99999999999998
 30
0.0
 40
0.4999999999999787
 50
0.0000000000024427
 51
90.00000000000244
  0
ARC
  5
78
  8
2D$SWITCHHOLES
 10
-34.28124999999999
 20
-57.0
 30
0.0
 40
0.5
 50
90.0
 51
180.0
  0
LINE
  5
79
  8
2D$SWITCHHOLES
 10
-34.78124999999999
 20
-57.0
 30
0.0
 11
-34.78124999999996
 21
-70.0
 31
0.0
  0
ARC
  5
7A
  8
2D$SWITCHHOLES
 10
-34.28124999999996
 20
-70.0
 30
0.0
 40
0.5
 50
180.0
 51
270.0
  0
LINE
  5
7B
  8
2D$SWITCHHOLES
 10
-34.28124999999996
 20
-70.5
 30
0.0
 11
-18.90000000000001
 21
-70.5
 31
0.0
  0
ARC
  5
7C
  8
2D$SWITCHHOLES
 10
-18.90000000000001
 20
-70.0
 30
0.0
 40
0.5
 50
270.0
 51
0.0
  0
LINE
  5
7D
  8
2D$SWITCHHOLES
 10
-18.40000000000001
 20
-70.0
 30
0.0
 11
-18.40000000000003
 21
-57.0
 31
0.0
  0
ARC
  5
7E
  8
2D$SWITCHHOLES
 10
-18.90000000000001
 20
-56.99999999999999
 30
0.0
 40
0.4999999999999787
 50
0.0000000000016284
 51
90.00000000000244
  0
LINE
  5
7F
  8
2D$SWITCHHOLES
 10
-18.90000000000003
 20
-56.5
 30
0.0
 11
-34.28124999999999
 21
-56.5
 31
0.0
  0
LINE
  5
81
  8
2D$SSPLATE
 10
-32.0625
 20
-34.52500000000043
 30
0.0
 11
-38.58750000000074
 21
-34.52499999999998
 31
0.0
  0
ARC
  5
82
  8
2D$SSPLATE
 10
-38.58750000000089
 20
-36.02499999999998
 30
0.0
 40
1.5
 50
89.9999999999943
 51
179.9999999999989
  0
LINE
  5
83
  8
2D$SSPLATE
 10
-40.08750000000089
 20
-36.02499999999995
 30
0.0
 11
-40.08749999999986
 21
-71.92500000000081
 31
0.0
  0
ARC
  5
84
  8
2D$SSPLATE
 10
-38.58749999999986
 20
-71.92500000000078
 30
0.0
 40
1.5
 50
179.9999999999989
 51
270.0000000001894
  0
LINE
  5
85
  8
2D$SSPLATE
 10
-38.5874999999949
 20
-73.42500000000078
 30
0.0
 11
235.4374999999992
 21
-73.4250000000001
 31
0.0
  0
ARC
  5
86
  8
2D$SSPLATE
 10
235.4374999999992
 20
-71.9250000000001
 30
0.0
 40
1.5
 50
270.0
 51
0.0000000000445108
  0
LINE
  5
87
  8
2D$SSPLATE
 10
236.9374999999992
 20
-71.92499999999893
 30
0.0
 11
236.9375
 21
-55.87500000000003
 31
0.0
  0
ARC
  5
88
  8
2D$SSPLATE
 10
-238.4375
 20
-55.875
 30
0.0
 40
1.5
 50
0.0000000000010856
 51
89.99999999999784
210
0.0
220
0.0
230
-1.0
  0
LINE
  5
89
  8
2D$SSPLATE
 10
238.4374999999999
 20
-54.375
 30
0.0
 11
244.962500000001
 21
-54.375
 31
0.0
  0
ARC
  5
8A
  8
2D$SSPLATE
 10
244.9625000000011
 20
-52.875
 30
0.0
 40
1.5
 50
269.9999999999978
 51
0.0000000000010856
  0
LINE
  5
8B
  8
2D$SSPLATE
 10
246.4625000000011
 20
-52.87499999999997
 30
0.0
 11
246.4625000000009
 21
-36.02499999999992
 31
0.0
  0
ARC
  5
8C
  8
2D$SSPLATE
 10
244.9625000000009
 20
-36.02499999999998
 30
0.0
 40
1.5
 50
0.0000000000021713
 51
89.99999999999784
  0
LINE
  5
8D
  8
2D$SSPLATE
 10
244.9625000000009
 20
-34.52499999999998
 30
0.0
 11
238.4374999999999
 21
-34.52500000000009
 31
0.0
  0
ARC
  5
8E
  8
2D$SSPLATE
 10
-238.4375
 20
-33.02500000000009
 30
0.0
 40
1.5
 50
270.0000000000043
 51
0.0000000000010856
210
0.0
220
0.0
230
-1.0
  0
LINE
  5
8F
  8
2D$SSPLATE
 10
236.9375
 20
-33.02500000000006
 30
0.0
 11
236.9374999999997
 21
-17.37499999999989
 31
0.0
  0
ARC
  5
90
  8
2D$SSPLATE
 10
235.4374999999996
 20
-17.375
 30
0.0
 40
1.5
 50
0.0000000000054281
 51
90.0
  0
LINE
  5
91
  8
2D$SSPLATE
 10
235.4374999999996
 20
-15.875
 30
0.0
 11
224.1499999999999
 21
-15.87499999999955
 31
0.0
  0
ARC
  5
92
  8
2D$SSPLATE
 10
-224.1499999999999
 20
-14.37499999999955
 30
0.0
 40
1.5
 50
270.0
 51
0.0000000000021713
210
0.0
220
0.0
230
-1.0
  0
LINE
  5
93
  8
2D$SSPLATE
 10
222.6499999999999
 20
-14.37499999999949
 30
0.0
 11
222.6499999999971
 21
21.12499999999784
 31
0.0
  0
ARC
  5
94
  8
2D$SSPLATE
 10
221.1499999999971
 20
21.12499999999864
 30
0.0
 40
1.5
 50
0.0000000000303976
 51
90.0000000000087
  0
LINE
  5
95
  8
2D$SSPLATE
 10
221.1499999999969
 20
22.62499999999864
 30
0.0
 11
-24.29999999999995
 21
22.62499999999943
 31
0.0
  0
ARC
  5
96
  8
2D$SSPLATE
 10
-24.29999999999995
 20
21.12499999999943
 30
0.0
 40
1.5
 50
90.0
 51
179.9999999999365
  0
LINE
  5
97
  8
2D$SSPLATE
 10
-25.79999999999995
 20
21.12499999999777
 30
0.0
 11
-25.79999999999995
 21
-13.97500000000039
 31
0.0
  0
ARC
  5
98
  8
2D$SSPLATE
 10
27.29999999999995
 20
-13.97500000000002
 30
0.0
 40
1.5
 50
179.9999999999859
 51
270.0000000000179
210
0.0
220
0.0
230
-1.0
  0
LINE
  5
99
  8
2D$SSPLATE
 10
-27.30000000000042
 20
-15.47500000000002
 30
0.0
 11
-29.06249999999967
 21
-15.47500000000002
 31
0.0
  0
ARC
  5
9A
  8
2D$SSPLATE
 10
-29.06249999999977
 20
-16.97500000000002
 30
0.0
 40
1.5
 50
89.99999999999622
 51
179.999999999391
  0
LINE
  5
9B
  8
2D$SSPLATE
 10
-30.56249999999977
 20
-16.97499999998408
 30
0.0
 11
-30.5625
 21
-33.02500000000106
 31
0.0
  0
ARC
  5
9C
  8
2D$SSPLATE
 10
32.0625
 20
-33.02500000000043
 30
0.0
 40
1.5
 50
179.9999999999761
 51
270.0
210
0.0
220
0.0
230
-1.0
  0
POINT
  5
9D
  8
2D$SWITCHHOLES
 10
-27.78124999999999
 20
-63.5
 30
0.0
  0
POINT
  5
9E
  8
2D$SWITCHHOLES
 10
-25.40000000000001
 20
-63.5
 30
0.0
  0
INSERT
  5
A6
  8
DEFAULT
  2
M2_2_2MM_2D
 10
-13.49374999999995
 20
-57.15000000000006
 30
0.0
  0
INSERT
  5
BB
  8
2D$SWITCHHOLES
  2
SWITCHHOLE_14MM_2U
 10
-18.25625000000014
 20
-44.45000000000002
 30
0.0
  0
INSERT
  5
D0
  8
2D$SWITCHHOLES
  2
SWITCHHOLE_14MM_2U_EX
 10
203.1999999999999
 20
12.69999999999999
 30
0.0
  0
INSERT
  5
DD
  8
2D$SWITCHHOLES
  2
SWITCHHOLE_14MM
 10
174.6249999999999
 20
12.69999999999999
 30
0.0
  0
INSERT
  5
DE
  8
2D$SWITCHHOLES
  2
SWITCHHOLE_14MM
 10
155.5749999999999
 20
12.69999999999999
 30
0.0
  0
INSERT
  5
DF
  8
2D$SWITCHHOLES
  2
SWITCHHOLE_14MM
 10
136.5249999999999
 20
12.69999999999999
 30
0.0
  0
INSERT
  5
E0
  8
2D$SWITCHHOLES
  2
SWITCHHOLE_14MM
 10
117.4749999999999
 20
12.69999999999999
 30
0.0
  0
INSERT
  5
E1
  8
2D$SWITCHHOLES
  2
SWITCHHOLE_14MM
 10
98.4249999999999
 20
12.69999999999999
 30
0.0
  0
INSERT
  5
E2
  8
2D$SWITCHHOLES
  2
SWITCHHOLE_14MM
 10
79.37499999999989
 20
12.69999999999999
 30
0.0
  0
INSERT
  5
E3
  8
2D$SWITCHHOLES
  2
SWITCHHOLE_14MM
 10
60.32499999999993
 20
12.69999999999999
 30
0.0
  0
INSERT
  5
E4
  8
2D$SWITCHHOLES
  2
SWITCHHOLE_14MM
 10
41.27499999999992
 20
12.69999999999999
 30
0.0
  0
INSERT
  5
E5
  8
2D$SWITCHHOLES
  2
SWITCHHOLE_14MM
 10
22.22499999999991
 20
12.69999999999999
 30
0.0
  0
INSERT
  5
E6
  8
2D$SWITCHHOLES
  2
SWITCHHOLE_14MM
 10
3.174999999999898
 20
12.69999999999999
 30
0.0
  0
INSERT
  5
E7
  8
2D$SWITCHHOLES
  2
SWITCHHOLE_14MM
 10
-15.87500000000011
 20
12.69999999999999
 30
0.0
  0
INSERT
  5
E8
  8
2D$SWITCHHOLES
  2
SWITCHHOLE_14MM
 10
184.1499999999999
 20
-6.349999999999994
 30
0.0
  0
INSERT
  5
E9
  8
2D$SWITCHHOLES
  2
SWITCHHOLE_14MM
 10
165.1
 20
-6.349999999999994
 30
0.0
  0
INSERT
  5
EA
  8
2D$SWITCHHOLES
  2
SWITCHHOLE_14MM
 10
146.05
 20
-6.349999999999994
 30
0.0
  0
INSERT
  5
EB
  8
2D$SWITCHHOLES
  2
SWITCHHOLE_14MM
 10
126.9999999999999
 20
-6.349999999999994
 30
0.0
  0
INSERT
  5
EC
  8
2D$SWITCHHOLES
  2
SWITCHHOLE_14MM
 10
107.9499999999999
 20
-6.349999999999994
 30
0.0
  0
INSERT
  5
ED
  8
2D$SWITCHHOLES
  2
SWITCHHOLE_14MM
 10
88.89999999999992
 20
-6.349999999999994
 30
0.0
  0
INSERT
  5
EE
  8
2D$SWITCHHOLES
  2
SWITCHHOLE_14MM
 10
69.84999999999997
 20
-6.349999999999994
 30
0.0
  0
INSERT
  5
EF
  8
2D$SWITCHHOLES
  2
SWITCHHOLE_14MM
 10
50.79999999999995
 20
-6.349999999999994
 30
0.0
  0
INSERT
  5
F0
  8
2D$SWITCHHOLES
  2
SWITCHHOLE_14MM
 10
31.74999999999994
 20
-6.349999999999994
 30
0.0
  0
INSERT
  5
F1
  8
2D$SWITCHHOLES
  2
SWITCHHOLE_14MM
 10
12.69999999999993
 20
-6.349999999999994
 30
0.0
  0
INSERT
  5
F2
  8
2D$SWITCHHOLES
  2
SWITCHHOLE_14MM
 10
184.1499999999999
 20
-25.40000000000001
 30
0.0
  0
INSERT
  5
F3
  8
2D$SWITCHHOLES
  2
SWITCHHOLE_14MM
 10
165.1
 20
-25.40000000000001
 30
0.0
  0
INSERT
  5
F4
  8
2D$SWITCHHOLES
  2
SWITCHHOLE_14MM
 10
146.05
 20
-25.40000000000001
 30
0.0
  0
INSERT
  5
F5
  8
2D$SWITCHHOLES
  2
SWITCHHOLE_14MM
 10
126.9999999999999
 20
-25.40000000000001
 30
0.0
  0
INSERT
  5
F6
  8
2D$SWITCHHOLES
  2
SWITCHHOLE_14MM
 10
107.9499999999999
 20
-25.40000000000001
 30
0.0
  0
INSERT
  5
F7
  8
2D$SWITCHHOLES
  2
SWITCHHOLE_14MM
 10
88.89999999999992
 20
-25.40000000000001
 30
0.0
  0
INSERT
  5
F8
  8
2D$SWITCHHOLES
  2
SWITCHHOLE_14MM
 10
69.84999999999997
 20
-25.40000000000001
 30
0.0
  0
INSERT
  5
F9
  8
2D$SWITCHHOLES
  2
SWITCHHOLE_14MM
 10
50.79999999999995
 20
-25.40000000000001
 30
0.0
  0
INSERT
  5
FA
  8
2D$SWITCHHOLES
  2
SWITCHHOLE_14MM
 10
31.74999999999994
 20
-25.40000000000001
 30
0.0
  0
INSERT
  5
FB
  8
2D$SWITCHHOLES
  2
SWITCHHOLE_14MM
 10
12.69999999999993
 20
-25.40000000000001
 30
0.0
  0
INSERT
  5
FC
  8
2D$SWITCHHOLES
  2
SWITCHHOLE_14MM
 10
184.1499999999999
 20
-44.45000000000002
 30
0.0
  0
INSERT
  5
FD
  8
2D$SWITCHHOLES
  2
SWITCHHOLE_14MM
 10
165.1
 20
-44.45000000000002
 30
0.0
  0
INSERT
  5
FE
  8
2D$SWITCHHOLES
  2
SWITCHHOLE_14MM
 10
146.05
 20
-44.45000000000002
 30
0.0
  0
INSERT
  5
FF
  8
2D$SWITCHHOLES
  2
SWITCHHOLE_14MM
 10
126.9999999999999
 20
-44.45000000000002
 30
0.0
  0
INSERT
  5
100
  8
2D$SWITCHHOLES
  2
SWITCHHOLE_14MM
 10
107.9499999999999
 20
-44.45000000000002
 30
0.0
  0
INSERT
  5
101
  8
2D$SWITCHHOLES
  2
SWITCHHOLE_14MM
 10
88.89999999999992
 20
-44.45000000000002
 30
0.0
  0
INSERT
  5
102
  8
2D$SWITCHHOLES
  2
SWITCHHOLE_14MM
 10
69.84999999999997
 20
-44.45000000000002
 30
0.0
  0
INSERT
  5
103
  8
2D$SWITCHHOLES
  2
SWITCHHOLE_14MM
 10
50.79999999999995
 20
-44.45000000000002
 30
0.0
  0
INSERT
  5
104
  8
2D$SWITCHHOLES
  2
SWITCHHOLE_14MM
 10
31.74999999999994
 20
-44.45000000000002
 30
0.0
  0
INSERT
  5
105
  8
2D$SWITCHHOLES
  2
SWITCHHOLE_14MM
 10
12.69999999999993
 20
-44.45000000000002
 30
0.0
  0
INSERT
  5
106
  8
2D$SWITCHHOLES
  2
SWITCHHOLE_14MM
 10
227.0124999999999
 20
-63.50000000000003
 30
0.0
  0
INSERT
  5
107
  8
2D$SWITCHHOLES
  2
SWITCHHOLE_14MM
 10
-11.11250000000007
 20
-6.349999999999994
 30
0.0
  0
INSERT
  5
108
  8
2D$SWITCHHOLES
  2
SWITCHHOLE_14MM
 10
-13.49375000000009
 20
-25.40000000000001
 30
0.0
  0
INSERT
  5
109
  8
2D$SWITCHHOLES
  2
SWITCHHOLE_14MM
 10
207.9624999999999
 20
-6.349999999999994
 30
0.0
  0
INSERT
  5
10A
  8
2D$SWITCHHOLES
  2
SWITCHHOLE_14MM
 10
207.9624999999999
 20
-63.50000000000003
 30
0.0
  0
INSERT
  5
10B
  8
2D$SWITCHHOLES
  2
SWITCHHOLE_14MM
 10
188.9125
 20
-63.50000000000003
 30
0.0
  0
INSERT
  5
10C
  8
2D$SWITCHHOLES
  2
SWITCHHOLE_14MM
 10
169.8624999999999
 20
-63.50000000000003
 30
0.0
  0
ARC
  5
10D
  8
2D$SWITCHHOLES
 10
-135.8812489999999
 20
-57.00000100000003
 30
0.0
 40
0.5
 50
89.99988500000146
 51
179.9998850000015
210
0.0
220
0.0
230
-1.0
  0
LINE
  5
10E
  8
2D$SWITCHHOLES
 10
136.3812489999989
 20
-56.99999999643572
 30
0.0
 11
136.3812489999999
 21
-70.00000000000003
 31
0.0
  0
ARC
  5
10F
  8
2D$SWITCHHOLES
 10
-135.8812489999999
 20
-70.00000000000003
 30
0.0
 40
0.5
 50
180.0
 51
270.0
210
0.0
220
0.0
230
-1.0
  0
LINE
  5
110
  8
2D$SWITCHHOLES
 10
135.8812489999999
 20
-70.50000000000003
 30
0.0
 11
60.96875099999988
 21
-70.50000000000003
 31
0.0
  0
ARC
  5
111
  8
2D$SWITCHHOLES
 10
-60.96875099999988
 20
-70.00000000000003
 30
0.0
 40
0.5
 50
270.0
 51
0.0
210
0.0
220
0.0
230
-1.0
  0
LINE
  5
112
  8
2D$SWITCHHOLES
 10
60.46875099999988
 20
-70.00000000000003
 30
0.0
 11
60.46875099999988
 21
-57.00000000000003
 31
0.0
  0
ARC
  5
113
  8
2D$SWITCHHOLES
 10
-60.96875099999988
 20
-57.00000000000003
 30
0.0
 40
0.5
 50
0.0
 51
90.0
210
0.0
220
0.0
230
-1.0
  0
LINE
  5
114
  8
2D$SWITCHHOLES
 10
60.96875099999988
 20
-56.50000000000003
 30
0.0
 11
66.22550799999988
 21
-56.50000000000003
 31
0.0
  0
LINE
  5
115
  8
2D$SWITCHHOLES
 10
66.22550799999988
 20
-56.50000000000003
 30
0.0
 11
66.22550799999988
 21
-55.50000100000003
 31
0.0
  0
LINE
  5
116
  8
2D$SWITCHHOLES
 10
66.22550799999988
 20
-55.50000100000003
 30
0.0
 11
68.72550799999988
 21
-55.50000100000003
 31
0.0
  0
LINE
  5
117
  8
2D$SWITCHHOLES
 10
68.72550799999988
 20
-55.50000100000003
 30
0.0
 11
68.72550799999988
 21
-56.50000000000003
 31
0.0
  0
LINE
  5
118
  8
2D$SWITCHHOLES
 10
68.72550799999988
 20
-56.50000000000003
 30
0.0
 11
85.27550799999995
 21
-56.50000000000003
 31
0.0
  0
LINE
  5
119
  8
2D$SWITCHHOLES
 10
85.27550799999995
 20
-56.50000000000003
 30
0.0
 11
85.27550799999995
 21
-55.50000100000003
 31
0.0
  0
LINE
  5
11A
  8
2D$SWITCHHOLES
 10
85.27550799999995
 20
-55.50000100000003
 30
0.0
 11
87.77550799999995
 21
-55.50000100000003
 31
0.0
  0
LINE
  5
11B
  8
2D$SWITCHHOLES
 10
87.77550799999995
 20
-55.50000100000003
 30
0.0
 11
87.77550799999995
 21
-56.50000000000003
 31
0.0
  0
LINE
  5
11C
  8
2D$SWITCHHOLES
 10
87.77550799999995
 20
-56.50000000000003
 30
0.0
 11
90.0244919999999
 21
-56.50000000000003
 31
0.0
  0
LINE
  5
11D
  8
2D$SWITCHHOLES
 10
90.0244919999999
 20
-56.50000000000003
 30
0.0
 11
90.0244919999999
 21
-55.50000100000003
 31
0.0
  0
LINE
  5
11E
  8
2D$SWITCHHOLES
 10
90.0244919999999
 20
-55.50000100000003
 30
0.0
 11
92.5244919999999
 21
-55.50000100000003
 31
0.0
  0
LINE
  5
11F
  8
2D$SWITCHHOLES
 10
92.5244919999999
 20
-55.50000100000003
 30
0.0
 11
92.5244919999999
 21
-56.50000000000003
 31
0.0
  0
LINE
  5
120
  8
2D$SWITCHHOLES
 10
92.5244919999999
 20
-56.50000000000003
 30
0.0
 11
104.3255079999999
 21
-56.50000000000003
 31
0.0
  0
LINE
  5
121
  8
2D$SWITCHHOLES
 10
104.3255079999999
 20
-56.50000000000003
 30
0.0
 11
104.3255079999999
 21
-55.50000100000003
 31
0.0
  0
LINE
  5
122
  8
2D$SWITCHHOLES
 10
104.3255079999999
 20
-55.50000100000003
 30
0.0
 11
106.8255079999999
 21
-55.50000100000003
 31
0.0
  0
LINE
  5
123
  8
2D$SWITCHHOLES
 10
106.8255079999999
 20
-55.50000100000003
 30
0.0
 11
106.8255079999999
 21
-56.50000000000003
 31
0.0
  0
LINE
  5
124
  8
2D$SWITCHHOLES
 10
106.8255079999999
 20
-56.50000000000003
 30
0.0
 11
109.0744919999999
 21
-56.50000000000003
 31
0.0
  0
LINE
  5
125
  8
2D$SWITCHHOLES
 10
109.0744919999999
 20
-56.50000000000003
 30
0.0
 11
109.0744919999999
 21
-55.50000100000003
 31
0.0
  0
LINE
  5
126
  8
2D$SWITCHHOLES
 10
109.0744919999999
 20
-55.50000100000003
 30
0.0
 11
111.5744919999999
 21
-55.50000100000003
 31
0.0
  0
LINE
  5
127
  8
2D$SWITCHHOLES
 10
111.5744919999999
 20
-55.50000100000003
 30
0.0
 11
111.5744919999999
 21
-56.50000000000003
 31
0.0
  0
LINE
  5
128
  8
2D$SWITCHHOLES
 10
111.5744919999999
 20
-56.50000000000003
 30
0.0
 11
128.1244919999999
 21
-56.50000000000003
 31
0.0
  0
LINE
  5
129
  8
2D$SWITCHHOLES
 10
128.1244919999999
 20
-56.50000000000003
 30
0.0
 11
128.1244919999999
 21
-55.50000100000003
 31
0.0
  0
LINE
  5
12A
  8
2D$SWITCHHOLES
 10
128.1244919999999
 20
-55.50000100000003
 30
0.0
 11
130.6244919999999
 21
-55.50000100000003
 31
0.0
  0
LINE
  5
12B
  8
2D$SWITCHHOLES
 10
130.6244919999999
 20
-55.50000100000003
 30
0.0
 11
130.6244919999999
 21
-56.50000000000003
 31
0.0
  0
LINE
  5
12C
  8
2D$SWITCHHOLES
 10
130.6244919999999
 20
-56.50000000000003
 30
0.0
 11
135.8812479964356
 21
-56.50000100000105
 31
0.0
  0
ARC
  5
12D
  8
2D$SWITCHHOLES
 10
157.3124999999999
 20
-70.00000000000003
 30
0.0
 40
0.5
 50
270.0
 51
0.0
  0
LINE
  5
12E
  8
2D$SWITCHHOLES
 10
157.8124999999999
 20
-70.00000000000003
 30
0.0
 11
157.8124999999999
 21
-57.00000000000003
 31
0.0
  0
ARC
  5
12F
  8
2D$SWITCHHOLES
 10
157.3124999999999
 20
-56.99999999999999
 30
0.0
 40
0.4999999999999432
 50
0.0000000000048853
 51
90.00000000000325
  0
LINE
  5
130
  8
2D$SWITCHHOLES
 10
157.3124999999999
 20
-56.50000000000003
 30
0.0
 11
141.9312499999999
 21
-56.50000000000003
 31
0.0
  0
ARC
  5
131
  8
2D$SWITCHHOLES
 10
141.9312499999999
 20
-57.00000000000003
 30
0.0
 40
0.5
 50
90.0
 51
180.0
  0
LINE
  5
132
  8
2D$SWITCHHOLES
 10
141.4312499999999
 20
-57.00000000000003
 30
0.0
 11
141.43125
 21
-70.00000000000003
 31
0.0
  0
ARC
  5
133
  8
2D$SWITCHHOLES
 10
141.93125
 20
-70.00000000000003
 30
0.0
 40
0.5
 50
180.0
 51
270.0
  0
LINE
  5
134
  8
2D$SWITCHHOLES
 10
141.93125
 20
-70.50000000000003
 30
0.0
 11
157.3124999999999
 21
-70.50000000000003
 31
0.0
  0
ARC
  5
135
  8
2D$SWITCHHOLES
 10
-37.15625099999988
 20
-70.00000000000003
 30
0.0
 40
0.5
 50
270.0
 51
0.0
210
0.0
220
0.0
230
-1.0
  0
LINE
  5
136
  8
2D$SWITCHHOLES
 10
36.65625099999988
 20
-70.00000000000003
 30
0.0
 11
36.65625099999988
 21
-57.0
 31
0.0
  0
ARC
  5
137
  8
2D$SWITCHHOLES
 10
-37.15625099999988
 20
-57.0
 30
0.0
 40
0.5
 50
0.0
 51
90.0
210
0.0
220
0.0
230
-1.0
  0
LINE
  5
138
  8
2D$SWITCHHOLES
 10
37.15625099999988
 20
-56.5
 30
0.0
 11
54.91874799643563
 21
-56.50000100000099
 31
0.0
  0
ARC
  5
139
  8
2D$SWITCHHOLES
 10
-54.91874899999993
 20
-57.000001
 30
0.0
 40
0.5
 50
89.99988500000146
 51
179.9998850000015
210
0.0
220
0.0
230
-1.0
  0
LINE
  5
13A
  8
2D$SWITCHHOLES
 10
55.41874899999891
 20
-56.99999999643569
 30
0.0
 11
55.41874899999993
 21
-70.00000000000003
 31
0.0
  0
ARC
  5
13B
  8
2D$SWITCHHOLES
 10
-54.91874899999993
 20
-70.00000000000003
 30
0.0
 40
0.5
 50
180.0
 51
270.0
210
0.0
220
0.0
230
-1.0
  0
LINE
  5
13C
  8
2D$SWITCHHOLES
 10
54.91874899999993
 20
-70.50000000000003
 30
0.0
 11
37.15625099999988
 21
-70.50000000000003
 31
0.0
  0
ARC
  5
13D
  8
2D$SWITCHHOLES
 10
-13.34375099999988
 20
-70.00000000000003
 30
0.0
 40
0.5
 50
270.0
 51
0.0
210
0.0
220
0.0
230
-1.0
  0
LINE
  5
13E
  8
2D$SWITCHHOLES
 10
12.84375099999988
 20
-70.00000000000003
 30
0.0
 11
12.84375099999988
 21
-57.0
 31
0.0
  0
ARC
  5
13F
  8
2D$SWITCHHOLES
 10
-13.34375099999988
 20
-57.0
 30
0.0
 40
0.5
 50
0.0
 51
90.0
210
0.0
220
0.0
230
-1.0
  0
LINE
  5
140
  8
2D$SWITCHHOLES
 10
13.34375099999988
 20
-56.5
 30
0.0
 11
31.10624799643563
 21
-56.50000100000099
 31
0.0
  0
ARC
  5
141
  8
2D$SWITCHHOLES
 10
-31.10624899999993
 20
-57.000001
 30
0.0
 40
0.5
 50
89.99988500000146
 51
179.9998850000015
210
0.0
220
0.0
230
-1.0
  0
LINE
  5
142
  8
2D$SWITCHHOLES
 10
31.60624899999891
 20
-56.99999999643569
 30
0.0
 11
31.60624899999993
 21
-70.00000000000003
 31
0.0
  0
ARC
  5
143
  8
2D$SWITCHHOLES
 10
-31.10624899999993
 20
-70.00000000000003
 30
0.0
 40
0.5
 50
180.0
 51
270.0
210
0.0
220
0.0
230
-1.0
  0
LINE
  5
144
  8
2D$SWITCHHOLES
 10
31.10624899999993
 20
-70.50000000000003
 30
0.0
 11
13.34375099999988
 21
-70.50000000000003
 31
0.0
  0
POINT
  5
145
  8
2D$SWITCHHOLES
 10
236.5374999999999
 20
-44.45000000000002
 30
0.0
  0
POINT
  5
146
  8
2D$SWITCHHOLES
 10
219.8687499999999
 20
-44.45000000000002
 30
0.0
  0
POINT
  5
147
  8
2D$SWITCHHOLES
 10
148.4312499999999
 20
-63.50000000000003
 30
0.0
  0
POINT
  5
148
  8
2D$SWITCHHOLES
 10
150.8124999999999
 20
-63.50000000000003
 30
0.0
  0
POINT
  5
149
  8
2D$SWITCHHOLES
 10
48.41874999999993
 20
-63.50000000000003
 30
0.0
  0
POINT
  5
14A
  8
2D$SWITCHHOLES
 10
19.84374999999989
 20
-63.50000000000003
 30
0.0
  0
POINT
  5
14B
  8
2D$SWITCHHOLES
 10
24.60624999999993
 20
-63.50000000000003
 30
0.0
  0
POINT
  5
14C
  8
2D$SWITCHHOLES
 10
43.65624999999989
 20
-63.50000000000003
 30
0.0
  0
POINT
  5
14D
  8
2D$SWITCHHOLES
 10
129.3812499999999
 20
-63.50000000000003
 30
0.0
  0
POINT
  5
14E
  8
2D$SWITCHHOLES
 10
117.4749999999999
 20
-63.50000000000003
 30
0.0
  0
POINT
  5
14F
  8
2D$SWITCHHOLES
 10
98.4249999999999
 20
-63.50000000000003
 30
0.0
  0
POINT
  5
150
  8
2D$SWITCHHOLES
 10
79.37499999999989
 20
-63.50000000000003
 30
0.0
  0
POINT
  5
151
  8
2D$SWITCHHOLES
 10
67.46874999999989
 20
-63.50000000000003
 30
0.0
  0
INSERT
  5
152
  8
DEFAULT
  2
M2_2_2MM_2D
 10
0.0
 20
-50.80000000000007
 30
0.0
  0
INSERT
  5
153
  8
DEFAULT
  2
M2_2_2MM_2D
 10
57.94375000000002
 20
-53.97500000000002
 30
0.0
  0
INSERT
  5
154
  8
DEFAULT
  2
M2_2_2MM_2D
 10
138.90625
 20
-53.97500000000002
 30
0.0
  0
INSERT
  5
155
  8
DEFAULT
  2
M2_2_2MM_2D
 10
199.23125
 20
-50.80000000000007
 30
0.0
  0
INSERT
  5
156
  8
DEFAULT
  2
M2_2_2MM_2D
 10
233.3624999999999
 20
-25.39999999999998
 30
0.0
  0
INSERT
  5
157
  8
DEFAULT
  2
M2_2_2MM_2D
 10
196.85
 20
0.0
 30
0.0
  0
INSERT
  5
158
  8
DEFAULT
  2
M2_2_2MM_2D
 10
136.525
 20
3.174999999999955
 30
0.0
  0
INSERT
  5
159
  8
DEFAULT
  2
M2_2_2MM_2D
 10
60.32499999999993
 20
3.174999999999955
 30
0.0
  0
INSERT
  5
15A
  8
DEFAULT
  2
M2_2_2MM_2D
 10
-25.39999999999998
 20
-25.39999999999998
 30
0.0
  0
INSERT
  5
15B
  8
DEFAULT
  2
M2_2_2MM_2D
 10
0.0
 20
0.0
 30
0.0
  0
INSERT
  5
15C
  8
DEFAULT
  2
M2_2_2MM_2D
 10
219.0750000000001
 20
-0.0000000000000568
 30
0.0
  0
POINT
  5
15D
  8
2D$SWITCHHOLES
 10
210.34375
 20
-44.45000000000002
 30
0.0
  0
ARC
  5
15E
  8
2D$SWITCHHOLES
 10
203.84375
 20
-50.95000000000002
 30
0.0
 40
0.5
 50
179.9999999999992
 51
270.0
  0
LINE
  5
15F
  8
2D$SWITCHHOLES
 10
203.84375
 20
-51.45000000000002
 30
0.0
 11
206.7192579999999
 21
-51.45000000000002
 31
0.0
  0
LINE
  5
160
  8
2D$SWITCHHOLES
 10
206.7192579999999
 20
-51.45000000000002
 30
0.0
 11
206.7192579999999
 21
-52.44999900000002
 31
0.0
  0
LINE
  5
161
  8
2D$SWITCHHOLES
 10
206.7192579999999
 20
-52.44999900000002
 30
0.0
 11
209.2192579999999
 21
-52.44999900000002
 31
0.0
  0
LINE
  5
162
  8
2D$SWITCHHOLES
 10
209.2192579999999
 20
-52.44999900000002
 30
0.0
 11
209.2192579999999
 21
-51.45000000000002
 31
0.0
  0
LINE
  5
163
  8
2D$SWITCHHOLES
 10
209.2192579999999
 20
-51.45000000000002
 30
0.0
 11
230.518242
 21
-51.45000000000002
 31
0.0
  0
LINE
  5
164
  8
2D$SWITCHHOLES
 10
230.518242
 20
-51.45000000000002
 30
0.0
 11
230.518242
 21
-52.44999900000002
 31
0.0
  0
LINE
  5
165
  8
2D$SWITCHHOLES
 10
230.518242
 20
-52.44999900000002
 30
0.0
 11
233.018242
 21
-52.44999900000002
 31
0.0
  0
LINE
  5
166
  8
2D$SWITCHHOLES
 10
233.018242
 20
-52.44999900000002
 30
0.0
 11
233.018242
 21
-51.45000000000002
 31
0.0
  0
LINE
  5
167
  8
2D$SWITCHHOLES
 10
233.018242
 20
-51.45000000000002
 30
0.0
 11
243.0374989999999
 21
-51.45000000000002
 31
0.0
  0
ARC
  5
168
  8
2D$SWITCHHOLES
 10
243.0374989999999
 20
-50.95000000000002
 30
0.0
 40
0.5
 50
270.0
 51
0.0
  0
LINE
  5
169
  8
2D$SWITCHHOLES
 10
243.5374989999999
 20
-50.95000000000002
 30
0.0
 11
243.5374989999989
 21
-37.94999999643571
 31
0.0
  0
ARC
  5
16A
  8
2D$SWITCHHOLES
 10
243.0374989999999
 20
-37.95000100000001
 30
0.0
 40
0.5
 50
0.0001149999985465
 51
90.00011499999854
  0
LINE
  5
16B
  8
2D$SWITCHHOLES
 10
243.0374979964356
 20
-37.45000100000101
 30
0.0
 11
203.84375
 21
-37.45000000000002
 31
0.0
  0
ARC
  5
16C
  8
2D$SWITCHHOLES
 10
203.84375
 20
-37.95000000000002
 30
0.0
 40
0.5
 50
90.0
 51
180.0
  0
LINE
  5
16D
  8
2D$SWITCHHOLES
 10
203.34375
 20
-37.95000000000002
 30
0.0
 11
203.34375
 21
-50.95000000000002
 31
0.0
  0
INSERT
  5
16E
  8
2D$SWITCHHOLES
  2
SWITCHHOLE_14MM_2U
 10
215.1062499999999
 20
-25.40000000000001
 30
0.0
  0
POINT
  5
16F
  8
2D$SWITCHHOLES
 10
-3.96875
 20
-63.5
 30
0.0
  0
POINT
  5
170
  8
2D$SWITCHHOLES
 10
0.7937499999999886
 20
-63.5
 30
0.0
  0
ENDBLK
  5
173
  8
0
  0
BLOCK
  8
0
  2
M2_2_2MM_2D
 70
     0
 10
0.0
 20
0.0
 30
0.0
  3
M2_2_2MM_2D
  1

  0
CIRCLE
  5
A2
  8
2D$HOLES
 10
-0.0000000000000568
 20
0.0000000000000568
 30
0.0
 40
1.1
  0
POINT
  5
A3
  8
2D$HOLES
 10
-0.0000000000000568
 20
0.0000000000000568
 30
0.0
  0
ENDBLK
  5
A5
  8
0
  0
BLOCK
  8
0
  2
SWITCHHOLE_14MM_2U
 70
     0
 10
0.0
 20
0.0
 30
0.0
  3
SWITCHHOLE_14MM_2U
  1

  0
ARC
  5
A8
  8
2D$SWITCHHOLES
 10
15.27450000000003
 20
-6.500000003562292
 30
0.0
 40
0.5
 50
270.0
 51
0.0
  0
LINE
  5
A9
  8
2D$SWITCHHOLES
 10
15.77450000000003
 20
-6.500000003562292
 30
0.0
 11
15.77450000000003
 21
6.500001000000026
 31
0.0
  0
ARC
  5
AA
  8
2D$SWITCHHOLES
 10
15.27450000000003
 20
6.500001000000026
 30
0.0
 40
0.5
 50
0.0
 51
90.0
  0
LINE
  5
AB
  8
2D$SWITCHHOLES
 10
15.27450000000003
 20
7.000001000000026
 30
0.0
 11
-15.2745
 21
7.000001000000026
 31
0.0
  0
ARC
  5
AC
  8
2D$SWITCHHOLES
 10
-15.2745
 20
6.500000000000028
 30
0.0
 40
0.500001
 50
90.0
 51
180.0
  0
LINE
  5
AD
  8
2D$SWITCHHOLES
 10
-15.774501
 20
6.500000000000028
 30
0.0
 11
-15.774498999999
 21
-6.499999999999972
 31
0.0
  0
ARC
  5
AE
  8
2D$SWITCHHOLES
 10
-15.2745
 20
-6.500001003562289
 30
0.0
 40
0.499999
 50
179.9998849999999
 51
269.9998849999998
  0
LINE
  5
AF
  8
2D$SWITCHHOLES
 10
-15.27450100356232
 20
-7.000000003561269
 30
0.0
 11
-13.14949200000002
 21
-7.000000003562292
 31
0.0
  0
LINE
  5
B0
  8
2D$SWITCHHOLES
 10
-13.14949200000002
 20
-7.000000003562292
 30
0.0
 11
-13.14949200000002
 21
-8.000000003562292
 31
0.0
  0
LINE
  5
B1
  8
2D$SWITCHHOLES
 10
-13.14949200000002
 20
-8.000000003562292
 30
0.0
 11
-10.64949200000002
 21
-8.000000003562292
 31
0.0
  0
LINE
  5
B2
  8
2D$SWITCHHOLES
 10
-10.64949200000002
 20
-8.000000003562292
 30
0.0
 11
-10.64949200000002
 21
-7.000000003562292
 31
0.0
  0
LINE
  5
B3
  8
2D$SWITCHHOLES
 10
-10.64949200000002
 20
-7.000000003562292
 30
0.0
 11
10.64949200000005
 21
-7.000000003562292
 31
0.0
  0
LINE
  5
B4
  8
2D$SWITCHHOLES
 10
10.64949200000005
 20
-7.000000003562292
 30
0.0
 11
10.64949200000005
 21
-8.000000003562292
 31
0.0
  0
LINE
  5
B5
  8
2D$SWITCHHOLES
 10
10.64949200000005
 20
-8.000000003562292
 30
0.0
 11
13.14949200000005
 21
-8.000000003562292
 31
0.0
  0
LINE
  5
B6
  8
2D$SWITCHHOLES
 10
13.14949200000005
 20
-8.000000003562292
 30
0.0
 11
13.14949200000005
 21
-7.000000003562292
 31
0.0
  0
LINE
  5
B7
  8
2D$SWITCHHOLES
 10
13.14949200000005
 20
-7.000000003562292
 30
0.0
 11
15.27450000000003
 21
-7.000000003562292
 31
0.0
  0
POINT
  5
B8
  8
2D$SWITCHHOLES
 10
0.0000000000000426
 20
-0.0000000035622634
 30
0.0
  0
ENDBLK
  5
BA
  8
0
  0
BLOCK
  8
0
  2
SWITCHHOLE_14MM_2U_EX
 70
     0
 10
0.0
 20
0.0
 30
0.0
  3
SWITCHHOLE_14MM_2U_EX
  1

  0
LINE
  5
BD
  8
2D$SWITCHHOLES
 10
-16.5249989964376
 20
6.49999799999901
 30
0.0
 11
-16.52499699643664
 21
-6.499999996437708
 31
0.0
  0
ARC
  5
BE
  8
2D$SWITCHHOLES
 10
-16.02499799643783
 20
-6.500001000000196
 30
0.0
 40
0.4999989999998159
 50
179.9998849999799
 51
269.9998850000189
  0
LINE
  5
BF
  8
2D$SWITCHHOLES
 10
-16.02499899999998
 20
-6.999999999999005
 30
0.0
 11
-13.14949200000007
 21
-7.000000000000028
 31
0.0
  0
LINE
  5
C0
  8
2D$SWITCHHOLES
 10
-13.14949200000007
 20
-7.000000000000028
 30
0.0
 11
-13.14949200000007
 21
-8.000000000000028
 31
0.0
  0
LINE
  5
C1
  8
2D$SWITCHHOLES
 10
-13.14949200000007
 20
-8.000000000000028
 30
0.0
 11
-10.64949200000007
 21
-8.000000000000028
 31
0.0
  0
LINE
  5
C2
  8
2D$SWITCHHOLES
 10
-10.64949200000007
 20
-8.000000000000028
 30
0.0
 11
-10.64949200000007
 21
-7.000000000000028
 31
0.0
  0
LINE
  5
C3
  8
2D$SWITCHHOLES
 10
-10.64949200000007
 20
-7.000000000000028
 30
0.0
 11
10.64949200000001
 21
-7.000000000000028
 31
0.0
  0
LINE
  5
C4
  8
2D$SWITCHHOLES
 10
10.64949200000001
 20
-7.000000000000028
 30
0.0
 11
10.64949200000001
 21
-8.000000000000028
 31
0.0
  0
LINE
  5
C5
  8
2D$SWITCHHOLES
 10
10.64949200000001
 20
-8.000000000000028
 30
0.0
 11
13.14949200000001
 21
-8.000000000000028
 31
0.0
  0
LINE
  5
C6
  8
2D$SWITCHHOLES
 10
13.14949200000001
 20
-8.000000000000028
 30
0.0
 11
13.14949200000001
 21
-7.000000000000028
 31
0.0
  0
LINE
  5
C7
  8
2D$SWITCHHOLES
 10
13.14949200000001
 20
-7.000000000000028
 30
0.0
 11
16.02499899999998
 21
-7.000000000000028
 31
0.0
  0
ARC
  5
C8
  8
2D$SWITCHHOLES
 10
16.02499900000004
 20
-6.500000000000057
 30
0.0
 40
0.4999999999999716
 50
269.9999999999935
 51
0.0000000000032569
  0
LINE
  5
C9
  8
2D$SWITCHHOLES
 10
16.52499899999998
 20
-6.500000000000028
 30
0.0
 11
16.52499899999998
 21
6.499998999999008
 31
0.0
  0
ARC
  5
CA
  8
2D$SWITCHHOLES
 10
16.02499899999998
 20
6.499998999998979
 30
0.0
 40
0.5
 50
0.0000000000032569
 51
90.0
  0
LINE
  5
CB
  8
2D$SWITCHHOLES
 10
16.02499899999998
 20
6.999998999998979
 30
0.0
 11
-16.02499799643766
 21
6.999998999999008
 31
0.0
  0
ARC
  5
CC
  8
2D$SWITCHHOLES
 10
-16.02499799643778
 20
6.499997999999152
 30
0.0
 40
0.5000009999998554
 50
89.99999999998697
 51
179.9999999999837
  0
POINT
  5
CD
  8
2D$SWITCHHOLES
 10
0.0
 20
0.0
 30
0.0
  0
ENDBLK
  5
CF
  8
0
  0
BLOCK
  8
0
  2
SWITCHHOLE_14MM
 70
     0
 10
0.0
 20
0.0
 30
0.0
  3
SWITCHHOLE_14MM
  1

  0
POINT
  5
D2
  8
2D$SWITCHHOLES
 10
0.0
 20
0.0
 30
0.0
  0
LINE
  5
D3
  8
2D$SWITCHHOLES
 10
-6.499999999999972
 20
-7.0
 30
0.0
 11
6.499999999999972
 21
-7.000000000000007
 31
0.0
  0
ARC
  5
D4
  8
2D$SWITCHHOLES
 10
6.5
 20
-6.5
 30
0.0
 40
0.5
 50
270.0000000000001
 51
0.0
  0
LINE
  5
D5
  8
2D$SWITCHHOLES
 10
7.0
 20
-6.5
 30
0.0
 11
6.999999999999972
 21
6.5
 31
0.0
  0
ARC
  5
D6
  8
2D$SWITCHHOLES
 10
6.499999999999975
 20
6.500000000000003
 30
0.0
 40
0.4999999999999964
 50
0.0000000000003053
 51
90.0000000000004
  0
LINE
  5
D7
  8
2D$SWITCHHOLES
 10
6.499999999999972
 20
7.0
 30
0.0
 11
-6.5
 21
7.0
 31
0.0
  0
ARC
  5
D8
  8
2D$SWITCHHOLES
 10
-6.5
 20
6.5
 30
0.0
 40
0.5
 50
89.9999999999998
 51
180.0
  0
LINE
  5
D9
  8
2D$SWITCHHOLES
 10
-7.0
 20
6.500000000000004
 30
0.0
 11
-6.999999999999972
 21
-6.499999999999993
 31
0.0
  0
ARC
  5
DA
  8
2D$SWITCHHOLES
 10
-6.499999999999972
 20
-6.5
 30
0.0
 40
0.5
 50
179.9999999999993
 51
270.0
  0
ENDBLK
  5
DC
  8
0
  0
ENDSEC
  0
SECTION
  2
ENTITIES
  0
INSERT
  5
174
  8
0
  2
SSPLATE_NAAN_REV1_5
 10
-110.4086736709819
 20
-26.80786812138308
 30
0.0
  0
ENDSEC
  0
EOF
