G04 #@! TF.GenerationSoftware,KiCad,Pcbnew,(5.1.6)-1*
G04 #@! TF.CreationDate,2020-07-06T08:42:54-04:00*
G04 #@! TF.ProjectId,ki75rt_PlateSwitch,6b693735-7274-45f5-906c-617465537769,rev?*
G04 #@! TF.SameCoordinates,Original*
G04 #@! TF.FileFunction,Profile,NP*
%FSLAX46Y46*%
G04 Gerber Fmt 4.6, Leading zero omitted, Abs format (unit mm)*
G04 Created by KiCad (PCBNEW (5.1.6)-1) date 2020-07-06 08:42:54*
%MOMM*%
%LPD*%
G01*
G04 APERTURE LIST*
G04 #@! TA.AperFunction,Profile*
%ADD10C,0.150000*%
G04 #@! TD*
G04 #@! TA.AperFunction,Profile*
%ADD11C,0.100000*%
G04 #@! TD*
G04 APERTURE END LIST*
D10*
X313531250Y-27781250D02*
X29368750Y-27781250D01*
X315912500Y-122237500D02*
X315912500Y-30162500D01*
X29368750Y-124618750D02*
X313531250Y-124618750D01*
X26987500Y-30162500D02*
X26987500Y-122237500D01*
X26987500Y-122237500D02*
G75*
G03*
X29368750Y-124618750I2381250J0D01*
G01*
X313531250Y-124618750D02*
G75*
G03*
X315912500Y-122237500I0J2381250D01*
G01*
X315912500Y-30162500D02*
G75*
G03*
X313531250Y-27781250I-2381250J0D01*
G01*
X29368750Y-27781250D02*
G75*
G03*
X26987500Y-30162500I0J-2381250D01*
G01*
D11*
X64375000Y-107300000D02*
X61224492Y-107300000D01*
X61224492Y-107300000D02*
X61224492Y-106300001D01*
X61224492Y-106300001D02*
X57824492Y-106300001D01*
X57824492Y-106300001D02*
X57824492Y-107300000D01*
X57824492Y-107300000D02*
X37425508Y-107300000D01*
X37425508Y-107300000D02*
X37425508Y-106300001D01*
X37425508Y-106300001D02*
X34025508Y-106300001D01*
X34025508Y-106300001D02*
X34025508Y-107300000D01*
X34025508Y-107300000D02*
X30875000Y-107300000D01*
X30875000Y-107300000D02*
X30875000Y-107900001D01*
X30875000Y-107900001D02*
X30075000Y-107900001D01*
X30075000Y-107900001D02*
X30075000Y-120699999D01*
X30075000Y-120699999D02*
X30875000Y-120699999D01*
X30875000Y-120699999D02*
X30875000Y-121300000D01*
X30875000Y-121300000D02*
X64374999Y-121300000D01*
X64374999Y-121300000D02*
X64375000Y-120699999D01*
X64375000Y-120699999D02*
X65175000Y-120699999D01*
X65175000Y-120699999D02*
X65175000Y-107900001D01*
X65175000Y-107900001D02*
X64375000Y-107900001D01*
X64375000Y-107900001D02*
X64375000Y-107300000D01*
X159625000Y-107300000D02*
X156474492Y-107300000D01*
X156474492Y-107300000D02*
X156474492Y-106300001D01*
X156474492Y-106300001D02*
X153074492Y-106300001D01*
X153074492Y-106300001D02*
X153074492Y-107300000D01*
X153074492Y-107300000D02*
X132675508Y-107300000D01*
X132675508Y-107300000D02*
X132675508Y-106300001D01*
X132675508Y-106300001D02*
X129275508Y-106300001D01*
X129275508Y-106300001D02*
X129275508Y-107300000D01*
X129275508Y-107300000D02*
X126125000Y-107300000D01*
X126125000Y-107300000D02*
X126125000Y-107900001D01*
X126125000Y-107900001D02*
X125325000Y-107900001D01*
X125325000Y-107900001D02*
X125325000Y-120699999D01*
X125325000Y-120699999D02*
X126125000Y-120699999D01*
X126125000Y-120699999D02*
X126125000Y-121300000D01*
X126125000Y-121300000D02*
X159624999Y-121300000D01*
X159624999Y-121300000D02*
X159625000Y-120699999D01*
X159625000Y-120699999D02*
X160425000Y-120699999D01*
X160425000Y-120699999D02*
X160425000Y-107900001D01*
X160425000Y-107900001D02*
X159625000Y-107900001D01*
X159625000Y-107900001D02*
X159625000Y-107300000D01*
X102475000Y-107300000D02*
X99324492Y-107300000D01*
X99324492Y-107300000D02*
X99324492Y-106300001D01*
X99324492Y-106300001D02*
X95924492Y-106300001D01*
X95924492Y-106300001D02*
X95924492Y-107300000D01*
X95924492Y-107300000D02*
X75525508Y-107300000D01*
X75525508Y-107300000D02*
X75525508Y-106300001D01*
X75525508Y-106300001D02*
X72125508Y-106300001D01*
X72125508Y-106300001D02*
X72125508Y-107300000D01*
X72125508Y-107300000D02*
X68975000Y-107300000D01*
X68975000Y-107300000D02*
X68975000Y-107900001D01*
X68975000Y-107900001D02*
X68175000Y-107900001D01*
X68175000Y-107900001D02*
X68175000Y-120699999D01*
X68175000Y-120699999D02*
X68975000Y-120699999D01*
X68975000Y-120699999D02*
X68975000Y-121300000D01*
X68975000Y-121300000D02*
X102474999Y-121300000D01*
X102474999Y-121300000D02*
X102475000Y-120699999D01*
X102475000Y-120699999D02*
X103275000Y-120699999D01*
X103275000Y-120699999D02*
X103275000Y-107900001D01*
X103275000Y-107900001D02*
X102475000Y-107900001D01*
X102475000Y-107900001D02*
X102475000Y-107300000D01*
X292975000Y-107300000D02*
X289824492Y-107300000D01*
X289824492Y-107300000D02*
X289824492Y-106300001D01*
X289824492Y-106300001D02*
X286424492Y-106300001D01*
X286424492Y-106300001D02*
X286424492Y-107300000D01*
X286424492Y-107300000D02*
X266025508Y-107300000D01*
X266025508Y-107300000D02*
X266025508Y-106300001D01*
X266025508Y-106300001D02*
X262625508Y-106300001D01*
X262625508Y-106300001D02*
X262625508Y-107300000D01*
X262625508Y-107300000D02*
X259475000Y-107300000D01*
X259475000Y-107300000D02*
X259475000Y-107900001D01*
X259475000Y-107900001D02*
X258675000Y-107900001D01*
X258675000Y-107900001D02*
X258675000Y-120699999D01*
X258675000Y-120699999D02*
X259475000Y-120699999D01*
X259475000Y-120699999D02*
X259475000Y-121300000D01*
X259475000Y-121300000D02*
X292974999Y-121300000D01*
X292974999Y-121300000D02*
X292975000Y-120699999D01*
X292975000Y-120699999D02*
X293775000Y-120699999D01*
X293775000Y-120699999D02*
X293775000Y-107900001D01*
X293775000Y-107900001D02*
X292975000Y-107900001D01*
X292975000Y-107900001D02*
X292975000Y-107300000D01*
X216775000Y-107300000D02*
X213624492Y-107300000D01*
X213624492Y-107300000D02*
X213624492Y-106300001D01*
X213624492Y-106300001D02*
X210224492Y-106300001D01*
X210224492Y-106300001D02*
X210224492Y-107300000D01*
X210224492Y-107300000D02*
X189825508Y-107300000D01*
X189825508Y-107300000D02*
X189825508Y-106300001D01*
X189825508Y-106300001D02*
X186425508Y-106300001D01*
X186425508Y-106300001D02*
X186425508Y-107300000D01*
X186425508Y-107300000D02*
X183275000Y-107300000D01*
X183275000Y-107300000D02*
X183275000Y-107900001D01*
X183275000Y-107900001D02*
X182475000Y-107900001D01*
X182475000Y-107900001D02*
X182475000Y-120699999D01*
X182475000Y-120699999D02*
X183275000Y-120699999D01*
X183275000Y-120699999D02*
X183275000Y-121300000D01*
X183275000Y-121300000D02*
X216774999Y-121300000D01*
X216774999Y-121300000D02*
X216775000Y-120699999D01*
X216775000Y-120699999D02*
X217575000Y-120699999D01*
X217575000Y-120699999D02*
X217575000Y-107900001D01*
X217575000Y-107900001D02*
X216775000Y-107900001D01*
X216775000Y-107900001D02*
X216775000Y-107300000D01*
X159399999Y-45100000D02*
X159399999Y-44499999D01*
X159399999Y-44499999D02*
X160199999Y-44499999D01*
X160199999Y-44499999D02*
X160199999Y-31700001D01*
X160199999Y-31700001D02*
X159399999Y-31700001D01*
X159399999Y-31700001D02*
X159399999Y-31100000D01*
X159399999Y-31100000D02*
X145400001Y-31100000D01*
X145400001Y-31100000D02*
X145400001Y-31700001D01*
X145400001Y-31700001D02*
X144600000Y-31700001D01*
X144600000Y-31700001D02*
X144600000Y-44499999D01*
X144600000Y-44499999D02*
X145400001Y-44499999D01*
X145400001Y-44499999D02*
X145400001Y-45100000D01*
X145400001Y-45100000D02*
X159399999Y-45100000D01*
X83199999Y-45100000D02*
X83199999Y-44499999D01*
X83199999Y-44499999D02*
X83999999Y-44499999D01*
X83999999Y-44499999D02*
X83999999Y-31700001D01*
X83999999Y-31700001D02*
X83199999Y-31700001D01*
X83199999Y-31700001D02*
X83199999Y-31100000D01*
X83199999Y-31100000D02*
X69200001Y-31100000D01*
X69200001Y-31100000D02*
X69200001Y-31700001D01*
X69200001Y-31700001D02*
X68400000Y-31700001D01*
X68400000Y-31700001D02*
X68400000Y-44499999D01*
X68400000Y-44499999D02*
X69200001Y-44499999D01*
X69200001Y-44499999D02*
X69200001Y-45100000D01*
X69200001Y-45100000D02*
X83199999Y-45100000D01*
X45099999Y-45100000D02*
X45099999Y-44499999D01*
X45099999Y-44499999D02*
X45899999Y-44499999D01*
X45899999Y-44499999D02*
X45899999Y-31700001D01*
X45899999Y-31700001D02*
X45099999Y-31700001D01*
X45099999Y-31700001D02*
X45099999Y-31100000D01*
X45099999Y-31100000D02*
X31100001Y-31100000D01*
X31100001Y-31100000D02*
X31100001Y-31700001D01*
X31100001Y-31700001D02*
X30300000Y-31700001D01*
X30300000Y-31700001D02*
X30300000Y-44499999D01*
X30300000Y-44499999D02*
X31100001Y-44499999D01*
X31100001Y-44499999D02*
X31100001Y-45100000D01*
X31100001Y-45100000D02*
X45099999Y-45100000D01*
X121299999Y-45100000D02*
X121299999Y-44499999D01*
X121299999Y-44499999D02*
X122099999Y-44499999D01*
X122099999Y-44499999D02*
X122099999Y-31700001D01*
X122099999Y-31700001D02*
X121299999Y-31700001D01*
X121299999Y-31700001D02*
X121299999Y-31100000D01*
X121299999Y-31100000D02*
X107300001Y-31100000D01*
X107300001Y-31100000D02*
X107300001Y-31700001D01*
X107300001Y-31700001D02*
X106500000Y-31700001D01*
X106500000Y-31700001D02*
X106500000Y-44499999D01*
X106500000Y-44499999D02*
X107300001Y-44499999D01*
X107300001Y-44499999D02*
X107300001Y-45100000D01*
X107300001Y-45100000D02*
X121299999Y-45100000D01*
X178449999Y-45100000D02*
X178449999Y-44499999D01*
X178449999Y-44499999D02*
X179249999Y-44499999D01*
X179249999Y-44499999D02*
X179249999Y-31700001D01*
X179249999Y-31700001D02*
X178449999Y-31700001D01*
X178449999Y-31700001D02*
X178449999Y-31100000D01*
X178449999Y-31100000D02*
X164450001Y-31100000D01*
X164450001Y-31100000D02*
X164450001Y-31700001D01*
X164450001Y-31700001D02*
X163650000Y-31700001D01*
X163650000Y-31700001D02*
X163650000Y-44499999D01*
X163650000Y-44499999D02*
X164450001Y-44499999D01*
X164450001Y-44499999D02*
X164450001Y-45100000D01*
X164450001Y-45100000D02*
X178449999Y-45100000D01*
X197499999Y-45100000D02*
X197499999Y-44499999D01*
X197499999Y-44499999D02*
X198299999Y-44499999D01*
X198299999Y-44499999D02*
X198299999Y-31700001D01*
X198299999Y-31700001D02*
X197499999Y-31700001D01*
X197499999Y-31700001D02*
X197499999Y-31100000D01*
X197499999Y-31100000D02*
X183500001Y-31100000D01*
X183500001Y-31100000D02*
X183500001Y-31700001D01*
X183500001Y-31700001D02*
X182700000Y-31700001D01*
X182700000Y-31700001D02*
X182700000Y-44499999D01*
X182700000Y-44499999D02*
X183500001Y-44499999D01*
X183500001Y-44499999D02*
X183500001Y-45100000D01*
X183500001Y-45100000D02*
X197499999Y-45100000D01*
X216549999Y-45100000D02*
X216549999Y-44499999D01*
X216549999Y-44499999D02*
X217349999Y-44499999D01*
X217349999Y-44499999D02*
X217349999Y-31700001D01*
X217349999Y-31700001D02*
X216549999Y-31700001D01*
X216549999Y-31700001D02*
X216549999Y-31100000D01*
X216549999Y-31100000D02*
X202550001Y-31100000D01*
X202550001Y-31100000D02*
X202550001Y-31700001D01*
X202550001Y-31700001D02*
X201750000Y-31700001D01*
X201750000Y-31700001D02*
X201750000Y-44499999D01*
X201750000Y-44499999D02*
X202550001Y-44499999D01*
X202550001Y-44499999D02*
X202550001Y-45100000D01*
X202550001Y-45100000D02*
X216549999Y-45100000D01*
X235599999Y-45100000D02*
X235599999Y-44499999D01*
X235599999Y-44499999D02*
X236399999Y-44499999D01*
X236399999Y-44499999D02*
X236399999Y-31700001D01*
X236399999Y-31700001D02*
X235599999Y-31700001D01*
X235599999Y-31700001D02*
X235599999Y-31100000D01*
X235599999Y-31100000D02*
X221600001Y-31100000D01*
X221600001Y-31100000D02*
X221600001Y-31700001D01*
X221600001Y-31700001D02*
X220800000Y-31700001D01*
X220800000Y-31700001D02*
X220800000Y-44499999D01*
X220800000Y-44499999D02*
X221600001Y-44499999D01*
X221600001Y-44499999D02*
X221600001Y-45100000D01*
X221600001Y-45100000D02*
X235599999Y-45100000D01*
X311799999Y-45100000D02*
X311799999Y-44499999D01*
X311799999Y-44499999D02*
X312599999Y-44499999D01*
X312599999Y-44499999D02*
X312599999Y-31700001D01*
X312599999Y-31700001D02*
X311799999Y-31700001D01*
X311799999Y-31700001D02*
X311799999Y-31100000D01*
X311799999Y-31100000D02*
X297800001Y-31100000D01*
X297800001Y-31100000D02*
X297800001Y-31700001D01*
X297800001Y-31700001D02*
X297000000Y-31700001D01*
X297000000Y-31700001D02*
X297000000Y-44499999D01*
X297000000Y-44499999D02*
X297800001Y-44499999D01*
X297800001Y-44499999D02*
X297800001Y-45100000D01*
X297800001Y-45100000D02*
X311799999Y-45100000D01*
X292749999Y-45100000D02*
X292749999Y-44499999D01*
X292749999Y-44499999D02*
X293549999Y-44499999D01*
X293549999Y-44499999D02*
X293549999Y-31700001D01*
X293549999Y-31700001D02*
X292749999Y-31700001D01*
X292749999Y-31700001D02*
X292749999Y-31100000D01*
X292749999Y-31100000D02*
X278750001Y-31100000D01*
X278750001Y-31100000D02*
X278750001Y-31700001D01*
X278750001Y-31700001D02*
X277950000Y-31700001D01*
X277950000Y-31700001D02*
X277950000Y-44499999D01*
X277950000Y-44499999D02*
X278750001Y-44499999D01*
X278750001Y-44499999D02*
X278750001Y-45100000D01*
X278750001Y-45100000D02*
X292749999Y-45100000D01*
X273699999Y-45100000D02*
X273699999Y-44499999D01*
X273699999Y-44499999D02*
X274499999Y-44499999D01*
X274499999Y-44499999D02*
X274499999Y-31700001D01*
X274499999Y-31700001D02*
X273699999Y-31700001D01*
X273699999Y-31700001D02*
X273699999Y-31100000D01*
X273699999Y-31100000D02*
X259700001Y-31100000D01*
X259700001Y-31100000D02*
X259700001Y-31700001D01*
X259700001Y-31700001D02*
X258900000Y-31700001D01*
X258900000Y-31700001D02*
X258900000Y-44499999D01*
X258900000Y-44499999D02*
X259700001Y-44499999D01*
X259700001Y-44499999D02*
X259700001Y-45100000D01*
X259700001Y-45100000D02*
X273699999Y-45100000D01*
X254649999Y-45100000D02*
X254649999Y-44499999D01*
X254649999Y-44499999D02*
X255449999Y-44499999D01*
X255449999Y-44499999D02*
X255449999Y-31700001D01*
X255449999Y-31700001D02*
X254649999Y-31700001D01*
X254649999Y-31700001D02*
X254649999Y-31100000D01*
X254649999Y-31100000D02*
X240650001Y-31100000D01*
X240650001Y-31100000D02*
X240650001Y-31700001D01*
X240650001Y-31700001D02*
X239850000Y-31700001D01*
X239850000Y-31700001D02*
X239850000Y-44499999D01*
X239850000Y-44499999D02*
X240650001Y-44499999D01*
X240650001Y-44499999D02*
X240650001Y-45100000D01*
X240650001Y-45100000D02*
X254649999Y-45100000D01*
X140349999Y-45100000D02*
X140349999Y-44499999D01*
X140349999Y-44499999D02*
X141149999Y-44499999D01*
X141149999Y-44499999D02*
X141149999Y-31700001D01*
X141149999Y-31700001D02*
X140349999Y-31700001D01*
X140349999Y-31700001D02*
X140349999Y-31100000D01*
X140349999Y-31100000D02*
X126350001Y-31100000D01*
X126350001Y-31100000D02*
X126350001Y-31700001D01*
X126350001Y-31700001D02*
X125550000Y-31700001D01*
X125550000Y-31700001D02*
X125550000Y-44499999D01*
X125550000Y-44499999D02*
X126350001Y-44499999D01*
X126350001Y-44499999D02*
X126350001Y-45100000D01*
X126350001Y-45100000D02*
X140349999Y-45100000D01*
X102249999Y-45100000D02*
X102249999Y-44499999D01*
X102249999Y-44499999D02*
X103049999Y-44499999D01*
X103049999Y-44499999D02*
X103049999Y-31700001D01*
X103049999Y-31700001D02*
X102249999Y-31700001D01*
X102249999Y-31700001D02*
X102249999Y-31100000D01*
X102249999Y-31100000D02*
X88250001Y-31100000D01*
X88250001Y-31100000D02*
X88250001Y-31700001D01*
X88250001Y-31700001D02*
X87450000Y-31700001D01*
X87450000Y-31700001D02*
X87450000Y-44499999D01*
X87450000Y-44499999D02*
X88250001Y-44499999D01*
X88250001Y-44499999D02*
X88250001Y-45100000D01*
X88250001Y-45100000D02*
X102249999Y-45100000D01*
X64149999Y-45100000D02*
X64149999Y-44499999D01*
X64149999Y-44499999D02*
X64949999Y-44499999D01*
X64949999Y-44499999D02*
X64949999Y-31700001D01*
X64949999Y-31700001D02*
X64149999Y-31700001D01*
X64149999Y-31700001D02*
X64149999Y-31100000D01*
X64149999Y-31100000D02*
X50150001Y-31100000D01*
X50150001Y-31100000D02*
X50150001Y-31700001D01*
X50150001Y-31700001D02*
X49350000Y-31700001D01*
X49350000Y-31700001D02*
X49350000Y-44499999D01*
X49350000Y-44499999D02*
X50150001Y-44499999D01*
X50150001Y-44499999D02*
X50150001Y-45100000D01*
X50150001Y-45100000D02*
X64149999Y-45100000D01*
X197499999Y-64150000D02*
X197499999Y-63549999D01*
X197499999Y-63549999D02*
X198299999Y-63549999D01*
X198299999Y-63549999D02*
X198299999Y-50750001D01*
X198299999Y-50750001D02*
X197499999Y-50750001D01*
X197499999Y-50750001D02*
X197499999Y-50150000D01*
X197499999Y-50150000D02*
X183500001Y-50150000D01*
X183500001Y-50150000D02*
X183500001Y-50750001D01*
X183500001Y-50750001D02*
X182700000Y-50750001D01*
X182700000Y-50750001D02*
X182700000Y-63549999D01*
X182700000Y-63549999D02*
X183500001Y-63549999D01*
X183500001Y-63549999D02*
X183500001Y-64150000D01*
X183500001Y-64150000D02*
X197499999Y-64150000D01*
X140349999Y-64150000D02*
X140349999Y-63549999D01*
X140349999Y-63549999D02*
X141149999Y-63549999D01*
X141149999Y-63549999D02*
X141149999Y-50750001D01*
X141149999Y-50750001D02*
X140349999Y-50750001D01*
X140349999Y-50750001D02*
X140349999Y-50150000D01*
X140349999Y-50150000D02*
X126350001Y-50150000D01*
X126350001Y-50150000D02*
X126350001Y-50750001D01*
X126350001Y-50750001D02*
X125550000Y-50750001D01*
X125550000Y-50750001D02*
X125550000Y-63549999D01*
X125550000Y-63549999D02*
X126350001Y-63549999D01*
X126350001Y-63549999D02*
X126350001Y-64150000D01*
X126350001Y-64150000D02*
X140349999Y-64150000D01*
X159399999Y-64150000D02*
X159399999Y-63549999D01*
X159399999Y-63549999D02*
X160199999Y-63549999D01*
X160199999Y-63549999D02*
X160199999Y-50750001D01*
X160199999Y-50750001D02*
X159399999Y-50750001D01*
X159399999Y-50750001D02*
X159399999Y-50150000D01*
X159399999Y-50150000D02*
X145400001Y-50150000D01*
X145400001Y-50150000D02*
X145400001Y-50750001D01*
X145400001Y-50750001D02*
X144600000Y-50750001D01*
X144600000Y-50750001D02*
X144600000Y-63549999D01*
X144600000Y-63549999D02*
X145400001Y-63549999D01*
X145400001Y-63549999D02*
X145400001Y-64150000D01*
X145400001Y-64150000D02*
X159399999Y-64150000D01*
X178449999Y-64150000D02*
X178449999Y-63549999D01*
X178449999Y-63549999D02*
X179249999Y-63549999D01*
X179249999Y-63549999D02*
X179249999Y-50750001D01*
X179249999Y-50750001D02*
X178449999Y-50750001D01*
X178449999Y-50750001D02*
X178449999Y-50150000D01*
X178449999Y-50150000D02*
X164450001Y-50150000D01*
X164450001Y-50150000D02*
X164450001Y-50750001D01*
X164450001Y-50750001D02*
X163650000Y-50750001D01*
X163650000Y-50750001D02*
X163650000Y-63549999D01*
X163650000Y-63549999D02*
X164450001Y-63549999D01*
X164450001Y-63549999D02*
X164450001Y-64150000D01*
X164450001Y-64150000D02*
X178449999Y-64150000D01*
X216549999Y-64150000D02*
X216549999Y-63549999D01*
X216549999Y-63549999D02*
X217349999Y-63549999D01*
X217349999Y-63549999D02*
X217349999Y-50750001D01*
X217349999Y-50750001D02*
X216549999Y-50750001D01*
X216549999Y-50750001D02*
X216549999Y-50150000D01*
X216549999Y-50150000D02*
X202550001Y-50150000D01*
X202550001Y-50150000D02*
X202550001Y-50750001D01*
X202550001Y-50750001D02*
X201750000Y-50750001D01*
X201750000Y-50750001D02*
X201750000Y-63549999D01*
X201750000Y-63549999D02*
X202550001Y-63549999D01*
X202550001Y-63549999D02*
X202550001Y-64150000D01*
X202550001Y-64150000D02*
X216549999Y-64150000D01*
X64149999Y-64150000D02*
X64149999Y-63549999D01*
X64149999Y-63549999D02*
X64949999Y-63549999D01*
X64949999Y-63549999D02*
X64949999Y-50750001D01*
X64949999Y-50750001D02*
X64149999Y-50750001D01*
X64149999Y-50750001D02*
X64149999Y-50150000D01*
X64149999Y-50150000D02*
X50150001Y-50150000D01*
X50150001Y-50150000D02*
X50150001Y-50750001D01*
X50150001Y-50750001D02*
X49350000Y-50750001D01*
X49350000Y-50750001D02*
X49350000Y-63549999D01*
X49350000Y-63549999D02*
X50150001Y-63549999D01*
X50150001Y-63549999D02*
X50150001Y-64150000D01*
X50150001Y-64150000D02*
X64149999Y-64150000D01*
X121299999Y-64150000D02*
X121299999Y-63549999D01*
X121299999Y-63549999D02*
X122099999Y-63549999D01*
X122099999Y-63549999D02*
X122099999Y-50750001D01*
X122099999Y-50750001D02*
X121299999Y-50750001D01*
X121299999Y-50750001D02*
X121299999Y-50150000D01*
X121299999Y-50150000D02*
X107300001Y-50150000D01*
X107300001Y-50150000D02*
X107300001Y-50750001D01*
X107300001Y-50750001D02*
X106500000Y-50750001D01*
X106500000Y-50750001D02*
X106500000Y-63549999D01*
X106500000Y-63549999D02*
X107300001Y-63549999D01*
X107300001Y-63549999D02*
X107300001Y-64150000D01*
X107300001Y-64150000D02*
X121299999Y-64150000D01*
X102249999Y-64150000D02*
X102249999Y-63549999D01*
X102249999Y-63549999D02*
X103049999Y-63549999D01*
X103049999Y-63549999D02*
X103049999Y-50750001D01*
X103049999Y-50750001D02*
X102249999Y-50750001D01*
X102249999Y-50750001D02*
X102249999Y-50150000D01*
X102249999Y-50150000D02*
X88250001Y-50150000D01*
X88250001Y-50150000D02*
X88250001Y-50750001D01*
X88250001Y-50750001D02*
X87450000Y-50750001D01*
X87450000Y-50750001D02*
X87450000Y-63549999D01*
X87450000Y-63549999D02*
X88250001Y-63549999D01*
X88250001Y-63549999D02*
X88250001Y-64150000D01*
X88250001Y-64150000D02*
X102249999Y-64150000D01*
X254649999Y-64150000D02*
X254649999Y-63549999D01*
X254649999Y-63549999D02*
X255449999Y-63549999D01*
X255449999Y-63549999D02*
X255449999Y-50750001D01*
X255449999Y-50750001D02*
X254649999Y-50750001D01*
X254649999Y-50750001D02*
X254649999Y-50150000D01*
X254649999Y-50150000D02*
X240650001Y-50150000D01*
X240650001Y-50150000D02*
X240650001Y-50750001D01*
X240650001Y-50750001D02*
X239850000Y-50750001D01*
X239850000Y-50750001D02*
X239850000Y-63549999D01*
X239850000Y-63549999D02*
X240650001Y-63549999D01*
X240650001Y-63549999D02*
X240650001Y-64150000D01*
X240650001Y-64150000D02*
X254649999Y-64150000D01*
X311799999Y-64150000D02*
X311799999Y-63549999D01*
X311799999Y-63549999D02*
X312599999Y-63549999D01*
X312599999Y-63549999D02*
X312599999Y-50750001D01*
X312599999Y-50750001D02*
X311799999Y-50750001D01*
X311799999Y-50750001D02*
X311799999Y-50150000D01*
X311799999Y-50150000D02*
X297800001Y-50150000D01*
X297800001Y-50150000D02*
X297800001Y-50750001D01*
X297800001Y-50750001D02*
X297000000Y-50750001D01*
X297000000Y-50750001D02*
X297000000Y-63549999D01*
X297000000Y-63549999D02*
X297800001Y-63549999D01*
X297800001Y-63549999D02*
X297800001Y-64150000D01*
X297800001Y-64150000D02*
X311799999Y-64150000D01*
X273699999Y-64150000D02*
X273699999Y-63549999D01*
X273699999Y-63549999D02*
X274499999Y-63549999D01*
X274499999Y-63549999D02*
X274499999Y-50750001D01*
X274499999Y-50750001D02*
X273699999Y-50750001D01*
X273699999Y-50750001D02*
X273699999Y-50150000D01*
X273699999Y-50150000D02*
X259700001Y-50150000D01*
X259700001Y-50150000D02*
X259700001Y-50750001D01*
X259700001Y-50750001D02*
X258900000Y-50750001D01*
X258900000Y-50750001D02*
X258900000Y-63549999D01*
X258900000Y-63549999D02*
X259700001Y-63549999D01*
X259700001Y-63549999D02*
X259700001Y-64150000D01*
X259700001Y-64150000D02*
X273699999Y-64150000D01*
X83199999Y-64150000D02*
X83199999Y-63549999D01*
X83199999Y-63549999D02*
X83999999Y-63549999D01*
X83999999Y-63549999D02*
X83999999Y-50750001D01*
X83999999Y-50750001D02*
X83199999Y-50750001D01*
X83199999Y-50750001D02*
X83199999Y-50150000D01*
X83199999Y-50150000D02*
X69200001Y-50150000D01*
X69200001Y-50150000D02*
X69200001Y-50750001D01*
X69200001Y-50750001D02*
X68400000Y-50750001D01*
X68400000Y-50750001D02*
X68400000Y-63549999D01*
X68400000Y-63549999D02*
X69200001Y-63549999D01*
X69200001Y-63549999D02*
X69200001Y-64150000D01*
X69200001Y-64150000D02*
X83199999Y-64150000D01*
X45099999Y-64150000D02*
X45099999Y-63549999D01*
X45099999Y-63549999D02*
X45899999Y-63549999D01*
X45899999Y-63549999D02*
X45899999Y-50750001D01*
X45899999Y-50750001D02*
X45099999Y-50750001D01*
X45099999Y-50750001D02*
X45099999Y-50150000D01*
X45099999Y-50150000D02*
X31100001Y-50150000D01*
X31100001Y-50150000D02*
X31100001Y-50750001D01*
X31100001Y-50750001D02*
X30300000Y-50750001D01*
X30300000Y-50750001D02*
X30300000Y-63549999D01*
X30300000Y-63549999D02*
X31100001Y-63549999D01*
X31100001Y-63549999D02*
X31100001Y-64150000D01*
X31100001Y-64150000D02*
X45099999Y-64150000D01*
X235599999Y-64150000D02*
X235599999Y-63549999D01*
X235599999Y-63549999D02*
X236399999Y-63549999D01*
X236399999Y-63549999D02*
X236399999Y-50750001D01*
X236399999Y-50750001D02*
X235599999Y-50750001D01*
X235599999Y-50750001D02*
X235599999Y-50150000D01*
X235599999Y-50150000D02*
X221600001Y-50150000D01*
X221600001Y-50150000D02*
X221600001Y-50750001D01*
X221600001Y-50750001D02*
X220800000Y-50750001D01*
X220800000Y-50750001D02*
X220800000Y-63549999D01*
X220800000Y-63549999D02*
X221600001Y-63549999D01*
X221600001Y-63549999D02*
X221600001Y-64150000D01*
X221600001Y-64150000D02*
X235599999Y-64150000D01*
X292749999Y-64150000D02*
X292749999Y-63549999D01*
X292749999Y-63549999D02*
X293549999Y-63549999D01*
X293549999Y-63549999D02*
X293549999Y-50750001D01*
X293549999Y-50750001D02*
X292749999Y-50750001D01*
X292749999Y-50750001D02*
X292749999Y-50150000D01*
X292749999Y-50150000D02*
X278750001Y-50150000D01*
X278750001Y-50150000D02*
X278750001Y-50750001D01*
X278750001Y-50750001D02*
X277950000Y-50750001D01*
X277950000Y-50750001D02*
X277950000Y-63549999D01*
X277950000Y-63549999D02*
X278750001Y-63549999D01*
X278750001Y-63549999D02*
X278750001Y-64150000D01*
X278750001Y-64150000D02*
X292749999Y-64150000D01*
X83199999Y-83200000D02*
X83199999Y-82599999D01*
X83199999Y-82599999D02*
X83999999Y-82599999D01*
X83999999Y-82599999D02*
X83999999Y-69800001D01*
X83999999Y-69800001D02*
X83199999Y-69800001D01*
X83199999Y-69800001D02*
X83199999Y-69200000D01*
X83199999Y-69200000D02*
X69200001Y-69200000D01*
X69200001Y-69200000D02*
X69200001Y-69800001D01*
X69200001Y-69800001D02*
X68400000Y-69800001D01*
X68400000Y-69800001D02*
X68400000Y-82599999D01*
X68400000Y-82599999D02*
X69200001Y-82599999D01*
X69200001Y-82599999D02*
X69200001Y-83200000D01*
X69200001Y-83200000D02*
X83199999Y-83200000D01*
X121299999Y-83200000D02*
X121299999Y-82599999D01*
X121299999Y-82599999D02*
X122099999Y-82599999D01*
X122099999Y-82599999D02*
X122099999Y-69800001D01*
X122099999Y-69800001D02*
X121299999Y-69800001D01*
X121299999Y-69800001D02*
X121299999Y-69200000D01*
X121299999Y-69200000D02*
X107300001Y-69200000D01*
X107300001Y-69200000D02*
X107300001Y-69800001D01*
X107300001Y-69800001D02*
X106500000Y-69800001D01*
X106500000Y-69800001D02*
X106500000Y-82599999D01*
X106500000Y-82599999D02*
X107300001Y-82599999D01*
X107300001Y-82599999D02*
X107300001Y-83200000D01*
X107300001Y-83200000D02*
X121299999Y-83200000D01*
X45099999Y-83200000D02*
X45099999Y-82599999D01*
X45099999Y-82599999D02*
X45899999Y-82599999D01*
X45899999Y-82599999D02*
X45899999Y-69800001D01*
X45899999Y-69800001D02*
X45099999Y-69800001D01*
X45099999Y-69800001D02*
X45099999Y-69200000D01*
X45099999Y-69200000D02*
X31100001Y-69200000D01*
X31100001Y-69200000D02*
X31100001Y-69800001D01*
X31100001Y-69800001D02*
X30300000Y-69800001D01*
X30300000Y-69800001D02*
X30300000Y-82599999D01*
X30300000Y-82599999D02*
X31100001Y-82599999D01*
X31100001Y-82599999D02*
X31100001Y-83200000D01*
X31100001Y-83200000D02*
X45099999Y-83200000D01*
X64149999Y-83200000D02*
X64149999Y-82599999D01*
X64149999Y-82599999D02*
X64949999Y-82599999D01*
X64949999Y-82599999D02*
X64949999Y-69800001D01*
X64949999Y-69800001D02*
X64149999Y-69800001D01*
X64149999Y-69800001D02*
X64149999Y-69200000D01*
X64149999Y-69200000D02*
X50150001Y-69200000D01*
X50150001Y-69200000D02*
X50150001Y-69800001D01*
X50150001Y-69800001D02*
X49350000Y-69800001D01*
X49350000Y-69800001D02*
X49350000Y-82599999D01*
X49350000Y-82599999D02*
X50150001Y-82599999D01*
X50150001Y-82599999D02*
X50150001Y-83200000D01*
X50150001Y-83200000D02*
X64149999Y-83200000D01*
X159399999Y-83200000D02*
X159399999Y-82599999D01*
X159399999Y-82599999D02*
X160199999Y-82599999D01*
X160199999Y-82599999D02*
X160199999Y-69800001D01*
X160199999Y-69800001D02*
X159399999Y-69800001D01*
X159399999Y-69800001D02*
X159399999Y-69200000D01*
X159399999Y-69200000D02*
X145400001Y-69200000D01*
X145400001Y-69200000D02*
X145400001Y-69800001D01*
X145400001Y-69800001D02*
X144600000Y-69800001D01*
X144600000Y-69800001D02*
X144600000Y-82599999D01*
X144600000Y-82599999D02*
X145400001Y-82599999D01*
X145400001Y-82599999D02*
X145400001Y-83200000D01*
X145400001Y-83200000D02*
X159399999Y-83200000D01*
X197499999Y-83200000D02*
X197499999Y-82599999D01*
X197499999Y-82599999D02*
X198299999Y-82599999D01*
X198299999Y-82599999D02*
X198299999Y-69800001D01*
X198299999Y-69800001D02*
X197499999Y-69800001D01*
X197499999Y-69800001D02*
X197499999Y-69200000D01*
X197499999Y-69200000D02*
X183500001Y-69200000D01*
X183500001Y-69200000D02*
X183500001Y-69800001D01*
X183500001Y-69800001D02*
X182700000Y-69800001D01*
X182700000Y-69800001D02*
X182700000Y-82599999D01*
X182700000Y-82599999D02*
X183500001Y-82599999D01*
X183500001Y-82599999D02*
X183500001Y-83200000D01*
X183500001Y-83200000D02*
X197499999Y-83200000D01*
X140349999Y-83200000D02*
X140349999Y-82599999D01*
X140349999Y-82599999D02*
X141149999Y-82599999D01*
X141149999Y-82599999D02*
X141149999Y-69800001D01*
X141149999Y-69800001D02*
X140349999Y-69800001D01*
X140349999Y-69800001D02*
X140349999Y-69200000D01*
X140349999Y-69200000D02*
X126350001Y-69200000D01*
X126350001Y-69200000D02*
X126350001Y-69800001D01*
X126350001Y-69800001D02*
X125550000Y-69800001D01*
X125550000Y-69800001D02*
X125550000Y-82599999D01*
X125550000Y-82599999D02*
X126350001Y-82599999D01*
X126350001Y-82599999D02*
X126350001Y-83200000D01*
X126350001Y-83200000D02*
X140349999Y-83200000D01*
X178449999Y-83200000D02*
X178449999Y-82599999D01*
X178449999Y-82599999D02*
X179249999Y-82599999D01*
X179249999Y-82599999D02*
X179249999Y-69800001D01*
X179249999Y-69800001D02*
X178449999Y-69800001D01*
X178449999Y-69800001D02*
X178449999Y-69200000D01*
X178449999Y-69200000D02*
X164450001Y-69200000D01*
X164450001Y-69200000D02*
X164450001Y-69800001D01*
X164450001Y-69800001D02*
X163650000Y-69800001D01*
X163650000Y-69800001D02*
X163650000Y-82599999D01*
X163650000Y-82599999D02*
X164450001Y-82599999D01*
X164450001Y-82599999D02*
X164450001Y-83200000D01*
X164450001Y-83200000D02*
X178449999Y-83200000D01*
X216549999Y-83200000D02*
X216549999Y-82599999D01*
X216549999Y-82599999D02*
X217349999Y-82599999D01*
X217349999Y-82599999D02*
X217349999Y-69800001D01*
X217349999Y-69800001D02*
X216549999Y-69800001D01*
X216549999Y-69800001D02*
X216549999Y-69200000D01*
X216549999Y-69200000D02*
X202550001Y-69200000D01*
X202550001Y-69200000D02*
X202550001Y-69800001D01*
X202550001Y-69800001D02*
X201750000Y-69800001D01*
X201750000Y-69800001D02*
X201750000Y-82599999D01*
X201750000Y-82599999D02*
X202550001Y-82599999D01*
X202550001Y-82599999D02*
X202550001Y-83200000D01*
X202550001Y-83200000D02*
X216549999Y-83200000D01*
X292749999Y-83200000D02*
X292749999Y-82599999D01*
X292749999Y-82599999D02*
X293549999Y-82599999D01*
X293549999Y-82599999D02*
X293549999Y-69800001D01*
X293549999Y-69800001D02*
X292749999Y-69800001D01*
X292749999Y-69800001D02*
X292749999Y-69200000D01*
X292749999Y-69200000D02*
X278750001Y-69200000D01*
X278750001Y-69200000D02*
X278750001Y-69800001D01*
X278750001Y-69800001D02*
X277950000Y-69800001D01*
X277950000Y-69800001D02*
X277950000Y-82599999D01*
X277950000Y-82599999D02*
X278750001Y-82599999D01*
X278750001Y-82599999D02*
X278750001Y-83200000D01*
X278750001Y-83200000D02*
X292749999Y-83200000D01*
X273699999Y-83200000D02*
X273699999Y-82599999D01*
X273699999Y-82599999D02*
X274499999Y-82599999D01*
X274499999Y-82599999D02*
X274499999Y-69800001D01*
X274499999Y-69800001D02*
X273699999Y-69800001D01*
X273699999Y-69800001D02*
X273699999Y-69200000D01*
X273699999Y-69200000D02*
X259700001Y-69200000D01*
X259700001Y-69200000D02*
X259700001Y-69800001D01*
X259700001Y-69800001D02*
X258900000Y-69800001D01*
X258900000Y-69800001D02*
X258900000Y-82599999D01*
X258900000Y-82599999D02*
X259700001Y-82599999D01*
X259700001Y-82599999D02*
X259700001Y-83200000D01*
X259700001Y-83200000D02*
X273699999Y-83200000D01*
X235599999Y-83200000D02*
X235599999Y-82599999D01*
X235599999Y-82599999D02*
X236399999Y-82599999D01*
X236399999Y-82599999D02*
X236399999Y-69800001D01*
X236399999Y-69800001D02*
X235599999Y-69800001D01*
X235599999Y-69800001D02*
X235599999Y-69200000D01*
X235599999Y-69200000D02*
X221600001Y-69200000D01*
X221600001Y-69200000D02*
X221600001Y-69800001D01*
X221600001Y-69800001D02*
X220800000Y-69800001D01*
X220800000Y-69800001D02*
X220800000Y-82599999D01*
X220800000Y-82599999D02*
X221600001Y-82599999D01*
X221600001Y-82599999D02*
X221600001Y-83200000D01*
X221600001Y-83200000D02*
X235599999Y-83200000D01*
X311799999Y-83200000D02*
X311799999Y-82599999D01*
X311799999Y-82599999D02*
X312599999Y-82599999D01*
X312599999Y-82599999D02*
X312599999Y-69800001D01*
X312599999Y-69800001D02*
X311799999Y-69800001D01*
X311799999Y-69800001D02*
X311799999Y-69200000D01*
X311799999Y-69200000D02*
X297800001Y-69200000D01*
X297800001Y-69200000D02*
X297800001Y-69800001D01*
X297800001Y-69800001D02*
X297000000Y-69800001D01*
X297000000Y-69800001D02*
X297000000Y-82599999D01*
X297000000Y-82599999D02*
X297800001Y-82599999D01*
X297800001Y-82599999D02*
X297800001Y-83200000D01*
X297800001Y-83200000D02*
X311799999Y-83200000D01*
X254649999Y-83200000D02*
X254649999Y-82599999D01*
X254649999Y-82599999D02*
X255449999Y-82599999D01*
X255449999Y-82599999D02*
X255449999Y-69800001D01*
X255449999Y-69800001D02*
X254649999Y-69800001D01*
X254649999Y-69800001D02*
X254649999Y-69200000D01*
X254649999Y-69200000D02*
X240650001Y-69200000D01*
X240650001Y-69200000D02*
X240650001Y-69800001D01*
X240650001Y-69800001D02*
X239850000Y-69800001D01*
X239850000Y-69800001D02*
X239850000Y-82599999D01*
X239850000Y-82599999D02*
X240650001Y-82599999D01*
X240650001Y-82599999D02*
X240650001Y-83200000D01*
X240650001Y-83200000D02*
X254649999Y-83200000D01*
X102249999Y-83200000D02*
X102249999Y-82599999D01*
X102249999Y-82599999D02*
X103049999Y-82599999D01*
X103049999Y-82599999D02*
X103049999Y-69800001D01*
X103049999Y-69800001D02*
X102249999Y-69800001D01*
X102249999Y-69800001D02*
X102249999Y-69200000D01*
X102249999Y-69200000D02*
X88250001Y-69200000D01*
X88250001Y-69200000D02*
X88250001Y-69800001D01*
X88250001Y-69800001D02*
X87450000Y-69800001D01*
X87450000Y-69800001D02*
X87450000Y-82599999D01*
X87450000Y-82599999D02*
X88250001Y-82599999D01*
X88250001Y-82599999D02*
X88250001Y-83200000D01*
X88250001Y-83200000D02*
X102249999Y-83200000D01*
X102249999Y-102250000D02*
X102249999Y-101649999D01*
X102249999Y-101649999D02*
X103049999Y-101649999D01*
X103049999Y-101649999D02*
X103049999Y-88850001D01*
X103049999Y-88850001D02*
X102249999Y-88850001D01*
X102249999Y-88850001D02*
X102249999Y-88250000D01*
X102249999Y-88250000D02*
X88250001Y-88250000D01*
X88250001Y-88250000D02*
X88250001Y-88850001D01*
X88250001Y-88850001D02*
X87450000Y-88850001D01*
X87450000Y-88850001D02*
X87450000Y-101649999D01*
X87450000Y-101649999D02*
X88250001Y-101649999D01*
X88250001Y-101649999D02*
X88250001Y-102250000D01*
X88250001Y-102250000D02*
X102249999Y-102250000D01*
X45099999Y-102250000D02*
X45099999Y-101649999D01*
X45099999Y-101649999D02*
X45899999Y-101649999D01*
X45899999Y-101649999D02*
X45899999Y-88850001D01*
X45899999Y-88850001D02*
X45099999Y-88850001D01*
X45099999Y-88850001D02*
X45099999Y-88250000D01*
X45099999Y-88250000D02*
X31100001Y-88250000D01*
X31100001Y-88250000D02*
X31100001Y-88850001D01*
X31100001Y-88850001D02*
X30300000Y-88850001D01*
X30300000Y-88850001D02*
X30300000Y-101649999D01*
X30300000Y-101649999D02*
X31100001Y-101649999D01*
X31100001Y-101649999D02*
X31100001Y-102250000D01*
X31100001Y-102250000D02*
X45099999Y-102250000D01*
X64149999Y-102250000D02*
X64149999Y-101649999D01*
X64149999Y-101649999D02*
X64949999Y-101649999D01*
X64949999Y-101649999D02*
X64949999Y-88850001D01*
X64949999Y-88850001D02*
X64149999Y-88850001D01*
X64149999Y-88850001D02*
X64149999Y-88250000D01*
X64149999Y-88250000D02*
X50150001Y-88250000D01*
X50150001Y-88250000D02*
X50150001Y-88850001D01*
X50150001Y-88850001D02*
X49350000Y-88850001D01*
X49350000Y-88850001D02*
X49350000Y-101649999D01*
X49350000Y-101649999D02*
X50150001Y-101649999D01*
X50150001Y-101649999D02*
X50150001Y-102250000D01*
X50150001Y-102250000D02*
X64149999Y-102250000D01*
X83199999Y-102250000D02*
X83199999Y-101649999D01*
X83199999Y-101649999D02*
X83999999Y-101649999D01*
X83999999Y-101649999D02*
X83999999Y-88850001D01*
X83999999Y-88850001D02*
X83199999Y-88850001D01*
X83199999Y-88850001D02*
X83199999Y-88250000D01*
X83199999Y-88250000D02*
X69200001Y-88250000D01*
X69200001Y-88250000D02*
X69200001Y-88850001D01*
X69200001Y-88850001D02*
X68400000Y-88850001D01*
X68400000Y-88850001D02*
X68400000Y-101649999D01*
X68400000Y-101649999D02*
X69200001Y-101649999D01*
X69200001Y-101649999D02*
X69200001Y-102250000D01*
X69200001Y-102250000D02*
X83199999Y-102250000D01*
X197499999Y-102250000D02*
X197499999Y-101649999D01*
X197499999Y-101649999D02*
X198299999Y-101649999D01*
X198299999Y-101649999D02*
X198299999Y-88850001D01*
X198299999Y-88850001D02*
X197499999Y-88850001D01*
X197499999Y-88850001D02*
X197499999Y-88250000D01*
X197499999Y-88250000D02*
X183500001Y-88250000D01*
X183500001Y-88250000D02*
X183500001Y-88850001D01*
X183500001Y-88850001D02*
X182700000Y-88850001D01*
X182700000Y-88850001D02*
X182700000Y-101649999D01*
X182700000Y-101649999D02*
X183500001Y-101649999D01*
X183500001Y-101649999D02*
X183500001Y-102250000D01*
X183500001Y-102250000D02*
X197499999Y-102250000D01*
X216549999Y-102250000D02*
X216549999Y-101649999D01*
X216549999Y-101649999D02*
X217349999Y-101649999D01*
X217349999Y-101649999D02*
X217349999Y-88850001D01*
X217349999Y-88850001D02*
X216549999Y-88850001D01*
X216549999Y-88850001D02*
X216549999Y-88250000D01*
X216549999Y-88250000D02*
X202550001Y-88250000D01*
X202550001Y-88250000D02*
X202550001Y-88850001D01*
X202550001Y-88850001D02*
X201750000Y-88850001D01*
X201750000Y-88850001D02*
X201750000Y-101649999D01*
X201750000Y-101649999D02*
X202550001Y-101649999D01*
X202550001Y-101649999D02*
X202550001Y-102250000D01*
X202550001Y-102250000D02*
X216549999Y-102250000D01*
X159399999Y-102250000D02*
X159399999Y-101649999D01*
X159399999Y-101649999D02*
X160199999Y-101649999D01*
X160199999Y-101649999D02*
X160199999Y-88850001D01*
X160199999Y-88850001D02*
X159399999Y-88850001D01*
X159399999Y-88850001D02*
X159399999Y-88250000D01*
X159399999Y-88250000D02*
X145400001Y-88250000D01*
X145400001Y-88250000D02*
X145400001Y-88850001D01*
X145400001Y-88850001D02*
X144600000Y-88850001D01*
X144600000Y-88850001D02*
X144600000Y-101649999D01*
X144600000Y-101649999D02*
X145400001Y-101649999D01*
X145400001Y-101649999D02*
X145400001Y-102250000D01*
X145400001Y-102250000D02*
X159399999Y-102250000D01*
X178449999Y-102250000D02*
X178449999Y-101649999D01*
X178449999Y-101649999D02*
X179249999Y-101649999D01*
X179249999Y-101649999D02*
X179249999Y-88850001D01*
X179249999Y-88850001D02*
X178449999Y-88850001D01*
X178449999Y-88850001D02*
X178449999Y-88250000D01*
X178449999Y-88250000D02*
X164450001Y-88250000D01*
X164450001Y-88250000D02*
X164450001Y-88850001D01*
X164450001Y-88850001D02*
X163650000Y-88850001D01*
X163650000Y-88850001D02*
X163650000Y-101649999D01*
X163650000Y-101649999D02*
X164450001Y-101649999D01*
X164450001Y-101649999D02*
X164450001Y-102250000D01*
X164450001Y-102250000D02*
X178449999Y-102250000D01*
X121299999Y-102250000D02*
X121299999Y-101649999D01*
X121299999Y-101649999D02*
X122099999Y-101649999D01*
X122099999Y-101649999D02*
X122099999Y-88850001D01*
X122099999Y-88850001D02*
X121299999Y-88850001D01*
X121299999Y-88850001D02*
X121299999Y-88250000D01*
X121299999Y-88250000D02*
X107300001Y-88250000D01*
X107300001Y-88250000D02*
X107300001Y-88850001D01*
X107300001Y-88850001D02*
X106500000Y-88850001D01*
X106500000Y-88850001D02*
X106500000Y-101649999D01*
X106500000Y-101649999D02*
X107300001Y-101649999D01*
X107300001Y-101649999D02*
X107300001Y-102250000D01*
X107300001Y-102250000D02*
X121299999Y-102250000D01*
X140349999Y-102250000D02*
X140349999Y-101649999D01*
X140349999Y-101649999D02*
X141149999Y-101649999D01*
X141149999Y-101649999D02*
X141149999Y-88850001D01*
X141149999Y-88850001D02*
X140349999Y-88850001D01*
X140349999Y-88850001D02*
X140349999Y-88250000D01*
X140349999Y-88250000D02*
X126350001Y-88250000D01*
X126350001Y-88250000D02*
X126350001Y-88850001D01*
X126350001Y-88850001D02*
X125550000Y-88850001D01*
X125550000Y-88850001D02*
X125550000Y-101649999D01*
X125550000Y-101649999D02*
X126350001Y-101649999D01*
X126350001Y-101649999D02*
X126350001Y-102250000D01*
X126350001Y-102250000D02*
X140349999Y-102250000D01*
X311799999Y-102250000D02*
X311799999Y-101649999D01*
X311799999Y-101649999D02*
X312599999Y-101649999D01*
X312599999Y-101649999D02*
X312599999Y-88850001D01*
X312599999Y-88850001D02*
X311799999Y-88850001D01*
X311799999Y-88850001D02*
X311799999Y-88250000D01*
X311799999Y-88250000D02*
X297800001Y-88250000D01*
X297800001Y-88250000D02*
X297800001Y-88850001D01*
X297800001Y-88850001D02*
X297000000Y-88850001D01*
X297000000Y-88850001D02*
X297000000Y-101649999D01*
X297000000Y-101649999D02*
X297800001Y-101649999D01*
X297800001Y-101649999D02*
X297800001Y-102250000D01*
X297800001Y-102250000D02*
X311799999Y-102250000D01*
X292749999Y-102250000D02*
X292749999Y-101649999D01*
X292749999Y-101649999D02*
X293549999Y-101649999D01*
X293549999Y-101649999D02*
X293549999Y-88850001D01*
X293549999Y-88850001D02*
X292749999Y-88850001D01*
X292749999Y-88850001D02*
X292749999Y-88250000D01*
X292749999Y-88250000D02*
X278750001Y-88250000D01*
X278750001Y-88250000D02*
X278750001Y-88850001D01*
X278750001Y-88850001D02*
X277950000Y-88850001D01*
X277950000Y-88850001D02*
X277950000Y-101649999D01*
X277950000Y-101649999D02*
X278750001Y-101649999D01*
X278750001Y-101649999D02*
X278750001Y-102250000D01*
X278750001Y-102250000D02*
X292749999Y-102250000D01*
X273699999Y-102250000D02*
X273699999Y-101649999D01*
X273699999Y-101649999D02*
X274499999Y-101649999D01*
X274499999Y-101649999D02*
X274499999Y-88850001D01*
X274499999Y-88850001D02*
X273699999Y-88850001D01*
X273699999Y-88850001D02*
X273699999Y-88250000D01*
X273699999Y-88250000D02*
X259700001Y-88250000D01*
X259700001Y-88250000D02*
X259700001Y-88850001D01*
X259700001Y-88850001D02*
X258900000Y-88850001D01*
X258900000Y-88850001D02*
X258900000Y-101649999D01*
X258900000Y-101649999D02*
X259700001Y-101649999D01*
X259700001Y-101649999D02*
X259700001Y-102250000D01*
X259700001Y-102250000D02*
X273699999Y-102250000D01*
X254649999Y-102250000D02*
X254649999Y-101649999D01*
X254649999Y-101649999D02*
X255449999Y-101649999D01*
X255449999Y-101649999D02*
X255449999Y-88850001D01*
X255449999Y-88850001D02*
X254649999Y-88850001D01*
X254649999Y-88850001D02*
X254649999Y-88250000D01*
X254649999Y-88250000D02*
X240650001Y-88250000D01*
X240650001Y-88250000D02*
X240650001Y-88850001D01*
X240650001Y-88850001D02*
X239850000Y-88850001D01*
X239850000Y-88850001D02*
X239850000Y-101649999D01*
X239850000Y-101649999D02*
X240650001Y-101649999D01*
X240650001Y-101649999D02*
X240650001Y-102250000D01*
X240650001Y-102250000D02*
X254649999Y-102250000D01*
X235599999Y-102250000D02*
X235599999Y-101649999D01*
X235599999Y-101649999D02*
X236399999Y-101649999D01*
X236399999Y-101649999D02*
X236399999Y-88850001D01*
X236399999Y-88850001D02*
X235599999Y-88850001D01*
X235599999Y-88850001D02*
X235599999Y-88250000D01*
X235599999Y-88250000D02*
X221600001Y-88250000D01*
X221600001Y-88250000D02*
X221600001Y-88850001D01*
X221600001Y-88850001D02*
X220800000Y-88850001D01*
X220800000Y-88850001D02*
X220800000Y-101649999D01*
X220800000Y-101649999D02*
X221600001Y-101649999D01*
X221600001Y-101649999D02*
X221600001Y-102250000D01*
X221600001Y-102250000D02*
X235599999Y-102250000D01*
X121299999Y-121300000D02*
X121299999Y-120699999D01*
X121299999Y-120699999D02*
X122099999Y-120699999D01*
X122099999Y-120699999D02*
X122099999Y-107900001D01*
X122099999Y-107900001D02*
X121299999Y-107900001D01*
X121299999Y-107900001D02*
X121299999Y-107300000D01*
X121299999Y-107300000D02*
X107300001Y-107300000D01*
X107300001Y-107300000D02*
X107300001Y-107900001D01*
X107300001Y-107900001D02*
X106500000Y-107900001D01*
X106500000Y-107900001D02*
X106500000Y-120699999D01*
X106500000Y-120699999D02*
X107300001Y-120699999D01*
X107300001Y-120699999D02*
X107300001Y-121300000D01*
X107300001Y-121300000D02*
X121299999Y-121300000D01*
X254649999Y-121300000D02*
X254649999Y-120699999D01*
X254649999Y-120699999D02*
X255449999Y-120699999D01*
X255449999Y-120699999D02*
X255449999Y-107900001D01*
X255449999Y-107900001D02*
X254649999Y-107900001D01*
X254649999Y-107900001D02*
X254649999Y-107300000D01*
X254649999Y-107300000D02*
X240650001Y-107300000D01*
X240650001Y-107300000D02*
X240650001Y-107900001D01*
X240650001Y-107900001D02*
X239850000Y-107900001D01*
X239850000Y-107900001D02*
X239850000Y-120699999D01*
X239850000Y-120699999D02*
X240650001Y-120699999D01*
X240650001Y-120699999D02*
X240650001Y-121300000D01*
X240650001Y-121300000D02*
X254649999Y-121300000D01*
X311799999Y-121300000D02*
X311799999Y-120699999D01*
X311799999Y-120699999D02*
X312599999Y-120699999D01*
X312599999Y-120699999D02*
X312599999Y-107900001D01*
X312599999Y-107900001D02*
X311799999Y-107900001D01*
X311799999Y-107900001D02*
X311799999Y-107300000D01*
X311799999Y-107300000D02*
X297800001Y-107300000D01*
X297800001Y-107300000D02*
X297800001Y-107900001D01*
X297800001Y-107900001D02*
X297000000Y-107900001D01*
X297000000Y-107900001D02*
X297000000Y-120699999D01*
X297000000Y-120699999D02*
X297800001Y-120699999D01*
X297800001Y-120699999D02*
X297800001Y-121300000D01*
X297800001Y-121300000D02*
X311799999Y-121300000D01*
X178449999Y-121300000D02*
X178449999Y-120699999D01*
X178449999Y-120699999D02*
X179249999Y-120699999D01*
X179249999Y-120699999D02*
X179249999Y-107900001D01*
X179249999Y-107900001D02*
X178449999Y-107900001D01*
X178449999Y-107900001D02*
X178449999Y-107300000D01*
X178449999Y-107300000D02*
X164450001Y-107300000D01*
X164450001Y-107300000D02*
X164450001Y-107900001D01*
X164450001Y-107900001D02*
X163650000Y-107900001D01*
X163650000Y-107900001D02*
X163650000Y-120699999D01*
X163650000Y-120699999D02*
X164450001Y-120699999D01*
X164450001Y-120699999D02*
X164450001Y-121300000D01*
X164450001Y-121300000D02*
X178449999Y-121300000D01*
X235599999Y-121300000D02*
X235599999Y-120699999D01*
X235599999Y-120699999D02*
X236399999Y-120699999D01*
X236399999Y-120699999D02*
X236399999Y-107900001D01*
X236399999Y-107900001D02*
X235599999Y-107900001D01*
X235599999Y-107900001D02*
X235599999Y-107300000D01*
X235599999Y-107300000D02*
X221600001Y-107300000D01*
X221600001Y-107300000D02*
X221600001Y-107900001D01*
X221600001Y-107900001D02*
X220800000Y-107900001D01*
X220800000Y-107900001D02*
X220800000Y-120699999D01*
X220800000Y-120699999D02*
X221600001Y-120699999D01*
X221600001Y-120699999D02*
X221600001Y-121300000D01*
X221600001Y-121300000D02*
X235599999Y-121300000D01*
M02*
