  0
SECTION
  2
HEADER
  9
$ANGBASE
  50
0.0
  9
$ANGDIR
  70
1
  9
$MEASUREMENT
  70
0
  0
ENDSEC
  0
SECTION
  2
TABLES
  0
TABLE
  2
LTYPE
  70
4
  0
LTYPE
  5
40F
  2
CONTINUOUS
  70
0
  3
Solid line
  72
65
  73
0
  40
0.0
  0
LTYPE
  5
410
  2
DASHDOT
 70
0
  3
Dash Dot ____ _ ____ _
 72
65
 73
4
 40
2.0
 49
1.25
 49
-0.25
 49
0.25
 49
-0.25
  0
LTYPE
  5
411
  2
DASHED
 70
0
  3
Dashed __ __ __ __ __
 72
65
 73
2
 40
0.75
 49
0.5
 49
-0.25
  0
LTYPE
  5
43B
  2
DOTTED
 70
0
  3
Dotted .  .  .  .
 72
65
 73
2
 40
0.2
 49
0.0
 49
-0.2
  0
ENDTAB
  0
TABLE
  2
STYLE
  70
4
  0
STYLE
  2
KICAD
  70
0
  40
0
  41
1
  42
1
  50
0
  71
0
  3
isocp.shx
  0
STYLE
  2
KICADB
  70
0
  40
0
  41
1
  42
1
  50
0
  71
0
  3
isocp.shx
  0
STYLE
  2
KICADI
  70
0
  40
0
  41
1
  42
1
  50
15
  71
0
  3
isocp.shx
  0
STYLE
  2
KICADBI
  70
0
  40
0
  41
1
  42
1
  50
15
  71
0
  3
isocp.shx
  0
ENDTAB
  0
TABLE
  2
LAYER
  70
1
  0
LAYER
  2
BLACK
  70
0
  62
7
  6
CONTINUOUS
  0
ENDTAB
  0
ENDSEC
  0
SECTION
  2
ENTITIES
0
LINE
8
BLACK
6
CONTINUOUS
10
11.6399
20
-4.07579
11
11.6492
21
-4.07964
0
LINE
8
BLACK
6
CONTINUOUS
10
11.6492
20
-4.07964
11
11.6576
21
-4.08525
0
LINE
8
BLACK
6
CONTINUOUS
10
11.6576
20
-4.08525
11
11.6648
21
-4.09237
0
LINE
8
BLACK
6
CONTINUOUS
10
11.6648
20
-4.09237
11
11.6704
21
-4.10076
0
LINE
8
BLACK
6
CONTINUOUS
10
11.6704
20
-4.10076
11
11.6742
21
-4.11007
0
LINE
8
BLACK
6
CONTINUOUS
10
11.6742
20
-4.11007
11
11.6762
21
-4.11996
0
LINE
8
BLACK
6
CONTINUOUS
10
11.6762
20
-4.11996
11
11.6762
21
-4.13004
0
LINE
8
BLACK
6
CONTINUOUS
10
11.6762
20
-4.13004
11
11.6742
21
-4.13993
0
LINE
8
BLACK
6
CONTINUOUS
10
11.6742
20
-4.13993
11
11.6704
21
-4.14924
0
LINE
8
BLACK
6
CONTINUOUS
10
11.6704
20
-4.14924
11
11.6648
21
-4.15763
0
LINE
8
BLACK
6
CONTINUOUS
10
11.6648
20
-4.15763
11
11.6576
21
-4.16475
0
LINE
8
BLACK
6
CONTINUOUS
10
11.6576
20
-4.16475
11
11.6492
21
-4.17036
0
LINE
8
BLACK
6
CONTINUOUS
10
11.6492
20
-4.17036
11
11.6399
21
-4.17421
0
LINE
8
BLACK
6
CONTINUOUS
10
11.6399
20
-4.17421
11
11.63
21
-4.17618
0
LINE
8
BLACK
6
CONTINUOUS
10
11.63
20
-4.17618
11
11.62
21
-4.17618
0
LINE
8
BLACK
6
CONTINUOUS
10
11.62
20
-4.17618
11
11.6101
21
-4.17421
0
LINE
8
BLACK
6
CONTINUOUS
10
11.6101
20
-4.17421
11
11.6008
21
-4.17036
0
LINE
8
BLACK
6
CONTINUOUS
10
11.6008
20
-4.17036
11
11.5924
21
-4.16475
0
LINE
8
BLACK
6
CONTINUOUS
10
11.5924
20
-4.16475
11
11.5852
21
-4.15763
0
LINE
8
BLACK
6
CONTINUOUS
10
11.5852
20
-4.15763
11
11.5796
21
-4.14924
0
LINE
8
BLACK
6
CONTINUOUS
10
11.5796
20
-4.14924
11
11.5758
21
-4.13993
0
LINE
8
BLACK
6
CONTINUOUS
10
11.5758
20
-4.13993
11
11.5738
21
-4.13004
0
LINE
8
BLACK
6
CONTINUOUS
10
11.5738
20
-4.13004
11
11.5738
21
-4.11996
0
LINE
8
BLACK
6
CONTINUOUS
10
11.5738
20
-4.11996
11
11.5758
21
-4.11007
0
LINE
8
BLACK
6
CONTINUOUS
10
11.5758
20
-4.11007
11
11.5796
21
-4.10076
0
LINE
8
BLACK
6
CONTINUOUS
10
11.5796
20
-4.10076
11
11.5852
21
-4.09237
0
LINE
8
BLACK
6
CONTINUOUS
10
11.5852
20
-4.09237
11
11.5924
21
-4.08525
0
LINE
8
BLACK
6
CONTINUOUS
10
11.5924
20
-4.08525
11
11.6008
21
-4.07964
0
LINE
8
BLACK
6
CONTINUOUS
10
11.6008
20
-4.07964
11
11.6101
21
-4.07579
0
LINE
8
BLACK
6
CONTINUOUS
10
11.6101
20
-4.07579
11
11.62
21
-4.07382
0
LINE
8
BLACK
6
CONTINUOUS
10
11.62
20
-4.07382
11
11.63
21
-4.07382
0
LINE
8
BLACK
6
CONTINUOUS
10
11.63
20
-4.07382
11
11.6399
21
-4.07579
0
LINE
8
BLACK
6
CONTINUOUS
10
1.88993
20
-4.07579
11
1.89924
21
-4.07964
0
LINE
8
BLACK
6
CONTINUOUS
10
1.89924
20
-4.07964
11
1.90763
21
-4.08525
0
LINE
8
BLACK
6
CONTINUOUS
10
1.90763
20
-4.08525
11
1.91475
21
-4.09237
0
LINE
8
BLACK
6
CONTINUOUS
10
1.91475
20
-4.09237
11
1.92036
21
-4.10076
0
LINE
8
BLACK
6
CONTINUOUS
10
1.92036
20
-4.10076
11
1.92421
21
-4.11007
0
LINE
8
BLACK
6
CONTINUOUS
10
1.92421
20
-4.11007
11
1.92618
21
-4.11996
0
LINE
8
BLACK
6
CONTINUOUS
10
1.92618
20
-4.11996
11
1.92618
21
-4.13004
0
LINE
8
BLACK
6
CONTINUOUS
10
1.92618
20
-4.13004
11
1.92421
21
-4.13993
0
LINE
8
BLACK
6
CONTINUOUS
10
1.92421
20
-4.13993
11
1.92036
21
-4.14924
0
LINE
8
BLACK
6
CONTINUOUS
10
1.92036
20
-4.14924
11
1.91475
21
-4.15763
0
LINE
8
BLACK
6
CONTINUOUS
10
1.91475
20
-4.15763
11
1.90763
21
-4.16475
0
LINE
8
BLACK
6
CONTINUOUS
10
1.90763
20
-4.16475
11
1.89924
21
-4.17036
0
LINE
8
BLACK
6
CONTINUOUS
10
1.89924
20
-4.17036
11
1.88993
21
-4.17421
0
LINE
8
BLACK
6
CONTINUOUS
10
1.88993
20
-4.17421
11
1.88004
21
-4.17618
0
LINE
8
BLACK
6
CONTINUOUS
10
1.88004
20
-4.17618
11
1.86996
21
-4.17618
0
LINE
8
BLACK
6
CONTINUOUS
10
1.86996
20
-4.17618
11
1.86007
21
-4.17421
0
LINE
8
BLACK
6
CONTINUOUS
10
1.86007
20
-4.17421
11
1.85076
21
-4.17036
0
LINE
8
BLACK
6
CONTINUOUS
10
1.85076
20
-4.17036
11
1.84237
21
-4.16475
0
LINE
8
BLACK
6
CONTINUOUS
10
1.84237
20
-4.16475
11
1.83525
21
-4.15763
0
LINE
8
BLACK
6
CONTINUOUS
10
1.83525
20
-4.15763
11
1.82964
21
-4.14924
0
LINE
8
BLACK
6
CONTINUOUS
10
1.82964
20
-4.14924
11
1.82579
21
-4.13993
0
LINE
8
BLACK
6
CONTINUOUS
10
1.82579
20
-4.13993
11
1.82382
21
-4.13004
0
LINE
8
BLACK
6
CONTINUOUS
10
1.82382
20
-4.13004
11
1.82382
21
-4.11996
0
LINE
8
BLACK
6
CONTINUOUS
10
1.82382
20
-4.11996
11
1.82579
21
-4.11007
0
LINE
8
BLACK
6
CONTINUOUS
10
1.82579
20
-4.11007
11
1.82964
21
-4.10076
0
LINE
8
BLACK
6
CONTINUOUS
10
1.82964
20
-4.10076
11
1.83525
21
-4.09237
0
LINE
8
BLACK
6
CONTINUOUS
10
1.83525
20
-4.09237
11
1.84237
21
-4.08525
0
LINE
8
BLACK
6
CONTINUOUS
10
1.84237
20
-4.08525
11
1.85076
21
-4.07964
0
LINE
8
BLACK
6
CONTINUOUS
10
1.85076
20
-4.07964
11
1.86007
21
-4.07579
0
LINE
8
BLACK
6
CONTINUOUS
10
1.86007
20
-4.07579
11
1.86996
21
-4.07382
0
LINE
8
BLACK
6
CONTINUOUS
10
1.86996
20
-4.07382
11
1.88004
21
-4.07382
0
LINE
8
BLACK
6
CONTINUOUS
10
1.88004
20
-4.07382
11
1.88993
21
-4.07579
0
LINE
8
BLACK
6
CONTINUOUS
10
8.63993
20
-4.07579
11
8.64924
21
-4.07964
0
LINE
8
BLACK
6
CONTINUOUS
10
8.64924
20
-4.07964
11
8.65763
21
-4.08525
0
LINE
8
BLACK
6
CONTINUOUS
10
8.65763
20
-4.08525
11
8.66475
21
-4.09237
0
LINE
8
BLACK
6
CONTINUOUS
10
8.66475
20
-4.09237
11
8.67036
21
-4.10076
0
LINE
8
BLACK
6
CONTINUOUS
10
8.67036
20
-4.10076
11
8.67421
21
-4.11007
0
LINE
8
BLACK
6
CONTINUOUS
10
8.67421
20
-4.11007
11
8.67618
21
-4.11996
0
LINE
8
BLACK
6
CONTINUOUS
10
8.67618
20
-4.11996
11
8.67618
21
-4.13004
0
LINE
8
BLACK
6
CONTINUOUS
10
8.67618
20
-4.13004
11
8.67421
21
-4.13993
0
LINE
8
BLACK
6
CONTINUOUS
10
8.67421
20
-4.13993
11
8.67036
21
-4.14924
0
LINE
8
BLACK
6
CONTINUOUS
10
8.67036
20
-4.14924
11
8.66475
21
-4.15763
0
LINE
8
BLACK
6
CONTINUOUS
10
8.66475
20
-4.15763
11
8.65763
21
-4.16475
0
LINE
8
BLACK
6
CONTINUOUS
10
8.65763
20
-4.16475
11
8.64924
21
-4.17036
0
LINE
8
BLACK
6
CONTINUOUS
10
8.64924
20
-4.17036
11
8.63993
21
-4.17421
0
LINE
8
BLACK
6
CONTINUOUS
10
8.63993
20
-4.17421
11
8.63004
21
-4.17618
0
LINE
8
BLACK
6
CONTINUOUS
10
8.63004
20
-4.17618
11
8.61996
21
-4.17618
0
LINE
8
BLACK
6
CONTINUOUS
10
8.61996
20
-4.17618
11
8.61007
21
-4.17421
0
LINE
8
BLACK
6
CONTINUOUS
10
8.61007
20
-4.17421
11
8.60076
21
-4.17036
0
LINE
8
BLACK
6
CONTINUOUS
10
8.60076
20
-4.17036
11
8.59237
21
-4.16475
0
LINE
8
BLACK
6
CONTINUOUS
10
8.59237
20
-4.16475
11
8.58525
21
-4.15763
0
LINE
8
BLACK
6
CONTINUOUS
10
8.58525
20
-4.15763
11
8.57964
21
-4.14924
0
LINE
8
BLACK
6
CONTINUOUS
10
8.57964
20
-4.14924
11
8.57579
21
-4.13993
0
LINE
8
BLACK
6
CONTINUOUS
10
8.57579
20
-4.13993
11
8.57382
21
-4.13004
0
LINE
8
BLACK
6
CONTINUOUS
10
8.57382
20
-4.13004
11
8.57382
21
-4.11996
0
LINE
8
BLACK
6
CONTINUOUS
10
8.57382
20
-4.11996
11
8.57579
21
-4.11007
0
LINE
8
BLACK
6
CONTINUOUS
10
8.57579
20
-4.11007
11
8.57964
21
-4.10076
0
LINE
8
BLACK
6
CONTINUOUS
10
8.57964
20
-4.10076
11
8.58525
21
-4.09237
0
LINE
8
BLACK
6
CONTINUOUS
10
8.58525
20
-4.09237
11
8.59237
21
-4.08525
0
LINE
8
BLACK
6
CONTINUOUS
10
8.59237
20
-4.08525
11
8.60076
21
-4.07964
0
LINE
8
BLACK
6
CONTINUOUS
10
8.60076
20
-4.07964
11
8.61007
21
-4.07579
0
LINE
8
BLACK
6
CONTINUOUS
10
8.61007
20
-4.07579
11
8.61996
21
-4.07382
0
LINE
8
BLACK
6
CONTINUOUS
10
8.61996
20
-4.07382
11
8.63004
21
-4.07382
0
LINE
8
BLACK
6
CONTINUOUS
10
8.63004
20
-4.07382
11
8.63993
21
-4.07579
0
LINE
8
BLACK
6
CONTINUOUS
10
4.88993
20
-4.07579
11
4.89924
21
-4.07964
0
LINE
8
BLACK
6
CONTINUOUS
10
4.89924
20
-4.07964
11
4.90763
21
-4.08525
0
LINE
8
BLACK
6
CONTINUOUS
10
4.90763
20
-4.08525
11
4.91475
21
-4.09237
0
LINE
8
BLACK
6
CONTINUOUS
10
4.91475
20
-4.09237
11
4.92036
21
-4.10076
0
LINE
8
BLACK
6
CONTINUOUS
10
4.92036
20
-4.10076
11
4.92421
21
-4.11007
0
LINE
8
BLACK
6
CONTINUOUS
10
4.92421
20
-4.11007
11
4.92618
21
-4.11996
0
LINE
8
BLACK
6
CONTINUOUS
10
4.92618
20
-4.11996
11
4.92618
21
-4.13004
0
LINE
8
BLACK
6
CONTINUOUS
10
4.92618
20
-4.13004
11
4.92421
21
-4.13993
0
LINE
8
BLACK
6
CONTINUOUS
10
4.92421
20
-4.13993
11
4.92036
21
-4.14924
0
LINE
8
BLACK
6
CONTINUOUS
10
4.92036
20
-4.14924
11
4.91475
21
-4.15763
0
LINE
8
BLACK
6
CONTINUOUS
10
4.91475
20
-4.15763
11
4.90763
21
-4.16475
0
LINE
8
BLACK
6
CONTINUOUS
10
4.90763
20
-4.16475
11
4.89924
21
-4.17036
0
LINE
8
BLACK
6
CONTINUOUS
10
4.89924
20
-4.17036
11
4.88993
21
-4.17421
0
LINE
8
BLACK
6
CONTINUOUS
10
4.88993
20
-4.17421
11
4.88004
21
-4.17618
0
LINE
8
BLACK
6
CONTINUOUS
10
4.88004
20
-4.17618
11
4.86996
21
-4.17618
0
LINE
8
BLACK
6
CONTINUOUS
10
4.86996
20
-4.17618
11
4.86007
21
-4.17421
0
LINE
8
BLACK
6
CONTINUOUS
10
4.86007
20
-4.17421
11
4.85076
21
-4.17036
0
LINE
8
BLACK
6
CONTINUOUS
10
4.85076
20
-4.17036
11
4.84237
21
-4.16475
0
LINE
8
BLACK
6
CONTINUOUS
10
4.84237
20
-4.16475
11
4.83525
21
-4.15763
0
LINE
8
BLACK
6
CONTINUOUS
10
4.83525
20
-4.15763
11
4.82964
21
-4.14924
0
LINE
8
BLACK
6
CONTINUOUS
10
4.82964
20
-4.14924
11
4.82579
21
-4.13993
0
LINE
8
BLACK
6
CONTINUOUS
10
4.82579
20
-4.13993
11
4.82382
21
-4.13004
0
LINE
8
BLACK
6
CONTINUOUS
10
4.82382
20
-4.13004
11
4.82382
21
-4.11996
0
LINE
8
BLACK
6
CONTINUOUS
10
4.82382
20
-4.11996
11
4.82579
21
-4.11007
0
LINE
8
BLACK
6
CONTINUOUS
10
4.82579
20
-4.11007
11
4.82964
21
-4.10076
0
LINE
8
BLACK
6
CONTINUOUS
10
4.82964
20
-4.10076
11
4.83525
21
-4.09237
0
LINE
8
BLACK
6
CONTINUOUS
10
4.83525
20
-4.09237
11
4.84237
21
-4.08525
0
LINE
8
BLACK
6
CONTINUOUS
10
4.84237
20
-4.08525
11
4.85076
21
-4.07964
0
LINE
8
BLACK
6
CONTINUOUS
10
4.85076
20
-4.07964
11
4.86007
21
-4.07579
0
LINE
8
BLACK
6
CONTINUOUS
10
4.86007
20
-4.07579
11
4.86996
21
-4.07382
0
LINE
8
BLACK
6
CONTINUOUS
10
4.86996
20
-4.07382
11
4.88004
21
-4.07382
0
LINE
8
BLACK
6
CONTINUOUS
10
4.88004
20
-4.07382
11
4.88993
21
-4.07579
0
LINE
8
BLACK
6
CONTINUOUS
10
10.1399
20
-3.32579
11
10.1492
21
-3.32964
0
LINE
8
BLACK
6
CONTINUOUS
10
10.1492
20
-3.32964
11
10.1576
21
-3.33525
0
LINE
8
BLACK
6
CONTINUOUS
10
10.1576
20
-3.33525
11
10.1648
21
-3.34237
0
LINE
8
BLACK
6
CONTINUOUS
10
10.1648
20
-3.34237
11
10.1704
21
-3.35076
0
LINE
8
BLACK
6
CONTINUOUS
10
10.1704
20
-3.35076
11
10.1742
21
-3.36007
0
LINE
8
BLACK
6
CONTINUOUS
10
10.1742
20
-3.36007
11
10.1762
21
-3.36996
0
LINE
8
BLACK
6
CONTINUOUS
10
10.1762
20
-3.36996
11
10.1762
21
-3.38004
0
LINE
8
BLACK
6
CONTINUOUS
10
10.1762
20
-3.38004
11
10.1742
21
-3.38993
0
LINE
8
BLACK
6
CONTINUOUS
10
10.1742
20
-3.38993
11
10.1704
21
-3.39924
0
LINE
8
BLACK
6
CONTINUOUS
10
10.1704
20
-3.39924
11
10.1648
21
-3.40763
0
LINE
8
BLACK
6
CONTINUOUS
10
10.1648
20
-3.40763
11
10.1576
21
-3.41475
0
LINE
8
BLACK
6
CONTINUOUS
10
10.1576
20
-3.41475
11
10.1492
21
-3.42036
0
LINE
8
BLACK
6
CONTINUOUS
10
10.1492
20
-3.42036
11
10.1399
21
-3.42421
0
LINE
8
BLACK
6
CONTINUOUS
10
10.1399
20
-3.42421
11
10.13
21
-3.42618
0
LINE
8
BLACK
6
CONTINUOUS
10
10.13
20
-3.42618
11
10.12
21
-3.42618
0
LINE
8
BLACK
6
CONTINUOUS
10
10.12
20
-3.42618
11
10.1101
21
-3.42421
0
LINE
8
BLACK
6
CONTINUOUS
10
10.1101
20
-3.42421
11
10.1008
21
-3.42036
0
LINE
8
BLACK
6
CONTINUOUS
10
10.1008
20
-3.42036
11
10.0924
21
-3.41475
0
LINE
8
BLACK
6
CONTINUOUS
10
10.0924
20
-3.41475
11
10.0852
21
-3.40763
0
LINE
8
BLACK
6
CONTINUOUS
10
10.0852
20
-3.40763
11
10.0796
21
-3.39924
0
LINE
8
BLACK
6
CONTINUOUS
10
10.0796
20
-3.39924
11
10.0758
21
-3.38993
0
LINE
8
BLACK
6
CONTINUOUS
10
10.0758
20
-3.38993
11
10.0738
21
-3.38004
0
LINE
8
BLACK
6
CONTINUOUS
10
10.0738
20
-3.38004
11
10.0738
21
-3.36996
0
LINE
8
BLACK
6
CONTINUOUS
10
10.0738
20
-3.36996
11
10.0758
21
-3.36007
0
LINE
8
BLACK
6
CONTINUOUS
10
10.0758
20
-3.36007
11
10.0796
21
-3.35076
0
LINE
8
BLACK
6
CONTINUOUS
10
10.0796
20
-3.35076
11
10.0852
21
-3.34237
0
LINE
8
BLACK
6
CONTINUOUS
10
10.0852
20
-3.34237
11
10.0924
21
-3.33525
0
LINE
8
BLACK
6
CONTINUOUS
10
10.0924
20
-3.33525
11
10.1008
21
-3.32964
0
LINE
8
BLACK
6
CONTINUOUS
10
10.1008
20
-3.32964
11
10.1101
21
-3.32579
0
LINE
8
BLACK
6
CONTINUOUS
10
10.1101
20
-3.32579
11
10.12
21
-3.32382
0
LINE
8
BLACK
6
CONTINUOUS
10
10.12
20
-3.32382
11
10.13
21
-3.32382
0
LINE
8
BLACK
6
CONTINUOUS
10
10.13
20
-3.32382
11
10.1399
21
-3.32579
0
LINE
8
BLACK
6
CONTINUOUS
10
3.38993
20
-3.32579
11
3.39924
21
-3.32964
0
LINE
8
BLACK
6
CONTINUOUS
10
3.39924
20
-3.32964
11
3.40763
21
-3.33525
0
LINE
8
BLACK
6
CONTINUOUS
10
3.40763
20
-3.33525
11
3.41475
21
-3.34237
0
LINE
8
BLACK
6
CONTINUOUS
10
3.41475
20
-3.34237
11
3.42036
21
-3.35076
0
LINE
8
BLACK
6
CONTINUOUS
10
3.42036
20
-3.35076
11
3.42421
21
-3.36007
0
LINE
8
BLACK
6
CONTINUOUS
10
3.42421
20
-3.36007
11
3.42618
21
-3.36996
0
LINE
8
BLACK
6
CONTINUOUS
10
3.42618
20
-3.36996
11
3.42618
21
-3.38004
0
LINE
8
BLACK
6
CONTINUOUS
10
3.42618
20
-3.38004
11
3.42421
21
-3.38993
0
LINE
8
BLACK
6
CONTINUOUS
10
3.42421
20
-3.38993
11
3.42036
21
-3.39924
0
LINE
8
BLACK
6
CONTINUOUS
10
3.42036
20
-3.39924
11
3.41475
21
-3.40763
0
LINE
8
BLACK
6
CONTINUOUS
10
3.41475
20
-3.40763
11
3.40763
21
-3.41475
0
LINE
8
BLACK
6
CONTINUOUS
10
3.40763
20
-3.41475
11
3.39924
21
-3.42036
0
LINE
8
BLACK
6
CONTINUOUS
10
3.39924
20
-3.42036
11
3.38993
21
-3.42421
0
LINE
8
BLACK
6
CONTINUOUS
10
3.38993
20
-3.42421
11
3.38004
21
-3.42618
0
LINE
8
BLACK
6
CONTINUOUS
10
3.38004
20
-3.42618
11
3.36996
21
-3.42618
0
LINE
8
BLACK
6
CONTINUOUS
10
3.36996
20
-3.42618
11
3.36007
21
-3.42421
0
LINE
8
BLACK
6
CONTINUOUS
10
3.36007
20
-3.42421
11
3.35076
21
-3.42036
0
LINE
8
BLACK
6
CONTINUOUS
10
3.35076
20
-3.42036
11
3.34237
21
-3.41475
0
LINE
8
BLACK
6
CONTINUOUS
10
3.34237
20
-3.41475
11
3.33525
21
-3.40763
0
LINE
8
BLACK
6
CONTINUOUS
10
3.33525
20
-3.40763
11
3.32964
21
-3.39924
0
LINE
8
BLACK
6
CONTINUOUS
10
3.32964
20
-3.39924
11
3.32579
21
-3.38993
0
LINE
8
BLACK
6
CONTINUOUS
10
3.32579
20
-3.38993
11
3.32382
21
-3.38004
0
LINE
8
BLACK
6
CONTINUOUS
10
3.32382
20
-3.38004
11
3.32382
21
-3.36996
0
LINE
8
BLACK
6
CONTINUOUS
10
3.32382
20
-3.36996
11
3.32579
21
-3.36007
0
LINE
8
BLACK
6
CONTINUOUS
10
3.32579
20
-3.36007
11
3.32964
21
-3.35076
0
LINE
8
BLACK
6
CONTINUOUS
10
3.32964
20
-3.35076
11
3.33525
21
-3.34237
0
LINE
8
BLACK
6
CONTINUOUS
10
3.33525
20
-3.34237
11
3.34237
21
-3.33525
0
LINE
8
BLACK
6
CONTINUOUS
10
3.34237
20
-3.33525
11
3.35076
21
-3.32964
0
LINE
8
BLACK
6
CONTINUOUS
10
3.35076
20
-3.32964
11
3.36007
21
-3.32579
0
LINE
8
BLACK
6
CONTINUOUS
10
3.36007
20
-3.32579
11
3.36996
21
-3.32382
0
LINE
8
BLACK
6
CONTINUOUS
10
3.36996
20
-3.32382
11
3.38004
21
-3.32382
0
LINE
8
BLACK
6
CONTINUOUS
10
3.38004
20
-3.32382
11
3.38993
21
-3.32579
0
LINE
8
BLACK
6
CONTINUOUS
10
7.13993
20
-2.57579
11
7.14924
21
-2.57964
0
LINE
8
BLACK
6
CONTINUOUS
10
7.14924
20
-2.57964
11
7.15763
21
-2.58525
0
LINE
8
BLACK
6
CONTINUOUS
10
7.15763
20
-2.58525
11
7.16475
21
-2.59237
0
LINE
8
BLACK
6
CONTINUOUS
10
7.16475
20
-2.59237
11
7.17036
21
-2.60076
0
LINE
8
BLACK
6
CONTINUOUS
10
7.17036
20
-2.60076
11
7.17421
21
-2.61007
0
LINE
8
BLACK
6
CONTINUOUS
10
7.17421
20
-2.61007
11
7.17618
21
-2.61996
0
LINE
8
BLACK
6
CONTINUOUS
10
7.17618
20
-2.61996
11
7.17618
21
-2.63004
0
LINE
8
BLACK
6
CONTINUOUS
10
7.17618
20
-2.63004
11
7.17421
21
-2.63993
0
LINE
8
BLACK
6
CONTINUOUS
10
7.17421
20
-2.63993
11
7.17036
21
-2.64924
0
LINE
8
BLACK
6
CONTINUOUS
10
7.17036
20
-2.64924
11
7.16475
21
-2.65763
0
LINE
8
BLACK
6
CONTINUOUS
10
7.16475
20
-2.65763
11
7.15763
21
-2.66475
0
LINE
8
BLACK
6
CONTINUOUS
10
7.15763
20
-2.66475
11
7.14924
21
-2.67036
0
LINE
8
BLACK
6
CONTINUOUS
10
7.14924
20
-2.67036
11
7.13993
21
-2.67421
0
LINE
8
BLACK
6
CONTINUOUS
10
7.13993
20
-2.67421
11
7.13004
21
-2.67618
0
LINE
8
BLACK
6
CONTINUOUS
10
7.13004
20
-2.67618
11
7.11996
21
-2.67618
0
LINE
8
BLACK
6
CONTINUOUS
10
7.11996
20
-2.67618
11
7.11007
21
-2.67421
0
LINE
8
BLACK
6
CONTINUOUS
10
7.11007
20
-2.67421
11
7.10076
21
-2.67036
0
LINE
8
BLACK
6
CONTINUOUS
10
7.10076
20
-2.67036
11
7.09237
21
-2.66475
0
LINE
8
BLACK
6
CONTINUOUS
10
7.09237
20
-2.66475
11
7.08525
21
-2.65763
0
LINE
8
BLACK
6
CONTINUOUS
10
7.08525
20
-2.65763
11
7.07964
21
-2.64924
0
LINE
8
BLACK
6
CONTINUOUS
10
7.07964
20
-2.64924
11
7.07579
21
-2.63993
0
LINE
8
BLACK
6
CONTINUOUS
10
7.07579
20
-2.63993
11
7.07382
21
-2.63004
0
LINE
8
BLACK
6
CONTINUOUS
10
7.07382
20
-2.63004
11
7.07382
21
-2.61996
0
LINE
8
BLACK
6
CONTINUOUS
10
7.07382
20
-2.61996
11
7.07579
21
-2.61007
0
LINE
8
BLACK
6
CONTINUOUS
10
7.07579
20
-2.61007
11
7.07964
21
-2.60076
0
LINE
8
BLACK
6
CONTINUOUS
10
7.07964
20
-2.60076
11
7.08525
21
-2.59237
0
LINE
8
BLACK
6
CONTINUOUS
10
7.08525
20
-2.59237
11
7.09237
21
-2.58525
0
LINE
8
BLACK
6
CONTINUOUS
10
7.09237
20
-2.58525
11
7.10076
21
-2.57964
0
LINE
8
BLACK
6
CONTINUOUS
10
7.10076
20
-2.57964
11
7.11007
21
-2.57579
0
LINE
8
BLACK
6
CONTINUOUS
10
7.11007
20
-2.57579
11
7.11996
21
-2.57382
0
LINE
8
BLACK
6
CONTINUOUS
10
7.11996
20
-2.57382
11
7.13004
21
-2.57382
0
LINE
8
BLACK
6
CONTINUOUS
10
7.13004
20
-2.57382
11
7.13993
21
-2.57579
0
LINE
8
BLACK
6
CONTINUOUS
10
11.6399
20
-1.82579
11
11.6492
21
-1.82964
0
LINE
8
BLACK
6
CONTINUOUS
10
11.6492
20
-1.82964
11
11.6576
21
-1.83525
0
LINE
8
BLACK
6
CONTINUOUS
10
11.6576
20
-1.83525
11
11.6648
21
-1.84237
0
LINE
8
BLACK
6
CONTINUOUS
10
11.6648
20
-1.84237
11
11.6704
21
-1.85076
0
LINE
8
BLACK
6
CONTINUOUS
10
11.6704
20
-1.85076
11
11.6742
21
-1.86007
0
LINE
8
BLACK
6
CONTINUOUS
10
11.6742
20
-1.86007
11
11.6762
21
-1.86996
0
LINE
8
BLACK
6
CONTINUOUS
10
11.6762
20
-1.86996
11
11.6762
21
-1.88004
0
LINE
8
BLACK
6
CONTINUOUS
10
11.6762
20
-1.88004
11
11.6742
21
-1.88993
0
LINE
8
BLACK
6
CONTINUOUS
10
11.6742
20
-1.88993
11
11.6704
21
-1.89924
0
LINE
8
BLACK
6
CONTINUOUS
10
11.6704
20
-1.89924
11
11.6648
21
-1.90763
0
LINE
8
BLACK
6
CONTINUOUS
10
11.6648
20
-1.90763
11
11.6576
21
-1.91475
0
LINE
8
BLACK
6
CONTINUOUS
10
11.6576
20
-1.91475
11
11.6492
21
-1.92036
0
LINE
8
BLACK
6
CONTINUOUS
10
11.6492
20
-1.92036
11
11.6399
21
-1.92421
0
LINE
8
BLACK
6
CONTINUOUS
10
11.6399
20
-1.92421
11
11.63
21
-1.92618
0
LINE
8
BLACK
6
CONTINUOUS
10
11.63
20
-1.92618
11
11.62
21
-1.92618
0
LINE
8
BLACK
6
CONTINUOUS
10
11.62
20
-1.92618
11
11.6101
21
-1.92421
0
LINE
8
BLACK
6
CONTINUOUS
10
11.6101
20
-1.92421
11
11.6008
21
-1.92036
0
LINE
8
BLACK
6
CONTINUOUS
10
11.6008
20
-1.92036
11
11.5924
21
-1.91475
0
LINE
8
BLACK
6
CONTINUOUS
10
11.5924
20
-1.91475
11
11.5852
21
-1.90763
0
LINE
8
BLACK
6
CONTINUOUS
10
11.5852
20
-1.90763
11
11.5796
21
-1.89924
0
LINE
8
BLACK
6
CONTINUOUS
10
11.5796
20
-1.89924
11
11.5758
21
-1.88993
0
LINE
8
BLACK
6
CONTINUOUS
10
11.5758
20
-1.88993
11
11.5738
21
-1.88004
0
LINE
8
BLACK
6
CONTINUOUS
10
11.5738
20
-1.88004
11
11.5738
21
-1.86996
0
LINE
8
BLACK
6
CONTINUOUS
10
11.5738
20
-1.86996
11
11.5758
21
-1.86007
0
LINE
8
BLACK
6
CONTINUOUS
10
11.5758
20
-1.86007
11
11.5796
21
-1.85076
0
LINE
8
BLACK
6
CONTINUOUS
10
11.5796
20
-1.85076
11
11.5852
21
-1.84237
0
LINE
8
BLACK
6
CONTINUOUS
10
11.5852
20
-1.84237
11
11.5924
21
-1.83525
0
LINE
8
BLACK
6
CONTINUOUS
10
11.5924
20
-1.83525
11
11.6008
21
-1.82964
0
LINE
8
BLACK
6
CONTINUOUS
10
11.6008
20
-1.82964
11
11.6101
21
-1.82579
0
LINE
8
BLACK
6
CONTINUOUS
10
11.6101
20
-1.82579
11
11.62
21
-1.82382
0
LINE
8
BLACK
6
CONTINUOUS
10
11.62
20
-1.82382
11
11.63
21
-1.82382
0
LINE
8
BLACK
6
CONTINUOUS
10
11.63
20
-1.82382
11
11.6399
21
-1.82579
0
LINE
8
BLACK
6
CONTINUOUS
10
8.63993
20
-1.82579
11
8.64924
21
-1.82964
0
LINE
8
BLACK
6
CONTINUOUS
10
8.64924
20
-1.82964
11
8.65763
21
-1.83525
0
LINE
8
BLACK
6
CONTINUOUS
10
8.65763
20
-1.83525
11
8.66475
21
-1.84237
0
LINE
8
BLACK
6
CONTINUOUS
10
8.66475
20
-1.84237
11
8.67036
21
-1.85076
0
LINE
8
BLACK
6
CONTINUOUS
10
8.67036
20
-1.85076
11
8.67421
21
-1.86007
0
LINE
8
BLACK
6
CONTINUOUS
10
8.67421
20
-1.86007
11
8.67618
21
-1.86996
0
LINE
8
BLACK
6
CONTINUOUS
10
8.67618
20
-1.86996
11
8.67618
21
-1.88004
0
LINE
8
BLACK
6
CONTINUOUS
10
8.67618
20
-1.88004
11
8.67421
21
-1.88993
0
LINE
8
BLACK
6
CONTINUOUS
10
8.67421
20
-1.88993
11
8.67036
21
-1.89924
0
LINE
8
BLACK
6
CONTINUOUS
10
8.67036
20
-1.89924
11
8.66475
21
-1.90763
0
LINE
8
BLACK
6
CONTINUOUS
10
8.66475
20
-1.90763
11
8.65763
21
-1.91475
0
LINE
8
BLACK
6
CONTINUOUS
10
8.65763
20
-1.91475
11
8.64924
21
-1.92036
0
LINE
8
BLACK
6
CONTINUOUS
10
8.64924
20
-1.92036
11
8.63993
21
-1.92421
0
LINE
8
BLACK
6
CONTINUOUS
10
8.63993
20
-1.92421
11
8.63004
21
-1.92618
0
LINE
8
BLACK
6
CONTINUOUS
10
8.63004
20
-1.92618
11
8.61996
21
-1.92618
0
LINE
8
BLACK
6
CONTINUOUS
10
8.61996
20
-1.92618
11
8.61007
21
-1.92421
0
LINE
8
BLACK
6
CONTINUOUS
10
8.61007
20
-1.92421
11
8.60076
21
-1.92036
0
LINE
8
BLACK
6
CONTINUOUS
10
8.60076
20
-1.92036
11
8.59237
21
-1.91475
0
LINE
8
BLACK
6
CONTINUOUS
10
8.59237
20
-1.91475
11
8.58525
21
-1.90763
0
LINE
8
BLACK
6
CONTINUOUS
10
8.58525
20
-1.90763
11
8.57964
21
-1.89924
0
LINE
8
BLACK
6
CONTINUOUS
10
8.57964
20
-1.89924
11
8.57579
21
-1.88993
0
LINE
8
BLACK
6
CONTINUOUS
10
8.57579
20
-1.88993
11
8.57382
21
-1.88004
0
LINE
8
BLACK
6
CONTINUOUS
10
8.57382
20
-1.88004
11
8.57382
21
-1.86996
0
LINE
8
BLACK
6
CONTINUOUS
10
8.57382
20
-1.86996
11
8.57579
21
-1.86007
0
LINE
8
BLACK
6
CONTINUOUS
10
8.57579
20
-1.86007
11
8.57964
21
-1.85076
0
LINE
8
BLACK
6
CONTINUOUS
10
8.57964
20
-1.85076
11
8.58525
21
-1.84237
0
LINE
8
BLACK
6
CONTINUOUS
10
8.58525
20
-1.84237
11
8.59237
21
-1.83525
0
LINE
8
BLACK
6
CONTINUOUS
10
8.59237
20
-1.83525
11
8.60076
21
-1.82964
0
LINE
8
BLACK
6
CONTINUOUS
10
8.60076
20
-1.82964
11
8.61007
21
-1.82579
0
LINE
8
BLACK
6
CONTINUOUS
10
8.61007
20
-1.82579
11
8.61996
21
-1.82382
0
LINE
8
BLACK
6
CONTINUOUS
10
8.61996
20
-1.82382
11
8.63004
21
-1.82382
0
LINE
8
BLACK
6
CONTINUOUS
10
8.63004
20
-1.82382
11
8.63993
21
-1.82579
0
LINE
8
BLACK
6
CONTINUOUS
10
4.88993
20
-1.82579
11
4.89924
21
-1.82964
0
LINE
8
BLACK
6
CONTINUOUS
10
4.89924
20
-1.82964
11
4.90763
21
-1.83525
0
LINE
8
BLACK
6
CONTINUOUS
10
4.90763
20
-1.83525
11
4.91475
21
-1.84237
0
LINE
8
BLACK
6
CONTINUOUS
10
4.91475
20
-1.84237
11
4.92036
21
-1.85076
0
LINE
8
BLACK
6
CONTINUOUS
10
4.92036
20
-1.85076
11
4.92421
21
-1.86007
0
LINE
8
BLACK
6
CONTINUOUS
10
4.92421
20
-1.86007
11
4.92618
21
-1.86996
0
LINE
8
BLACK
6
CONTINUOUS
10
4.92618
20
-1.86996
11
4.92618
21
-1.88004
0
LINE
8
BLACK
6
CONTINUOUS
10
4.92618
20
-1.88004
11
4.92421
21
-1.88993
0
LINE
8
BLACK
6
CONTINUOUS
10
4.92421
20
-1.88993
11
4.92036
21
-1.89924
0
LINE
8
BLACK
6
CONTINUOUS
10
4.92036
20
-1.89924
11
4.91475
21
-1.90763
0
LINE
8
BLACK
6
CONTINUOUS
10
4.91475
20
-1.90763
11
4.90763
21
-1.91475
0
LINE
8
BLACK
6
CONTINUOUS
10
4.90763
20
-1.91475
11
4.89924
21
-1.92036
0
LINE
8
BLACK
6
CONTINUOUS
10
4.89924
20
-1.92036
11
4.88993
21
-1.92421
0
LINE
8
BLACK
6
CONTINUOUS
10
4.88993
20
-1.92421
11
4.88004
21
-1.92618
0
LINE
8
BLACK
6
CONTINUOUS
10
4.88004
20
-1.92618
11
4.86996
21
-1.92618
0
LINE
8
BLACK
6
CONTINUOUS
10
4.86996
20
-1.92618
11
4.86007
21
-1.92421
0
LINE
8
BLACK
6
CONTINUOUS
10
4.86007
20
-1.92421
11
4.85076
21
-1.92036
0
LINE
8
BLACK
6
CONTINUOUS
10
4.85076
20
-1.92036
11
4.84237
21
-1.91475
0
LINE
8
BLACK
6
CONTINUOUS
10
4.84237
20
-1.91475
11
4.83525
21
-1.90763
0
LINE
8
BLACK
6
CONTINUOUS
10
4.83525
20
-1.90763
11
4.82964
21
-1.89924
0
LINE
8
BLACK
6
CONTINUOUS
10
4.82964
20
-1.89924
11
4.82579
21
-1.88993
0
LINE
8
BLACK
6
CONTINUOUS
10
4.82579
20
-1.88993
11
4.82382
21
-1.88004
0
LINE
8
BLACK
6
CONTINUOUS
10
4.82382
20
-1.88004
11
4.82382
21
-1.86996
0
LINE
8
BLACK
6
CONTINUOUS
10
4.82382
20
-1.86996
11
4.82579
21
-1.86007
0
LINE
8
BLACK
6
CONTINUOUS
10
4.82579
20
-1.86007
11
4.82964
21
-1.85076
0
LINE
8
BLACK
6
CONTINUOUS
10
4.82964
20
-1.85076
11
4.83525
21
-1.84237
0
LINE
8
BLACK
6
CONTINUOUS
10
4.83525
20
-1.84237
11
4.84237
21
-1.83525
0
LINE
8
BLACK
6
CONTINUOUS
10
4.84237
20
-1.83525
11
4.85076
21
-1.82964
0
LINE
8
BLACK
6
CONTINUOUS
10
4.85076
20
-1.82964
11
4.86007
21
-1.82579
0
LINE
8
BLACK
6
CONTINUOUS
10
4.86007
20
-1.82579
11
4.86996
21
-1.82382
0
LINE
8
BLACK
6
CONTINUOUS
10
4.86996
20
-1.82382
11
4.88004
21
-1.82382
0
LINE
8
BLACK
6
CONTINUOUS
10
4.88004
20
-1.82382
11
4.88993
21
-1.82579
0
LINE
8
BLACK
6
CONTINUOUS
10
1.88993
20
-1.82579
11
1.89924
21
-1.82964
0
LINE
8
BLACK
6
CONTINUOUS
10
1.89924
20
-1.82964
11
1.90763
21
-1.83525
0
LINE
8
BLACK
6
CONTINUOUS
10
1.90763
20
-1.83525
11
1.91475
21
-1.84237
0
LINE
8
BLACK
6
CONTINUOUS
10
1.91475
20
-1.84237
11
1.92036
21
-1.85076
0
LINE
8
BLACK
6
CONTINUOUS
10
1.92036
20
-1.85076
11
1.92421
21
-1.86007
0
LINE
8
BLACK
6
CONTINUOUS
10
1.92421
20
-1.86007
11
1.92618
21
-1.86996
0
LINE
8
BLACK
6
CONTINUOUS
10
1.92618
20
-1.86996
11
1.92618
21
-1.88004
0
LINE
8
BLACK
6
CONTINUOUS
10
1.92618
20
-1.88004
11
1.92421
21
-1.88993
0
LINE
8
BLACK
6
CONTINUOUS
10
1.92421
20
-1.88993
11
1.92036
21
-1.89924
0
LINE
8
BLACK
6
CONTINUOUS
10
1.92036
20
-1.89924
11
1.91475
21
-1.90763
0
LINE
8
BLACK
6
CONTINUOUS
10
1.91475
20
-1.90763
11
1.90763
21
-1.91475
0
LINE
8
BLACK
6
CONTINUOUS
10
1.90763
20
-1.91475
11
1.89924
21
-1.92036
0
LINE
8
BLACK
6
CONTINUOUS
10
1.89924
20
-1.92036
11
1.88993
21
-1.92421
0
LINE
8
BLACK
6
CONTINUOUS
10
1.88993
20
-1.92421
11
1.88004
21
-1.92618
0
LINE
8
BLACK
6
CONTINUOUS
10
1.88004
20
-1.92618
11
1.86996
21
-1.92618
0
LINE
8
BLACK
6
CONTINUOUS
10
1.86996
20
-1.92618
11
1.86007
21
-1.92421
0
LINE
8
BLACK
6
CONTINUOUS
10
1.86007
20
-1.92421
11
1.85076
21
-1.92036
0
LINE
8
BLACK
6
CONTINUOUS
10
1.85076
20
-1.92036
11
1.84237
21
-1.91475
0
LINE
8
BLACK
6
CONTINUOUS
10
1.84237
20
-1.91475
11
1.83525
21
-1.90763
0
LINE
8
BLACK
6
CONTINUOUS
10
1.83525
20
-1.90763
11
1.82964
21
-1.89924
0
LINE
8
BLACK
6
CONTINUOUS
10
1.82964
20
-1.89924
11
1.82579
21
-1.88993
0
LINE
8
BLACK
6
CONTINUOUS
10
1.82579
20
-1.88993
11
1.82382
21
-1.88004
0
LINE
8
BLACK
6
CONTINUOUS
10
1.82382
20
-1.88004
11
1.82382
21
-1.86996
0
LINE
8
BLACK
6
CONTINUOUS
10
1.82382
20
-1.86996
11
1.82579
21
-1.86007
0
LINE
8
BLACK
6
CONTINUOUS
10
1.82579
20
-1.86007
11
1.82964
21
-1.85076
0
LINE
8
BLACK
6
CONTINUOUS
10
1.82964
20
-1.85076
11
1.83525
21
-1.84237
0
LINE
8
BLACK
6
CONTINUOUS
10
1.83525
20
-1.84237
11
1.84237
21
-1.83525
0
LINE
8
BLACK
6
CONTINUOUS
10
1.84237
20
-1.83525
11
1.85076
21
-1.82964
0
LINE
8
BLACK
6
CONTINUOUS
10
1.85076
20
-1.82964
11
1.86007
21
-1.82579
0
LINE
8
BLACK
6
CONTINUOUS
10
1.86007
20
-1.82579
11
1.86996
21
-1.82382
0
LINE
8
BLACK
6
CONTINUOUS
10
1.86996
20
-1.82382
11
1.88004
21
-1.82382
0
LINE
8
BLACK
6
CONTINUOUS
10
1.88004
20
-1.82382
11
1.88993
21
-1.82579
  0
ENDSEC
  0
EOF
